<?xml version="1.0" encoding="UTF-8"?>
<svg xmlns="http://www.w3.org/2000/svg" version="1.1" xmlns:xlink="http://www.w3.org/1999/xlink" viewBox="0 0 714 879">
  <defs>
    <style>
      .cls-1 {
        fill: #c4a672;
      }

      .cls-1, .cls-2, .cls-3, .cls-4, .cls-5 {
        stroke: #fff;
        stroke-miterlimit: 10;
      }

      .cls-2 {
        fill: #076351;
      }

      .cls-3 {
        fill: none;
      }

      .cls-4 {
        fill: #0a0aa0;
      }

      .cls-5 {
        fill: #f4a811;
      }

      .cls-6 {
        fill: #fff;
        stroke-width: 0px;
      }
    </style>
  </defs>
  <g id="Calque_4" data-name="Calque 4">
    <image width="700" height="700" transform="translate(-1498 -238) scale(2.2)" xlink:href="../61212_repartition.png"/>
  </g>
  <g id="Calque_3" data-name="Calque 3">
    <rect class="cls-5" x="-6.5" y="-283.5" width="231" height="165"/>
  </g>
  <g id="Calque_1" data-name="Calque 1">
    <path id="_39" data-name="39" class="cls-5" d="M544.9,463.5l1.4-5.4,5.4-2.9,4.8-11,1.8-6.8,4,3.5,5.8-.7,1.3,3.5,5.8,6-2.8,4.2,1.3,5.4,9.8,2.9,3.3,10,7.1,2.2,3.2,4.3-7.2,6.3-.9,6.5,5,3.8-3.6,11.4-8.1,10.8-3,1.9-7,.3-4.4-6.2-5.7,5.8-13.2-11.3v-2.4c.1,0,5.9-2.5,5.9-2.5l-3.4-3.4.5-4.8,3.8-4.6-6.6-13.9,7-2.7-7.1-3.9-4.1-6.4Z"/>
    <path id="_76" data-name="76" class="cls-2" d="M339.8,219.6l3.7,2.3,13,12.2,3.5,10.3-3.7,2.1-1,10.4,4,10.1-3.3,5-2.8.8-5-3.5-9.2-1.3-3.8,2.1-2.2,6.5-3.8-.5-6.4,3.2-3.9,4.5-3.8-5.1-.4-5.7-6.2-2.7-6.9,1-7.1-6.4-9.6,2.4-11.2-1.8-2.7-4.3,7.8-15.4,6.1-2,13.1-8.1,11.2-1.7,9-3.3,3,.4,9.4-4.2,9.3-7.3Z"/>
    <path id="_89" data-name="89" class="cls-5" d="M419.2,371.4l5.8-8.5v-6.9s11-.6,11-.6l8.5-2,4.4,1.6,6.8,9.1-1.3,4.2,3.6,4.9,4.1-2.2,4.3,9.9,10.3,8.8,7.9-2.5,6.8,2.6-1.4,6.2,2.9.8.8,6.4-2.3,1.9-8.2,21.6-3.1,4,1.9,5.8-7.1.7-.2-3.7-12.4-1.3-4-3.9-14.9-4.9-2.4,2.4-9.7-3.1-2.6-5-7.6.9-1.2-6-5-5.1,8.9-7.2-1-8.3,6.3-5.2-5.3-12.9-4.9-2.4Z"/>
    <path id="_42" data-name="42" class="cls-5" d="M472.4,520.7l-.5,4.9,7.6,3.5,4.2-2.4,11.7,2,3.9-4,2.9,4.1-6.4,3.1-1.3,14.1,5,8.6.7,8.2-1.2,5.3,8.9,7.7,6.8,1.3.9,5.3,5.4,2.4v7.1c0,0-8.6,6.3-8.6,6.3l.5,2.8-6.9,1.5-8.5-6.4v-3.9c0,0-8.7-1.8-8.7-1.8l-9.1,4.8-2.3-3.4-4.3,1.6,3.6-6.3-1.7-11.3-6.3-4.2-6.3-13.2-1.1-10.4,1.2-3.4,6.1-1.9-1.9-9.1-.3-7.8,1.6-3.9,4.3-1.3Z"/>
    <path id="_68" data-name="68" class="cls-5" d="M645.1,353.9l4.1.2,3,4.7,8.1,2.8-.2,3.5,5.9,2.8v6.7c0,0,3,4.4,3,4.4l-3,8-1.1,16.7,4.2,5.1-4.4,4.9.5,3.7-6.4,5.5-7,1-4.6-1.3-2.4-4.6-2.7-7h-3.5c0,.1.2-10.3.2-10.3l-10.5-7.3,5.4-14.3,2-1.8,6.1-18.3,3.2-5.1Z"/>
    <path id="_28" data-name="28" class="cls-2" d="M307.8,329.6l3.1-3.3,8.6-1,6.8-3,8.6.9,1.9-5.7,5.3-3,2.2-5.4,4.2,6.5-.6,5.5,2.6,3.4-2.6,3.6,6.3,9.4,4,2.6.3,5,3.1,3.4,4-.8,3.2,7.8.5,5.9-1.7,9-4.3,6-7.4,2.6-5.9-.4-6.2,6.7-8.1,2.1-8.4-1.4-4.6-5.4-.8-3.7-5.1-.3-.7-3.5-8.2,1.7,1.4-2.5-3.4-4.9,1.8-1.5-3.4-7.5,6.5-3.7,4.6-5.9.2-7.3-6.1-5-1.6-6.9Z"/>
    <path id="_10" data-name="10" class="cls-5" d="M444.5,353.4l-1.2-7.4,8.5-10.8,4.2,6.3,11.5,1.3.5-3.9,4.6-2.5,1.9-4.2,4.8-3.7,11.6-1.2,1.1,7.8,4.7,4.4,6.6,2.3,7.3-.3-.9,4.2,2.9,5.9,6.4,4.7,2.1,11.7-1.9,7.3-4.7-1.1-1.2,7.8-6.7-.5-1.2,4.9-13,.8-.8,2.8-6.8-2.6-7.9,2.5-10.3-8.8-4.3-9.9-4.1,2.2-3.6-4.9,1.3-4.2-6.8-9.1-4.4-1.6Z"/>
    <path id="_55" data-name="55" class="cls-5" d="M524,285.2l3.9-3.1-.2-4.6,3.3-3.1.8-6.9-1.3-6.8,4.1-1.5h7.5c0,0,4.1-4.6,4.1-4.6l4.2,9.4,2,7.2,6.6-2.7,3.1,1.7,4.2,9.7-2.3,2.2,2.2,4.9.3,7.4,3.9,3.5-3,13.3,1,5.1-3,8,2.5,2.4.3,6.5-2.6,4.4,2.9,5.3-7.7,4.8-7.6,1.7-8.9-7.3-15.6-7-1.4-5.9-2.9-8.3-1.5-8.6,6.5-6.2-2.5-10.3-3.2-6.3.5-4.1Z"/>
    <path id="_61" data-name="61" class="cls-2" d="M221.2,319.8l3.5-2.6,16.4-5.8,6.3,4,4.1-2.4,10.7,1.3,6.5-4.4,1.4-2.9,10.3-1.8,7,1.4,1.9,5.7,7.6-.2.4,4.2,6.3,3.9,4.2,9.3,1.6,6.9,6.1,5-.2,7.3-4.6,5.9-6.5,3.7,3.4,7.5-1.8,1.5-3.9-.4-2-4.6-6.5.5-9.2-7.3-.7-9.4-7.6-2-10.6,7-4-.3.3-5.7-5.1-.6.5-5.5-3.2-3-3.5,4.4-5.4.7-7.2-1.3-7.7,4.8-5.7.4-5.1-5.4,6-7.5-4.1-12.3Z"/>
    <path id="_67" data-name="67" class="cls-5" d="M665.5,367.8l-5.9-2.8.2-3.5-8.1-2.8-3-4.7-4.1-.2-6.5-2.9,1.7-13-2.4-1.7,4.7.5,4.4-5.1-.8-7.4,2.9-6.6-6.4-5.8-3.4,3.3-8.9-7.8,3.3-4.2.8-5.8,12.8,3.7,1.9,2.3,6-2,5.7,2,3.9-9.7,12.2.9,3.2-2.2,14.4,7-5.3,13.1-5.4,3.4-.4,3-5.9,6.5-2,4.9-5.3,29.1-4.3,8.5Z"/>
    <path id="_40" data-name="40" class="cls-2" d="M181.3,657.8l8.4-2.3,7.1,1.9-1.7,3.6,9.3,1.9,4.2-1.5h8c0,.1-.4,3.6-.4,3.6l13.7,9.6-.6,6.1,6.7,1.5,7.6-2.3.4,5.9,7.1.5,7.6,2.5-3.5,10.9-.3,5.1-11.3-2.4-4.2,4.8-1,12-4.8,6.6,2,4.7-5.5,2.5-6.4-3.9-6.4,3.9-6.4-2.2-13.7.7-5.1,3.4-8.9-1-1-2.7-7.2,3.2-7.5-.3-5.8-2.9,4.9-9.1.7-4.8,9.4-35.4,4.5-24.2Z"/>
    <path id="_47" data-name="47" class="cls-2" d="M313.9,654.3l-3.1,2.5-.3,7.9,2.3,5.3-10.9,4.1,4.3,3.9-2.8,6.2-3,1.6-6.6,8.5-3.2,1.4-6-2.6-16.1,6.3-5-2.7-8,2.9,3.5-10.9-7.6-2.5-7.1-.5-.4-5.9,4.3-1.4,2-3.9-2.3-4.6,5.4-.8-1.3-11.1,8.8-7.8,2.8-4.1-1.2-5.6,7.9-2.2,2.7,3.3v4.7c0,0,3.8,1.5,3.8,1.5l8.8-2.1,8.9.2,3.9-1.9,4,8.2,6.2-3.3,5.3,5.4Z"/>
    <path id="_14" data-name="14" class="cls-2" d="M282.7,268.5l.5,8.5,3.5,4.6.9,10.9-1.6,4.5,2.4,3.2-1,6.5-7-1.4-10.3,1.8-1.4,2.9-6.5,4.4-10.7-1.3-4.1,2.4-6.3-4-16.4,5.8-3.5,2.6-5.6-3.2-5.8.8-5-4.4,11.9-10.6,4.2-7.7-.6-4.9-4.3-5.3-8.1-6.6v-3.1c0,0,3.9-6.3,3.9-6.3l7.6.2,4.4,2.8,23.4,3.4,7.9,3.8,7.3-.5,10.6-7.4,9.7-2.5Z"/>
    <path id="_93" data-name="93" class="cls-2" d="M399.3,304.2l2.1,5-1.6,4.6,1.5,6.6-4.5-4-4.7.6-5-4.1-1.5-4,3.9-1.8,4.7,1.5,5.1-4.3Z"/>
    <path id="_62" data-name="62" class="cls-2" d="M376.9,145.7l2.3,3.1,5.8,14.1,11.7,12.5,7.2,1.2,9.2-4,.7,11.4,3.3-.3,6.6,3.6.9,4.9-2.2,2.8,7.9,9.9-.6,9.5-2.3,7.1-10.8,1.9-1.8-3.5-5.7-4.1-2.1,2.6-8.9-3.9-7.2,2.5,4-9.3-18.3,1.5-1.9-3.9-5.6-2.7-7.2-5.8-8,.8-4.5-3.9,1.5-10.8-.8-13.3,2.4-7.6-1.3-4.6,7.6-6.5,9.1-3.4,9.2-1.6Z"/>
    <path id="_15" data-name="15" class="cls-2" d="M395.2,584.1l10,3.3,1.4,4.5,5.3-1.4,6.2,2.7,4.3,5.7,5.9-4.8.4,5.5,6.2.7,3.7,12.3.7,7.1,3.4,4.7-9.8,8.7-2.5-3.3-5.4,8.2-3.6,12.2-7.4-18-6.8-5.2-5.6,5-3.9,7.5-.8,4.9-3.7,5.2-14.1-.5-1.5,3.1-3-6.7.9-8.8-4.7-6-1.1-7.2,4.4-2.4-2.5-3.9,4.5-2,1.2-11,6.9-8,3-7.4,4.2,2.6,3.6-7.5Z"/>
    <path id="_45" data-name="45" class="cls-5" d="M419.2,371.6l4.9,2.4,5.3,12.9-6.3,5.2,1,8.3-8.9,7.2,5,5.1,1.2,6-5.5,3.9-3.6,2.1-8.1.5-3.4-5.6-11.8-2.3-7.2-2.8-1.7-4.4h-18s-6.5,1.3-6.5,1.3l-1.8-5.3-9.8-8.1,3.5-4.4-3.4-4.1-.2-4.2,6.2-6.7,5.9.4,7.4-2.6,4.3-6,1.7-9,9.9-1.9,11.8-.6,6.3,10v5.3c-.1,0,12.3-1.4,12.3-1.4l4.3.9,5.3-2.3Z"/>
    <path id="_63" data-name="63" class="cls-5" d="M398.7,531.5l4.9,1.5,1.1-3.8,7.9-2.4,2.2-4.2,4.4,1.1-1.4,5.2,6.1,6,6,2.6,12.8,1.3,5.3-.8,2.3,3.8,5.1-.8,5.7,7.3,1.1,10.4,6.3,13.2,6.3,4.2,1.7,11.3-3.6,6.3-13.1-.2-9.2-5.2-2.7,1.9-5.2-1.5-10.4,5.6h-3.6c0-.1-5.9,4.7-5.9,4.7l-4.3-5.7-6.2-2.7-5.3,1.4-1.4-4.5-10-3.3.7-3.4-3-5.7,2.9-3.6-1.3-7.8-5.6-6.9,8.6-6.6,3.3-10-2.5-2.8.5-5.9Z"/>
    <path id="_35" data-name="35" class="cls-2" d="M159.2,331.1l-5.9-3.5,3.7-2.6,2.2,6.1ZM162.2,333.4l-3.8-8.7,5.3-3.4,4.5,6.7,3.8,1.1,10.3-1.2,3.7,10.5,5.5,3.4,6.1-5.8,10.5,2.6-.9,5.3,1.4,9.1-3.3,5,3.1,21.5-7.5,2.5-1.9,7.1-2.9,4.4-.6,2.6-11.6-3.3-8.7,3.4-1.8,3.7-16.9.8-7.1,4.2-1.1-4.1,3.4-10.1-2.1-5.5,2.2-2.9-3.2-5.4-7-3.8,2.5-3.8-2.4-4.8,3.3-2.3,2.6-6.4,12.5-3.9,2.2-11.5-.5-7Z"/>
    <path id="_02" data-name="02" class="cls-5" d="M431.7,224.2l9.1-1.8,13.5.7,5.1-3.6,18.9,7.7,3-.8,4.7,1.6,1.2,4.3-2.3,9.7,1.1,2.7-5.2,5.5-3.9,10.6v11.1c.1,0-6.3,0-6.3,0l-14.5,7.7,1.9,8.4-2.9,4.4,1.5,8.6-3.8,9.5-4.7,5.7-8.1-4.5-1.4-3.2-7.1-5.4-.2-6.6-4.9-1.4,1.6-6.3-3.4-1.9-3.8-7.9,5.7-2.1,2.6-10.5.7-7.5-2.3-3.8,1.3-6.6-3.3-10,3.3-4.1,2.7-10.1Z"/>
    <path id="_71" data-name="71" class="cls-5" d="M544.9,463.5l4.1,6.4,7.1,3.9-7,2.7,6.6,13.9-3.8,4.6-.5,4.8,3.4,3.4-5.8,2.5-7.6-5-6.4,2.4-6.7-2.3-7.9,26.9-3.3-1.3-.7-6.7-11.3,1.1-5.2-2.1-1.2,6-3.9,4-11.7-2-4.2,2.4-7.6-3.5.5-4.9,4.6-3.4,1.1-9.9-2.6-3.7h-5.3c0-.1-6.5-3.7-6.5-3.7l-.7-5.2-5.6-11.4,5.8-.3,3.2,3.6,14.5-6.7,2-5.6-3.6-4.9-.3-6.1,4.5-10,3.5-2.2,1.5-.4,3.9,3.7,6.4,1.9,12,10.9,6.1,1.6,17.3-5.3,3.1,1.8,8-2Z"/>
    <path id="_58" data-name="58" class="cls-5" d="M415.9,422.4l5.5-3.9,7.6-.9,2.6,5,9.7,3.1,2.4-2.4,14.9,4.9,4,3.9,12.4,1.3.2,3.7,7.1-.7,1.2,6.4,5.2,3-.6,5.1-1.5.4-3.5,2.2-4.5,10,.3,6.1,3.6,4.9-2,5.6-14.5,6.7-3.2-3.6-5.8.3-8.2,7.6-3.2-4.5-11.7,2.6-8.5-6.3-.9-2.9,2-4.6-1-4.2,1.4-9-2.7-3.2v-5.4c.1,0-2.3-10.5-2.3-10.5l-6.1-6.3,3.3-8.1-3-6.2Z"/>
    <path id="_09" data-name="09" class="cls-2" d="M346.1,758.4l1.3,7,13.6,5.3,1.9,12.3v7.6s-6.5,1.4-6.5,1.4l2.1,7.5,5.5,2,2.9-1.7,5.9,4.4.4,3-8,.8-14.3,6.1-4.2-3.3-13.7-3.2-2.5,3.8-3.4-7.3-8.6-2.8-3.7,1.4-3.3-5.1-10.2-1.7-4.3-3-1.7-7.1,9-4.5.6-7.1,4.6-5.9,4.3-.7,4.1,2.5,1.3-5.4,9-3.2-5.1-4.5,3.8-2.1,6.1,8.3,4.7-5.3,8.2.5Z"/>
    <path id="_85" data-name="85" class="cls-1" d="M197.5,455.7l8,1.1,5.6,3.8,3,7.3,6.4,5.4-1.1,4.4,3.6,5.3,2,6.2-.5,16.6,3.8,2.4-6.7,5.3-5.2.6-4.8-3.1-5.2,2.1-4.2-3.8-5.2,3-5.4-.2-1.7,2.7-6.7-6h-5.9c0,.1-2.4-5-2.4-5l-4-.6-11.9-7.5-1.9-9.4-4.4-7.2-10-10.4-.4-5.3,10.5-10.6,4.2,5.9,7.2,2.7,3.4,3.3,7,2.7,3.1-2.3-2.3-9.7,4-1.8,1,9.1,4.6-1.8v-6.3s6.6-3.2,6.6-3.2l5.9,4Z"/>
    <path id="_78" data-name="78" class="cls-2" d="M380.8,312.1l-2.6,7.3,3.9,3.3-5.6,2.6-4.9,6.7-.7,7.9-4.4.7-.7,7.2-4,.8-3.1-3.4-.3-5-4-2.6-6.3-9.4,2.6-3.6-2.6-3.4.6-5.5-4.2-6.5-2.7-8.4,8.5-2.3,5.9,2.7,5.5-2.4,5.6,4.4,7.7.7,6.3,5.2-.3,3.3Z"/>
    <path id="_64" data-name="64" class="cls-5" d="M235.7,730.5l8.4.5,2.8,4.6-1.7,7.3,4.5,1-3.6,9.5,1.6,2.4-11.1,13.1-5.9,8.4-2.2,6.9.5,4.4-4.7,3.7-12.2-3-7.3-5.5-.9-5.7-11.3.6-4.2-3.4-13.1-4.6-5.5-4.1-.7,4.9-6.6-4.5,3.5-3.5,2.4-9.9-8.5-3.7-4.6,3.1-3.2-5.2-3.7,1.3-2.3-6.3,6.4-.8,4.1-3.3,5-7.4,5.8,2.9,7.5.3,7.2-3.2,1,2.7,8.9,1,5.1-3.4,13.7-.7,6.4,2.2,6.4-3.9,6.4,3.9,5.5-2.5Z"/>
    <path id="_24" data-name="24" class="cls-2" d="M252.4,610.7l2.8-7,2.9-2.7,4.2,1.7,8.1-7.4.4-9.2,13.5-10.1-.2-5,7.4-7.6,8.1,3.9-1.4,4,3.2,3.3,7.2-2.6,4.6.2,1.2,4.2,6.6,2.7-.4,3.7,5,2.8,3.9,5.2-4.8,6.1-.6,6.3,3.6,6.8,4.7.2.7,5.9,2.7,3.4-2,1.6,1.4,9.6-9,12.8-8.1,3.3-4.2,7.3-5.3-5.4-6.2,3.3-4-8.2-3.9,1.9-8.9-.2-8.8,2.1-3.9-1.5v-4.7c0,0-2.6-3.3-2.6-3.3l.9-7-3-1.4-4.7,3.1h-7.3c0-.1-2.9-3.5-2.9-3.5l.9-6.4,4.3-9.6-1.5-3.6-4.8.8Z"/>
    <path id="_69" data-name="69" class="cls-5" d="M498.9,524.8l1.2-6,5.2,2.1,11.3-1.1.7,6.7,3.3,1.3-1.7,7.3,2.1,11.8,7.2,4.8.7,5.3,10.1-.8-.2,5.9,2.1,2.4-5.5,7.3-7.1,1-3.5,4.9.4,3.5-4.6,3.7-5.4-2.4-.9-5.3-6.8-1.3-8.9-7.7,1.2-5.3-.7-8.2-5-8.6,1.3-14.1,6.4-3.1-2.9-4.1Z"/>
    <path id="_92" data-name="92" class="cls-2" d="M385.5,308.8l1.5,4-5,3.7,5.6,2.9-.6,5.4-4.9-2.2-3.9-3.3,2.6-7.3,4.8-3.3Z"/>
    <path id="_37" data-name="37" class="cls-5" d="M274.1,413.1l7.9,3.4,4.4-5.4,8.6-4.1h6.6s9.5,5.3,9.5,5.3l6,2.1.5,6.1,2.6,5,1.3,9.2-.9,4.3,6.2.5,5.4,8.7-.6,6.5-3.6,6.5-4-1.7-5.2,1.5-6,20.2-6.3,1.1-3-6.3-5.5-6.2-.6-5.8-10.3,1.1-3.5,2.1-6.9-.9-.4-9.2-12.9-9.2,1.7-9.4,3.4-4.1,5.3-14.9.4-6.5Z"/>
    <path id="_48" data-name="48" class="cls-5" d="M442.9,624.3l6.7,12.8,5.4-2,9.6-.2,6.7,7.3,1.9,10.3,3.1,3.2,2.9,8.9-5.2,6.7,2.6,10.4-4.1,9.1-13.1-3.9-.7,4.7-10.4-.4-4.4-3.5-10.5-5.9-4-9.3.8-7.5-3.8-3.5.9-4.6-5.8-6.7,3.6-12.2,5.4-8.2,2.5,3.3,9.8-8.7Z"/>
    <path id="_88" data-name="88" class="cls-5" d="M553,348.5l7.6-1.7,7.7-4.8h7.1s-1,7.2-1,7.2l6.9,2.9,6,.5,7.4-4.5,12.6-1.2,6-4.9,1.7,3,6.4,2.4,6.1-1.7,4.8-5.1,7.4-3.2-1.7,13,6.5,2.9-3.2,5.1-6.1,18.3-2,1.8-5.4,14.3-1.2.8-2.3-2.9-7.6-3.9-2.3-3.1-6.5,5-6.5-5.7-6.5,2.5-4.2-1.9-1.8-5.1-10.1,3.9-2.8,4.3-6.7-8.4-5.8-3.9.9-7.4-2.2-4.9-7.9-8.7-1.6-5.1Z"/>
    <path id="_04" data-name="04" class="cls-5" d="M575.6,683.6l6.7-2,8.5-14.6,9-6.8,6.6,7.1,5.3-6.6,1.7-4.8,8.3,5.5,7.6-.2,2.6-6.8,4.5-4.7,10-5.8-.6,6.5-4.2,3.5,2.5,8.8v4.7c0,0-4.4,2.7-4.4,2.7l-4.5,6.6-1.8,6.7,4.2,6.7-.4,3,6.1,6.6-3.5,5.8-4.5,2.4-3.5,5.5-6.5-1.1-5.8,1.6-2.1,4.5-9.9-4.7-4,5-6,3.7-5.5-2.4-10.5.2-6.2-7.4-4.6-.3.2-6.7-4.3-3.2,1.9-5.5-2.8-7.1,4.2-5.8,5.7-.5Z"/>
    <path id="_08" data-name="08" class="cls-5" d="M485.9,228.6l3.9-1,7,2.5,12.2-5.9.7-7,6.2-5.3,2.6.4-3.7,15.7,4.9,3.8-1.5,9.3,12.3,1.9,3.8,5.5,5.4-.4,6.7,6.1-4.1,4.7h-7.5c0,0-4.1,1.5-4.1,1.5l1.3,6.8-.8,6.9-3.3,3.1.2,4.6-3.9,3.1-13.8-1.3-3.4,1.6-2.4-4.6-6.6,2-7.3-4.2-7-5.9-6.6-.2v-11.1c-.1,0,3.8-10.6,3.8-10.6l5.2-5.5-1.1-2.7,2.3-9.7-1.2-4.3Z"/>
    <path id="_81" data-name="81" class="cls-5" d="M365,689.2l6.7-3.5,9.7,4,10.4,7.5,2.2,8.4,3.3,2.1.4,6.1,6.8,7.8,7.6-1.4,5.1,1.6,1.9,3.8-.9,2.6-8.9,3.7-6.5-2.6-2.1,6.5,3,7.7-5.9,3.7-7.9-1.1-1.8,1.5-7.8-3.5-2.4,2.6-8.6,2.4-2.5-3.3-.6-2.6-7.8-3.9-2.5-4.8-7.6-3.2,1.6-3.1-4.5-11-3.4-1.6-1.8-8.3,8.7-9.8-2.5-5.8,6,.8,5.7-2.8,7.3-.3Z"/>
    <path id="_75" data-name="75" class="cls-2" d="M387.6,319.4l-5.6-2.9,5-3.7,5,4.1-4.4,2.5Z"/>
    <path id="_82" data-name="82" class="cls-5" d="M312.6,670l3.2,5.1,13.3,8.8,12.1-7.1,4.6,1.2,5-3.1,8.2-.9,1,11.7,4.9,3.5-7.3.3-5.7,2.8-6-.8,2.5,5.8-8.7,9.8-8,3.6-3.4,4.2-8,3.4-3.6-3.8-11.7,2.3-3.4-9.3-7.4-3.4,4-4.1-.3-4.8-4.4-.8,6.6-8.5,3-1.6,2.8-6.2-4.3-3.9,10.9-4.1Z"/>
    <path id="_17" data-name="17" class="cls-2" d="M196.9,512l5.2-3,4.3,3.8,5.2-2.1,4.8,3.1-.3,4.7,3.4,2.4,3.1,6.1,14.5,6h4.6c0,0,9.5,9,9.5,9l-2.6,3.5-.9,10.1-3.8,1.5-10-1.2-1.8,12.3,6,4.4,3.1,4.7-.3,13.1,5.1,4.4,2.2,4.7h3.8c0,0,2.8,4.8,2.8,4.8l-2.8,7-6.4.9-14.8-10.2-1-6.2-7.1-3.8h-10.2c0,.1-4.8-9.6-4.8-9.6l-9.6-11.2,1.8-1.8-13.1-9.5v-5.7s6.2-1.5,6.2-1.5l3.4-7.5,2-9-2.3-6.6-6.9-6.1,7.6-11.5Z"/>
    <path id="_83" data-name="83" class="cls-5" d="M581.1,720.6l.2-.4,10.5-.2,5.5,2.4,6-3.7,4-5,9.9,4.7,2.1-4.5,5.8-1.6,6.5,1.1,1.6,3.2,5.4.4.7,5.8,2.6,3,6.1,1.9-1.4,5.3,3.4,4-4,5.3-7.1.9-1.1,5.1-6.8,5.3,4.4,3.1-2.2,6.2-3.6-1.8-3.8,3.2-16.9,3.5-4.2,3.2h-4.4c0,0-6.9-2.8-6.9-2.8l-4.3,5.8-3-5.2-8.2-4.9.6-4.5,4-3.9-4.5-2.8v-6.2c0,0,3.8-2.9,3.8-2.9l-3.1-4,1.3-5.1-2.7-4.8,6.6-4.2-2.7-5Z"/>
    <path id="_87" data-name="87" class="cls-5" d="M302.7,531.2l1.6-7.9,3-4.3h4.9c0,0,3.4-5.6,3.4-5.6l7-1.9,13,3.2-2.6,10.2,4.3,3.1,4.8,8.4-1.5,9.8,6.1,1.7,1.6,7.7,5.3-1.6,6.9,4.7.9,7.9-10.6,4.3-8.6,7.2-5.8-.4-5.8,6.7-5.4,1.7-5-2.8.4-3.7-6.6-2.7-1.2-4.2-4.6-.2-7.2,2.6-3.2-3.3,1.4-4-8.1-3.9,5.2-7.1,3,1.5,3.1-7.5,6.5-5.8-.9-4.3-5.8-3.1.5-6.4Z"/>
    <path id="_19" data-name="19" class="cls-2" d="M361.5,566.3l8.3-5.1,15.2,7.3,6.3-1.9,3.2-3,1.3,7.8-2.9,3.6,3,5.7-.7,3.4-3.6,7.5-4.2-2.6-3,7.4-6.9,8-1.2,11-4.5,2,2.5,3.9-4.4,2.4-8.7-.2-4.8,4-4-.8-5.8-7.3-6.7-1.5-4.5,2-2.7-3.4-.7-5.9-4.7-.2-3.6-6.8.6-6.3,4.8-6.1-3.9-5.2,5.4-1.7,5.8-6.7,5.8.4,8.6-7.2,10.6-4.3Z"/>
    <path id="_60" data-name="60" class="cls-2" d="M360,244.4l5.6,4.8,7.2-.9,1.6,2.2,9.4-1.4,6.3,3.7,3.8.3,11.3,6.1,1.3-3.6,10.4-6,11.7-.6-1.3,6.6,2.3,3.8-.7,7.5-2.6,10.5-5.7,2.1,3.8,7.9,3.4,1.9-1.6,6.3-1.1,2.5-15.4,2-6.2-3.3-2.4,1.7-14.4-8.5-4.9.5-7.7-2-9.3,2.9-7.3-.8-2.6-4.6,3.4-6.6-2.6-7.5,3.3-5-4-10.1,1-10.4,3.7-2.1Z"/>
    <path id="_05" data-name="05" class="cls-5" d="M605.8,608.5l4.4.3,3.5,4.6,9.9-5.4,3,1,2.8,7h3.9c0,0,.7,7.5.7,7.5l6.7,5.3,8.1.4,1.7,8.6-4.3,6.2-10,5.8-4.5,4.7-2.6,6.8-7.6.2-8.3-5.5-1.7,4.8-5.3,6.6-6.6-7.1-9,6.8-8.5,14.6-6.7,2-.2-6.7-3.4-4.4-7.1-.2-4.4-6.8,3.3-5.4,7.1,1.8-.6-6.2,2.8-9,5,1,3.4-5.4,6.5-3.8,1.6-4.3,10.2-5.2,12.5.4v-7s-3.2-4.9-3.2-4.9l-5.7-.4,2.8-9.2Z"/>
    <path id="_07" data-name="07" class="cls-5" d="M506.1,602.8l6.9-1.5-.5-2.8,8.7-6.3,2.6,5.3.6,14,3.1,4.7-1,4.4,2.9,5.5-3.4,9.4-3.4,3.7,1.3,9.2-4.7,7.6.2,9.3-2.2,9v4.7s-8.4-5.3-8.4-5.3l-10.1.3-3.9,5.9-4.8-4.2-4.6-1.2-1.5-5.6-4-4.3-2.9-8.9-3.1-3.2-1.9-10.3,7.6-6.1,2.3-4.3h6.6c0,0,7.4-10,7.4-10l4.9-3.2-.2-6.9,5.2-4.6.5-4.5Z"/>
    <path id="_27" data-name="27" class="cls-2" d="M282.7,268.5l2.2-1.2,9.6-2.4,7.1,6.4,6.9-1,6.2,2.7.4,5.7,3.8,5.1,3.9-4.5,6.4-3.2,3.8.5,2.2-6.5,3.8-2.1,9.2,1.3,5,3.5,2.8-.8,2.6,7.5-3.4,6.6-5.2,12.2-8.5,2.3,2.7,8.4-2.2,5.4-5.3,3-1.9,5.7-8.6-.9-6.8,3-8.6,1-3.1,3.3-4.2-9.3-6.3-3.9-.4-4.2-7.6.2-1.9-5.7,1-6.5-2.4-3.2,1.6-4.5-.9-10.9-3.5-4.6-.5-8.5Z"/>
    <path id="_22" data-name="22" class="cls-2" d="M153.6,327.7l5.9,3.5,3.1,2.2.5,7-2.2,11.5-12.5,3.9-2.6,6.4-3.3,2.3-7.1-3.7-4.9,2.9-2.1,4.4-4.4,3-.9-6.3-5.3-.6-7.1-4.4-6.2-.9-5.4-3.2-1.5,3.2-7.7,1.2-3-2.6-11.6-2.1,2.7-5.5-.9-9.7-2.3-1.3.6-8.2,3.1-2.6-4.8-6.7-.2-3.6,6.3-6.8,2.6-6.1,5.7,2.7,9.7-4.5,10.7,5.8,2.7,6.4,5.9,6.2v4.7s7.2,7,7.2,7l6.9-5.8,12-5.3,2.2.4,4.1,6.9,4.2-1.3Z"/>
    <path id="_66" data-name="66" class="cls-2" d="M373.3,807.3l11.1-4.9-1-9,9.7-.8,13.8,1.3,3-4.8,4.5-1.8,10.4,6.4-.6,14.1,1,9,4.2,2,3.1,6.9-5.2.8-8.3-4.3-4.4,1-5.9,4.4-5.7.5v5s-11.4,0-11.4,0l-3.9-4-9.2-3.8-6.4,1.4-7.9,5.8-3.3-6.2-9-5.4-4.3-.2,3.4-6.4,14.3-6.1,8-.8Z"/>
    <path id="_2A" data-name="2A" class="cls-2" d="M651.9,791.7l15.3,3.9,3.5,3.6,9.9,4.2,8,13.9,3.5-.5,1.4,13.6,5.5,1.4,4.8-2.6,1,13.1-1.4,8.5-3.9,4.2-1.2,9.1-2.3,4.4-7.9-1.5-3.5-5.1-6.9-1.1-7.3-4.8-1.3-5.9,6.7-5.2-12.5-1.5.4-6.1,2.8-1.2,1.5-6.6-1.6-2.6-8,1.8.3-7.9,5.1-3.3-3.1-5-7.1-2.7-1.1-6.8,6.7-2.5-7.5-8.8Z"/>
    <path id="_94" data-name="94" class="cls-2" d="M387.6,319.4l4.4-2.5,4.7-.6,4.5,4-1.1,9.1-13.1-4.6.6-5.4Z"/>
    <path id="_30" data-name="30" class="cls-5" d="M443.9,687.8l4.4,3.5,10.4.4.7-4.7,13.1,3.9,4.1-9.1-2.6-10.4,5.2-6.7,4,4.3,1.5,5.6,4.6,1.2,4.8,4.2,3.9-5.9,10.1-.3,8.4,5.3,4.3,6.5-.7,6.7,7.9,7.3-5.8,6.8-5.4,7.6.6,3.8-2.7,7.7-6.7-.9-4.4,11.1-9.5,4.9-.5,3.1-4.8-1.3-2.8-6.1,5.3-8-3.1-6.5-8.2-5.8-4.8-5.4-8.7-6.9-8.3,4.2-3.6,4.9-3.1-3.2-8.5-1.3-.4-2,5.6-6.8-8.9-3.4,2.3-7.2,2.2-1Z"/>
    <path id="_77" data-name="77" class="cls-5" d="M400.1,329.4l1.1-9.1-1.5-6.6,1.6-4.6-2.1-5,2-5.5,2.4-1.7,6.2,3.3,15.4-2,1.1-2.5,4.9,1.4.2,6.6,7.1,5.4,1.4,3.2,8.1,4.5-4.6,7.4,3.9,1.7-.4,6.7,5,2.6-8.5,10.8,1.2,7.4-8.5,2-11,.6v6.9s-5.8,8.5-5.8,8.5l-5.3,2.3-4.3-.9-12.4,1.4v-5.3c.1,0-6.2-10-6.2-10l3.8-5.5,2.2-9.1-.8-3,3.9-11.8Z"/>
    <path id="_11" data-name="11" class="cls-2" d="M346.1,758.4l6.8-6.6,4.2-6.1,6.5,2.3,2.4-2.3,2.5,3.3,8.6-2.4,2.4-2.6,7.8,3.5,1.8-1.5,7.9,1.1-1.3,6,4.3,4.8,8.9,2.4,6.6-5.7,13,6.1,4.4.2,3,3-7.1,8.7-4.5,12.3.2,8.8-10.4-6.4-4.5,1.8-3,4.8-13.8-1.3-9.7.8,1,9-11.1,4.9-.4-3-5.9-4.4-2.9,1.7-5.5-2-2.1-7.5,6.5-1.4v-7.6s-1.9-12.3-1.9-12.3l-13.6-5.3-1.3-7Z"/>
    <path id="_73" data-name="73" class="cls-5" d="M633.9,555.1l2.8,7,8.2,4.6,1.1,9.7,10.8,7.3-3.5,6.5,1.5,5.7-9.5,4.4-6.2,6.8-4.7-2.4-7.7,4.4-3.1-1-10,5.4-3.5-4.6-4.4-.3-7.2-6.7-.6-5.9,3-2.6-.7-5.9-3.3-3.5-6.4-.9-5.9,3h-4.6c0,0-4.8-3.9-4.8-3.9l-6.7-11.1,3.3-2.3,1.9-5.4,3.4-3v-6.6c0,0,2-9,2-9l3.2,8.8,9.3,6.7,5.2-2,3,4.9h7.9c0,0,9.4-17.6,9.4-17.6l5.1,8.9,3.8-.5,3.1,6,4.8-4.7Z"/>
    <path id="_06" data-name="06" class="cls-2" d="M643.6,667.3l2,.7,5.4,9,8.9,1.7,11.5,6.7,14.8-3.5,5.6,4.5-.3,3.6-7.3,11.7-3.6,2.6,2.2,6.8-20.9,11.6-2.6,6.7-8.7,3.4-.8,4.2-3.4-4,1.4-5.3-6.1-1.9-2.6-3-.7-5.8-5.4-.4-1.6-3.2,3.5-5.5,4.5-2.4,3.5-5.8-6.1-6.6.4-3-4.2-6.7,1.8-6.7,4.5-6.6,4.4-2.7Z"/>
    <path id="_65" data-name="65" class="cls-2" d="M244.1,731l4.8-1.6,3.6,6.9,3.5.3,3.6,11.7,5.6-1,3,3.5,12.7,1.5,3.2,1.6-3,7.8-7.1,6.1,6.6,5.3,4.8,8.4-5.5,8-4.4-1.6-1.7,11.8,1.3,2.3-6.8-2.1-3.9,3.9-6.6-5.3-7.8,2.9-6.4-.2-5.1-7-9-5.8-.5-4.4,2.2-6.9,5.9-8.4,11.1-13.1-1.6-2.4,3.6-9.5-4.5-1,1.7-7.3-2.8-4.6Z"/>
    <path id="_74" data-name="74" class="cls-5" d="M633,555.1l-4.8,4.6-3.1-5.9-3.8.5-5-8.8-9.3,17.5h-7.8c0,0-3-5-3-5l-5.2,2-9.2-6.6-3.2-8.7-1.3-11.2,4.3-.8,3.4-3.6,9.9-1.1,8.4-7-3.3-4.3,2.4-6,5.7,1,8.5-4.7,9.5-1.5,3.7,1v4.8s4.5,3.7,4.5,3.7l-3,6.5v5.1c-.1,0,5.5,1.3,5.5,1.3l1.7,4.2,5,5.1,2.1,5.8-2.4,4.2-9.7,3.4-.7,4.6Z"/>
    <path id="_33" data-name="33" class="cls-2" d="M198.7,571.2l9.5,11.2,4.7,9.6h10.2c0-.1,7,3.7,7,3.7l.9,6.1,14.7,10.1,6.3-.9,4.8-.8,1.5,3.6-4.3,9.6-.9,6.4,2.9,3.4h7.3c0,.1,4.7-2.9,4.7-2.9l3,1.4-.9,7-7.9,2.2,1.2,5.6-2.8,4.1-8.8,7.8,1.3,11.1-5.4.8,2.3,4.6-2,3.9-4.3,1.4-7.6,2.3-6.7-1.5.6-6.1-13.7-9.6.4-3.4h-8c0-.1-4.2,1.3-4.2,1.3l-9.3-1.9,1.7-3.6-7.1-1.9-8.4,2.3v-5.3c.1,0,4.1-9.7,4.1-9.7l6.2,1.8,1.9-5.2-5.7-5.5-5.5,4.5,3.8-20.9,3.8-25.8,1-13,3.8-7.3,3.8-.6Z"/>
    <path id="_03" data-name="03" class="cls-5" d="M424.3,479.9l.9,2.9,8.5,6.3,11.7-2.6,3.2,4.5,8.2-7.6,5.6,11.4.7,5.2,6.5,3.6h5.3c0,.1,2.6,3.8,2.6,3.8l-1.1,9.9-4.6,3.4-4.3,1.3-1.6,3.9.3,7.8,1.9,9.1-6.1,1.9-1.2,3.4-5.7-7.3-5.1.8-2.3-3.8-5.3.8-12.8-1.3-6-2.6-6.1-6,1.4-5.2-4.4-1.1-2.2,4.2-7.9,2.4-1.1,3.8-4.9-1.5-4.9-10.9-4.6-3.9-3.1.5-2.9-7.7,4.8-7.7,13.2-2.4-1.7-4.6,1.6-4.9,5.1-4,6.9-1.1,7.3-5.4,3.9.7Z"/>
    <path id="_86" data-name="86" class="cls-5" d="M254.4,454.8l8.8-7.5,13,9.2.4,9.3,6.9.9,3.5-2.1,10.4-1.1.6,5.8,5.5,6.2,3,6.3,3.2,4.3-.9,7.9,12.5,7.6,1.5,9.7-7,1.9-3.5,5.7h-4.9c0,0-3.1,4.3-3.1,4.3l-1.6,8-4.2-.9-3.4,3.2-5.2,1.1-6.6-4.1-.3,5.5h-9.5c0-.1-5.5-3.2-5.5-3.2l-4.3-9.5,3.8-9.1-5.5,1.6-4.5-6.9-.9-10.1,3.2-7.5-4.4-1.1,3.8-7.4-2.4-8.5,2.2-6.7-4.1-7-.5-5.7Z"/>
    <path id="_25" data-name="25" class="cls-5" d="M626.8,414.1l5.1.8,2.5,9.1-.6,6.2,6.7-.8-4.6,9.6-5.4,7.2-5.4,3.9-5.7,9.2-10.6,6,1.9,3-1,10.2-8.3,6-9,9.4,1.6,1.4-5-3.8.9-6.5,7.2-6.3-3.2-4.3-7.1-2.2-3.3-10-9.8-2.9-1.3-5.4,2.8-4.2-5.8-6-1.3-3.5,7.8-3.2,4.5-3.5,7.4-.7,10.2-6.8,3.6-6.2,4.1-1.5,8.8,1.7,4.9-5.2,7.3-.7Z"/>
    <path id="_23" data-name="23" class="cls-5" d="M377,509l6.2.3,2.9,7.7,3.1-.5,4.6,3.9,4.9,10.9-.5,5.9,2.5,2.8-3.3,10-8.6,6.6,5.6,6.9-3.2,3-6.3,1.9-15.2-7.3-8.3,5.1-.9-7.9-6.9-4.7-5.3,1.6-1.6-7.7-6.1-1.7,1.5-9.8-4.8-8.4-4.3-3.1,2.6-10.2,5.3-5.7,11.8,2.6,5.1-3.1,19.1.7Z"/>
    <path id="_36" data-name="36" class="cls-5" d="M332.2,447.9l7.2-4.1,9.8-2.6,10.8,4.5-3.4,7,5.7,2.3,4.6-1.8,4.4,1.5,2.3,7.2-1.3,6.5,3.7,3.6-4.8,4.8,3.5,3.8-2.8,3,6.6,8-1.8,6.7,2.4,5.8-2,4.8-19.1-.7-5.1,3.1-11.8-2.6-5.3,5.7-13-3.2-1.5-9.7-12.4-7.5.8-7.9-3.2-4.2,6.3-1.1,6-20.2,5.2-1.5,4,1.7,3.6-6.5.6-6.5Z"/>
    <path id="_51" data-name="51" class="cls-5" d="M476.9,272.1l6.6.2,7,5.9,7.3,4.2,6.6-2,2.4,4.6,3.5-1.6,13.8,1.3-.5,4.1,3.2,6.3,2.5,10.3-6.5,6.2,1.5,8.6,2.9,8.3-4.1-.3-7.2,8.3,1.6,4.5h-6.8s-7.3.3-7.3.3l-6.6-2.3-4.8-4.4-1.1-7.8-11.6,1.2-4.8,3.7-1.9,4.2-4.6,2.5-.5,3.9-11.5-1.3-4.2-6.3-5-2.6.4-6.7-3.9-1.7,4.6-7.4,4.8-5.7,3.8-9.5-1.5-8.6,2.9-4.5-1.9-8.4,14.5-7.7h6.4Z"/>
    <path id="_29" data-name="29" class="cls-5" d="M73,317.5l.2,3.6,4.8,6.7-3.1,2.6-.6,8.2,2.3,1.3.9,9.7-2.7,5.5-8.2,2.7-.3,3.5,3.2,9.3,5.8.3,2.4,3h4.8s-1,6.5-1,6.5l-7,5.5-.7,2.3-16.1-3.8-7-5.1-7.5-1.5-2.8,3.8-4.6,1.4-4.8-4.3-1.8-7.6-2.7-4-9.2-4.7.4-3,14.5-1.9,5.1-2.9-1.4-3.7-8.1-4.2-4.5,5-1.7-6.5,1.9-3.3,5.9-2.7,1-3.7-10.5,2.6-6.8-3.4-1.5-3.6,1.7-7,5.2-4.9,3.9.3,4-4.2,3.4.9,7.4-3.6,6.4,2.1,2.2-2.1,10.3-2,1.7,5,5.3,3.1.8-6,6.2.6,3,4.2Z"/>
    <path id="_38" data-name="38" class="cls-5" d="M568.9,571.2l6.6,11,4.8,3.8h4.5c0,0,5.9-3,5.9-3l6.4.9,3.2,3.5.7,5.8-3,2.6.6,5.9,7.2,6.6-2.8,9.2,5.7.4,3.2,4.9v7s-12.5-.4-12.5-.4l-10.2,5.2-1.6,4.3-6.5,3.8-9.4-1.7-9.9-4.4,1.1-16.2-2.7-5.9-4.2,2.2-8.4-2.6-3.5-10.1-6.6-8.6-3.8-1.8-10.4,3.8-2.6-5.3v-7.1c0,0,4.6-3.7,4.6-3.7l-.4-3.5,3.5-4.9,7.1-1,5.5-7.3-2.1-2.4.2-5.9,7.1,3.2,6.7-9.2,4.1,5.9,10.4,12,1.3,3Z"/>
    <path id="_57" data-name="57" class="cls-5" d="M572.2,262.9l7.8,3.6,4.3-3.5,6.7-1.8,4.1,3.2,4.8-1,5.6,3,2.9,4,.3,4.8,3.9,3,2.9,7.3,6.5,2.6,4.1-5.9,12.4,7.1,7.7.2,3.2-4.5,3.6-.8,5.2,6.3,5.7,3.1-3.9,9.7-5.7-2-6,2-1.9-2.3-12.8-3.7-.8,5.8-3.3,4.2,8.9,7.8,3.4-3.3,6.4,5.8-2.9,6.6.8,7.4-4.4,5.1-4.7-.5-2.6-3.4-18.3-6.5-7.2-6.2-8.7-1.1-6.1-5.6,2-4.8-9.3-1.7-5.7-6.1-4.6-2.5,1.7-4.9-1.1-6.4,2.4-3.3-4.3-7.5-3.5-13.4Z"/>
    <path id="_84" data-name="84" class="cls-5" d="M530.4,673.3l1.2-5.5,4-1.3,2.3,4.7-2.6,5.3-4.9-3.1ZM565.7,689.9l2.8,7.1-1.9,5.5,4.3,3.2-.2,6.7,4.6.3,6.2,7.4-.2.4-8.2,5.5-9.7-1.5-7.2-4.1-7.4.3-8-4-4.4-6.1-7.1-3.4-6.5-.9,5.8-6.8-7.9-7.3.7-6.7-4.3-6.5v-4.7s6.4.2,6.4.2l3.1,7.3,13.9-6.4,5.1,2.1,2,4.8,4.2-1,7.4,2.1v3.2s6.7,3.3,6.7,3.3Z"/>
    <path id="_21" data-name="21" class="cls-5" d="M491.5,389.7l.8-2.8,13-.8,1.2-4.9,6.7.5,4.6.9,9,10.9,1.6,5.3-1.3,7.9,11.9,3.6,3.4,2.3,7.4,1.1,5.5-.5,1.2,4.3-5.6,8.2,5.6,6.4,1.8,5.2-1.8,6.8-4.8,11-5.4,2.9-1.4,5.4-8,2-3.1-1.8-17.3,5.3-6.1-1.6-12-10.9-6.4-1.9-3.9-3.7.6-5.1-5.2-3-1.2-6.4-1.9-5.8,3.1-4,8.2-21.6,2.3-1.9-.8-6.4-2.9-.8,1.4-6.2Z"/>
    <path id="_52" data-name="52" class="cls-4" d="M510.6,341h6.8s-1.6-4.5-1.6-4.5l7.2-8.3,4.1.3,1.4,5.9,15.6,7,8.9,7.3,1.6,5.1,7.9,8.7,2.2,4.9-.9,7.4,5.8,3.9,6.7,8.4-3.4,6.3-7,3.3,1.4,3.3-2.9,7.4-12.9.7-1.6,5.4-7.4-1.1-3.4-2.3-11.9-3.6,1.3-7.9-1.6-5.3-9-10.9-4.6-.9,1.2-7.8,4.7,1.1,1.9-7.3-2.1-11.7-6.4-4.7-2.9-5.9.9-4.2Z"/>
    <path id="_32" data-name="32" class="cls-2" d="M255.2,699.7l8-2.9,5,2.7,16.1-6.3,6,2.6,3.2-1.4,4.4.8.3,4.8-4,4.1,7.4,3.4,3.4,9.3,6.1,6.8,7.6,10.9-7.4,1.6-4.8,14-5-3.3-7.9-.9-7.5,8.1h-2.2s-3.2-1.6-3.2-1.6l-12.7-1.5-3-3.5-5.6,1-3.6-11.7-3.5-.3-3.6-6.9-4.8,1.6-8.4-.5-2-4.7,4.8-6.6,1-12,4.2-4.8,11.3,2.4.3-5.1Z"/>
    <path id="_16" data-name="16" class="cls-2" d="M251.2,542.3l3.4-1.5,1.3-5.2,5.7-2.8,6.6.2,5.5,3.1h9.4c0,.1.3-5.3.3-5.3l6.6,4.1,5.2-1.1,3.4-3.2,4.2.9-.5,6.4,5.8,3.1.9,4.3-6.5,5.8-3.1,7.5-3-1.5-5.2,7.1-7.4,7.6.2,5-13.5,10.1-.4,9.2-8.1,7.4-4.2-1.7-2.9,2.7-2.7-4.6h-3.8c0,0-2.2-4.7-2.2-4.7l-5-4.3.3-13-3.1-4.7-6-4.4,1.8-12.2,9.9,1.2,3.8-1.5.9-10,2.5-3.5Z"/>
    <path id="_72" data-name="72" class="cls-5" d="M261.2,350.9l4,.3,10.6-7,7.6,2,.7,9.4,9.2,7.3,6.5-.5,2,4.6,3.9.4,3.4,4.9-1.4,2.5-1.4,9.2,1.5,3.5-5,3.9.8,4.1-10.7,9.8,1.8,1.5-8.6,4.1-4.4,5.4-7.9-3.4-4.9,1.7-8.6-5.1-9.3-.7-1.8-4.7-6.5-2.1-1.2-2.4-3.3-5.8,4.3-3.5-1.3-3.8,6.2-2.3-2.9-6.9,5.9-1-.6-7.7,5.6-3.6-.9-4.5,1.9-8.1,4.4-1.2Z"/>
    <path id="_46" data-name="46" class="cls-2" d="M335.4,619.7l4.5-2,6.7,1.5,5.8,7.3,4,.8,4.8-4,8.7.2,1.1,7.2,4.7,6-.9,8.8,3,6.7-3.4,3.5-3.7-1.4-12.8,7.7,1.1,11.7-8.2.9-5,3.1-4.6-1.2-12.1,7.1-13.3-8.8-3.2-5.1-2.3-5.3.3-7.9,3.1-2.5,4.2-7.3,8.1-3.3,9-12.8-1.4-9.6,2-1.6Z"/>
    <path id="_31" data-name="31" class="cls-2" d="M305.1,716.8l11.7-2.3,3.6,3.8,8-3.4,3.4-4.2,8-3.6,1.8,8.3,3.4,1.6,4.5,11-1.6,3.1,7.6,3.2,2.5,4.8,7.8,3.9.6,2.6-2.4,2.3-6.5-2.3-4.2,6.1-6.8,6.6-8.2-.5-4.7,5.3-6.1-8.3-3.8,2.1,5.1,4.5-9,3.2-1.3,5.4-4.1-2.5-4.3.7-4.6,5.9-.6,7.1-9,4.5,1.7,7.1-8.7-3.1-3.9,6.1,1.6,7.4-11.6-1.1-1.3-2.3,1.7-11.8,4.4,1.6,5.5-8-4.8-8.4-6.6-5.3,7.1-6.1,3-7.8h2.2s7.5-8.1,7.5-8.1l7.9.9,5,3.3,4.8-14,7.4-1.6-7.6-10.9-6.1-6.8Z"/>
    <path id="_13" data-name="13" class="cls-5" d="M493.9,743.6l.5-3.1,9.5-4.9,4.4-11.1,6.7.9,2.7-7.7-.6-3.8,5.4-7.6,6.5.9,7.1,3.4,4.4,6.1,8,4,7.4-.3,7.2,4.1,9.7,1.5,8.2-5.5,2.7,5-6.6,4.2,2.7,4.8-1.3,5.1,3.1,4-3.8,2.9v6.2c0,0,4.6,2.8,4.6,2.8l-4,3.9-.6,4.5-3.7,1.6-8.8-3.8-5.2.5-.5-8.3-3.4-3.8-4.8,2.8-11.6-.5-2.3-4.2,10.2-1.9-3.3-8.9-4.5-1.5-1.6,5.9-8.1,5.7-4.2,4.4-11.8-.9.6-3.5-3.5-3.6-17.6-.4Z"/>
    <path id="_12" data-name="12" class="cls-5" d="M377.8,652.4l1.5-3.1,14.1.5,3.7-5.2.8-4.9,3.9-7.5,5.6-5,6.8,5.2,7.4,18,5.8,6.7-.9,4.6,3.8,3.5-.8,7.5,4,9.3,10.5,5.9-2.2,1-2.3,7.2,8.9,3.4-5.6,6.8.4,2-4.8,1.2-3.9,6.8-6.9-1.9-2.2,2.8.7,8.5h-7.2c0-.1-1.9-3.9-1.9-3.9l-5.1-1.6-7.6,1.4-6.8-7.8-.4-6.1-3.3-2.1-2.2-8.4-10.4-7.5-9.7-4-6.7,3.5-4.9-3.5-1-11.7-1.1-11.7,12.8-7.7,3.7,1.4,3.4-3.5Z"/>
    <path id="_50" data-name="50" class="cls-2" d="M207.8,274.9v3.1c0,0,8.2,6.6,8.2,6.6l4.3,5.3.6,4.9-4.2,7.7-11.9,10.6,5,4.4,5.8-.8,5.6,3.2,4.1,12.3-6,7.5-11-1.1-10.5-2.6-6.1,5.8-5.5-3.4-3.7-10.5,6.6.3-6.2-10.6,1.8-19.2-1.6-2.1.7-8.8-5.2-14.9-4.9-4.6-1.6-11,.2-11.2-4.3-2.5.5-3.8,13.5,6.2,7.7.6,4.7-3.2,7.6,1,2.8,5.7-4.4,6.4,6.6,10.8,1,8Z"/>
    <path id="_49" data-name="49" class="cls-5" d="M195.8,396l.6-2.6,2.3,2,11.2,2.5,1.7-2.7,5.8,3.8,12.2,1.9,5.9-3.6,6.4,2.2,1.2,2.4,6.5,2.1,1.8,4.7,9.3.7,8.6,5.1,4.9-1.7-.4,6.5-5.3,14.9-3.4,4.1-1.7,9.4-8.7,7.5-4.4-3.6-11.8,2.5-8.5.2-3.6,5.5-14.9.6-5.6-3.8-8-1.1-.7-11-3.9-6.5-1.8-7.5,6.7-1.7,12-1-.5-8.4-4.2-1.3.8-7.6-5.4-1.6-5.1-12.7Z"/>
    <path id="_2B" data-name="2B" class="cls-2" d="M703.4,829l-4.8,2.6-5.5-1.4-1.4-13.6-3.5.5-8-13.9-9.9-4.2-3.5-3.6-15.3-3.9,4.4-2.9.3-7.8,3.1-3.7,4.7-1.4,4.1-5,8.1-1.8,3.4-6,7.7-2.2,4.1,4.4,3.2-5.1-2.4-8.2,1.8-6-1.3-6.1h7.2s2.9,14.1,2.9,14.1l-1.6,11.5,5.7,9,1,12.8,2.3,7.9.7,12.3-7.2,14.3v7.6Z"/>
    <path id="_43" data-name="43" class="cls-5" d="M472.7,593.9l4.3-1.6,2.3,3.4,9.1-4.8,8.8,1.8v3.9c0,0,8.5,6.4,8.5,6.4l-.5,4.5-5.2,4.6.2,6.9-4.9,3.2-7.4,9.9h-6.6c0,0-2.3,4.3-2.3,4.3l-7.6,6.1-6.7-7.3-9.6.2-5.4,2-6.7-12.8-3.4-4.7-.7-7.1-3.7-12.3-6.2-.7-.4-5.5h3.6c0,.1,10.4-5.5,10.4-5.5l5.2,1.5,2.7-1.9,9.2,5.2,13.1.2Z"/>
    <path id="_59" data-name="59" class="cls-5" d="M376.9,145.7l12.1-4.1,3.8.3,7-2.9,4.2,11.6-1.3,4.4,1.5,5.9h4.2s3.6,6.7,3.6,6.7l5.5,2.8,2-4.1,10.6-3.6,5.9,8.9.8,11.1,2.6,2.4,14.1.8,2.8,3.1.3,8.8,9.6-.4,1.8,1.8,7.1-2.5,9.9,7.8-3,4.5,3.8,10.2-4.8,4.3.3,3.3-3,.8-18.9-7.7-5.1,3.6-13.5-.7-9.1,1.8-4.2-3.3,2.3-7.1.6-9.5-7.9-9.9,2.2-2.8-.9-4.9-6.6-3.6-3.3.3-.7-11.4-9.2,4-7.2-1.2-11.7-12.5-5.8-14.1-2.3-3.1Z"/>
    <path id="_80" data-name="80" class="cls-2" d="M339.8,219.6l3.8-3.4,3.5-7.6,5.3-.6-4.2-5.8.7-5.5,4.8.7,8-.8,7.2,5.8,5.6,2.7,1.9,3.9,18.3-1.5-4,9.3,7.2-2.5,8.9,3.9,2.1-2.6,5.7,4.1,1.8,3.5,10.8-1.9,4.2,3.3-2.7,10.1-3.3,4.1,3.3,10-11.7.6-10.4,6-1.3,3.6-11.3-6.1-3.8-.3-6.3-3.7-9.4,1.4-1.6-2.2-7.2.9-5.6-4.8-3.5-10.3-13-12.2-3.7-2.3Z"/>
    <path id="_34" data-name="34" class="cls-5" d="M443.1,708.2l8.5,1.3,3.1,3.2,3.6-4.9,8.3-4.2,8.7,6.9,4.8,5.4,8.2,5.8,3.1,6.5-5.3,8-5,.2-6.1,2.9-6.3,6.1-7.6,3.9-8.5,9.2-9.7.5-6.4,4.7-3-3-4.4-.2-13-6.1-6.6,5.7-8.9-2.4-4.3-4.8,1.3-6,5.9-3.7-3-7.7,2.1-6.5,6.5,2.6,8.9-3.7.9-2.6h7.2c0,.1-.7-8.4-.7-8.4l2.2-2.8,6.9,1.9,3.9-6.8,4.8-1.2Z"/>
    <path id="_18" data-name="18" class="cls-5" d="M381.8,414.2l7.2,2.8,11.8,2.3,3.4,5.6,8.1-.5,3.6-2.1,3,6.2-3.3,8.1,6.1,6.3,2.4,10.5v5.4c-.1,0,2.6,3.2,2.6,3.2l-1.4,9,1,4.2-2,4.6-3.9-.7-7.3,5.4-6.9,1.1-5.1,4-1.6,4.9,1.7,4.6-13.2,2.4-4.8,7.7-6.2-.3,2-4.8-2.4-5.8,1.8-6.7-6.6-8,2.8-3-3.5-3.8,4.8-4.8-3.7-3.6,1.3-6.5-2.3-7.2-4.4-1.5-4.6,1.8-5.7-2.3,3.4-7,5.6-5.5,3.1,2.1,8.6-2.6-2.9-7.5,7.9-7.8-5-8.7,4.6-1.5Z"/>
    <path id="_26" data-name="26" class="cls-5" d="M523.7,597.3l10.4-3.8,3.8,1.8,6.6,8.6,3.5,10.1,8.4,2.6,4.2-2.2,2.7,5.9-1.1,16.2,9.8,4.4,9.4,1.7-3.4,5.4-5-1-2.8,9,.6,6.2-7.1-1.8-3.3,5.4,4.4,6.8,7.1.2,3.4,4.4.2,6.7-5.7.5-4.2,5.8-6.8-3.3v-3.2s-7.4-2.1-7.4-2.1l-4.2,1-2-4.8-5.1-2.1-13.9,6.4-3.1-7.3-6.4-.2,2.2-9-.2-9.3,4.7-7.6-1.3-9.2,3.4-3.7,3.4-9.4-2.9-5.5,1-4.4-3.1-4.7-.6-14ZM530.4,673.3l4.9,3.1,2.6-5.3-2.3-4.7-4,1.3-1.2,5.5Z"/>
    <path id="_70" data-name="70" class="cls-5" d="M626.7,394.2l-3.3,5.4,3.3,14.5-7.3.7-4.9,5.2-8.8-1.7-4.1,1.5-3.6,6.2-10.2,6.8-7.4.7-4.5,3.5-7.8,3.2-5.8.7-4-3.5-1.8-5.2-5.6-6.4,5.6-8.2-1.2-4.3-5.5.5,1.6-5.4,12.9-.7,2.9-7.4-1.4-3.3,7-3.3,3.4-6.3,2.8-4.3,10.1-3.9,1.8,5.1,4.2,1.9,6.5-2.5,6.5,5.7,6.5-5,2.3,3.1,7.6,3.9,2.3,2.9Z"/>
    <path id="_01" data-name="01" class="cls-5" d="M549.1,505.6v2.4c-.1,0,13.1,11.3,13.1,11.3l5.7-5.8,4.4,6.2,7-.3,3-1.9,8.1-10.8,6,3.8-3.4,6.6,1.3,2.6-7.9,3-1,6.8-3.4,3.6-4.3.8,1.3,11.2-1.9,8.9v6.5c0,0-3.4,3-3.4,3l-1.9,5.4-3.3,2.3-1.3-3-10.4-12-4.1-5.9-6.6,9.2-7.1-3.2-10.1.8-.7-5.3-7.2-4.8-2.1-11.8,1.7-7.3,7.9-26.9,6.7,2.3,6.4-2.4,7.6,5Z"/>
    <path id="_44" data-name="44" class="cls-5" d="M197.5,455.4l-5.9-4-6.6,3.2v6.3s-4.7,1.8-4.7,1.8l-1-9.1-4,1.8,2.3,9.7-3.1,2.3-7-2.7-3.4-3.3-7.2-2.7-4.2-5.9-4.9-6-7.5-2.3,3.4-6.6-1.1-5.7-6.2,3.3-3-3.3-4.1.8-4-3.6-1.8-5.5,5.4-5.9,7.7-.5,12.1-4.9.6-7.8,7.1-4.2,16.9-.8,1.8-3.7,8.7-3.4,11.6,3.3,5.1,12.7,5.4,1.6-.8,7.6,4.2,1.3.5,8.4-12,1-6.7,1.7,1.8,7.5,3.9,6.5.7,11Z"/>
    <path id="_91" data-name="91" class="cls-5" d="M382,322.6l4.9,2.2,13.1,4.6-3.9,11.8.8,3-2.2,9.1-3.8,5.5-11.8.6-9.9,1.9-.5-5.9-3.2-7.8.7-7.2,4.4-.7.7-7.9,4.9-6.7,5.6-2.6Z"/>
    <path id="_95" data-name="95" class="cls-2" d="M401.2,298.6l-2,5.5-5.1,4.3-4.7-1.5-3.9,1.8-4.8,3.3.3-3.3-6.3-5.2-7.7-.7-5.6-4.4-5.5,2.4-5.9-2.7,5.2-12.2,2.6,4.6,7.3.8,9.3-2.9,7.7,2,4.9-.5,14.4,8.5Z"/>
    <path id="_56" data-name="56" class="cls-2" d="M74.6,386l7-5.5,1-6.5h-4.4s-2.4-2.9-2.4-2.9l-5.7-.3-3.2-9.2.3-3.4,8.1-2.7,11.4,2.1,3,2.6,7.6-1.2,1.4-3.2,5.3,3.2,6.1.9,7,4.4,5.3.6.9,6.2,4.3-2.9,2.1-4.3,4.8-2.9,7,3.6,2.4,4.7-2.5,3.7,6.9,3.8,3.1,5.4-2.2,2.8,2.1,5.5-3.4,9.9,1,4-.6,7.7-11.9,4.9-7.5.5,1.3-3.9-4-2.5h-8c0,0-7.8,1.9-7.8,1.9l-3.6-4.5,8.1.6-.5-6h-5.2c0,0-5.5,2.6-5.5,2.6l-9.5.3-1.6-3.4-9-8.8-5.9.6-3.2-8.3Z"/>
    <path id="_90" data-name="90" class="cls-5" d="M626.7,394.2l1.2-.8,10.5,7.3-.2,10.4h3.5c0-.1,2.7,6.9,2.7,6.9l-7.7,1.2-2.2,4.9-2.5-9.1-5.1-.8-3.3-14.5,3.3-5.4Z"/>
    <path id="_53" data-name="53" class="cls-5" d="M208.2,338.5l11,1.1,5.1,5.4,5.7-.4,7.7-4.8,7.2,1.3,5.4-.7,3.5-4.4,3.2,3-.5,5.5,5.1.6-.3,5.7-4.4,1.2-1.9,8.1.9,4.5-5.6,3.6.6,7.7-5.9,1,2.9,6.9-6.2,2.3,1.3,3.8-4.3,3.5,3.3,5.8-6.4-2.2-5.9,3.6-12.2-1.9-5.8-3.8-1.7,2.7-11.2-2.5-2.3-2,2.9-4.4,1.9-7.1,7.5-2.5-3.1-21.5,3.3-5-1.4-9.1.9-5.3Z"/>
    <path id="_79" data-name="79" class="cls-5" d="M254.6,455.3l.5,5.7,4,7-2.2,6.7,2.4,8.4-3.8,7.4,4.4,1.1-3.2,7.4.9,10.1,4.5,6.8,5.5-1.6-3.8,9,4.3,9.4-6.6-.2-5.7,2.8-1.3,5.2-3.4,1.5-9.4-9h-4.6c0,0-14.4-5.9-14.4-5.9l-3-6-3.4-2.4.3-4.7,5.2-.6,6.7-5.3-3.8-2.4.5-16.6-2-6.2-3.6-5.3,1.1-4.4-6.4-5.4-3-7.3,14.9-.6,3.6-5.5,8.5-.2,11.8-2.5,4.4,3.6Z"/>
    <path id="_54" data-name="54" class="cls-5" d="M550.3,263.2l16.5-4.9,5.4,4.2,3.5,13.4,4.3,7.5-2.4,3.3,1.1,6.4-1.7,4.9,4.6,2.5,5.7,6.1,9.3,1.7-2,4.8,6.1,5.6,8.7,1.1,7.2,6.2,18.3,6.5,2.6,3.4,2.4,1.7-7.4,3.2-4.8,5.1-6.1,1.7-6.4-2.4-1.7-3-6,4.9-12.6,1.2-7.4,4.5-6-.5-6.9-2.9,1-7.2h-7.1s-2.9-5.3-2.9-5.3l2.6-4.4-.3-6.5-2.5-2.4,3-8-1-5.1,3-13.3-3.9-3.5-.3-7.4-2.2-4.9,2.3-2.2-4.2-9.7-3.1-1.7-6.6,2.7-2-7.2Z"/>
    <path id="_41" data-name="41" class="cls-5" d="M308.4,375.3l8.1-1.7.7,3.4,5,.3.8,3.6,4.5,5.3,8.3,1.3,7.9-2.1.2,4.1,3.3,4-3.4,4.4,9.7,8,1.8,5.2,6.5-1.3h17.7s1.7,4.4,1.7,4.4l-4.5,1.5,4.9,8.6-7.8,7.7,2.8,7.4-8.5,2.6-3.1-2-5.5,5.4-10.6-4.5-9.6,2.6-7.1,4-5.3-8.5-6.2-.5.9-4.3-1.3-9.1-2.5-4.9-.5-6-5.9-2.1-9.4-5.2h-6.5s-1.8-1.5-1.8-1.5l10.5-9.6-.8-4.1,4.9-3.8-1.5-3.5,1.4-9.1Z"/>
    <polyline class="cls-3" points="634.8 777.2 680.5 731.5 711 731.5"/>
  </g>
  <g id="légende">
    <g>
      <rect class="cls-5" x="14.4" y="22.7" width="71" height="32"/>
      <rect class="cls-1" x="14.4" y="71.3" width="71" height="32"/>
      <rect class="cls-2" x="320.4" y="22.7" width="71" height="32"/>
      <rect class="cls-4" x="320.4" y="71.3" width="71" height="32"/>
      <g>
        <path class="cls-6" d="M104.9,41.8v-1.6h3.6c.5,0,1.1,0,1.5-.2.5-.2.9-.4,1.2-.8.3-.4.5-.9.5-1.6s-.2-1.1-.5-1.4c-.3-.4-.7-.6-1.2-.8-.5-.2-1-.2-1.6-.2h-7.3v-1.6h7.4c1,0,1.9.2,2.7.5.8.3,1.4.8,1.8,1.4.4.6.6,1.3.6,2.2s-.2,1.6-.6,2.2c-.4.6-1,1.1-1.8,1.4s-1.6.5-2.7.5h-3.7ZM101.1,46.7v-1.6h7v1.6h-7ZM103.6,45.8v-11.3h1.9v11.3h-1.9Z"/>
        <path class="cls-6" d="M115,39.2v-1.5h3.8v1.5h-3.8ZM115,46.7v-1.5h5.9v1.5h-5.9ZM117,46.3v-8.5h1.9v8.5h-1.9ZM118.2,42.2v-1.5c.5-.6,1-1.2,1.5-1.7.5-.5,1.1-.9,1.7-1.1.6-.3,1.1-.4,1.7-.4h.8v3.8h-1.6v-2c-.4,0-.8.1-1.3.3s-.9.6-1.4,1c-.5.4-.9.9-1.4,1.5Z"/>
        <path class="cls-6" d="M130.3,47c-.6,0-1.2,0-1.8-.3-.6-.2-1.1-.5-1.6-.9s-.9-.9-1.1-1.4c-.3-.6-.4-1.2-.4-1.9s.1-1.5.4-2.1c.3-.6.7-1.1,1.1-1.5.5-.4,1-.7,1.6-1,.6-.2,1.2-.3,1.8-.3s1.4.1,2,.4c.6.2,1,.6,1.4,1,.3.4.5.9.5,1.5s-.2,1.1-.5,1.5c-.3.4-.8.7-1.4.9-.6.2-1.1.3-1.8.3s-1.5,0-2.1-.3-1.2-.4-1.8-.7v-1.1c.7.3,1.3.5,1.8.6.6.1,1.1.2,1.6.2s.8,0,1.1-.2c.3-.1.6-.3.8-.5s.3-.4.3-.7c0-.4-.2-.7-.5-1-.4-.2-.8-.4-1.4-.4s-.8,0-1.2.2c-.4.2-.8.4-1.1.7-.3.3-.6.6-.8,1.1s-.3.9-.3,1.4.2,1.2.5,1.6c.3.4.7.8,1.2,1,.5.2,1,.4,1.6.4s1.3-.1,1.9-.4c.5-.2,1-.5,1.4-.9l.8,1.2c-.4.3-.7.6-1.1.8-.4.2-.9.4-1.4.6s-1,.2-1.6.2ZM129.7,36.3l-.6-.7,3.8-3.5,1,1.4-4.2,2.8Z"/>
        <path class="cls-6" d="M141,47c-.4,0-.9,0-1.3-.2-.4-.1-.8-.3-1.2-.5s-.8-.4-1.1-.7c-.3-.3-.6-.6-.8-.9h.9v2h-1.4v-2.9h.8c.3.3.7.6,1.1.9s.9.6,1.4.8c.5.2,1,.3,1.5.3s.6,0,.8-.1.4-.2.5-.4.2-.4.2-.6,0-.4-.2-.6c-.1-.2-.3-.3-.5-.4-.2-.1-.5-.3-.8-.4-.3-.1-.7-.2-1.2-.4-.7-.2-1.3-.4-1.8-.6-.5-.3-1-.6-1.3-.9-.3-.4-.5-.8-.5-1.3s.1-.9.4-1.3c.3-.4.6-.7,1.1-.9s1-.3,1.6-.3,1.1,0,1.6.3c.5.2,1,.4,1.4.8.4.3.7.7,1,1.2h-.8v-2h1.4v2.9h-.8c-.2-.3-.5-.7-.9-1-.4-.3-.8-.5-1.2-.7-.4-.2-.8-.2-1.2-.2s-.6,0-.9.1c-.3,0-.5.2-.6.4s-.2.4-.2.6,0,.4.2.5c.1.2.3.3.5.4.2.1.5.2.8.4.3.1.7.2,1.1.4.7.2,1.3.4,1.8.7s1,.6,1.3,1c.3.4.5.9.5,1.4s-.1.9-.4,1.3c-.3.4-.7.7-1.2.8-.5.2-1,.3-1.6.3Z"/>
        <path class="cls-6" d="M151.3,47c-.6,0-1.2,0-1.8-.3-.6-.2-1.1-.5-1.6-.9s-.9-.9-1.1-1.4c-.3-.6-.4-1.2-.4-1.9s.1-1.5.4-2.1c.3-.6.7-1.1,1.1-1.5.5-.4,1-.7,1.6-1,.6-.2,1.2-.3,1.8-.3s1.4.1,2,.4c.6.2,1,.6,1.4,1,.3.4.5.9.5,1.5s-.2,1.1-.5,1.5c-.3.4-.8.7-1.4.9-.6.2-1.1.3-1.8.3s-1.5,0-2.1-.3-1.2-.4-1.8-.7v-1.1c.7.3,1.3.5,1.8.6.6.1,1.1.2,1.6.2s.8,0,1.1-.2c.3-.1.6-.3.8-.5s.3-.4.3-.7c0-.4-.2-.7-.5-1-.4-.2-.8-.4-1.4-.4s-.8,0-1.2.2c-.4.2-.8.4-1.1.7-.3.3-.6.6-.8,1.1s-.3.9-.3,1.4.2,1.2.5,1.6c.3.4.7.8,1.2,1,.5.2,1,.4,1.6.4s1.3-.1,1.9-.4c.5-.2,1-.5,1.4-.9l.8,1.2c-.4.3-.7.6-1.1.8-.4.2-.9.4-1.4.6s-1,.2-1.6.2Z"/>
        <path class="cls-6" d="M156.7,39.2v-1.5h3.5v1.5h-3.5ZM156.7,46.7v-1.5h5.5v1.5h-5.5ZM158.8,46.7v-8.9h1.9v8.9h-1.9ZM166.1,46.7v-5.2c0-.3,0-.6-.1-.9,0-.3-.2-.5-.4-.7-.2-.2-.4-.3-.6-.4s-.5-.2-.9-.2-.7,0-1,.2c-.3.1-.7.3-1.1.6-.4.3-.7.6-1.1.9-.3.4-.7.8-1.1,1.2v-1.5c.4-.5.8-.9,1.2-1.3.4-.4.8-.7,1.2-1s.8-.5,1.2-.6c.4-.1.8-.2,1.3-.2s1,0,1.4.2c.4.2.7.4,1,.7.3.3.5.7.6,1.2.1.5.2,1.1.2,1.7v5.3h-1.9ZM164.5,46.7v-1.5h5.3v1.5h-5.3Z"/>
        <path class="cls-6" d="M175.6,47c-.6,0-1.2-.1-1.8-.3-.6-.2-1.1-.5-1.6-1s-.8-.9-1.1-1.5c-.3-.6-.4-1.2-.4-1.9s.1-1.3.4-1.9c.2-.6.6-1.1,1-1.5s.9-.8,1.4-1c.5-.2,1.1-.4,1.7-.4s1.1,0,1.6.3.8.4,1.1.8c.3.3.6.7.8,1.2l-.6-.2v-1.9h1.3v3.1h-.8c-.2-.3-.4-.7-.7-1-.3-.3-.6-.5-1-.6-.4-.1-.8-.2-1.3-.2s-.9,0-1.2.2-.7.4-1,.6c-.3.3-.5.6-.6,1-.2.4-.2.8-.2,1.3s.1,1.2.4,1.7c.3.5.7.8,1.1,1.1.5.3,1,.4,1.5.4.7,0,1.3-.1,1.7-.4.5-.3.9-.6,1.4-1l.8,1.2c-.5.5-1.1.9-1.8,1.2-.7.3-1.4.5-2.3.5Z"/>
        <path class="cls-6" d="M186,47c-.6,0-1.2,0-1.8-.3-.6-.2-1.1-.5-1.6-.9s-.9-.9-1.1-1.4c-.3-.6-.4-1.2-.4-1.9s.1-1.5.4-2.1c.3-.6.7-1.1,1.1-1.5.5-.4,1-.7,1.6-1,.6-.2,1.2-.3,1.8-.3s1.4.1,2,.4c.6.2,1,.6,1.4,1,.3.4.5.9.5,1.5s-.2,1.1-.5,1.5c-.3.4-.8.7-1.4.9-.6.2-1.1.3-1.8.3s-1.5,0-2.1-.3-1.2-.4-1.8-.7v-1.1c.7.3,1.3.5,1.8.6.6.1,1.1.2,1.6.2s.8,0,1.1-.2c.3-.1.6-.3.8-.5s.3-.4.3-.7c0-.4-.2-.7-.5-1-.4-.2-.8-.4-1.4-.4s-.8,0-1.2.2c-.4.2-.8.4-1.1.7-.3.3-.6.6-.8,1.1s-.3.9-.3,1.4.2,1.2.5,1.6c.3.4.7.8,1.2,1,.5.2,1,.4,1.6.4s1.3-.1,1.9-.4c.5-.2,1-.5,1.4-.9l.8,1.2c-.4.3-.7.6-1.1.8-.4.2-.9.4-1.4.6s-1,.2-1.6.2Z"/>
        <path class="cls-6" d="M202.2,47c-.6,0-1.2-.1-1.8-.3-.6-.2-1.1-.5-1.6-1s-.8-.9-1.1-1.5c-.3-.6-.4-1.2-.4-1.9s.1-1.3.4-1.9c.2-.6.6-1.1,1-1.5s.9-.8,1.4-1c.5-.2,1.1-.4,1.7-.4s1.1,0,1.6.3.8.4,1.1.8c.3.3.6.7.8,1.2l-.6-.2v-1.9h1.3v3.1h-.8c-.2-.3-.4-.7-.7-1-.3-.3-.6-.5-1-.6-.4-.1-.8-.2-1.3-.2s-.9,0-1.2.2-.7.4-1,.6c-.3.3-.5.6-.6,1-.2.4-.2.8-.2,1.3s.1,1.2.4,1.7c.3.5.7.8,1.1,1.1.5.3,1,.4,1.5.4.7,0,1.3-.1,1.7-.4.5-.3.9-.6,1.4-1l.8,1.2c-.5.5-1.1.9-1.8,1.2-.7.3-1.4.5-2.3.5Z"/>
        <path class="cls-6" d="M212.7,47c-.6,0-1.2,0-1.8-.3-.6-.2-1.1-.5-1.6-.9s-.9-.9-1.1-1.4c-.3-.6-.4-1.2-.4-1.9s.1-1.5.4-2.1c.3-.6.7-1.1,1.1-1.5.5-.4,1-.7,1.6-1,.6-.2,1.2-.3,1.8-.3s1.4.1,2,.4c.6.2,1,.6,1.4,1,.3.4.5.9.5,1.5s-.2,1.1-.5,1.5c-.3.4-.8.7-1.4.9-.6.2-1.1.3-1.8.3s-1.5,0-2.1-.3-1.2-.4-1.8-.7v-1.1c.7.3,1.3.5,1.8.6.6.1,1.1.2,1.6.2s.8,0,1.1-.2c.3-.1.6-.3.8-.5s.3-.4.3-.7c0-.4-.2-.7-.5-1-.4-.2-.8-.4-1.4-.4s-.8,0-1.2.2c-.4.2-.8.4-1.1.7-.3.3-.6.6-.8,1.1s-.3.9-.3,1.4.2,1.2.5,1.6c.3.4.7.8,1.2,1,.5.2,1,.4,1.6.4s1.3-.1,1.9-.4c.5-.2,1-.5,1.4-.9l.8,1.2c-.4.3-.7.6-1.1.8-.4.2-.9.4-1.4.6s-1,.2-1.6.2Z"/>
        <path class="cls-6" d="M218.1,39.2v-1.5h3.8v1.5h-3.8ZM218.1,46.7v-1.5h5.9v1.5h-5.9ZM220.1,46.3v-8.5h1.9v8.5h-1.9ZM221.4,42.2v-1.5c.5-.6,1-1.2,1.5-1.7.5-.5,1.1-.9,1.7-1.1.6-.3,1.1-.4,1.7-.4h.8v3.8h-1.6v-2c-.4,0-.8.1-1.3.3s-.9.6-1.4,1c-.5.4-.9.9-1.4,1.5Z"/>
        <path class="cls-6" d="M228.1,39.2v-1.5h6.8v1.5h-6.8ZM233.3,47c-.6,0-1.2-.1-1.7-.4-.5-.3-.9-.7-1.1-1.2-.3-.5-.4-1.2-.4-1.9v-8.1h1.9v8.2c0,.4,0,.8.2,1.1.1.3.3.5.6.6.2.1.5.2.8.2s.7,0,1-.1c.3,0,.6-.2.8-.3l.6,1.4c-.3.2-.7.4-1.1.5s-1,.2-1.5.2Z"/>
        <path class="cls-6" d="M240.2,47c-.6,0-1.1-.1-1.6-.3s-.9-.5-1.1-1c-.3-.4-.4-.9-.4-1.6s.2-1.2.5-1.6c.4-.4.8-.8,1.4-1,.6-.2,1.2-.3,1.8-.3s1.4,0,2,.3c.6.2,1.1.4,1.7.6v1.2c-.7-.3-1.3-.5-1.8-.6-.6,0-1.1-.1-1.5-.1-.4,0-.8,0-1.1.2-.3.1-.6.3-.8.5-.2.2-.3.5-.3.8s0,.5.2.7.4.4.7.4c.3,0,.6.1.9.1s.7,0,1.1-.2c.4-.1.9-.3,1.3-.6.5-.3.9-.6,1.4-1v1.3c-.5.4-.9.8-1.4,1.1-.5.3-1,.6-1.4.8-.5.2-1,.3-1.5.3ZM245.8,46.8c-.4,0-.7,0-1-.3-.3-.2-.5-.5-.7-.8-.2-.4-.3-.8-.3-1.3v-3.5c0-.5-.1-.8-.3-1.1-.2-.3-.5-.5-.8-.6-.3-.1-.7-.2-1.2-.2s-1.2,0-1.7.2c-.6.2-1.2.4-1.8.6l-.4-1.5c.7-.3,1.4-.5,2.1-.7.7-.2,1.4-.3,2.1-.3s1.5.1,2.1.4c.6.3,1,.7,1.3,1.2.3.5.5,1.2.5,2v3.3c0,.3,0,.6.2.7.1.1.3.2.5.2s.2,0,.3,0,.2,0,.3,0l.4,1.3c-.1,0-.3.2-.6.3-.3,0-.6.1-.9.1Z"/>
        <path class="cls-6" d="M248.1,39.2v-1.5h3.5v1.5h-3.5ZM248.1,46.7v-1.5h5.9v1.5h-5.9ZM250.8,35.8c-.4,0-.7-.1-1-.3s-.4-.5-.4-.8.1-.6.4-.8c.3-.2.6-.3,1-.3s.8.1,1.1.3c.3.2.4.5.4.8s-.1.6-.4.8c-.3.2-.6.3-1.1.3ZM250.1,46.3v-8.5h1.9v8.5h-1.9Z"/>
        <path class="cls-6" d="M254.8,39.2v-1.5h3.5v1.5h-3.5ZM254.8,46.7v-1.5h5.5v1.5h-5.5ZM256.9,46.7v-8.9h1.9v8.9h-1.9ZM264.2,46.7v-5.2c0-.3,0-.6-.1-.9,0-.3-.2-.5-.4-.7-.2-.2-.4-.3-.6-.4s-.5-.2-.9-.2-.7,0-1,.2c-.3.1-.7.3-1.1.6-.4.3-.7.6-1.1.9-.3.4-.7.8-1.1,1.2v-1.5c.4-.5.8-.9,1.2-1.3.4-.4.8-.7,1.2-1s.8-.5,1.2-.6c.4-.1.8-.2,1.3-.2s1,0,1.4.2c.4.2.7.4,1,.7.3.3.5.7.6,1.2.1.5.2,1.1.2,1.7v5.3h-1.9ZM262.6,46.7v-1.5h5.3v1.5h-5.3Z"/>
        <path class="cls-6" d="M273.8,47c-.6,0-1.2,0-1.8-.3-.6-.2-1.1-.5-1.6-.9s-.9-.9-1.1-1.4c-.3-.6-.4-1.2-.4-1.9s.1-1.5.4-2.1c.3-.6.7-1.1,1.1-1.5.5-.4,1-.7,1.6-1,.6-.2,1.2-.3,1.8-.3s1.4.1,2,.4c.6.2,1,.6,1.4,1,.3.4.5.9.5,1.5s-.2,1.1-.5,1.5c-.3.4-.8.7-1.4.9-.6.2-1.1.3-1.8.3s-1.5,0-2.1-.3-1.2-.4-1.8-.7v-1.1c.7.3,1.3.5,1.8.6.6.1,1.1.2,1.6.2s.8,0,1.1-.2c.3-.1.6-.3.8-.5s.3-.4.3-.7c0-.4-.2-.7-.5-1-.4-.2-.8-.4-1.4-.4s-.8,0-1.2.2c-.4.2-.8.4-1.1.7-.3.3-.6.6-.8,1.1s-.3.9-.3,1.4.2,1.2.5,1.6c.3.4.7.8,1.2,1,.5.2,1,.4,1.6.4s1.3-.1,1.9-.4c.5-.2,1-.5,1.4-.9l.8,1.2c-.4.3-.7.6-1.1.8-.4.2-.9.4-1.4.6s-1,.2-1.6.2Z"/>
      </g>
      <g>
        <path class="cls-6" d="M104.9,87.8v-1.6h3.6c.5,0,1.1,0,1.5-.2.5-.2.9-.4,1.2-.8.3-.4.5-.9.5-1.6s-.2-1.1-.5-1.4c-.3-.4-.7-.6-1.2-.8-.5-.2-1-.2-1.6-.2h-7.3v-1.6h7.4c1,0,1.9.2,2.7.5.8.3,1.4.8,1.8,1.4.4.6.6,1.3.6,2.2s-.2,1.6-.6,2.2c-.4.6-1,1.1-1.8,1.4s-1.6.5-2.7.5h-3.7ZM101.1,92.7v-1.6h7v1.6h-7ZM103.6,91.8v-11.3h1.9v11.3h-1.9Z"/>
        <path class="cls-6" d="M115,85.2v-1.5h3.8v1.5h-3.8ZM115,92.7v-1.5h5.9v1.5h-5.9ZM117,92.3v-8.5h1.9v8.5h-1.9ZM118.2,88.2v-1.5c.5-.6,1-1.2,1.5-1.7.5-.5,1.1-.9,1.7-1.1.6-.3,1.1-.4,1.7-.4h.8v3.8h-1.6v-2c-.4,0-.8.1-1.3.3s-.9.6-1.4,1c-.5.4-.9.9-1.4,1.5Z"/>
        <path class="cls-6" d="M130.3,93c-.6,0-1.2,0-1.8-.3-.6-.2-1.1-.5-1.6-.9s-.9-.9-1.1-1.4c-.3-.6-.4-1.2-.4-1.9s.1-1.5.4-2.1c.3-.6.7-1.1,1.1-1.5.5-.4,1-.7,1.6-1,.6-.2,1.2-.3,1.8-.3s1.4.1,2,.4c.6.2,1,.6,1.4,1,.3.4.5.9.5,1.5s-.2,1.1-.5,1.5c-.3.4-.8.7-1.4.9-.6.2-1.1.3-1.8.3s-1.5,0-2.1-.3-1.2-.4-1.8-.7v-1.1c.7.3,1.3.5,1.8.6.6.1,1.1.2,1.6.2s.8,0,1.1-.2c.3-.1.6-.3.8-.5s.3-.4.3-.7c0-.4-.2-.7-.5-1-.4-.2-.8-.4-1.4-.4s-.8,0-1.2.2c-.4.2-.8.4-1.1.7-.3.3-.6.6-.8,1.1s-.3.9-.3,1.4.2,1.2.5,1.6c.3.4.7.8,1.2,1,.5.2,1,.4,1.6.4s1.3-.1,1.9-.4c.5-.2,1-.5,1.4-.9l.8,1.2c-.4.3-.7.6-1.1.8-.4.2-.9.4-1.4.6s-1,.2-1.6.2ZM129.7,82.3l-.6-.7,3.8-3.5,1,1.4-4.2,2.8Z"/>
        <path class="cls-6" d="M141,93c-.4,0-.9,0-1.3-.2-.4-.1-.8-.3-1.2-.5s-.8-.4-1.1-.7c-.3-.3-.6-.6-.8-.9h.9v2h-1.4v-2.9h.8c.3.3.7.6,1.1.9s.9.6,1.4.8c.5.2,1,.3,1.5.3s.6,0,.8-.1.4-.2.5-.4.2-.4.2-.6,0-.4-.2-.6c-.1-.2-.3-.3-.5-.4-.2-.1-.5-.3-.8-.4-.3-.1-.7-.2-1.2-.4-.7-.2-1.3-.4-1.8-.6-.5-.3-1-.6-1.3-.9-.3-.4-.5-.8-.5-1.3s.1-.9.4-1.3c.3-.4.6-.7,1.1-.9s1-.3,1.6-.3,1.1,0,1.6.3c.5.2,1,.4,1.4.8.4.3.7.7,1,1.2h-.8v-2h1.4v2.9h-.8c-.2-.3-.5-.7-.9-1-.4-.3-.8-.5-1.2-.7-.4-.2-.8-.2-1.2-.2s-.6,0-.9.1c-.3,0-.5.2-.6.4s-.2.4-.2.6,0,.4.2.5c.1.2.3.3.5.4.2.1.5.2.8.4.3.1.7.2,1.1.4.7.2,1.3.4,1.8.7s1,.6,1.3,1c.3.4.5.9.5,1.4s-.1.9-.4,1.3c-.3.4-.7.7-1.2.8-.5.2-1,.3-1.6.3Z"/>
        <path class="cls-6" d="M151.3,93c-.6,0-1.2,0-1.8-.3-.6-.2-1.1-.5-1.6-.9s-.9-.9-1.1-1.4c-.3-.6-.4-1.2-.4-1.9s.1-1.5.4-2.1c.3-.6.7-1.1,1.1-1.5.5-.4,1-.7,1.6-1,.6-.2,1.2-.3,1.8-.3s1.4.1,2,.4c.6.2,1,.6,1.4,1,.3.4.5.9.5,1.5s-.2,1.1-.5,1.5c-.3.4-.8.7-1.4.9-.6.2-1.1.3-1.8.3s-1.5,0-2.1-.3-1.2-.4-1.8-.7v-1.1c.7.3,1.3.5,1.8.6.6.1,1.1.2,1.6.2s.8,0,1.1-.2c.3-.1.6-.3.8-.5s.3-.4.3-.7c0-.4-.2-.7-.5-1-.4-.2-.8-.4-1.4-.4s-.8,0-1.2.2c-.4.2-.8.4-1.1.7-.3.3-.6.6-.8,1.1s-.3.9-.3,1.4.2,1.2.5,1.6c.3.4.7.8,1.2,1,.5.2,1,.4,1.6.4s1.3-.1,1.9-.4c.5-.2,1-.5,1.4-.9l.8,1.2c-.4.3-.7.6-1.1.8-.4.2-.9.4-1.4.6s-1,.2-1.6.2Z"/>
        <path class="cls-6" d="M156.7,85.2v-1.5h3.5v1.5h-3.5ZM156.7,92.7v-1.5h5.5v1.5h-5.5ZM158.8,92.7v-8.9h1.9v8.9h-1.9ZM166.1,92.7v-5.2c0-.3,0-.6-.1-.9,0-.3-.2-.5-.4-.7-.2-.2-.4-.3-.6-.4s-.5-.2-.9-.2-.7,0-1,.2c-.3.1-.7.3-1.1.6-.4.3-.7.6-1.1.9-.3.4-.7.8-1.1,1.2v-1.5c.4-.5.8-.9,1.2-1.3.4-.4.8-.7,1.2-1s.8-.5,1.2-.6c.4-.1.8-.2,1.3-.2s1,0,1.4.2c.4.2.7.4,1,.7.3.3.5.7.6,1.2.1.5.2,1.1.2,1.7v5.3h-1.9ZM164.5,92.7v-1.5h5.3v1.5h-5.3Z"/>
        <path class="cls-6" d="M175.6,93c-.6,0-1.2-.1-1.8-.3-.6-.2-1.1-.5-1.6-1s-.8-.9-1.1-1.5c-.3-.6-.4-1.2-.4-1.9s.1-1.3.4-1.9c.2-.6.6-1.1,1-1.5s.9-.8,1.4-1c.5-.2,1.1-.4,1.7-.4s1.1,0,1.6.3.8.4,1.1.8c.3.3.6.7.8,1.2l-.6-.2v-1.9h1.3v3.1h-.8c-.2-.3-.4-.7-.7-1-.3-.3-.6-.5-1-.6-.4-.1-.8-.2-1.3-.2s-.9,0-1.2.2-.7.4-1,.6c-.3.3-.5.6-.6,1-.2.4-.2.8-.2,1.3s.1,1.2.4,1.7c.3.5.7.8,1.1,1.1.5.3,1,.4,1.5.4.7,0,1.3-.1,1.7-.4.5-.3.9-.6,1.4-1l.8,1.2c-.5.5-1.1.9-1.8,1.2-.7.3-1.4.5-2.3.5Z"/>
        <path class="cls-6" d="M186,93c-.6,0-1.2,0-1.8-.3-.6-.2-1.1-.5-1.6-.9s-.9-.9-1.1-1.4c-.3-.6-.4-1.2-.4-1.9s.1-1.5.4-2.1c.3-.6.7-1.1,1.1-1.5.5-.4,1-.7,1.6-1,.6-.2,1.2-.3,1.8-.3s1.4.1,2,.4c.6.2,1,.6,1.4,1,.3.4.5.9.5,1.5s-.2,1.1-.5,1.5c-.3.4-.8.7-1.4.9-.6.2-1.1.3-1.8.3s-1.5,0-2.1-.3-1.2-.4-1.8-.7v-1.1c.7.3,1.3.5,1.8.6.6.1,1.1.2,1.6.2s.8,0,1.1-.2c.3-.1.6-.3.8-.5s.3-.4.3-.7c0-.4-.2-.7-.5-1-.4-.2-.8-.4-1.4-.4s-.8,0-1.2.2c-.4.2-.8.4-1.1.7-.3.3-.6.6-.8,1.1s-.3.9-.3,1.4.2,1.2.5,1.6c.3.4.7.8,1.2,1,.5.2,1,.4,1.6.4s1.3-.1,1.9-.4c.5-.2,1-.5,1.4-.9l.8,1.2c-.4.3-.7.6-1.1.8-.4.2-.9.4-1.4.6s-1,.2-1.6.2Z"/>
        <path class="cls-6" d="M196.9,85.2v-1.5h3.8v1.5h-3.8ZM196.9,96.8v-1.5h5.9v1.5h-5.9ZM198.9,96.4v-12.7h1.8v12.7h-1.8ZM203.8,93c-.7,0-1.3-.1-1.8-.4-.5-.2-.9-.6-1.3-.9-.4-.4-.7-.7-1-1.1v-1.3c.3.4.6.7,1,1,.4.3.8.6,1.3.8s.9.3,1.4.3.9,0,1.3-.2c.4-.2.7-.4,1-.7.3-.3.5-.6.6-1,.2-.4.2-.8.2-1.3s-.1-1.1-.4-1.6c-.2-.5-.6-.8-1-1.1s-.9-.4-1.4-.4c-.5,0-1,.1-1.5.4-.5.3-1,.7-1.4,1.2-.4.5-.8,1.1-1.1,1.7v-1.4c.3-.7.7-1.3,1.2-1.8.5-.5,1-.9,1.6-1.2.6-.3,1.2-.5,1.8-.5s1.4.2,2.1.6c.6.4,1.1.9,1.5,1.6.4.7.6,1.5.6,2.4s-.1,1.4-.4,1.9c-.2.6-.6,1.1-1,1.5-.4.4-.9.8-1.5,1-.6.2-1.2.4-1.8.4Z"/>
        <path class="cls-6" d="M209.8,85.2v-1.5h3.8v1.5h-3.8ZM209.8,92.7v-1.5h5.9v1.5h-5.9ZM211.8,92.3v-8.5h1.9v8.5h-1.9ZM213.1,88.2v-1.5c.5-.6,1-1.2,1.5-1.7.5-.5,1.1-.9,1.7-1.1.6-.3,1.1-.4,1.7-.4h.8v3.8h-1.6v-2c-.4,0-.8.1-1.3.3s-.9.6-1.4,1c-.5.4-.9.9-1.4,1.5Z"/>
        <path class="cls-6" d="M225.1,93c-.7,0-1.3-.1-1.9-.3-.6-.2-1.1-.5-1.6-1-.5-.4-.8-.9-1.1-1.5-.3-.6-.4-1.2-.4-1.9s.1-1.4.4-2c.3-.6.6-1.1,1.1-1.5s1-.7,1.6-1c.6-.2,1.2-.3,1.9-.3s1.2.1,1.8.3c.6.2,1.1.5,1.6,1s.8.9,1.1,1.5c.3.6.4,1.2.4,2s-.1,1.4-.4,1.9c-.3.6-.6,1.1-1.1,1.5-.5.4-1,.7-1.6,1-.6.2-1.2.3-1.9.3ZM225.1,91.5c.6,0,1.1-.1,1.5-.4.4-.3.8-.6,1.1-1.1.3-.5.4-1.1.4-1.7s-.1-1.2-.4-1.7c-.3-.5-.6-.9-1.1-1.1-.4-.3-.9-.4-1.5-.4s-1.1.1-1.5.4c-.5.3-.8.6-1.1,1.1s-.4,1.1-.4,1.7.1,1.2.4,1.7.6.9,1.1,1.1c.5.3,1,.4,1.5.4Z"/>
        <path class="cls-6" d="M230.5,81.2v-1.5h3.6v1.5h-3.6ZM232.4,92.7v-13h1.8v11.4l-.7,1.6h-1.1ZM237.8,83.5c.7,0,1.4.2,2.1.6.6.4,1.1.9,1.5,1.6.4.7.6,1.5.6,2.4s-.1,1.4-.4,1.9c-.2.6-.6,1.1-1,1.5s-.9.8-1.5,1c-.6.2-1.2.4-1.8.4s-1.2-.1-1.7-.4c-.5-.2-.9-.6-1.3-.9-.4-.4-.7-.7-1-1.1v-1.3c.3.4.6.7,1,1,.4.3.8.6,1.2.8.4.2.9.3,1.4.3s.9,0,1.2-.2c.4-.2.7-.4,1-.7.3-.3.5-.6.7-1,.2-.4.2-.8.2-1.3s-.1-1.1-.4-1.6c-.2-.5-.6-.8-1-1.1s-.9-.4-1.4-.4c-.5,0-1,.1-1.5.4-.5.3-1,.7-1.4,1.2-.4.5-.8,1.1-1.1,1.7v-1.4c.3-.7.7-1.3,1.1-1.8.5-.5,1-.9,1.6-1.2.6-.3,1.2-.5,1.8-.5Z"/>
        <path class="cls-6" d="M246.7,93c-.6,0-1.1-.1-1.6-.3s-.9-.5-1.1-1c-.3-.4-.4-.9-.4-1.6s.2-1.2.5-1.6c.4-.4.8-.8,1.4-1,.6-.2,1.2-.3,1.8-.3s1.4,0,2,.3c.6.2,1.1.4,1.7.6v1.2c-.7-.3-1.3-.5-1.8-.6-.6,0-1.1-.1-1.5-.1-.4,0-.8,0-1.1.2-.3.1-.6.3-.8.5-.2.2-.3.5-.3.8s0,.5.2.7.4.4.7.4c.3,0,.6.1.9.1s.7,0,1.1-.2c.4-.1.9-.3,1.3-.6.5-.3.9-.6,1.4-1v1.3c-.5.4-.9.8-1.4,1.1-.5.3-1,.6-1.4.8-.5.2-1,.3-1.5.3ZM252.3,92.8c-.4,0-.7,0-1-.3-.3-.2-.5-.5-.7-.8-.2-.4-.3-.8-.3-1.3v-3.5c0-.5-.1-.8-.3-1.1-.2-.3-.5-.5-.8-.6-.3-.1-.7-.2-1.2-.2s-1.2,0-1.7.2c-.6.2-1.2.4-1.8.6l-.4-1.5c.7-.3,1.4-.5,2.1-.7.7-.2,1.4-.3,2.1-.3s1.5.1,2.1.4c.6.3,1,.7,1.3,1.2.3.5.5,1.2.5,2v3.3c0,.3,0,.6.2.7.1.1.3.2.5.2s.2,0,.3,0,.2,0,.3,0l.4,1.3c-.1,0-.3.2-.6.3-.3,0-.6.1-.9.1Z"/>
        <path class="cls-6" d="M253.7,81.2v-1.5h3.6v1.5h-3.6ZM255.6,92.7v-13h1.8v11.4l-.7,1.6h-1.1ZM261,83.5c.7,0,1.4.2,2.1.6.6.4,1.1.9,1.5,1.6.4.7.6,1.5.6,2.4s-.1,1.4-.4,1.9c-.2.6-.6,1.1-1,1.5s-.9.8-1.5,1c-.6.2-1.2.4-1.8.4s-1.2-.1-1.7-.4c-.5-.2-.9-.6-1.3-.9-.4-.4-.7-.7-1-1.1v-1.3c.3.4.6.7,1,1,.4.3.8.6,1.2.8.4.2.9.3,1.4.3s.9,0,1.2-.2c.4-.2.7-.4,1-.7.3-.3.5-.6.7-1,.2-.4.2-.8.2-1.3s-.1-1.1-.4-1.6c-.2-.5-.6-.8-1-1.1s-.9-.4-1.4-.4c-.5,0-1,.1-1.5.4-.5.3-1,.7-1.4,1.2-.4.5-.8,1.1-1.1,1.7v-1.4c.3-.7.7-1.3,1.1-1.8.5-.5,1-.9,1.6-1.2.6-.3,1.2-.5,1.8-.5Z"/>
        <path class="cls-6" d="M266.2,81.2v-1.5h3.8v1.5h-3.8ZM266.2,92.7v-1.5h5.9v1.5h-5.9ZM268.2,92.3v-12.6h1.9v12.6h-1.9Z"/>
        <path class="cls-6" d="M278.1,93c-.6,0-1.2,0-1.8-.3-.6-.2-1.1-.5-1.6-.9s-.9-.9-1.1-1.4c-.3-.6-.4-1.2-.4-1.9s.1-1.5.4-2.1c.3-.6.7-1.1,1.1-1.5.5-.4,1-.7,1.6-1,.6-.2,1.2-.3,1.8-.3s1.4.1,2,.4c.6.2,1,.6,1.4,1,.3.4.5.9.5,1.5s-.2,1.1-.5,1.5c-.3.4-.8.7-1.4.9-.6.2-1.1.3-1.8.3s-1.5,0-2.1-.3-1.2-.4-1.8-.7v-1.1c.7.3,1.3.5,1.8.6.6.1,1.1.2,1.6.2s.8,0,1.1-.2c.3-.1.6-.3.8-.5s.3-.4.3-.7c0-.4-.2-.7-.5-1-.4-.2-.8-.4-1.4-.4s-.8,0-1.2.2c-.4.2-.8.4-1.1.7-.3.3-.6.6-.8,1.1s-.3.9-.3,1.4.2,1.2.5,1.6c.3.4.7.8,1.2,1,.5.2,1,.4,1.6.4s1.3-.1,1.9-.4c.5-.2,1-.5,1.4-.9l.8,1.2c-.4.3-.7.6-1.1.8-.4.2-.9.4-1.4.6s-1,.2-1.6.2Z"/>
      </g>
      <g>
        <path class="cls-6" d="M406.5,46.7v-1.6h6.2v1.6h-6.2ZM408,46.3l5.1-11.9h2.8l5.1,11.9h-2.1l-4.7-11.9h.4l-4.7,11.9h-1.9ZM410.9,35.2v-1.6h7.3v1.6h-7.3ZM411,42.1l.4-1.4h6.1l.4,1.4h-7ZM416.3,46.7v-1.6h6.2v1.6h-6.2Z"/>
        <path class="cls-6" d="M422,35.2v-1.5h3.6v1.5h-3.6ZM423.9,46.7v-13h1.8v11.4l-.7,1.6h-1.1ZM429.3,37.5c.7,0,1.4.2,2.1.6.6.4,1.1.9,1.5,1.6.4.7.6,1.5.6,2.4s-.1,1.4-.4,1.9c-.2.6-.6,1.1-1,1.5s-.9.8-1.5,1c-.6.2-1.2.4-1.8.4s-1.2-.1-1.7-.4c-.5-.2-.9-.6-1.3-.9-.4-.4-.7-.7-1-1.1v-1.3c.3.4.6.7,1,1,.4.3.8.6,1.2.8.4.2.9.3,1.4.3s.9,0,1.2-.2c.4-.2.7-.4,1-.7.3-.3.5-.6.7-1,.2-.4.2-.8.2-1.3s-.1-1.1-.4-1.6c-.2-.5-.6-.8-1-1.1s-.9-.4-1.4-.4c-.5,0-1,.1-1.5.4-.5.3-1,.7-1.4,1.2-.4.5-.8,1.1-1.1,1.7v-1.4c.3-.7.7-1.3,1.1-1.8.5-.5,1-.9,1.6-1.2.6-.3,1.2-.5,1.8-.5Z"/>
        <path class="cls-6" d="M440.1,47c-.4,0-.9,0-1.3-.2-.4-.1-.8-.3-1.2-.5s-.8-.4-1.1-.7c-.3-.3-.6-.6-.8-.9h.9v2h-1.4v-2.9h.8c.3.3.7.6,1.1.9s.9.6,1.4.8c.5.2,1,.3,1.5.3s.6,0,.8-.1.4-.2.5-.4.2-.4.2-.6,0-.4-.2-.6c-.1-.2-.3-.3-.5-.4-.2-.1-.5-.3-.8-.4-.3-.1-.7-.2-1.2-.4-.7-.2-1.3-.4-1.8-.6-.5-.3-1-.6-1.3-.9-.3-.4-.5-.8-.5-1.3s.1-.9.4-1.3c.3-.4.6-.7,1.1-.9s1-.3,1.6-.3,1.1,0,1.6.3c.5.2,1,.4,1.4.8.4.3.7.7,1,1.2h-.8v-2h1.4v2.9h-.8c-.2-.3-.5-.7-.9-1-.4-.3-.8-.5-1.2-.7-.4-.2-.8-.2-1.2-.2s-.6,0-.9.1c-.3,0-.5.2-.6.4s-.2.4-.2.6,0,.4.2.5c.1.2.3.3.5.4.2.1.5.2.8.4.3.1.7.2,1.1.4.7.2,1.3.4,1.8.7s1,.6,1.3,1c.3.4.5.9.5,1.4s-.1.9-.4,1.3c-.3.4-.7.7-1.2.8-.5.2-1,.3-1.6.3Z"/>
        <path class="cls-6" d="M450.4,47c-.6,0-1.2,0-1.8-.3-.6-.2-1.1-.5-1.6-.9s-.9-.9-1.1-1.4c-.3-.6-.4-1.2-.4-1.9s.1-1.5.4-2.1c.3-.6.7-1.1,1.1-1.5.5-.4,1-.7,1.6-1,.6-.2,1.2-.3,1.8-.3s1.4.1,2,.4c.6.2,1,.6,1.4,1,.3.4.5.9.5,1.5s-.2,1.1-.5,1.5c-.3.4-.8.7-1.4.9-.6.2-1.1.3-1.8.3s-1.5,0-2.1-.3-1.2-.4-1.8-.7v-1.1c.7.3,1.3.5,1.8.6.6.1,1.1.2,1.6.2s.8,0,1.1-.2c.3-.1.6-.3.8-.5s.3-.4.3-.7c0-.4-.2-.7-.5-1-.4-.2-.8-.4-1.4-.4s-.8,0-1.2.2c-.4.2-.8.4-1.1.7-.3.3-.6.6-.8,1.1s-.3.9-.3,1.4.2,1.2.5,1.6c.3.4.7.8,1.2,1,.5.2,1,.4,1.6.4s1.3-.1,1.9-.4c.5-.2,1-.5,1.4-.9l.8,1.2c-.4.3-.7.6-1.1.8-.4.2-.9.4-1.4.6s-1,.2-1.6.2Z"/>
        <path class="cls-6" d="M455.8,39.2v-1.5h3.5v1.5h-3.5ZM455.8,46.7v-1.5h5.5v1.5h-5.5ZM457.8,46.7v-8.9h1.9v8.9h-1.9ZM465.2,46.7v-5.2c0-.3,0-.6-.1-.9,0-.3-.2-.5-.4-.7-.2-.2-.4-.3-.6-.4s-.5-.2-.9-.2-.7,0-1,.2c-.3.1-.7.3-1.1.6-.4.3-.7.6-1.1.9-.3.4-.7.8-1.1,1.2v-1.5c.4-.5.8-.9,1.2-1.3.4-.4.8-.7,1.2-1s.8-.5,1.2-.6c.4-.1.8-.2,1.3-.2s1,0,1.4.2c.4.2.7.4,1,.7.3.3.5.7.6,1.2.1.5.2,1.1.2,1.7v5.3h-1.9ZM463.6,46.7v-1.5h5.3v1.5h-5.3Z"/>
        <path class="cls-6" d="M474.7,47c-.6,0-1.2-.1-1.8-.3-.6-.2-1.1-.5-1.6-1s-.8-.9-1.1-1.5c-.3-.6-.4-1.2-.4-1.9s.1-1.3.4-1.9c.2-.6.6-1.1,1-1.5s.9-.8,1.4-1c.5-.2,1.1-.4,1.7-.4s1.1,0,1.6.3.8.4,1.1.8c.3.3.6.7.8,1.2l-.6-.2v-1.9h1.3v3.1h-.8c-.2-.3-.4-.7-.7-1-.3-.3-.6-.5-1-.6-.4-.1-.8-.2-1.3-.2s-.9,0-1.2.2-.7.4-1,.6c-.3.3-.5.6-.6,1-.2.4-.2.8-.2,1.3s.1,1.2.4,1.7c.3.5.7.8,1.1,1.1.5.3,1,.4,1.5.4.7,0,1.3-.1,1.7-.4.5-.3.9-.6,1.4-1l.8,1.2c-.5.5-1.1.9-1.8,1.2-.7.3-1.4.5-2.3.5Z"/>
        <path class="cls-6" d="M485.1,47c-.6,0-1.2,0-1.8-.3-.6-.2-1.1-.5-1.6-.9s-.9-.9-1.1-1.4c-.3-.6-.4-1.2-.4-1.9s.1-1.5.4-2.1c.3-.6.7-1.1,1.1-1.5.5-.4,1-.7,1.6-1,.6-.2,1.2-.3,1.8-.3s1.4.1,2,.4c.6.2,1,.6,1.4,1,.3.4.5.9.5,1.5s-.2,1.1-.5,1.5c-.3.4-.8.7-1.4.9-.6.2-1.1.3-1.8.3s-1.5,0-2.1-.3-1.2-.4-1.8-.7v-1.1c.7.3,1.3.5,1.8.6.6.1,1.1.2,1.6.2s.8,0,1.1-.2c.3-.1.6-.3.8-.5s.3-.4.3-.7c0-.4-.2-.7-.5-1-.4-.2-.8-.4-1.4-.4s-.8,0-1.2.2c-.4.2-.8.4-1.1.7-.3.3-.6.6-.8,1.1s-.3.9-.3,1.4.2,1.2.5,1.6c.3.4.7.8,1.2,1,.5.2,1,.4,1.6.4s1.3-.1,1.9-.4c.5-.2,1-.5,1.4-.9l.8,1.2c-.4.3-.7.6-1.1.8-.4.2-.9.4-1.4.6s-1,.2-1.6.2Z"/>
        <path class="cls-6" d="M496,39.2v-1.5h3.8v1.5h-3.8ZM496,50.8v-1.5h5.9v1.5h-5.9ZM498,50.4v-12.7h1.8v12.7h-1.8ZM502.9,47c-.7,0-1.3-.1-1.8-.4-.5-.2-.9-.6-1.3-.9-.4-.4-.7-.7-1-1.1v-1.3c.3.4.6.7,1,1,.4.3.8.6,1.3.8s.9.3,1.4.3.9,0,1.3-.2c.4-.2.7-.4,1-.7.3-.3.5-.6.6-1,.2-.4.2-.8.2-1.3s-.1-1.1-.4-1.6c-.2-.5-.6-.8-1-1.1s-.9-.4-1.4-.4c-.5,0-1,.1-1.5.4-.5.3-1,.7-1.4,1.2-.4.5-.8,1.1-1.1,1.7v-1.4c.3-.7.7-1.3,1.2-1.8.5-.5,1-.9,1.6-1.2.6-.3,1.2-.5,1.8-.5s1.4.2,2.1.6c.6.4,1.1.9,1.5,1.6.4.7.6,1.5.6,2.4s-.1,1.4-.4,1.9c-.2.6-.6,1.1-1,1.5-.4.4-.9.8-1.5,1-.6.2-1.2.4-1.8.4Z"/>
        <path class="cls-6" d="M508.9,39.2v-1.5h3.8v1.5h-3.8ZM508.9,46.7v-1.5h5.9v1.5h-5.9ZM510.9,46.3v-8.5h1.9v8.5h-1.9ZM512.2,42.2v-1.5c.5-.6,1-1.2,1.5-1.7.5-.5,1.1-.9,1.7-1.1.6-.3,1.1-.4,1.7-.4h.8v3.8h-1.6v-2c-.4,0-.8.1-1.3.3s-.9.6-1.4,1c-.5.4-.9.9-1.4,1.5Z"/>
        <path class="cls-6" d="M524.2,47c-.7,0-1.3-.1-1.9-.3-.6-.2-1.1-.5-1.6-1-.5-.4-.8-.9-1.1-1.5-.3-.6-.4-1.2-.4-1.9s.1-1.4.4-2c.3-.6.6-1.1,1.1-1.5s1-.7,1.6-1c.6-.2,1.2-.3,1.9-.3s1.2.1,1.8.3c.6.2,1.1.5,1.6,1s.8.9,1.1,1.5c.3.6.4,1.2.4,2s-.1,1.4-.4,1.9c-.3.6-.6,1.1-1.1,1.5-.5.4-1,.7-1.6,1-.6.2-1.2.3-1.9.3ZM524.2,45.5c.6,0,1.1-.1,1.5-.4.4-.3.8-.6,1.1-1.1.3-.5.4-1.1.4-1.7s-.1-1.2-.4-1.7c-.3-.5-.6-.9-1.1-1.1-.4-.3-.9-.4-1.5-.4s-1.1.1-1.5.4c-.5.3-.8.6-1.1,1.1s-.4,1.1-.4,1.7.1,1.2.4,1.7.6.9,1.1,1.1c.5.3,1,.4,1.5.4Z"/>
        <path class="cls-6" d="M529.6,35.2v-1.5h3.6v1.5h-3.6ZM531.5,46.7v-13h1.8v11.4l-.7,1.6h-1.1ZM536.9,37.5c.7,0,1.4.2,2.1.6.6.4,1.1.9,1.5,1.6.4.7.6,1.5.6,2.4s-.1,1.4-.4,1.9c-.2.6-.6,1.1-1,1.5s-.9.8-1.5,1c-.6.2-1.2.4-1.8.4s-1.2-.1-1.7-.4c-.5-.2-.9-.6-1.3-.9-.4-.4-.7-.7-1-1.1v-1.3c.3.4.6.7,1,1,.4.3.8.6,1.2.8.4.2.9.3,1.4.3s.9,0,1.2-.2c.4-.2.7-.4,1-.7.3-.3.5-.6.7-1,.2-.4.2-.8.2-1.3s-.1-1.1-.4-1.6c-.2-.5-.6-.8-1-1.1s-.9-.4-1.4-.4c-.5,0-1,.1-1.5.4-.5.3-1,.7-1.4,1.2-.4.5-.8,1.1-1.1,1.7v-1.4c.3-.7.7-1.3,1.1-1.8.5-.5,1-.9,1.6-1.2.6-.3,1.2-.5,1.8-.5Z"/>
        <path class="cls-6" d="M545.8,47c-.6,0-1.1-.1-1.6-.3s-.9-.5-1.1-1c-.3-.4-.4-.9-.4-1.6s.2-1.2.5-1.6c.4-.4.8-.8,1.4-1,.6-.2,1.2-.3,1.8-.3s1.4,0,2,.3c.6.2,1.1.4,1.7.6v1.2c-.7-.3-1.3-.5-1.8-.6-.6,0-1.1-.1-1.5-.1-.4,0-.8,0-1.1.2-.3.1-.6.3-.8.5-.2.2-.3.5-.3.8s0,.5.2.7.4.4.7.4c.3,0,.6.1.9.1s.7,0,1.1-.2c.4-.1.9-.3,1.3-.6.5-.3.9-.6,1.4-1v1.3c-.5.4-.9.8-1.4,1.1-.5.3-1,.6-1.4.8-.5.2-1,.3-1.5.3ZM551.4,46.8c-.4,0-.7,0-1-.3-.3-.2-.5-.5-.7-.8-.2-.4-.3-.8-.3-1.3v-3.5c0-.5-.1-.8-.3-1.1-.2-.3-.5-.5-.8-.6-.3-.1-.7-.2-1.2-.2s-1.2,0-1.7.2c-.6.2-1.2.4-1.8.6l-.4-1.5c.7-.3,1.4-.5,2.1-.7.7-.2,1.4-.3,2.1-.3s1.5.1,2.1.4c.6.3,1,.7,1.3,1.2.3.5.5,1.2.5,2v3.3c0,.3,0,.6.2.7.1.1.3.2.5.2s.2,0,.3,0,.2,0,.3,0l.4,1.3c-.1,0-.3.2-.6.3-.3,0-.6.1-.9.1Z"/>
        <path class="cls-6" d="M552.8,35.2v-1.5h3.6v1.5h-3.6ZM554.7,46.7v-13h1.8v11.4l-.7,1.6h-1.1ZM560.1,37.5c.7,0,1.4.2,2.1.6.6.4,1.1.9,1.5,1.6.4.7.6,1.5.6,2.4s-.1,1.4-.4,1.9c-.2.6-.6,1.1-1,1.5s-.9.8-1.5,1c-.6.2-1.2.4-1.8.4s-1.2-.1-1.7-.4c-.5-.2-.9-.6-1.3-.9-.4-.4-.7-.7-1-1.1v-1.3c.3.4.6.7,1,1,.4.3.8.6,1.2.8.4.2.9.3,1.4.3s.9,0,1.2-.2c.4-.2.7-.4,1-.7.3-.3.5-.6.7-1,.2-.4.2-.8.2-1.3s-.1-1.1-.4-1.6c-.2-.5-.6-.8-1-1.1s-.9-.4-1.4-.4c-.5,0-1,.1-1.5.4-.5.3-1,.7-1.4,1.2-.4.5-.8,1.1-1.1,1.7v-1.4c.3-.7.7-1.3,1.1-1.8.5-.5,1-.9,1.6-1.2.6-.3,1.2-.5,1.8-.5Z"/>
        <path class="cls-6" d="M565.3,35.2v-1.5h3.8v1.5h-3.8ZM565.3,46.7v-1.5h5.9v1.5h-5.9ZM567.3,46.3v-12.6h1.9v12.6h-1.9Z"/>
        <path class="cls-6" d="M577.2,47c-.6,0-1.2,0-1.8-.3-.6-.2-1.1-.5-1.6-.9s-.9-.9-1.1-1.4c-.3-.6-.4-1.2-.4-1.9s.1-1.5.4-2.1c.3-.6.7-1.1,1.1-1.5.5-.4,1-.7,1.6-1,.6-.2,1.2-.3,1.8-.3s1.4.1,2,.4c.6.2,1,.6,1.4,1,.3.4.5.9.5,1.5s-.2,1.1-.5,1.5c-.3.4-.8.7-1.4.9-.6.2-1.1.3-1.8.3s-1.5,0-2.1-.3-1.2-.4-1.8-.7v-1.1c.7.3,1.3.5,1.8.6.6.1,1.1.2,1.6.2s.8,0,1.1-.2c.3-.1.6-.3.8-.5s.3-.4.3-.7c0-.4-.2-.7-.5-1-.4-.2-.8-.4-1.4-.4s-.8,0-1.2.2c-.4.2-.8.4-1.1.7-.3.3-.6.6-.8,1.1s-.3.9-.3,1.4.2,1.2.5,1.6c.3.4.7.8,1.2,1,.5.2,1,.4,1.6.4s1.3-.1,1.9-.4c.5-.2,1-.5,1.4-.9l.8,1.2c-.4.3-.7.6-1.1.8-.4.2-.9.4-1.4.6s-1,.2-1.6.2Z"/>
        <path class="cls-6" d="M593.4,47c-.7,0-1.3-.1-1.9-.3-.6-.2-1.1-.5-1.6-1-.5-.4-.8-.9-1.1-1.5-.3-.6-.4-1.2-.4-1.9s.1-1.4.4-2c.3-.6.6-1.1,1.1-1.5s1-.7,1.6-1c.6-.2,1.2-.3,1.9-.3s1.2.1,1.8.3c.6.2,1.1.5,1.6,1s.8.9,1.1,1.5c.3.6.4,1.2.4,2s-.1,1.4-.4,1.9c-.3.6-.6,1.1-1.1,1.5-.5.4-1,.7-1.6,1-.6.2-1.2.3-1.9.3ZM593.4,45.5c.6,0,1.1-.1,1.5-.4.4-.3.8-.6,1.1-1.1.3-.5.4-1.1.4-1.7s-.1-1.2-.4-1.7c-.3-.5-.6-.9-1.1-1.1-.4-.3-.9-.4-1.5-.4s-1.1.1-1.5.4c-.5.3-.8.6-1.1,1.1s-.4,1.1-.4,1.7.1,1.2.4,1.7.6.9,1.1,1.1c.5.3,1,.4,1.5.4Z"/>
        <path class="cls-6" d="M599.3,39.2v-1.5h3.3v1.5h-3.3ZM604.2,47c-.5,0-.9,0-1.3-.2-.4-.2-.7-.4-1-.7-.3-.3-.5-.7-.6-1.2-.1-.5-.2-1.1-.2-1.7v-5.3h1.9v5.2c0,.3,0,.6.1.9,0,.3.2.5.3.7.1.2.3.4.6.5.2.1.5.2.9.2s.6,0,1-.2c.3-.1.7-.3,1-.6.3-.3.7-.6,1-.9.3-.4.7-.8,1-1.2v1.5c-.4.5-.8,1-1.1,1.3-.4.4-.8.7-1.1,1-.4.3-.8.5-1.2.6-.4.1-.8.2-1.2.2ZM606.3,39.2v-1.5h3.2v1.5h-3.2ZM610,46.9c-.4,0-.8,0-1.1-.3-.3-.2-.6-.4-.7-.8-.2-.3-.3-.8-.3-1.3v-6.8h1.9v6.7c0,.3,0,.6.2.7.1.1.3.2.5.2s.2,0,.3,0c0,0,.2,0,.3-.1l.4,1.3c-.2,0-.4.2-.6.2-.2,0-.5.1-.8.1Z"/>
        <path class="cls-6" d="M623.2,47c-.6,0-1.2-.1-1.8-.3-.6-.2-1.1-.5-1.6-1s-.8-.9-1.1-1.5c-.3-.6-.4-1.2-.4-1.9s.1-1.3.4-1.9c.2-.6.6-1.1,1-1.5s.9-.8,1.4-1c.5-.2,1.1-.4,1.7-.4s1.1,0,1.6.3.8.4,1.1.8c.3.3.6.7.8,1.2l-.6-.2v-1.9h1.3v3.1h-.8c-.2-.3-.4-.7-.7-1-.3-.3-.6-.5-1-.6-.4-.1-.8-.2-1.3-.2s-.9,0-1.2.2-.7.4-1,.6c-.3.3-.5.6-.6,1-.2.4-.2.8-.2,1.3s.1,1.2.4,1.7c.3.5.7.8,1.1,1.1.5.3,1,.4,1.5.4.7,0,1.3-.1,1.7-.4.5-.3.9-.6,1.4-1l.8,1.2c-.5.5-1.1.9-1.8,1.2-.7.3-1.4.5-2.3.5Z"/>
        <path class="cls-6" d="M633.6,47c-.6,0-1.2,0-1.8-.3-.6-.2-1.1-.5-1.6-.9s-.9-.9-1.1-1.4c-.3-.6-.4-1.2-.4-1.9s.1-1.5.4-2.1c.3-.6.7-1.1,1.1-1.5.5-.4,1-.7,1.6-1,.6-.2,1.2-.3,1.8-.3s1.4.1,2,.4c.6.2,1,.6,1.4,1,.3.4.5.9.5,1.5s-.2,1.1-.5,1.5c-.3.4-.8.7-1.4.9-.6.2-1.1.3-1.8.3s-1.5,0-2.1-.3-1.2-.4-1.8-.7v-1.1c.7.3,1.3.5,1.8.6.6.1,1.1.2,1.6.2s.8,0,1.1-.2c.3-.1.6-.3.8-.5s.3-.4.3-.7c0-.4-.2-.7-.5-1-.4-.2-.8-.4-1.4-.4s-.8,0-1.2.2c-.4.2-.8.4-1.1.7-.3.3-.6.6-.8,1.1s-.3.9-.3,1.4.2,1.2.5,1.6c.3.4.7.8,1.2,1,.5.2,1,.4,1.6.4s1.3-.1,1.9-.4c.5-.2,1-.5,1.4-.9l.8,1.2c-.4.3-.7.6-1.1.8-.4.2-.9.4-1.4.6s-1,.2-1.6.2Z"/>
        <path class="cls-6" d="M639.1,39.2v-1.5h3.8v1.5h-3.8ZM639.1,46.7v-1.5h5.9v1.5h-5.9ZM641.1,46.3v-8.5h1.9v8.5h-1.9ZM642.4,42.2v-1.5c.5-.6,1-1.2,1.5-1.7.5-.5,1.1-.9,1.7-1.1.6-.3,1.1-.4,1.7-.4h.8v3.8h-1.6v-2c-.4,0-.8.1-1.3.3s-.9.6-1.4,1c-.5.4-.9.9-1.4,1.5Z"/>
        <path class="cls-6" d="M649.1,39.2v-1.5h6.8v1.5h-6.8ZM654.3,47c-.6,0-1.2-.1-1.7-.4-.5-.3-.9-.7-1.1-1.2-.3-.5-.4-1.2-.4-1.9v-8.1h1.9v8.2c0,.4,0,.8.2,1.1.1.3.3.5.6.6.2.1.5.2.8.2s.7,0,1-.1c.3,0,.6-.2.8-.3l.6,1.4c-.3.2-.7.4-1.1.5s-1,.2-1.5.2Z"/>
        <path class="cls-6" d="M661.2,47c-.6,0-1.1-.1-1.6-.3s-.9-.5-1.1-1c-.3-.4-.4-.9-.4-1.6s.2-1.2.5-1.6c.4-.4.8-.8,1.4-1,.6-.2,1.2-.3,1.8-.3s1.4,0,2,.3c.6.2,1.1.4,1.7.6v1.2c-.7-.3-1.3-.5-1.8-.6-.6,0-1.1-.1-1.5-.1-.4,0-.8,0-1.1.2-.3.1-.6.3-.8.5-.2.2-.3.5-.3.8s0,.5.2.7.4.4.7.4c.3,0,.6.1.9.1s.7,0,1.1-.2c.4-.1.9-.3,1.3-.6.5-.3.9-.6,1.4-1v1.3c-.5.4-.9.8-1.4,1.1-.5.3-1,.6-1.4.8-.5.2-1,.3-1.5.3ZM666.8,46.8c-.4,0-.7,0-1-.3-.3-.2-.5-.5-.7-.8-.2-.4-.3-.8-.3-1.3v-3.5c0-.5-.1-.8-.3-1.1-.2-.3-.5-.5-.8-.6-.3-.1-.7-.2-1.2-.2s-1.2,0-1.7.2c-.6.2-1.2.4-1.8.6l-.4-1.5c.7-.3,1.4-.5,2.1-.7.7-.2,1.4-.3,2.1-.3s1.5.1,2.1.4c.6.3,1,.7,1.3,1.2.3.5.5,1.2.5,2v3.3c0,.3,0,.6.2.7.1.1.3.2.5.2s.2,0,.3,0,.2,0,.3,0l.4,1.3c-.1,0-.3.2-.6.3-.3,0-.6.1-.9.1Z"/>
        <path class="cls-6" d="M669.1,39.2v-1.5h3.5v1.5h-3.5ZM669.1,46.7v-1.5h5.9v1.5h-5.9ZM671.8,35.8c-.4,0-.7-.1-1-.3s-.4-.5-.4-.8.1-.6.4-.8c.3-.2.6-.3,1-.3s.8.1,1.1.3c.3.2.4.5.4.8s-.1.6-.4.8c-.3.2-.6.3-1.1.3ZM671.1,46.3v-8.5h1.9v8.5h-1.9Z"/>
        <path class="cls-6" d="M675.8,39.2v-1.5h3.5v1.5h-3.5ZM675.8,46.7v-1.5h5.5v1.5h-5.5ZM677.8,46.7v-8.9h1.9v8.9h-1.9ZM685.2,46.7v-5.2c0-.3,0-.6-.1-.9s-.2-.5-.4-.7c-.2-.2-.4-.3-.6-.4s-.5-.2-.9-.2-.7,0-1,.2c-.3.1-.7.3-1.1.6-.4.3-.7.6-1.1.9-.3.4-.7.8-1.1,1.2v-1.5c.4-.5.8-.9,1.2-1.3.4-.4.8-.7,1.2-1s.8-.5,1.2-.6c.4-.1.8-.2,1.3-.2s1,0,1.4.2c.4.2.7.4,1,.7.3.3.5.7.6,1.2.1.5.2,1.1.2,1.7v5.3h-1.9ZM683.5,46.7v-1.5h5.3v1.5h-5.3Z"/>
        <path class="cls-6" d="M694.7,47c-.6,0-1.2,0-1.8-.3-.6-.2-1.1-.5-1.6-.9s-.9-.9-1.1-1.4c-.3-.6-.4-1.2-.4-1.9s.1-1.5.4-2.1c.3-.6.7-1.1,1.1-1.5.5-.4,1-.7,1.6-1,.6-.2,1.2-.3,1.8-.3s1.4.1,2,.4c.6.2,1,.6,1.4,1,.3.4.5.9.5,1.5s-.2,1.1-.5,1.5c-.3.4-.8.7-1.4.9-.6.2-1.1.3-1.8.3s-1.5,0-2.1-.3c-.6-.2-1.2-.4-1.8-.7v-1.1c.7.3,1.3.5,1.8.6.6.1,1.1.2,1.6.2s.8,0,1.1-.2c.3-.1.6-.3.8-.5.2-.2.3-.4.3-.7,0-.4-.2-.7-.5-1-.4-.2-.8-.4-1.4-.4s-.8,0-1.2.2c-.4.2-.8.4-1.1.7-.3.3-.6.6-.8,1.1-.2.4-.3.9-.3,1.4s.2,1.2.5,1.6c.3.4.7.8,1.2,1,.5.2,1,.4,1.6.4s1.3-.1,1.9-.4c.5-.2,1-.5,1.4-.9l.8,1.2c-.4.3-.7.6-1.1.8-.4.2-.9.4-1.4.6s-1,.2-1.6.2Z"/>
      </g>
      <g>
        <path class="cls-6" d="M406.5,84.7v-1.6h6.2v1.6h-6.2ZM408,84.3l5.1-11.9h2.8l5.1,11.9h-2.1l-4.7-11.9h.4l-4.7,11.9h-1.9ZM410.9,73.2v-1.6h7.3v1.6h-7.3ZM411,80.1l.4-1.4h6.1l.4,1.4h-7ZM416.3,84.7v-1.6h6.2v1.6h-6.2Z"/>
        <path class="cls-6" d="M422,73.2v-1.5h3.6v1.5h-3.6ZM423.9,84.7v-13h1.8v11.4l-.7,1.6h-1.1ZM429.3,75.5c.7,0,1.4.2,2.1.6.6.4,1.1.9,1.5,1.6.4.7.6,1.5.6,2.4s-.1,1.4-.4,1.9c-.2.6-.6,1.1-1,1.5s-.9.8-1.5,1c-.6.2-1.2.4-1.8.4s-1.2-.1-1.7-.4c-.5-.2-.9-.6-1.3-.9-.4-.4-.7-.7-1-1.1v-1.3c.3.4.6.7,1,1,.4.3.8.6,1.2.8.4.2.9.3,1.4.3s.9,0,1.2-.2c.4-.2.7-.4,1-.7.3-.3.5-.6.7-1,.2-.4.2-.8.2-1.3s-.1-1.1-.4-1.6c-.2-.5-.6-.8-1-1.1s-.9-.4-1.4-.4c-.5,0-1,.1-1.5.4-.5.3-1,.7-1.4,1.2-.4.5-.8,1.1-1.1,1.7v-1.4c.3-.7.7-1.3,1.1-1.8.5-.5,1-.9,1.6-1.2.6-.3,1.2-.5,1.8-.5Z"/>
        <path class="cls-6" d="M440.1,85c-.4,0-.9,0-1.3-.2-.4-.1-.8-.3-1.2-.5s-.8-.4-1.1-.7c-.3-.3-.6-.6-.8-.9h.9v2h-1.4v-2.9h.8c.3.3.7.6,1.1.9s.9.6,1.4.8c.5.2,1,.3,1.5.3s.6,0,.8-.1.4-.2.5-.4.2-.4.2-.6,0-.4-.2-.6c-.1-.2-.3-.3-.5-.4-.2-.1-.5-.3-.8-.4-.3-.1-.7-.2-1.2-.4-.7-.2-1.3-.4-1.8-.6-.5-.3-1-.6-1.3-.9-.3-.4-.5-.8-.5-1.3s.1-.9.4-1.3c.3-.4.6-.7,1.1-.9s1-.3,1.6-.3,1.1,0,1.6.3c.5.2,1,.4,1.4.8.4.3.7.7,1,1.2h-.8v-2h1.4v2.9h-.8c-.2-.3-.5-.7-.9-1-.4-.3-.8-.5-1.2-.7-.4-.2-.8-.2-1.2-.2s-.6,0-.9.1c-.3,0-.5.2-.6.4s-.2.4-.2.6,0,.4.2.5c.1.2.3.3.5.4.2.1.5.2.8.4.3.1.7.2,1.1.4.7.2,1.3.4,1.8.7s1,.6,1.3,1c.3.4.5.9.5,1.4s-.1.9-.4,1.3c-.3.4-.7.7-1.2.8-.5.2-1,.3-1.6.3Z"/>
        <path class="cls-6" d="M450.4,85c-.6,0-1.2,0-1.8-.3-.6-.2-1.1-.5-1.6-.9s-.9-.9-1.1-1.4c-.3-.6-.4-1.2-.4-1.9s.1-1.5.4-2.1c.3-.6.7-1.1,1.1-1.5.5-.4,1-.7,1.6-1,.6-.2,1.2-.3,1.8-.3s1.4.1,2,.4c.6.2,1,.6,1.4,1,.3.4.5.9.5,1.5s-.2,1.1-.5,1.5c-.3.4-.8.7-1.4.9-.6.2-1.1.3-1.8.3s-1.5,0-2.1-.3-1.2-.4-1.8-.7v-1.1c.7.3,1.3.5,1.8.6.6.1,1.1.2,1.6.2s.8,0,1.1-.2c.3-.1.6-.3.8-.5s.3-.4.3-.7c0-.4-.2-.7-.5-1-.4-.2-.8-.4-1.4-.4s-.8,0-1.2.2c-.4.2-.8.4-1.1.7-.3.3-.6.6-.8,1.1s-.3.9-.3,1.4.2,1.2.5,1.6c.3.4.7.8,1.2,1,.5.2,1,.4,1.6.4s1.3-.1,1.9-.4c.5-.2,1-.5,1.4-.9l.8,1.2c-.4.3-.7.6-1.1.8-.4.2-.9.4-1.4.6s-1,.2-1.6.2Z"/>
        <path class="cls-6" d="M455.8,77.2v-1.5h3.5v1.5h-3.5ZM455.8,84.7v-1.5h5.5v1.5h-5.5ZM457.8,84.7v-8.9h1.9v8.9h-1.9ZM465.2,84.7v-5.2c0-.3,0-.6-.1-.9,0-.3-.2-.5-.4-.7-.2-.2-.4-.3-.6-.4s-.5-.2-.9-.2-.7,0-1,.2c-.3.1-.7.3-1.1.6-.4.3-.7.6-1.1.9-.3.4-.7.8-1.1,1.2v-1.5c.4-.5.8-.9,1.2-1.3.4-.4.8-.7,1.2-1s.8-.5,1.2-.6c.4-.1.8-.2,1.3-.2s1,0,1.4.2c.4.2.7.4,1,.7.3.3.5.7.6,1.2.1.5.2,1.1.2,1.7v5.3h-1.9ZM463.6,84.7v-1.5h5.3v1.5h-5.3Z"/>
        <path class="cls-6" d="M474.7,85c-.6,0-1.2-.1-1.8-.3-.6-.2-1.1-.5-1.6-1s-.8-.9-1.1-1.5c-.3-.6-.4-1.2-.4-1.9s.1-1.3.4-1.9c.2-.6.6-1.1,1-1.5s.9-.8,1.4-1c.5-.2,1.1-.4,1.7-.4s1.1,0,1.6.3.8.4,1.1.8c.3.3.6.7.8,1.2l-.6-.2v-1.9h1.3v3.1h-.8c-.2-.3-.4-.7-.7-1-.3-.3-.6-.5-1-.6-.4-.1-.8-.2-1.3-.2s-.9,0-1.2.2-.7.4-1,.6c-.3.3-.5.6-.6,1-.2.4-.2.8-.2,1.3s.1,1.2.4,1.7c.3.5.7.8,1.1,1.1.5.3,1,.4,1.5.4.7,0,1.3-.1,1.7-.4.5-.3.9-.6,1.4-1l.8,1.2c-.5.5-1.1.9-1.8,1.2-.7.3-1.4.5-2.3.5Z"/>
        <path class="cls-6" d="M485.1,85c-.6,0-1.2,0-1.8-.3-.6-.2-1.1-.5-1.6-.9s-.9-.9-1.1-1.4c-.3-.6-.4-1.2-.4-1.9s.1-1.5.4-2.1c.3-.6.7-1.1,1.1-1.5.5-.4,1-.7,1.6-1,.6-.2,1.2-.3,1.8-.3s1.4.1,2,.4c.6.2,1,.6,1.4,1,.3.4.5.9.5,1.5s-.2,1.1-.5,1.5c-.3.4-.8.7-1.4.9-.6.2-1.1.3-1.8.3s-1.5,0-2.1-.3-1.2-.4-1.8-.7v-1.1c.7.3,1.3.5,1.8.6.6.1,1.1.2,1.6.2s.8,0,1.1-.2c.3-.1.6-.3.8-.5s.3-.4.3-.7c0-.4-.2-.7-.5-1-.4-.2-.8-.4-1.4-.4s-.8,0-1.2.2c-.4.2-.8.4-1.1.7-.3.3-.6.6-.8,1.1s-.3.9-.3,1.4.2,1.2.5,1.6c.3.4.7.8,1.2,1,.5.2,1,.4,1.6.4s1.3-.1,1.9-.4c.5-.2,1-.5,1.4-.9l.8,1.2c-.4.3-.7.6-1.1.8-.4.2-.9.4-1.4.6s-1,.2-1.6.2Z"/>
        <path class="cls-6" d="M496.1,73.2v-1.5h3.8v1.5h-3.8ZM496.1,84.7v-1.5h5.9v1.5h-5.9ZM498.1,84.3v-12.6h1.9v12.6h-1.9Z"/>
        <path class="cls-6" d="M502.8,77.2v-1.5h3.5v1.5h-3.5ZM502.8,84.7v-1.5h5.9v1.5h-5.9ZM505.5,73.8c-.4,0-.7-.1-1-.3s-.4-.5-.4-.8.1-.6.4-.8c.3-.2.6-.3,1-.3s.8.1,1.1.3c.3.2.4.5.4.8s-.1.6-.4.8c-.3.2-.6.3-1.1.3ZM504.8,84.3v-8.5h1.9v8.5h-1.9Z"/>
        <path class="cls-6" d="M514.6,85c-.6,0-1.2,0-1.8-.3-.6-.2-1.1-.5-1.6-.9s-.9-.9-1.1-1.4c-.3-.6-.4-1.2-.4-1.9s.1-1.5.4-2.1c.3-.6.7-1.1,1.1-1.5.5-.4,1-.7,1.6-1,.6-.2,1.2-.3,1.8-.3s1.4.1,2,.4c.6.2,1,.6,1.4,1,.3.4.5.9.5,1.5s-.2,1.1-.5,1.5c-.3.4-.8.7-1.4.9-.6.2-1.1.3-1.8.3s-1.5,0-2.1-.3-1.2-.4-1.8-.7v-1.1c.7.3,1.3.5,1.8.6.6.1,1.1.2,1.6.2s.8,0,1.1-.2c.3-.1.6-.3.8-.5s.3-.4.3-.7c0-.4-.2-.7-.5-1-.4-.2-.8-.4-1.4-.4s-.8,0-1.2.2c-.4.2-.8.4-1.1.7-.3.3-.6.6-.8,1.1s-.3.9-.3,1.4.2,1.2.5,1.6c.3.4.7.8,1.2,1,.5.2,1,.4,1.6.4s1.3-.1,1.9-.4c.5-.2,1-.5,1.4-.9l.8,1.2c-.4.3-.7.6-1.1.8-.4.2-.9.4-1.4.6s-1,.2-1.6.2ZM514,74.3l-.6-.7,3.8-3.5,1,1.4-4.2,2.8Z"/>
        <path class="cls-6" d="M525.3,85c-.6,0-1.2,0-1.8-.3-.6-.2-1.1-.5-1.6-.9s-.9-.9-1.1-1.4c-.3-.6-.4-1.2-.4-1.9s.1-1.5.4-2.1c.3-.6.7-1.1,1.1-1.5.5-.4,1-.7,1.6-1,.6-.2,1.2-.3,1.8-.3s1.4.1,2,.4c.6.2,1,.6,1.4,1,.3.4.5.9.5,1.5s-.2,1.1-.5,1.5c-.3.4-.8.7-1.4.9-.6.2-1.1.3-1.8.3s-1.5,0-2.1-.3-1.2-.4-1.8-.7v-1.1c.7.3,1.3.5,1.8.6.6.1,1.1.2,1.6.2s.8,0,1.1-.2c.3-.1.6-.3.8-.5s.3-.4.3-.7c0-.4-.2-.7-.5-1-.4-.2-.8-.4-1.4-.4s-.8,0-1.2.2c-.4.2-.8.4-1.1.7-.3.3-.6.6-.8,1.1s-.3.9-.3,1.4.2,1.2.5,1.6c.3.4.7.8,1.2,1,.5.2,1,.4,1.6.4s1.3-.1,1.9-.4c.5-.2,1-.5,1.4-.9l.8,1.2c-.4.3-.7.6-1.1.8-.4.2-.9.4-1.4.6s-1,.2-1.6.2Z"/>
        <path class="cls-6" d="M410.5,104c-.6,0-1.1-.1-1.6-.3s-.9-.5-1.1-1c-.3-.4-.4-.9-.4-1.6s.2-1.2.5-1.6c.4-.4.8-.8,1.4-1,.6-.2,1.2-.3,1.8-.3s1.4,0,2,.3c.6.2,1.1.4,1.7.6v1.2c-.7-.3-1.3-.5-1.8-.6-.6,0-1.1-.1-1.5-.1-.4,0-.8,0-1.1.2-.3.1-.6.3-.8.5-.2.2-.3.5-.3.8s0,.5.2.7.4.4.7.4c.3,0,.6.1.9.1s.7,0,1.1-.2c.4-.1.9-.3,1.3-.6.5-.3.9-.6,1.4-1v1.3c-.5.4-.9.8-1.4,1.1-.5.3-1,.6-1.4.8-.5.2-1,.3-1.5.3ZM416.2,103.8c-.4,0-.7,0-1-.3-.3-.2-.5-.5-.7-.8-.2-.4-.3-.8-.3-1.3v-3.5c0-.5-.1-.8-.3-1.1-.2-.3-.5-.5-.8-.6-.3-.1-.7-.2-1.2-.2s-1.2,0-1.7.2c-.6.2-1.2.4-1.8.6l-.4-1.5c.7-.3,1.4-.5,2.1-.7.7-.2,1.4-.3,2.1-.3s1.5.1,2.1.4c.6.3,1,.7,1.3,1.2.3.5.5,1.2.5,2v3.3c0,.3,0,.6.2.7.1.1.3.2.5.2s.2,0,.3,0,.2,0,.3,0l.4,1.3c-.1,0-.3.2-.6.3-.3,0-.6.1-.9.1ZM412.4,93l-4.2-2.8,1-1.4,3.8,3.5-.5.7Z"/>
        <path class="cls-6" d="M423.7,96.2v-1.5h3.3v1.5h-3.3ZM428.6,104c-.5,0-.9,0-1.3-.2-.4-.2-.7-.4-1-.7-.3-.3-.5-.7-.6-1.2-.1-.5-.2-1.1-.2-1.7v-5.3h1.9v5.2c0,.3,0,.6.1.9,0,.3.2.5.3.7.1.2.3.4.6.5.2.1.5.2.9.2s.6,0,1-.2c.3-.1.7-.3,1-.6.3-.3.7-.6,1-.9.3-.4.7-.8,1-1.2v1.5c-.4.5-.8,1-1.1,1.3-.4.4-.8.7-1.1,1-.4.3-.8.5-1.2.6-.4.1-.8.2-1.2.2ZM430.7,96.2v-1.5h3.2v1.5h-3.2ZM434.4,103.9c-.4,0-.8,0-1.1-.3-.3-.2-.6-.4-.7-.8-.2-.3-.3-.8-.3-1.3v-6.8h1.9v6.7c0,.3,0,.6.2.7.1.1.3.2.5.2s.2,0,.3,0c0,0,.2,0,.3-.1l.4,1.3c-.2,0-.4.2-.6.2-.2,0-.5.1-.8.1Z"/>
        <path class="cls-6" d="M436.8,96.2v-1.5h3.5v1.5h-3.5ZM436.8,103.7v-1.5h5.5v1.5h-5.5ZM438.8,103.7v-8.9h1.9v8.9h-1.9ZM446.2,103.7v-5.2c0-.3,0-.6-.1-.9,0-.3-.2-.5-.4-.7-.2-.2-.4-.3-.6-.4s-.5-.2-.9-.2-.7,0-1,.2c-.3.1-.7.3-1.1.6-.4.3-.7.6-1.1.9-.3.4-.7.8-1.1,1.2v-1.5c.4-.5.8-.9,1.2-1.3.4-.4.8-.7,1.2-1s.8-.5,1.2-.6c.4-.1.8-.2,1.3-.2s1,0,1.4.2c.4.2.7.4,1,.7.3.3.5.7.6,1.2.1.5.2,1.1.2,1.7v5.3h-1.9ZM444.6,103.7v-1.5h5.3v1.5h-5.3Z"/>
        <path class="cls-6" d="M455.7,104c-.6,0-1.2,0-1.8-.3-.6-.2-1.1-.5-1.6-.9s-.9-.9-1.1-1.4c-.3-.6-.4-1.2-.4-1.9s.1-1.5.4-2.1c.3-.6.7-1.1,1.1-1.5.5-.4,1-.7,1.6-1,.6-.2,1.2-.3,1.8-.3s1.4.1,2,.4c.6.2,1,.6,1.4,1,.3.4.5.9.5,1.5s-.2,1.1-.5,1.5c-.3.4-.8.7-1.4.9-.6.2-1.1.3-1.8.3s-1.5,0-2.1-.3-1.2-.4-1.8-.7v-1.1c.7.3,1.3.5,1.8.6.6.1,1.1.2,1.6.2s.8,0,1.1-.2c.3-.1.6-.3.8-.5s.3-.4.3-.7c0-.4-.2-.7-.5-1-.4-.2-.8-.4-1.4-.4s-.8,0-1.2.2c-.4.2-.8.4-1.1.7-.3.3-.6.6-.8,1.1s-.3.9-.3,1.4.2,1.2.5,1.6c.3.4.7.8,1.2,1,.5.2,1,.4,1.6.4s1.3-.1,1.9-.4c.5-.2,1-.5,1.4-.9l.8,1.2c-.4.3-.7.6-1.1.8-.4.2-.9.4-1.4.6s-1,.2-1.6.2Z"/>
        <path class="cls-6" d="M471.4,104c-.8,0-1.5-.2-2.1-.6s-1.2-.9-1.6-1.6c-.4-.7-.6-1.5-.6-2.4s.1-1.4.4-2c.2-.6.6-1.1,1-1.5.4-.4.9-.8,1.5-1,.6-.2,1.2-.4,1.8-.4s1.2.1,1.7.4c.5.2,1,.5,1.3.9.4.4.7.7,1,1.1v1.4c-.3-.4-.6-.7-1-1-.4-.3-.8-.6-1.2-.8-.4-.2-.9-.3-1.4-.3s-.9,0-1.3.2c-.4.2-.7.4-1,.7-.3.3-.5.6-.7,1-.2.4-.2.8-.2,1.3s.1,1.1.4,1.6c.2.5.6.8,1,1.1s.9.4,1.5.4c.5,0,1-.1,1.5-.4.5-.2.9-.5,1.3-.8.4-.3.8-.7,1.1-1v1.4c-.2.2-.5.5-.8.8-.3.3-.6.5-1,.8s-.7.4-1.2.6c-.4.2-.9.2-1.4.2ZM472.7,92.2v-1.5h3.7v1.5h-3.7ZM476.8,103.9c-.6,0-1.1-.2-1.5-.6s-.6-1-.6-1.7v-10.9h1.8v10.7c0,.3,0,.6.2.7.1.1.3.2.4.2s.3,0,.4,0c.1,0,.2,0,.3-.1l.4,1.4c-.1,0-.3.2-.6.2-.3,0-.5.1-.8.1Z"/>
        <path class="cls-6" d="M479.2,96.2v-1.5h3.5v1.5h-3.5ZM479.2,103.7v-1.5h5.9v1.5h-5.9ZM481.9,92.8c-.4,0-.7-.1-1-.3s-.4-.5-.4-.8.1-.6.4-.8c.3-.2.6-.3,1-.3s.8.1,1.1.3c.3.2.4.5.4.8s-.1.6-.4.8c-.3.2-.6.3-1.1.3ZM481.2,103.3v-8.5h1.9v8.5h-1.9Z"/>
        <path class="cls-6" d="M491.2,104c-.4,0-.9,0-1.3-.2-.4-.1-.8-.3-1.2-.5s-.8-.4-1.1-.7c-.3-.3-.6-.6-.8-.9h.9v2h-1.4v-2.9h.8c.3.3.7.6,1.1.9s.9.6,1.4.8c.5.2,1,.3,1.5.3s.6,0,.8-.1.4-.2.5-.4.2-.4.2-.6,0-.4-.2-.6c-.1-.2-.3-.3-.5-.4-.2-.1-.5-.3-.8-.4-.3-.1-.7-.2-1.2-.4-.7-.2-1.3-.4-1.8-.6-.5-.3-1-.6-1.3-.9-.3-.4-.5-.8-.5-1.3s.1-.9.4-1.3c.3-.4.6-.7,1.1-.9s1-.3,1.6-.3,1.1,0,1.6.3c.5.2,1,.4,1.4.8.4.3.7.7,1,1.2h-.8v-2h1.4v2.9h-.8c-.2-.3-.5-.7-.9-1-.4-.3-.8-.5-1.2-.7-.4-.2-.8-.2-1.2-.2s-.6,0-.9.1c-.3,0-.5.2-.6.4s-.2.4-.2.6,0,.4.2.5c.1.2.3.3.5.4.2.1.5.2.8.4.3.1.7.2,1.1.4.7.2,1.3.4,1.8.7s1,.6,1.3,1c.3.4.5.9.5,1.4s-.1.9-.4,1.3c-.3.4-.7.7-1.2.8-.5.2-1,.3-1.6.3Z"/>
        <path class="cls-6" d="M496,96.2v-1.5h3.8v1.5h-3.8ZM496,107.8v-1.5h5.9v1.5h-5.9ZM498,107.4v-12.7h1.8v12.7h-1.8ZM502.9,104c-.7,0-1.3-.1-1.8-.4-.5-.2-.9-.6-1.3-.9-.4-.4-.7-.7-1-1.1v-1.3c.3.4.6.7,1,1,.4.3.8.6,1.3.8s.9.3,1.4.3.9,0,1.3-.2c.4-.2.7-.4,1-.7.3-.3.5-.6.6-1,.2-.4.2-.8.2-1.3s-.1-1.1-.4-1.6c-.2-.5-.6-.8-1-1.1s-.9-.4-1.4-.4c-.5,0-1,.1-1.5.4-.5.3-1,.7-1.4,1.2-.4.5-.8,1.1-1.1,1.7v-1.4c.3-.7.7-1.3,1.2-1.8.5-.5,1-.9,1.6-1.2.6-.3,1.2-.5,1.8-.5s1.4.2,2.1.6c.6.4,1.1.9,1.5,1.6.4.7.6,1.5.6,2.4s-.1,1.4-.4,1.9c-.2.6-.6,1.1-1,1.5-.4.4-.9.8-1.5,1-.6.2-1.2.4-1.8.4Z"/>
        <path class="cls-6" d="M512.3,104c-.6,0-1.1-.1-1.6-.3s-.9-.5-1.1-1c-.3-.4-.4-.9-.4-1.6s.2-1.2.5-1.6c.4-.4.8-.8,1.4-1,.6-.2,1.2-.3,1.8-.3s1.4,0,2,.3c.6.2,1.1.4,1.7.6v1.2c-.7-.3-1.3-.5-1.8-.6-.6,0-1.1-.1-1.5-.1-.4,0-.8,0-1.1.2-.3.1-.6.3-.8.5-.2.2-.3.5-.3.8s0,.5.2.7.4.4.7.4c.3,0,.6.1.9.1s.7,0,1.1-.2c.4-.1.9-.3,1.3-.6.5-.3.9-.6,1.4-1v1.3c-.5.4-.9.8-1.4,1.1-.5.3-1,.6-1.4.8-.5.2-1,.3-1.5.3ZM517.9,103.8c-.4,0-.7,0-1-.3-.3-.2-.5-.5-.7-.8-.2-.4-.3-.8-.3-1.3v-3.5c0-.5-.1-.8-.3-1.1-.2-.3-.5-.5-.8-.6-.3-.1-.7-.2-1.2-.2s-1.2,0-1.7.2c-.6.2-1.2.4-1.8.6l-.4-1.5c.7-.3,1.4-.5,2.1-.7.7-.2,1.4-.3,2.1-.3s1.5.1,2.1.4c.6.3,1,.7,1.3,1.2.3.5.5,1.2.5,2v3.3c0,.3,0,.6.2.7.1.1.3.2.5.2s.2,0,.3,0,.2,0,.3,0l.4,1.3c-.1,0-.3.2-.6.3-.3,0-.6.1-.9.1Z"/>
        <path class="cls-6" d="M520.2,96.2v-1.5h3.8v1.5h-3.8ZM520.2,103.7v-1.5h5.9v1.5h-5.9ZM522.2,103.3v-8.5h1.9v8.5h-1.9ZM523.5,99.2v-1.5c.5-.6,1-1.2,1.5-1.7.5-.5,1.1-.9,1.7-1.1.6-.3,1.1-.4,1.7-.4h.8v3.8h-1.6v-2c-.4,0-.8.1-1.3.3s-.9.6-1.4,1c-.5.4-.9.9-1.4,1.5Z"/>
        <path class="cls-6" d="M530.6,96.2v-1.5h3.5v1.5h-3.5ZM530.6,103.7v-1.5h5.9v1.5h-5.9ZM533.3,92.8c-.4,0-.7-.1-1-.3s-.4-.5-.4-.8.1-.6.4-.8c.3-.2.6-.3,1-.3s.8.1,1.1.3c.3.2.4.5.4.8s-.1.6-.4.8c-.3.2-.6.3-1.1.3ZM532.6,103.3v-8.5h1.9v8.5h-1.9Z"/>
        <path class="cls-6" d="M536.9,96.2v-1.5h6.8v1.5h-6.8ZM542,104c-.6,0-1.2-.1-1.7-.4-.5-.3-.9-.7-1.1-1.2-.3-.5-.4-1.2-.4-1.9v-8.1h1.9v8.2c0,.4,0,.8.2,1.1.1.3.3.5.6.6.2.1.5.2.8.2s.7,0,1-.1c.3,0,.6-.2.8-.3l.6,1.4c-.3.2-.7.4-1.1.5s-1,.2-1.5.2Z"/>
        <path class="cls-6" d="M545.6,96.2v-1.5h3.5v1.5h-3.5ZM545.6,103.7v-1.5h5.9v1.5h-5.9ZM548.3,92.8c-.4,0-.7-.1-1-.3s-.4-.5-.4-.8.1-.6.4-.8c.3-.2.6-.3,1-.3s.8.1,1.1.3c.3.2.4.5.4.8s-.1.6-.4.8c-.3.2-.6.3-1.1.3ZM547.6,103.3v-8.5h1.9v8.5h-1.9Z"/>
        <path class="cls-6" d="M557.4,104c-.7,0-1.3-.1-1.9-.3-.6-.2-1.1-.5-1.6-1-.5-.4-.8-.9-1.1-1.5-.3-.6-.4-1.2-.4-1.9s.1-1.4.4-2c.3-.6.6-1.1,1.1-1.5s1-.7,1.6-1c.6-.2,1.2-.3,1.9-.3s1.2.1,1.8.3c.6.2,1.1.5,1.6,1s.8.9,1.1,1.5c.3.6.4,1.2.4,2s-.1,1.4-.4,1.9c-.3.6-.6,1.1-1.1,1.5-.5.4-1,.7-1.6,1-.6.2-1.2.3-1.9.3ZM557.4,102.5c.6,0,1.1-.1,1.5-.4.4-.3.8-.6,1.1-1.1.3-.5.4-1.1.4-1.7s-.1-1.2-.4-1.7c-.3-.5-.6-.9-1.1-1.1-.4-.3-.9-.4-1.5-.4s-1.1.1-1.5.4c-.5.3-.8.6-1.1,1.1s-.4,1.1-.4,1.7.1,1.2.4,1.7.6.9,1.1,1.1c.5.3,1,.4,1.5.4Z"/>
        <path class="cls-6" d="M563.7,96.2v-1.5h3.5v1.5h-3.5ZM563.7,103.7v-1.5h5.5v1.5h-5.5ZM565.7,103.7v-8.9h1.9v8.9h-1.9ZM573.1,103.7v-5.2c0-.3,0-.6-.1-.9,0-.3-.2-.5-.4-.7-.2-.2-.4-.3-.6-.4s-.5-.2-.9-.2-.7,0-1,.2c-.3.1-.7.3-1.1.6-.4.3-.7.6-1.1.9-.3.4-.7.8-1.1,1.2v-1.5c.4-.5.8-.9,1.2-1.3.4-.4.8-.7,1.2-1s.8-.5,1.2-.6c.4-.1.8-.2,1.3-.2s1,0,1.4.2c.4.2.7.4,1,.7.3.3.5.7.6,1.2.1.5.2,1.1.2,1.7v5.3h-1.9ZM571.4,103.7v-1.5h5.3v1.5h-5.3Z"/>
        <path class="cls-6" d="M586.6,104c-.6,0-1.1-.1-1.6-.3s-.9-.5-1.1-1c-.3-.4-.4-.9-.4-1.6s.2-1.2.5-1.6c.4-.4.8-.8,1.4-1,.6-.2,1.2-.3,1.8-.3s1.4,0,2,.3c.6.2,1.1.4,1.7.6v1.2c-.7-.3-1.3-.5-1.8-.6-.6,0-1.1-.1-1.5-.1-.4,0-.8,0-1.1.2-.3.1-.6.3-.8.5-.2.2-.3.5-.3.8s0,.5.2.7.4.4.7.4c.3,0,.6.1.9.1s.7,0,1.1-.2c.4-.1.9-.3,1.3-.6.5-.3.9-.6,1.4-1v1.3c-.5.4-.9.8-1.4,1.1-.5.3-1,.6-1.4.8-.5.2-1,.3-1.5.3ZM592.2,103.8c-.4,0-.7,0-1-.3-.3-.2-.5-.5-.7-.8-.2-.4-.3-.8-.3-1.3v-3.5c0-.5-.1-.8-.3-1.1-.2-.3-.5-.5-.8-.6-.3-.1-.7-.2-1.2-.2s-1.2,0-1.7.2c-.6.2-1.2.4-1.8.6l-.4-1.5c.7-.3,1.4-.5,2.1-.7.7-.2,1.4-.3,2.1-.3s1.5.1,2.1.4c.6.3,1,.7,1.3,1.2.3.5.5,1.2.5,2v3.3c0,.3,0,.6.2.7.1.1.3.2.5.2s.2,0,.3,0,.2,0,.3,0l.4,1.3c-.1,0-.3.2-.6.3-.3,0-.6.1-.9.1Z"/>
        <path class="cls-6" d="M593.6,96.2v-1.5h4.8v1.4h-2.9c0,.1-1.9.1-1.9.1ZM599,104l-4.4-8.4h2.1l3,6.1,2.9-6.1h1.7l-4.3,8.4h-1ZM600.9,96.1v-1.4h4.6v1.5h-2.1c0-.1-2.5-.1-2.5-.1Z"/>
        <path class="cls-6" d="M611,104c-.6,0-1.2,0-1.8-.3-.6-.2-1.1-.5-1.6-.9s-.9-.9-1.1-1.4c-.3-.6-.4-1.2-.4-1.9s.1-1.5.4-2.1c.3-.6.7-1.1,1.1-1.5.5-.4,1-.7,1.6-1,.6-.2,1.2-.3,1.8-.3s1.4.1,2,.4c.6.2,1,.6,1.4,1,.3.4.5.9.5,1.5s-.2,1.1-.5,1.5c-.3.4-.8.7-1.4.9-.6.2-1.1.3-1.8.3s-1.5,0-2.1-.3-1.2-.4-1.8-.7v-1.1c.7.3,1.3.5,1.8.6.6.1,1.1.2,1.6.2s.8,0,1.1-.2c.3-.1.6-.3.8-.5s.3-.4.3-.7c0-.4-.2-.7-.5-1-.4-.2-.8-.4-1.4-.4s-.8,0-1.2.2c-.4.2-.8.4-1.1.7-.3.3-.6.6-.8,1.1s-.3.9-.3,1.4.2,1.2.5,1.6c.3.4.7.8,1.2,1,.5.2,1,.4,1.6.4s1.3-.1,1.9-.4c.5-.2,1-.5,1.4-.9l.8,1.2c-.4.3-.7.6-1.1.8-.4.2-.9.4-1.4.6s-1,.2-1.6.2ZM610.4,93.3l-.6-.7,3.8-3.5,1,1.4-4.2,2.8Z"/>
        <path class="cls-6" d="M616.4,96.2v-1.5h3.8v1.5h-3.8ZM616.4,103.7v-1.5h5.9v1.5h-5.9ZM618.4,103.3v-8.5h1.9v8.5h-1.9ZM619.7,99.2v-1.5c.5-.6,1-1.2,1.5-1.7.5-.5,1.1-.9,1.7-1.1.6-.3,1.1-.4,1.7-.4h.8v3.8h-1.6v-2c-.4,0-.8.1-1.3.3s-.9.6-1.4,1c-.5.4-.9.9-1.4,1.5Z"/>
        <path class="cls-6" d="M631.8,104c-.6,0-1.2,0-1.8-.3-.6-.2-1.1-.5-1.6-.9s-.9-.9-1.1-1.4c-.3-.6-.4-1.2-.4-1.9s.1-1.5.4-2.1c.3-.6.7-1.1,1.1-1.5.5-.4,1-.7,1.6-1,.6-.2,1.2-.3,1.8-.3s1.4.1,2,.4c.6.2,1,.6,1.4,1,.3.4.5.9.5,1.5s-.2,1.1-.5,1.5c-.3.4-.8.7-1.4.9-.6.2-1.1.3-1.8.3s-1.5,0-2.1-.3-1.2-.4-1.8-.7v-1.1c.7.3,1.3.5,1.8.6.6.1,1.1.2,1.6.2s.8,0,1.1-.2c.3-.1.6-.3.8-.5s.3-.4.3-.7c0-.4-.2-.7-.5-1-.4-.2-.8-.4-1.4-.4s-.8,0-1.2.2c-.4.2-.8.4-1.1.7-.3.3-.6.6-.8,1.1s-.3.9-.3,1.4.2,1.2.5,1.6c.3.4.7.8,1.2,1,.5.2,1,.4,1.6.4s1.3-.1,1.9-.4c.5-.2,1-.5,1.4-.9l.8,1.2c-.4.3-.7.6-1.1.8-.4.2-.9.4-1.4.6s-1,.2-1.6.2ZM631.2,93.3l-.6-.7,3.8-3.5,1,1.4-4.2,2.8Z"/>
        <path class="cls-6" d="M642.4,104c-.6,0-1.2,0-1.8-.3-.6-.2-1.1-.5-1.6-.9s-.9-.9-1.1-1.4c-.3-.6-.4-1.2-.4-1.9s.1-1.5.4-2.1c.3-.6.7-1.1,1.1-1.5.5-.4,1-.7,1.6-1,.6-.2,1.2-.3,1.8-.3s1.4.1,2,.4c.6.2,1,.6,1.4,1,.3.4.5.9.5,1.5s-.2,1.1-.5,1.5c-.3.4-.8.7-1.4.9-.6.2-1.1.3-1.8.3s-1.5,0-2.1-.3-1.2-.4-1.8-.7v-1.1c.7.3,1.3.5,1.8.6.6.1,1.1.2,1.6.2s.8,0,1.1-.2c.3-.1.6-.3.8-.5s.3-.4.3-.7c0-.4-.2-.7-.5-1-.4-.2-.8-.4-1.4-.4s-.8,0-1.2.2c-.4.2-.8.4-1.1.7-.3.3-.6.6-.8,1.1s-.3.9-.3,1.4.2,1.2.5,1.6c.3.4.7.8,1.2,1,.5.2,1,.4,1.6.4s1.3-.1,1.9-.4c.5-.2,1-.5,1.4-.9l.8,1.2c-.4.3-.7.6-1.1.8-.4.2-.9.4-1.4.6s-1,.2-1.6.2Z"/>
      </g>
    </g>
  </g>
  <g id="footer">
    <g>
      <path class="cls-6" d="M23.8,864.5c-.5,0-1,0-1.5-.2-.5-.2-1-.4-1.4-.6-.4-.3-.9-.6-1.3-1-.4-.4-.8-.8-1.1-1.2l1,.2v2.6h-1.7v-4h1.1c.3.4.6.8,1,1.1s.8.6,1.2.9c.4.2.8.4,1.3.5.4.1.8.2,1.2.2s.7,0,1.1-.2c.3-.1.5-.3.7-.5.2-.2.3-.5.3-.8s0-.5-.2-.7c-.1-.2-.4-.4-.6-.6-.3-.2-.7-.4-1.2-.5s-1.1-.3-1.7-.5c-.9-.2-1.7-.6-2.3-.9-.6-.4-1-.8-1.3-1.2-.3-.5-.4-1-.4-1.6s.2-1.2.5-1.7c.4-.5.8-.8,1.4-1.1.6-.3,1.2-.4,1.9-.4s1.3.1,1.9.3c.6.2,1.1.6,1.6,1s.9,1,1.2,1.7l-.9-.2v-2.7h1.7v3.9h-1.1c-.3-.5-.7-1-1.1-1.4s-.9-.7-1.4-.9-1-.3-1.5-.3-.8,0-1.1.2c-.3.1-.6.3-.8.5s-.3.5-.3.8,0,.5.2.7.3.4.6.6.6.3,1,.5c.4.2.9.3,1.5.5.9.2,1.7.5,2.4.9.7.3,1.2.7,1.6,1.2.4.5.6,1,.6,1.7s-.2,1.2-.5,1.7c-.3.5-.8.8-1.4,1.1-.6.2-1.3.4-2,.4Z"/>
      <path class="cls-6" d="M33.5,864.5c-.6,0-1.1,0-1.7-.3s-1-.5-1.4-.8-.7-.8-1-1.3-.4-1.1-.4-1.7.1-1.2.4-1.8c.2-.5.6-1,1-1.3s.9-.7,1.4-.8,1.1-.3,1.7-.3,1.1,0,1.7.3c.5.2,1,.5,1.4.8s.8.8,1,1.3c.2.5.4,1.1.4,1.8s-.1,1.2-.4,1.7c-.2.5-.6,1-1,1.3-.4.4-.9.7-1.4.8s-1.1.3-1.7.3ZM33.5,863.1c.5,0,.9-.1,1.3-.3.4-.2.7-.5.9-1,.2-.4.3-.9.3-1.5s-.1-1.1-.3-1.5c-.2-.4-.5-.7-.9-1-.4-.2-.8-.3-1.3-.3s-.9.1-1.3.3c-.4.2-.7.5-.9,1-.2.4-.3.9-.3,1.5s.1,1.1.3,1.5c.2.4.5.7.9,1,.4.2.8.3,1.3.3Z"/>
      <path class="cls-6" d="M38.8,857.8v-1.4h3v1.4h-3ZM43.1,864.5c-.4,0-.8,0-1.2-.2-.4-.2-.6-.4-.9-.7-.2-.3-.4-.7-.6-1.1s-.2-1-.2-1.6v-4.7h1.8v4.6c0,.3,0,.5,0,.8,0,.2.1.4.3.6.1.2.3.3.5.4.2,0,.5.1.8.1s.6,0,.8-.2c.3-.1.6-.3.9-.5s.6-.5.9-.9c.3-.3.6-.7.9-1.1v1.4c-.4.5-.7.9-1,1.2-.3.4-.7.7-1,.9-.3.2-.7.4-1,.6-.4.1-.7.2-1.1.2ZM45,857.8v-1.4h3v1.4h-3ZM48.4,864.5c-.4,0-.7,0-1-.2s-.5-.4-.7-.7c-.2-.3-.2-.7-.2-1.2v-6h1.8v5.9c0,.3,0,.5.2.6.1.1.2.2.4.2s.2,0,.3,0,.1,0,.2,0l.4,1.3c-.1,0-.3.2-.6.2-.2,0-.5.1-.8.1Z"/>
      <path class="cls-6" d="M50.6,857.8v-1.4h3.5v1.4h-3.5ZM50.6,864.3v-1.4h5.4v1.4h-5.4ZM52.3,863.9v-7.6h1.8v7.6h-1.8ZM53.5,860.4v-1.4c.4-.6.9-1.1,1.3-1.5.5-.4,1-.8,1.5-1,.5-.2,1-.4,1.5-.4h.7v3.5h-1.6v-1.7c-.3,0-.7.1-1.1.3s-.8.5-1.2.9c-.4.4-.8.8-1.2,1.4Z"/>
      <path class="cls-6" d="M64.3,864.6c-.6,0-1.1,0-1.6-.3-.5-.2-1-.5-1.4-.9-.4-.4-.7-.8-1-1.3s-.4-1.1-.4-1.8.1-1.2.3-1.7c.2-.5.5-1,.9-1.3.4-.4.8-.7,1.3-.9s1-.3,1.5-.3,1,0,1.4.2c.4.2.7.4,1,.7.3.3.5.7.7,1.1h-.6v-1.8h1.3v2.8h-.8c-.2-.3-.4-.6-.6-.8s-.5-.4-.8-.5c-.3-.1-.7-.2-1.1-.2s-.7,0-1.1.2c-.3.1-.6.3-.8.6-.2.2-.4.5-.6.9-.1.3-.2.7-.2,1.1s.1,1,.4,1.4c.2.4.6.7,1,1s.8.3,1.3.3c.6,0,1.1,0,1.5-.3.4-.2.8-.5,1.2-.9l.8,1.2c-.5.4-1,.8-1.6,1.1-.6.3-1.3.4-2,.4Z"/>
      <path class="cls-6" d="M73.6,864.5c-.6,0-1.1,0-1.6-.3s-1-.4-1.4-.8c-.4-.3-.8-.8-1-1.3-.2-.5-.4-1.1-.4-1.7s.1-1.3.4-1.9.6-1,1-1.4c.4-.4.9-.7,1.5-.9s1.1-.3,1.7-.3,1.3.1,1.8.3c.5.2.9.5,1.2.9.3.4.5.8.5,1.4s-.2,1-.5,1.3c-.3.4-.7.6-1.2.8-.5.2-1,.3-1.6.3s-1.3,0-1.9-.3-1.1-.4-1.6-.6v-1.1c.6.3,1.1.4,1.6.5.5,0,1,.1,1.4.1.4,0,.7,0,1-.1s.5-.2.7-.4.3-.4.3-.6c0-.3-.2-.6-.5-.8-.3-.2-.7-.3-1.2-.3s-.7,0-1.1.2c-.4.1-.7.3-.9.6-.3.2-.5.6-.7.9-.2.4-.3.8-.3,1.2s.1,1,.4,1.4c.3.4.6.7,1,.9.4.2.9.3,1.4.3s1.2-.1,1.7-.3.9-.5,1.3-.8l.8,1.2c-.3.3-.7.5-1,.7-.4.2-.8.4-1.2.5-.5.1-1,.2-1.5.2Z"/>
      <path class="cls-6" d="M85.7,858.5c-.4,0-.8-.1-1-.3-.3-.2-.4-.5-.4-.8s.1-.6.4-.8c.3-.2.6-.3,1-.3s.8.1,1.1.3c.3.2.4.5.4.8s-.1.6-.4.8c-.3.2-.6.3-1.1.3ZM85.7,864.5c-.4,0-.8-.1-1-.3-.3-.2-.4-.5-.4-.8s.1-.6.4-.9c.3-.2.6-.3,1-.3s.8.1,1.1.3c.3.2.4.5.4.9s-.1.6-.4.8-.6.3-1.1.3Z"/>
      <path class="cls-6" d="M94.1,854.2v-1.5h6.2v1.5h-6.2ZM94.1,864.3v-1.5h6.2v1.5h-6.2ZM96.3,863.4v-9.9h1.9v9.9h-1.9Z"/>
      <path class="cls-6" d="M101.4,857.8v-1.4h3.2v1.4h-3.2ZM101.4,864.3v-1.4h5v1.4h-5ZM103.2,864.3v-8h1.8v8h-1.8ZM109.8,864.3v-4.6c0-.3,0-.6-.1-.8,0-.2-.2-.4-.3-.6-.1-.2-.3-.3-.6-.4-.2,0-.5-.1-.8-.1s-.6,0-.9.2c-.3.1-.6.3-.9.5-.3.2-.6.5-.9.8-.3.3-.6.7-.9,1.1v-1.4c.4-.5.7-.9,1.1-1.2.3-.4.7-.7,1-.9s.7-.4,1.1-.6c.4-.1.8-.2,1.2-.2s.9,0,1.2.2c.4.1.7.4.9.7.2.3.4.7.6,1.1.1.4.2,1,.2,1.6v4.6h-1.8ZM108.3,864.3v-1.4h4.8v1.4h-4.8Z"/>
      <path class="cls-6" d="M113.1,857.8v-1.4h4.4v1.3h-2.7c0,.1-1.7.1-1.7.1ZM117.9,864.5l-4-7.5h2l2.6,5.3,2.5-5.2h1.6l-3.9,7.4h-.9ZM119.5,857.6v-1.3h4.1v1.4h-1.8c0-.1-2.3-.1-2.3-.1Z"/>
      <path class="cls-6" d="M128.6,864.5c-.6,0-1.1,0-1.6-.3-.5-.2-1-.4-1.4-.8s-.8-.8-1-1.3c-.2-.5-.4-1.1-.4-1.7s.1-1.3.4-1.9c.3-.5.6-1,1-1.4s.9-.7,1.5-.9,1.1-.3,1.7-.3,1.3.1,1.8.3c.5.2.9.5,1.2.9.3.4.5.8.5,1.4s-.2,1-.5,1.3c-.3.4-.7.6-1.2.8-.5.2-1,.3-1.6.3s-1.3,0-1.9-.3c-.5-.2-1.1-.4-1.6-.6v-1.1c.6.3,1.1.4,1.6.5.5,0,1,.1,1.4.1.4,0,.7,0,1-.1s.5-.2.7-.4.3-.4.3-.6c0-.3-.1-.6-.5-.8-.3-.2-.7-.3-1.2-.3s-.7,0-1.1.2c-.4.1-.7.3-.9.6-.3.2-.5.6-.7.9-.2.4-.3.8-.3,1.2s.1,1,.4,1.4c.3.4.6.7,1,.9s.9.3,1.4.3,1.2-.1,1.7-.3.9-.5,1.3-.8l.8,1.2c-.3.3-.7.5-1,.7-.4.2-.8.4-1.2.5-.5.1-1,.2-1.5.2Z"/>
      <path class="cls-6" d="M133.5,857.8v-1.4h3.2v1.4h-3.2ZM133.5,864.3v-1.4h5v1.4h-5ZM135.2,864.3v-8h1.8v8h-1.8ZM141.8,864.3v-4.6c0-.3,0-.6-.1-.8,0-.2-.2-.4-.3-.6-.1-.2-.3-.3-.6-.4-.2,0-.5-.1-.8-.1s-.6,0-.9.2-.6.3-.9.5c-.3.2-.6.5-.9.8-.3.3-.6.7-.9,1.1v-1.4c.4-.5.7-.9,1.1-1.2.3-.4.7-.7,1-.9s.7-.4,1.1-.6c.4-.1.8-.2,1.2-.2s.9,0,1.2.2c.4.1.7.4.9.7.2.3.4.7.6,1.1s.2,1,.2,1.6v4.6h-1.8ZM140.4,864.3v-1.4h4.8v1.4h-4.8Z"/>
      <path class="cls-6" d="M145.4,857.8v-1.4h6.2v1.4h-6.2ZM150.1,864.5c-.6,0-1.1-.1-1.5-.4-.4-.3-.8-.6-1-1.1-.2-.5-.4-1.1-.4-1.8v-7.2h1.8v7.2c0,.4,0,.7.2.9.1.2.3.4.5.5.2.1.5.2.7.2s.6,0,.8-.1c.3,0,.5-.2.7-.3l.5,1.3c-.3.2-.6.3-1,.5-.4.1-.9.2-1.4.2Z"/>
      <path class="cls-6" d="M156.2,864.5c-.5,0-1,0-1.4-.3s-.8-.5-1-.9c-.3-.4-.4-.8-.4-1.4,0-.6.2-1.1.5-1.5.3-.4.7-.7,1.2-.9s1.1-.3,1.6-.3,1.3,0,1.8.2c.5.2,1,.3,1.5.6v1.2c-.6-.3-1.1-.4-1.6-.5s-.9-.1-1.3-.1c-.3,0-.6,0-.9.1-.3,0-.5.2-.7.4s-.3.4-.3.7,0,.5.2.6c.1.2.3.3.5.4.2,0,.5.1.7.1s.6,0,1-.2c.4-.1.8-.3,1.2-.5.4-.2.8-.6,1.2-.9v1.2c-.4.4-.8.7-1.2,1-.4.3-.9.5-1.3.7s-.9.2-1.3.2ZM161.3,864.4c-.3,0-.6,0-.9-.3-.3-.2-.5-.4-.6-.7-.2-.3-.2-.7-.2-1.2v-3.1c0-.4,0-.7-.3-.9s-.4-.4-.7-.5c-.3-.1-.7-.2-1-.2s-1,0-1.5.2c-.5.1-1.1.3-1.6.5l-.4-1.4c.6-.3,1.3-.5,1.9-.6s1.3-.2,1.9-.2,1.4.1,1.9.4c.5.2.9.6,1.2,1.1.3.5.4,1.1.4,1.7v2.9c0,.3,0,.5.2.6.1.1.2.2.4.2s.2,0,.3,0,.2,0,.2,0l.4,1.3c-.1,0-.3.2-.6.2-.2,0-.5.1-.8.1Z"/>
      <path class="cls-6" d="M163.3,857.8v-1.4h3.1v1.4h-3.1ZM163.3,864.3v-1.4h5.4v1.4h-5.4ZM165.8,854.6c-.4,0-.7-.1-1-.3-.3-.2-.4-.5-.4-.8s.1-.6.4-.8.6-.3,1-.3.8.1,1,.3.4.5.4.8-.1.6-.4.8c-.3.2-.6.3-1,.3ZM165.1,863.9v-7.6h1.8v7.6h-1.8Z"/>
      <path class="cls-6" d="M169.4,857.8v-1.4h3.5v1.4h-3.5ZM169.4,864.3v-1.4h5.4v1.4h-5.4ZM171.2,863.9v-7.6h1.8v7.6h-1.8ZM172.4,860.4v-1.4c.4-.6.9-1.1,1.3-1.5.5-.4,1-.8,1.5-1s1-.4,1.5-.4h.7v3.5h-1.6v-1.7c-.3,0-.7.1-1.1.3-.4.2-.8.5-1.2.9s-.8.8-1.2,1.4Z"/>
      <path class="cls-6" d="M183.2,864.5c-.6,0-1.1,0-1.6-.3-.5-.2-1-.4-1.4-.8s-.8-.8-1-1.3c-.2-.5-.4-1.1-.4-1.7s.1-1.3.4-1.9c.3-.5.6-1,1-1.4s.9-.7,1.5-.9,1.1-.3,1.7-.3,1.3.1,1.8.3c.5.2.9.5,1.2.9.3.4.5.8.5,1.4s-.2,1-.5,1.3c-.3.4-.7.6-1.2.8-.5.2-1,.3-1.6.3s-1.3,0-1.9-.3c-.5-.2-1.1-.4-1.6-.6v-1.1c.6.3,1.1.4,1.6.5.5,0,1,.1,1.4.1.4,0,.7,0,1-.1s.5-.2.7-.4.3-.4.3-.6c0-.3-.1-.6-.5-.8-.3-.2-.7-.3-1.2-.3s-.7,0-1.1.2c-.4.1-.7.3-.9.6-.3.2-.5.6-.7.9-.2.4-.3.8-.3,1.2s.1,1,.4,1.4c.3.4.6.7,1,.9s.9.3,1.4.3,1.2-.1,1.7-.3.9-.5,1.3-.8l.8,1.2c-.3.3-.7.5-1,.7-.4.2-.8.4-1.2.5-.5.1-1,.2-1.5.2Z"/>
      <path class="cls-6" d="M193.1,857.8v-1.4h3.2v1.4h-3.2ZM193.1,864.3v-1.4h5v1.4h-5ZM194.9,864.3v-8h1.8v8h-1.8ZM201.4,864.3v-4.6c0-.3,0-.6-.1-.8,0-.2-.2-.4-.3-.6-.1-.2-.3-.3-.6-.4-.2,0-.5-.1-.8-.1s-.6,0-.9.2-.6.3-.9.5c-.3.2-.6.5-.9.8-.3.3-.6.7-.9,1.1v-1.4c.4-.5.7-.9,1.1-1.2.3-.4.7-.7,1-.9s.7-.4,1.1-.6c.4-.1.8-.2,1.2-.2s.9,0,1.2.2c.4.1.7.4.9.7.2.3.4.7.6,1.1s.2,1,.2,1.6v4.6h-1.8ZM200,864.3v-1.4h4.8v1.4h-4.8Z"/>
      <path class="cls-6" d="M208.6,864.5c-.5,0-1,0-1.4-.3s-.8-.5-1-.9c-.3-.4-.4-.8-.4-1.4,0-.6.2-1.1.5-1.5.3-.4.7-.7,1.2-.9s1.1-.3,1.6-.3,1.3,0,1.8.2c.5.2,1,.3,1.5.6v1.2c-.6-.3-1.1-.4-1.6-.5s-.9-.1-1.3-.1c-.3,0-.6,0-.9.1-.3,0-.5.2-.7.4s-.3.4-.3.7,0,.5.2.6c.1.2.3.3.5.4.2,0,.5.1.7.1s.6,0,1-.2c.4-.1.8-.3,1.2-.5.4-.2.8-.6,1.2-.9v1.2c-.4.4-.8.7-1.2,1-.4.3-.9.5-1.3.7s-.9.2-1.3.2ZM213.7,864.4c-.3,0-.6,0-.9-.3-.3-.2-.5-.4-.6-.7-.2-.3-.2-.7-.2-1.2v-3.1c0-.4,0-.7-.3-.9s-.4-.4-.7-.5c-.3-.1-.7-.2-1-.2s-1,0-1.5.2c-.5.1-1.1.3-1.6.5l-.4-1.4c.6-.3,1.3-.5,1.9-.6s1.3-.2,1.9-.2,1.4.1,1.9.4c.5.2.9.6,1.2,1.1.3.5.4,1.1.4,1.7v2.9c0,.3,0,.5.2.6.1.1.2.2.4.2s.2,0,.3,0,.2,0,.2,0l.4,1.3c-.1,0-.3.2-.6.2-.2,0-.5.1-.8.1Z"/>
      <path class="cls-6" d="M215.3,857.8v-1.4h6.2v1.4h-6.2ZM220,864.5c-.6,0-1.1-.1-1.5-.4-.4-.3-.8-.6-1-1.1-.2-.5-.4-1.1-.4-1.8v-7.2h1.8v7.2c0,.4,0,.7.2.9.1.2.3.4.5.5.2.1.5.2.7.2s.6,0,.8-.1c.3,0,.5-.2.7-.3l.5,1.3c-.3.2-.6.3-1,.5-.4.1-.9.2-1.4.2Z"/>
      <path class="cls-6" d="M223.1,857.8v-1.4h3.1v1.4h-3.1ZM223.1,864.3v-1.4h5.4v1.4h-5.4ZM225.6,854.6c-.4,0-.7-.1-1-.3-.3-.2-.4-.5-.4-.8s.1-.6.4-.8.6-.3,1-.3.8.1,1,.3.4.5.4.8-.1.6-.4.8c-.3.2-.6.3-1,.3ZM224.9,863.9v-7.6h1.8v7.6h-1.8Z"/>
      <path class="cls-6" d="M233.7,864.5c-.6,0-1.1,0-1.7-.3-.5-.2-1-.5-1.4-.8s-.7-.8-1-1.3c-.2-.5-.4-1.1-.4-1.7s.1-1.2.4-1.8c.2-.5.6-1,1-1.3s.9-.7,1.4-.8c.5-.2,1.1-.3,1.7-.3s1.1,0,1.7.3c.5.2,1,.5,1.4.8.4.4.8.8,1,1.3.2.5.4,1.1.4,1.8s-.1,1.2-.4,1.7c-.2.5-.6,1-1,1.3-.4.4-.9.7-1.4.8-.5.2-1.1.3-1.7.3ZM233.7,863.1c.5,0,.9-.1,1.3-.3.4-.2.7-.5.9-1,.2-.4.3-.9.3-1.5s-.1-1.1-.3-1.5c-.2-.4-.5-.7-.9-1-.4-.2-.8-.3-1.3-.3s-.9.1-1.3.3c-.4.2-.7.5-.9,1-.2.4-.3.9-.3,1.5s.1,1.1.3,1.5c.2.4.5.7.9,1,.4.2.8.3,1.3.3Z"/>
      <path class="cls-6" d="M239.3,857.8v-1.4h3.2v1.4h-3.2ZM239.3,864.3v-1.4h5v1.4h-5ZM241.1,864.3v-8h1.8v8h-1.8ZM247.7,864.3v-4.6c0-.3,0-.6-.1-.8,0-.2-.2-.4-.3-.6-.1-.2-.3-.3-.6-.4-.2,0-.5-.1-.8-.1s-.6,0-.9.2-.6.3-.9.5c-.3.2-.6.5-.9.8-.3.3-.6.7-.9,1.1v-1.4c.4-.5.7-.9,1.1-1.2.3-.4.7-.7,1-.9s.7-.4,1.1-.6c.4-.1.8-.2,1.2-.2s.9,0,1.2.2c.4.1.7.4.9.7.2.3.4.7.6,1.1s.2,1,.2,1.6v4.6h-1.8ZM246.2,864.3v-1.4h4.8v1.4h-4.8Z"/>
      <path class="cls-6" d="M254.8,864.5c-.5,0-1,0-1.4-.3s-.8-.5-1-.9c-.3-.4-.4-.8-.4-1.4,0-.6.2-1.1.5-1.5.3-.4.7-.7,1.2-.9s1.1-.3,1.6-.3,1.3,0,1.8.2c.5.2,1,.3,1.5.6v1.2c-.6-.3-1.1-.4-1.6-.5s-.9-.1-1.3-.1c-.3,0-.6,0-.9.1-.3,0-.5.2-.7.4s-.3.4-.3.7,0,.5.2.6c.1.2.3.3.5.4.2,0,.5.1.7.1s.6,0,1-.2c.4-.1.8-.3,1.2-.5.4-.2.8-.6,1.2-.9v1.2c-.4.4-.8.7-1.2,1-.4.3-.9.5-1.3.7s-.9.2-1.3.2ZM259.9,864.4c-.3,0-.6,0-.9-.3-.3-.2-.5-.4-.6-.7-.2-.3-.2-.7-.2-1.2v-3.1c0-.4,0-.7-.3-.9s-.4-.4-.7-.5c-.3-.1-.7-.2-1-.2s-1,0-1.5.2c-.5.1-1.1.3-1.6.5l-.4-1.4c.6-.3,1.3-.5,1.9-.6s1.3-.2,1.9-.2,1.4.1,1.9.4c.5.2.9.6,1.2,1.1.3.5.4,1.1.4,1.7v2.9c0,.3,0,.5.2.6.1.1.2.2.4.2s.2,0,.3,0,.2,0,.2,0l.4,1.3c-.1,0-.3.2-.6.2-.2,0-.5.1-.8.1Z"/>
      <path class="cls-6" d="M261.8,864.3v-1.4h5.4v1.4h-5.4ZM261.8,854.1v-1.4h3.5v1.4h-3.5ZM263.5,863.9v-11.2h1.8v11.2h-1.8Z"/>
      <path class="cls-6" d="M277,864.5c-.7,0-1.3-.2-1.9-.5-.6-.4-1.1-.8-1.4-1.5-.4-.6-.5-1.3-.5-2.2s.1-1.2.3-1.7c.2-.5.5-1,.9-1.4s.8-.7,1.3-.9c.5-.2,1.1-.3,1.6-.3s1.1.1,1.6.3.9.5,1.2.8c.3.3.6.6.9,1v1.3c-.3-.3-.6-.6-.9-.9s-.7-.5-1.1-.7c-.4-.2-.8-.3-1.3-.3s-.8,0-1.1.2c-.3.1-.6.3-.9.6-.2.2-.4.5-.6.9-.1.3-.2.7-.2,1.1s.1,1,.3,1.4c.2.4.5.7.9.9.4.2.8.3,1.3.3.5,0,.9-.1,1.3-.3.4-.2.8-.5,1.2-.8.4-.3.7-.6,1-.9v1.4c-.2.2-.4.4-.7.7-.3.2-.6.5-.9.7-.3.2-.7.4-1.1.6s-.8.2-1.3.2ZM278.1,854.1v-1.4h3.4v1.4h-3.4ZM281.8,864.5c-.6,0-1-.2-1.4-.6-.4-.4-.5-.9-.5-1.6v-9.7h1.8v9.5c0,.3,0,.5.2.6.1.1.2.2.4.2s.2,0,.3,0c0,0,.2,0,.2,0l.4,1.3c-.1,0-.3.2-.6.2-.2,0-.5.1-.8.1Z"/>
      <path class="cls-6" d="M283.6,857.8v-1.4h3v1.4h-3ZM288,864.5c-.4,0-.8,0-1.2-.2-.4-.2-.6-.4-.9-.7-.2-.3-.4-.7-.6-1.1-.1-.5-.2-1-.2-1.6v-4.7h1.8v4.6c0,.3,0,.5,0,.8,0,.2.1.4.3.6s.3.3.5.4c.2,0,.5.1.8.1s.6,0,.8-.2c.3-.1.6-.3.9-.5.3-.2.6-.5.9-.9.3-.3.6-.7.9-1.1v1.4c-.4.5-.7.9-1,1.2-.3.4-.7.7-1,.9-.3.2-.7.4-1,.6-.4.1-.7.2-1.1.2ZM289.9,857.8v-1.4h3v1.4h-3ZM293.3,864.5c-.4,0-.7,0-1-.2s-.5-.4-.7-.7c-.2-.3-.2-.7-.2-1.2v-6h1.8v5.9c0,.3,0,.5.2.6.1.1.2.2.4.2s.2,0,.3,0c0,0,.1,0,.2,0l.4,1.3c-.1,0-.3.2-.6.2-.2,0-.5.1-.8.1Z"/>
      <path class="cls-6" d="M300.3,857.8v-1.4h3.5v1.4h-3.5ZM300.3,868v-1.4h5.3v1.4h-5.3ZM302,867.6v-11.3h1.8v11.3h-1.8ZM306.6,864.5c-.6,0-1.1-.1-1.6-.3s-.8-.5-1.2-.8c-.3-.3-.6-.7-.9-1v-1.3c.3.3.6.6.9.9.3.3.7.5,1.1.7.4.2.8.3,1.2.3s.8,0,1.1-.2c.3-.1.6-.3.9-.6.2-.2.4-.5.6-.9.1-.3.2-.7.2-1.1s-.1-1-.3-1.4c-.2-.4-.5-.7-.8-.9-.4-.2-.8-.3-1.2-.3s-.9.1-1.3.4c-.4.3-.9.6-1.2,1.1-.4.5-.7,1-1,1.6v-1.4c.3-.6.6-1.2,1-1.7.4-.5.9-.9,1.5-1.2.5-.3,1.1-.4,1.6-.4s1.3.2,1.8.5c.6.3,1,.8,1.4,1.5.3.6.5,1.3.5,2.2s-.1,1.2-.3,1.7c-.2.5-.5,1-.9,1.4s-.8.7-1.3.9c-.5.2-1.1.3-1.6.3Z"/>
      <path class="cls-6" d="M314.9,864.5c-.5,0-1,0-1.4-.3s-.8-.5-1-.9c-.3-.4-.4-.8-.4-1.4,0-.6.2-1.1.5-1.5.3-.4.7-.7,1.2-.9s1.1-.3,1.6-.3,1.3,0,1.8.2c.5.2,1,.3,1.5.6v1.2c-.6-.3-1.1-.4-1.6-.5s-.9-.1-1.3-.1c-.3,0-.6,0-.9.1-.3,0-.5.2-.7.4s-.3.4-.3.7,0,.5.2.6c.1.2.3.3.5.4.2,0,.5.1.7.1s.6,0,1-.2c.4-.1.8-.3,1.2-.5.4-.2.8-.6,1.2-.9v1.2c-.4.4-.8.7-1.2,1-.4.3-.9.5-1.3.7s-.9.2-1.3.2ZM319.9,864.4c-.3,0-.6,0-.9-.3-.3-.2-.5-.4-.6-.7-.2-.3-.2-.7-.2-1.2v-3.1c0-.4,0-.7-.3-.9s-.4-.4-.7-.5c-.3-.1-.7-.2-1-.2s-1,0-1.5.2c-.5.1-1.1.3-1.6.5l-.4-1.4c.6-.3,1.3-.5,1.9-.6s1.3-.2,1.9-.2,1.4.1,1.9.4c.5.2.9.6,1.2,1.1.3.5.4,1.1.4,1.7v2.9c0,.3,0,.5.2.6.1.1.2.2.4.2s.2,0,.3,0,.2,0,.2,0l.4,1.3c-.1,0-.3.2-.6.2-.2,0-.5.1-.8.1Z"/>
      <path class="cls-6" d="M321.5,857.8v-1.4h6.2v1.4h-6.2ZM326.2,864.5c-.6,0-1.1-.1-1.5-.4-.4-.3-.8-.6-1-1.1-.2-.5-.4-1.1-.4-1.8v-7.2h1.8v7.2c0,.4,0,.7.2.9.1.2.3.4.5.5.2.1.5.2.7.2s.6,0,.8-.1c.3,0,.5-.2.7-.3l.5,1.3c-.3.2-.6.3-1,.5-.4.1-.9.2-1.4.2Z"/>
      <path class="cls-6" d="M329.4,857.8v-1.4h3.5v1.4h-3.5ZM329.4,864.3v-1.4h5.4v1.4h-5.4ZM331.2,863.9v-7.6h1.8v7.6h-1.8ZM332.4,860.4v-1.4c.4-.6.9-1.1,1.3-1.5.5-.4,1-.8,1.5-1s1-.4,1.5-.4h.7v3.5h-1.6v-1.7c-.3,0-.7.1-1.1.3-.4.2-.8.5-1.2.9s-.8.8-1.2,1.4Z"/>
      <path class="cls-6" d="M338.8,857.8v-1.4h3.1v1.4h-3.1ZM338.8,864.3v-1.4h5.4v1.4h-5.4ZM341.3,854.6c-.4,0-.7-.1-1-.3-.3-.2-.4-.5-.4-.8s.1-.6.4-.8.6-.3,1-.3.8.1,1,.3.4.5.4.8-.1.6-.4.8c-.3.2-.6.3-1,.3ZM340.6,863.9v-7.6h1.8v7.6h-1.8Z"/>
      <path class="cls-6" d="M344.9,857.8v-1.4h3.1v1.4h-3.1ZM344.9,864.3v-1.4h5v1.4h-5ZM346.6,863.9v-7.6h1.8v7.6h-1.8ZM352.8,863.9v-4.3c0-.4,0-.7-.2-1s-.3-.5-.5-.6c-.2-.2-.5-.2-.9-.2s-.8.1-1.2.3c-.4.2-.8.5-1.2.9s-.8.9-1.1,1.4v-1.4c.4-.6.7-1.1,1.2-1.5s.9-.8,1.4-1c.5-.2,1-.3,1.5-.3s.8,0,1.1.2c.3.1.6.4.8.7.2.3.4.6.5,1.1s.2.9.2,1.5v4.3h-1.8ZM351.3,864.3v-1.4h4.7v1.4h-4.7ZM358.8,863.9v-4.3c0-.3,0-.5,0-.7s-.2-.4-.3-.6c-.1-.2-.3-.3-.5-.4s-.4-.1-.7-.1c-.4,0-.8.1-1.2.3-.4.2-.8.5-1.2.9s-.8.9-1.1,1.4v-1.4c.4-.6.8-1.1,1.2-1.5.4-.4.9-.8,1.4-1s1-.3,1.5-.3.8,0,1.1.2c.3.1.6.4.8.7.2.3.4.6.5,1.1.1.4.2.9.2,1.5v4.3h-1.8ZM357.4,864.3v-1.4h4.8v1.4h-4.8Z"/>
      <path class="cls-6" d="M367.4,864.5c-.6,0-1.1,0-1.7-.3-.5-.2-1-.5-1.4-.8s-.7-.8-1-1.3c-.2-.5-.4-1.1-.4-1.7s.1-1.2.4-1.8c.2-.5.6-1,1-1.3s.9-.7,1.4-.8c.5-.2,1.1-.3,1.7-.3s1.1,0,1.7.3c.5.2,1,.5,1.4.8.4.4.8.8,1,1.3.2.5.4,1.1.4,1.8s-.1,1.2-.4,1.7c-.2.5-.6,1-1,1.3-.4.4-.9.7-1.4.8-.5.2-1.1.3-1.7.3ZM367.4,863.1c.5,0,.9-.1,1.3-.3.4-.2.7-.5.9-1,.2-.4.3-.9.3-1.5s-.1-1.1-.3-1.5c-.2-.4-.5-.7-.9-1-.4-.2-.8-.3-1.3-.3s-.9.1-1.3.3c-.4.2-.7.5-.9,1-.2.4-.3.9-.3,1.5s.1,1.1.3,1.5c.2.4.5.7.9,1,.4.2.8.3,1.3.3Z"/>
      <path class="cls-6" d="M373,857.8v-1.4h3.1v1.4h-3.1ZM373,864.3v-1.4h5.4v1.4h-5.4ZM375.5,854.6c-.4,0-.7-.1-1-.3-.3-.2-.4-.5-.4-.8s.1-.6.4-.8.6-.3,1-.3.8.1,1,.3.4.5.4.8-.1.6-.4.8c-.3.2-.6.3-1,.3ZM374.8,863.9v-7.6h1.8v7.6h-1.8Z"/>
      <path class="cls-6" d="M379.1,857.8v-1.4h3.2v1.4h-3.2ZM379.1,864.3v-1.4h5v1.4h-5ZM380.9,864.3v-8h1.8v8h-1.8ZM387.4,864.3v-4.6c0-.3,0-.6-.1-.8,0-.2-.2-.4-.3-.6-.1-.2-.3-.3-.6-.4-.2,0-.5-.1-.8-.1s-.6,0-.9.2-.6.3-.9.5c-.3.2-.6.5-.9.8-.3.3-.6.7-.9,1.1v-1.4c.4-.5.7-.9,1.1-1.2.3-.4.7-.7,1-.9s.7-.4,1.1-.6c.4-.1.8-.2,1.2-.2s.9,0,1.2.2c.4.1.7.4.9.7.2.3.4.7.6,1.1s.2,1,.2,1.6v4.6h-1.8ZM386,864.3v-1.4h4.8v1.4h-4.8Z"/>
      <path class="cls-6" d="M396.1,864.5c-.6,0-1.1,0-1.6-.3-.5-.2-1-.4-1.4-.8s-.8-.8-1-1.3c-.2-.5-.4-1.1-.4-1.7s.1-1.3.4-1.9c.3-.5.6-1,1-1.4s.9-.7,1.5-.9,1.1-.3,1.7-.3,1.3.1,1.8.3c.5.2.9.5,1.2.9.3.4.5.8.5,1.4s-.2,1-.5,1.3c-.3.4-.7.6-1.2.8-.5.2-1,.3-1.6.3s-1.3,0-1.9-.3c-.5-.2-1.1-.4-1.6-.6v-1.1c.6.3,1.1.4,1.6.5.5,0,1,.1,1.4.1.4,0,.7,0,1-.1s.5-.2.7-.4.3-.4.3-.6c0-.3-.1-.6-.5-.8-.3-.2-.7-.3-1.2-.3s-.7,0-1.1.2c-.4.1-.7.3-.9.6-.3.2-.5.6-.7.9-.2.4-.3.8-.3,1.2s.1,1,.4,1.4c.3.4.6.7,1,.9s.9.3,1.4.3,1.2-.1,1.7-.3.9-.5,1.3-.8l.8,1.2c-.3.3-.7.5-1,.7-.4.2-.8.4-1.2.5-.5.1-1,.2-1.5.2Z"/>
      <path class="cls-6" d="M406,857.8v-1.4h3.2v1.4h-3.2ZM406,864.3v-1.4h5v1.4h-5ZM407.8,864.3v-8h1.8v8h-1.8ZM414.4,864.3v-4.6c0-.3,0-.6-.1-.8,0-.2-.2-.4-.3-.6-.1-.2-.3-.3-.6-.4-.2,0-.5-.1-.8-.1s-.6,0-.9.2-.6.3-.9.5c-.3.2-.6.5-.9.8-.3.3-.6.7-.9,1.1v-1.4c.4-.5.7-.9,1.1-1.2.3-.4.7-.7,1-.9s.7-.4,1.1-.6c.4-.1.8-.2,1.2-.2s.9,0,1.2.2c.4.1.7.4.9.7.2.3.4.7.6,1.1s.2,1,.2,1.6v4.6h-1.8ZM412.9,864.3v-1.4h4.8v1.4h-4.8Z"/>
      <path class="cls-6" d="M421.5,864.5c-.5,0-1,0-1.4-.3s-.8-.5-1-.9c-.3-.4-.4-.8-.4-1.4,0-.6.2-1.1.5-1.5.3-.4.7-.7,1.2-.9s1.1-.3,1.6-.3,1.3,0,1.8.2c.5.2,1,.3,1.5.6v1.2c-.6-.3-1.1-.4-1.6-.5s-.9-.1-1.3-.1c-.3,0-.6,0-.9.1-.3,0-.5.2-.7.4s-.3.4-.3.7,0,.5.2.6c.1.2.3.3.5.4.2,0,.5.1.7.1s.6,0,1-.2c.4-.1.8-.3,1.2-.5.4-.2.8-.6,1.2-.9v1.2c-.4.4-.8.7-1.2,1-.4.3-.9.5-1.3.7s-.9.2-1.3.2ZM426.6,864.4c-.3,0-.6,0-.9-.3-.3-.2-.5-.4-.6-.7-.2-.3-.2-.7-.2-1.2v-3.1c0-.4,0-.7-.3-.9s-.4-.4-.7-.5c-.3-.1-.7-.2-1-.2s-1,0-1.5.2c-.5.1-1.1.3-1.6.5l-.4-1.4c.6-.3,1.3-.5,1.9-.6s1.3-.2,1.9-.2,1.4.1,1.9.4c.5.2.9.6,1.2,1.1.3.5.4,1.1.4,1.7v2.9c0,.3,0,.5.2.6.1.1.2.2.4.2s.2,0,.3,0,.2,0,.2,0l.4,1.3c-.1,0-.3.2-.6.2-.2,0-.5.1-.8.1Z"/>
      <path class="cls-6" d="M428.2,857.8v-1.4h6.2v1.4h-6.2ZM432.9,864.5c-.6,0-1.1-.1-1.5-.4-.4-.3-.8-.6-1-1.1-.2-.5-.4-1.1-.4-1.8v-7.2h1.8v7.2c0,.4,0,.7.2.9.1.2.3.4.5.5.2.1.5.2.7.2s.6,0,.8-.1c.3,0,.5-.2.7-.3l.5,1.3c-.3.2-.6.3-1,.5-.4.1-.9.2-1.4.2Z"/>
      <path class="cls-6" d="M435.6,857.8v-1.4h3v1.4h-3ZM440,864.5c-.4,0-.8,0-1.2-.2-.4-.2-.6-.4-.9-.7-.2-.3-.4-.7-.6-1.1-.1-.5-.2-1-.2-1.6v-4.7h1.8v4.6c0,.3,0,.5,0,.8,0,.2.1.4.3.6s.3.3.5.4c.2,0,.5.1.8.1s.6,0,.8-.2c.3-.1.6-.3.9-.5.3-.2.6-.5.9-.9.3-.3.6-.7.9-1.1v1.4c-.4.5-.7.9-1,1.2-.3.4-.7.7-1,.9-.3.2-.7.4-1,.6-.4.1-.7.2-1.1.2ZM441.9,857.8v-1.4h3v1.4h-3ZM445.3,864.5c-.4,0-.7,0-1-.2s-.5-.4-.7-.7c-.2-.3-.2-.7-.2-1.2v-6h1.8v5.9c0,.3,0,.5.2.6.1.1.2.2.4.2s.2,0,.3,0c0,0,.1,0,.2,0l.4,1.3c-.1,0-.3.2-.6.2-.2,0-.5.1-.8.1Z"/>
      <path class="cls-6" d="M447.5,857.8v-1.4h3.5v1.4h-3.5ZM447.5,864.3v-1.4h5.4v1.4h-5.4ZM449.2,863.9v-7.6h1.8v7.6h-1.8ZM450.4,860.4v-1.4c.4-.6.9-1.1,1.3-1.5.5-.4,1-.8,1.5-1s1-.4,1.5-.4h.7v3.5h-1.6v-1.7c-.3,0-.7.1-1.1.3-.4.2-.8.5-1.2.9s-.8.8-1.2,1.4Z"/>
      <path class="cls-6" d="M461.2,864.5c-.6,0-1.1,0-1.6-.3-.5-.2-1-.4-1.4-.8s-.8-.8-1-1.3c-.2-.5-.4-1.1-.4-1.7s.1-1.3.4-1.9c.3-.5.6-1,1-1.4s.9-.7,1.5-.9,1.1-.3,1.7-.3,1.3.1,1.8.3c.5.2.9.5,1.2.9.3.4.5.8.5,1.4s-.2,1-.5,1.3c-.3.4-.7.6-1.2.8-.5.2-1,.3-1.6.3s-1.3,0-1.9-.3c-.5-.2-1.1-.4-1.6-.6v-1.1c.6.3,1.1.4,1.6.5.5,0,1,.1,1.4.1.4,0,.7,0,1-.1s.5-.2.7-.4.3-.4.3-.6c0-.3-.1-.6-.5-.8-.3-.2-.7-.3-1.2-.3s-.7,0-1.1.2c-.4.1-.7.3-.9.6-.3.2-.5.6-.7.9-.2.4-.3.8-.3,1.2s.1,1,.4,1.4c.3.4.6.7,1,.9s.9.3,1.4.3,1.2-.1,1.7-.3.9-.5,1.3-.8l.8,1.2c-.3.3-.7.5-1,.7-.4.2-.8.4-1.2.5-.5.1-1,.2-1.5.2Z"/>
      <path class="cls-6" d="M465.8,864.3v-1.4h5.4v1.4h-5.4ZM465.8,854.1v-1.4h3.5v1.4h-3.5ZM467.6,863.9v-11.2h1.8v11.2h-1.8Z"/>
    </g>
  </g>
</svg>