<?xml version="1.0" encoding="UTF-8"?>
<svg xmlns="http://www.w3.org/2000/svg" version="1.1" viewBox="0 0 315.5 328.6">
  <defs>
    <style>
      .cls-1 {
        fill: #17e2a3;
      }

      .cls-1, .cls-2, .cls-3, .cls-4, .cls-5, .cls-6 {
        stroke: #fff;
      }

      .cls-2 {
        fill: #f4a811;
      }

      .cls-7 {
        isolation: isolate;
      }

      .cls-3 {
        fill: #c4a672;
      }

      .cls-4 {
        fill: #076351;
      }

      .cls-8 {
        fill: none;
        stroke: #9abef4;
        stroke-miterlimit: 10;
        stroke-width: .5px;
      }

      .cls-5 {
        fill: #0a0aa0;
      }

      .cls-6, .cls-9 {
        fill: #9abef4;
      }

      .cls-10 {
        fill: #fff;
      }

      .cls-10, .cls-9 {
        stroke-width: 0px;
      }
    </style>
  </defs>
  <g id="Calque_1" data-name="Calque 1">
    <g>
      <g>
        <rect class="cls-5" x="5.6" y="5.6" width="302.8" height="205.9"/>
        <g class="cls-7">
          <g class="cls-7">
            <path class="cls-10" d="M110,95.5v-2.3h7v2.3h-7ZM110,105.5v-2.3h7v2.3h-7ZM112,104.2v-9.7h2.9v9.7h-2.9Z"/>
            <path class="cls-10" d="M118,99.2v-2.1h3.8v2.1h-3.8ZM118,105.5v-2.1h5.8v2.1h-5.8ZM119.7,105.5v-8.5h2.7v8.5h-2.7ZM126.7,105.5v-4.5c0-.2,0-.4-.1-.6,0-.2-.2-.4-.3-.5-.1-.1-.3-.3-.5-.4-.2,0-.4-.1-.7-.1s-.6,0-.9.2-.6.3-.9.5c-.3.2-.6.5-.9.9s-.6.8-.9,1.3v-2.1c.4-.6.8-1.1,1.2-1.5s.7-.8,1.1-1c.4-.3.7-.5,1.1-.6s.8-.2,1.2-.2,1,0,1.4.3.8.4,1,.8c.3.4.5.8.6,1.3.1.5.2,1.1.2,1.8v4.5h-2.7ZM125.3,105.5v-2.1h5.5v2.1h-5.5Z"/>
            <path class="cls-10" d="M136.3,105.8c-.6,0-1.2-.1-1.8-.3-.6-.2-1.1-.5-1.6-.9-.5-.4-.8-.9-1.1-1.4s-.4-1.2-.4-1.8.1-1.3.4-1.9c.3-.6.6-1,1.1-1.4.5-.4,1-.7,1.6-.9s1.2-.3,1.8-.3,1.2.1,1.8.3,1.1.5,1.6.9c.5.4.8.9,1.1,1.4.3.6.4,1.2.4,1.9s-.1,1.3-.4,1.8c-.3.5-.6,1-1.1,1.4-.5.4-1,.7-1.6.9-.6.2-1.2.3-1.9.3ZM136.3,103.7c.4,0,.7,0,1-.3.3-.2.6-.5.7-.8.2-.3.3-.8.3-1.3s0-.9-.3-1.3c-.2-.3-.4-.6-.7-.8-.3-.2-.6-.3-1-.3s-.7,0-1,.3c-.3.2-.6.5-.7.8-.2.3-.3.8-.3,1.3s0,.9.3,1.3c.2.3.4.6.7.8.3.2.6.3,1,.3Z"/>
            <path class="cls-10" d="M142.1,99.2v-2.1h3.8v2.1h-3.8ZM142.1,105.5v-2.1h5.8v2.1h-5.8ZM143.8,105.5v-8.5h2.7v8.5h-2.7ZM150.7,105.5v-4.5c0-.2,0-.4-.1-.6,0-.2-.2-.4-.3-.5-.1-.1-.3-.3-.5-.4-.2,0-.4-.1-.7-.1s-.6,0-.9.2-.6.3-.9.5c-.3.2-.6.5-.9.9s-.6.8-.9,1.3v-2.1c.4-.6.8-1.1,1.2-1.5s.7-.8,1.1-1c.4-.3.7-.5,1.1-.6s.8-.2,1.2-.2,1,0,1.4.3.8.4,1,.8c.3.4.5.8.6,1.3.1.5.2,1.1.2,1.8v4.5h-2.7ZM149.4,105.5v-2.1h5.5v2.1h-5.5Z"/>
            <path class="cls-10" d="M159.7,105.8c-.7,0-1.4-.2-2.1-.6-.6-.4-1.2-.9-1.6-1.6-.4-.7-.6-1.4-.6-2.3s.1-1.2.3-1.8c.2-.5.5-1,.9-1.4.4-.4.9-.7,1.4-.9.6-.2,1.2-.3,1.8-.3s1.3.1,1.8.4c.5.3.9.6,1.3,1,.4.4.7.8.9,1.1v1.9c-.3-.3-.6-.7-.9-1-.4-.3-.7-.6-1.2-.8s-.8-.3-1.3-.3-.7,0-1,.2c-.3.1-.5.3-.8.5-.2.2-.4.4-.5.7s-.2.6-.2.9,0,.8.3,1.1.4.6.7.8c.3.2.7.3,1.2.3.4,0,.9-.1,1.3-.4s.8-.5,1.2-.9c.4-.3.8-.7,1.1-1v2c-.2.2-.5.5-.8.8-.3.3-.6.6-.9.9-.3.3-.7.5-1.2.7-.4.2-.9.3-1.5.3ZM160.9,95.3v-2.1h4.1v2.1h-4.1ZM165,105.7c-.7,0-1.2-.2-1.7-.6s-.7-1.1-.7-1.9v-10h2.7v9.7c0,.2,0,.3.1.4s.2.1.3.1.2,0,.3,0c0,0,.1,0,.2,0l.6,1.9c-.2,0-.4.2-.7.3-.3,0-.6.1-1,.1Z"/>
            <path class="cls-10" d="M170.4,105.8c-.5,0-1,0-1.4-.3-.4-.2-.8-.5-1.1-.9-.3-.4-.4-.9-.4-1.5,0-.6.2-1.2.6-1.6.4-.4.8-.7,1.4-.9s1.1-.3,1.6-.3,1.4,0,1.9.3,1,.4,1.5.7v1.7c-.6-.3-1.2-.5-1.7-.6-.5,0-.9-.1-1.2-.1s-.5,0-.7,0c-.2,0-.4.1-.5.3-.1.1-.2.3-.2.5s0,.3.1.4c0,0,.2.2.4.2s.3,0,.5,0,.5,0,.8-.2c.3-.1.7-.3,1.2-.5s.9-.6,1.3-1v1.8c-.5.5-.9.9-1.3,1.2-.4.3-.9.6-1.3.7s-.9.3-1.4.3ZM176,105.7c-.4,0-.8,0-1.1-.3-.3-.2-.6-.5-.8-.9-.2-.4-.3-.8-.3-1.4v-2.9c0-.3,0-.5-.3-.6s-.4-.3-.7-.4c-.3,0-.6-.1-1-.1s-.9,0-1.4.2-1.1.3-1.7.5l-.5-2.1c.7-.3,1.4-.5,2.1-.7s1.4-.2,2-.2c.9,0,1.7.2,2.3.5s1.1.7,1.4,1.2c.3.5.5,1.1.5,1.8v2.6c0,.2,0,.3.1.4,0,0,.2.1.3.1s.2,0,.3,0c0,0,.1,0,.2,0l.5,1.9c-.2,0-.4.2-.7.3-.3,0-.7.1-1.1.1Z"/>
            <path class="cls-10" d="M177.8,99.2v-2.1h6.8v2.1h-6.8ZM183,105.8c-.7,0-1.4-.2-1.9-.5-.5-.3-.9-.8-1.2-1.3-.3-.6-.4-1.2-.4-2v-7.3h2.7v7.3c0,.3,0,.5.1.7s.2.4.4.5c.2.1.4.2.7.2s.5,0,.7,0,.4-.1.6-.2l.8,2c-.3.2-.6.3-1,.5-.4.1-.9.2-1.5.2Z"/>
            <path class="cls-10" d="M186.3,99.2v-2.1h3.7v2.1h-3.7ZM186.3,105.5v-2.1h6.1v2.1h-6.1ZM189.2,95.8c-.5,0-.9-.1-1.2-.4-.3-.3-.5-.6-.5-1s.2-.8.5-1c.3-.3.8-.4,1.2-.4s1,.1,1.3.4c.3.3.5.6.5,1s-.2.7-.5,1c-.3.3-.8.4-1.3.4ZM188,104.8v-7.8h2.7v7.8h-2.7Z"/>
            <path class="cls-10" d="M197.8,105.8c-.6,0-1.2-.1-1.8-.3-.6-.2-1.1-.5-1.6-.9s-.8-.9-1.1-1.4c-.3-.5-.4-1.2-.4-1.8s.1-1.3.4-1.9c.3-.6.6-1,1.1-1.4.5-.4,1-.7,1.6-.9s1.2-.3,1.8-.3,1.2.1,1.8.3,1.1.5,1.6.9c.5.4.8.9,1.1,1.4.3.6.4,1.2.4,1.9s-.1,1.3-.4,1.8c-.3.5-.6,1-1.1,1.4-.5.4-1,.7-1.6.9-.6.2-1.2.3-1.9.3ZM197.8,103.7c.4,0,.7,0,1-.3.3-.2.6-.5.7-.8.2-.3.3-.8.3-1.3s0-.9-.3-1.3c-.2-.3-.4-.6-.7-.8-.3-.2-.6-.3-1-.3s-.7,0-1,.3c-.3.2-.6.5-.7.8-.2.3-.3.8-.3,1.3s0,.9.3,1.3c.2.3.4.6.7.8.3.2.6.3,1,.3Z"/>
            <path class="cls-10" d="M203.6,99.2v-2.1h3.8v2.1h-3.8ZM203.6,105.5v-2.1h5.8v2.1h-5.8ZM205.3,105.5v-8.5h2.7v8.5h-2.7ZM212.2,105.5v-4.5c0-.2,0-.4-.1-.6,0-.2-.2-.4-.3-.5-.1-.1-.3-.3-.5-.4-.2,0-.4-.1-.7-.1s-.6,0-.9.2-.6.3-.9.5c-.3.2-.6.5-.9.9s-.6.8-.9,1.3v-2.1c.4-.6.8-1.1,1.2-1.5s.7-.8,1.1-1c.4-.3.7-.5,1.1-.6s.8-.2,1.2-.2,1,0,1.4.3.8.4,1,.8c.3.4.5.8.6,1.3.1.5.2,1.1.2,1.8v4.5h-2.7ZM210.9,105.5v-2.1h5.5v2.1h-5.5Z"/>
          </g>
          <g class="cls-7">
            <path class="cls-10" d="M150.3,120.7c-.4,0-.9,0-1.3-.2-.4-.2-.7-.4-1-.7-.3-.3-.5-.6-.7-1.1-.2-.4-.3-.9-.3-1.4s0-1.1.3-1.6c.2-.5.4-.9.8-1.2s.7-.6,1.2-.8,1-.3,1.5-.3.7,0,.9,0c.3,0,.5.1.7.2s.4.2.6.3l-.4.9c-.3-.2-.5-.3-.8-.4-.3-.1-.6-.2-1-.2s-.7,0-1,.2c-.3.1-.6.3-.8.6-.2.3-.4.6-.5.9s-.2.7-.2,1.2,0,.9.3,1.3c.2.4.5.6.8.8.3.2.7.3,1,.3s.6,0,.8-.2c.2-.1.4-.3.6-.5s.2-.4.2-.7c0-.3,0-.5-.2-.7s-.3-.3-.6-.4-.5-.1-.8-.1-.6,0-.9,0c-.3,0-.6.1-.9.3-.3.1-.6.2-.9.4v-.8c.3-.2.6-.4.9-.5.3-.1.6-.3.9-.3s.7-.1,1-.1.6,0,1,.1c.3,0,.6.2.8.4s.5.4.6.7c.1.3.2.6.2,1s0,.7-.2,1c-.2.3-.4.5-.6.8-.3.2-.6.4-.9.5-.3.1-.7.2-1.1.2Z"/>
            <path class="cls-10" d="M157.4,120.7c-.7,0-1.4-.1-1.9-.3-.5-.2-.9-.5-1.1-.8s-.4-.7-.4-1,0-.6.2-.8c.1-.2.3-.4.6-.6s.4-.3.6-.4h1.1c-.2.2-.4.4-.6.6s-.4.3-.5.5c-.1.2-.2.4-.2.6s0,.5.3.6.5.3.8.5.7.2,1.1.2.6,0,.9-.1c.3,0,.5-.2.7-.4.2-.2.3-.3.3-.6s0-.3-.1-.4c0-.1-.2-.2-.4-.3-.2,0-.4-.1-.6-.2-.2,0-.5-.1-.8-.2-.5-.1-1-.2-1.4-.4s-.7-.3-.9-.5c-.2-.2-.4-.4-.5-.6s-.2-.4-.2-.7c0-.4.1-.7.4-1,.2-.3.6-.6,1-.8.4-.2.9-.3,1.5-.3s1.2.1,1.6.3c.5.2.8.5,1,.8.2.3.4.7.4,1s0,.4-.1.6c0,.2-.2.4-.3.5-.1.1-.3.3-.5.4-.2.1-.3.2-.4.3h-1.1c.2-.2.4-.4.6-.6.2-.2.4-.3.5-.5s.2-.4.2-.6,0-.5-.2-.6c-.2-.2-.4-.3-.7-.4-.3-.1-.6-.2-1-.2s-.5,0-.8.1c-.3,0-.5.2-.6.3-.2.2-.2.3-.2.6s0,.4.2.5c.1.1.4.2.6.3.3,0,.6.2.9.2.6.1,1.1.2,1.5.4.4.1.7.3,1,.5s.4.4.5.6c.1.2.2.4.2.7s0,.5-.2.8c-.1.2-.3.5-.6.7-.3.2-.6.3-1,.5s-.8.2-1.3.2Z"/>
            <path class="cls-10" d="M163.5,117c-.3,0-.7,0-1-.2-.3-.2-.5-.4-.7-.7s-.3-.6-.3-1,0-.7.3-1,.4-.5.7-.6c.3-.1.6-.2,1-.2s.7,0,1,.2c.3.2.5.4.7.6s.3.6.3,1,0,.7-.3,1-.4.5-.7.7-.6.2-1,.2ZM162.7,121l-.6-.6,7.2-7.3.6.6-7.2,7.3ZM163.5,116.1c.2,0,.3,0,.5-.1.1,0,.3-.2.4-.3,0-.1.1-.3.1-.5s0-.4-.1-.5c0-.1-.2-.3-.4-.3-.1,0-.3-.1-.5-.1s-.3,0-.5.1c-.1,0-.3.2-.4.3,0,.1-.1.3-.1.5s0,.4.1.5c0,.1.2.3.4.3.1,0,.3.1.5.1ZM168.6,120.8c-.3,0-.7,0-1-.2-.3-.2-.5-.4-.7-.7-.2-.3-.3-.6-.3-1s0-.7.3-1c.2-.3.4-.5.7-.7s.6-.2,1-.2.7,0,1,.2.5.4.7.7c.2.3.3.6.3,1s0,.7-.3,1-.4.5-.7.6c-.3.2-.6.2-1,.2ZM168.6,119.9c.2,0,.3,0,.5-.1s.3-.2.4-.3c0-.1.1-.3.1-.5s0-.4-.1-.5c0-.1-.2-.3-.4-.3-.1,0-.3-.1-.5-.1s-.3,0-.5.1c-.1,0-.3.2-.4.3s-.1.3-.1.5,0,.4.1.5.2.3.4.3c.1,0,.3.1.5.1Z"/>
          </g>
        </g>
      </g>
      <g>
        <rect class="cls-1" x="5.6" y="211.5" width="142" height="96.9"/>
        <g class="cls-7">
          <g class="cls-7">
            <path class="cls-10" d="M20,246v-1.9h2.7c.3,0,.5,0,.8,0,.3,0,.5-.2.7-.5.2-.2.3-.6.3-1s0-.7-.3-.9c-.2-.2-.4-.3-.7-.4s-.6-.1-.9-.1h-5.9v-1.9h6c.8,0,1.6.1,2.2.4.6.3,1.1.7,1.4,1.2.3.5.5,1.1.5,1.8s-.2,1.3-.5,1.8c-.3.5-.8.9-1.4,1.2-.6.3-1.3.4-2.2.4h-2.8ZM16.8,249.5v-1.9h5.9v1.9h-5.9ZM18.4,248.4v-8.2h2.4v8.2h-2.4Z"/>
            <path class="cls-10" d="M27.6,241v-1.8h3.5v1.8h-3.5ZM27.6,249.5v-1.8h5.1v1.8h-5.1ZM29,248.9v-9.7h2.3v9.7h-2.3Z"/>
            <path class="cls-10" d="M32.8,244.2v-1.8h3.1v1.8h-3.1ZM36.7,249.7c-.4,0-.8,0-1.1-.2-.3-.2-.6-.4-.8-.7s-.4-.7-.5-1.1c-.1-.4-.2-1-.2-1.5v-3.7h2.3v3.7c0,.2,0,.4,0,.6,0,.2.1.3.2.5s.2.2.4.3c.2,0,.4.1.6.1s.4,0,.7-.2c.2-.1.5-.3.7-.5.2-.2.5-.5.7-.8.3-.3.5-.7.8-1v1.8c-.4.5-.7.9-1,1.2-.3.3-.6.6-.9.9-.3.2-.6.4-.9.5-.3.1-.6.2-.9.2ZM38.2,244.2v-1.8h3.1v1.8h-3.1ZM41.4,249.6c-.4,0-.8,0-1.1-.2-.3-.2-.6-.4-.7-.7-.2-.3-.3-.7-.3-1.1v-5.1h2.3v4.9c0,.2,0,.3.1.3,0,0,.2,0,.3,0s.1,0,.2,0c0,0,.1,0,.1,0l.5,1.6c-.1,0-.3.1-.6.2-.3,0-.5.1-.8.1Z"/>
            <path class="cls-10" d="M47.4,249.7c-.3,0-.7,0-1,0s-.6-.2-.9-.3c-.3-.1-.5-.3-.7-.6-.2-.2-.4-.5-.6-.8h.7s0,1.6,0,1.6h-1.6v-2.4h1c.2.2.4.4.7.6.3.2.6.3.9.4.3,0,.6.1.9.1s.4,0,.5,0,.2,0,.3-.2c0,0,.1-.2.1-.2s0-.1,0-.2c0,0-.1-.1-.2-.2-.1,0-.3-.2-.5-.2-.2,0-.5-.2-.9-.3-.6-.2-1.1-.4-1.5-.6-.4-.2-.7-.5-.9-.8-.2-.3-.3-.7-.3-1.1s.1-.7.3-1.1c.2-.3.5-.6.9-.8.4-.2.8-.3,1.4-.3s.8,0,1.2.2.7.3,1,.6c.3.3.6.6.8,1h-.7c0,0,0-1.6,0-1.6h1.6v2.3h-1c-.2-.2-.4-.4-.6-.6-.2-.2-.5-.3-.7-.4s-.5-.1-.8-.1-.3,0-.5,0c-.1,0-.2,0-.3.2,0,0-.1.2-.1.2s0,.1,0,.2c0,0,.1.1.3.2s.3.1.5.2c.2,0,.5.2.8.3.6.2,1.1.4,1.5.6s.7.5.9.8c.2.3.3.7.3,1.1s-.1.8-.3,1.1c-.2.3-.5.6-1,.8s-.9.3-1.4.3Z"/>
            <path class="cls-10" d="M50.8,244.2v-1.8h3.1v1.8h-3.1ZM50.8,249.5v-1.8h5.1v1.8h-5.1ZM53.2,241.3c-.4,0-.7-.1-1-.3-.3-.2-.4-.5-.4-.8s.1-.6.4-.9c.3-.2.6-.3,1-.3s.8.1,1.1.3c.3.2.4.5.4.9s-.1.6-.4.8c-.3.2-.6.3-1.1.3ZM52.2,248.9v-6.5h2.3v6.5h-2.3Z"/>
            <path class="cls-10" d="M60.4,249.7c-.5,0-1,0-1.5-.2s-.9-.4-1.3-.7c-.4-.3-.7-.7-.9-1.1s-.3-1-.3-1.6.1-1.1.3-1.6c.2-.5.5-.9.9-1.2s.8-.6,1.3-.8c.5-.2,1-.3,1.6-.3s1.2,0,1.7.3c.5.2.9.5,1.2.8.3.3.4.8.4,1.2s-.1.9-.4,1.2c-.3.3-.6.6-1.1.7-.4.2-.9.2-1.4.2s-1.1,0-1.6-.2-.9-.3-1.3-.6v-1.3c.5.3,1,.4,1.4.5.4,0,.7,0,1,0,.3,0,.5,0,.7,0,.2,0,.3-.1.4-.2,0,0,.1-.2.1-.3s0-.3-.2-.4c-.2,0-.4-.2-.6-.2s-.6,0-.8.2c-.3,0-.5.2-.7.4s-.4.4-.5.6-.2.5-.2.8,0,.7.3,1c.2.3.4.5.8.6.3.1.7.2,1,.2.5,0,1,0,1.5-.3.4-.2.8-.4,1.2-.6l.9,1.5c-.3.3-.6.5-1,.7-.4.2-.8.4-1.2.5-.4.1-.9.2-1.4.2Z"/>
            <path class="cls-10" d="M64.4,244.2v-1.8h3.1v1.8h-3.1ZM68.3,249.7c-.4,0-.8,0-1.1-.2-.3-.2-.6-.4-.8-.7s-.4-.7-.5-1.1c-.1-.4-.2-1-.2-1.5v-3.7h2.3v3.7c0,.2,0,.4,0,.6,0,.2.1.3.2.5s.2.2.4.3c.2,0,.4.1.6.1s.4,0,.7-.2c.2-.1.5-.3.7-.5.2-.2.5-.5.7-.8.3-.3.5-.7.8-1v1.8c-.4.5-.7.9-1,1.2-.3.3-.6.6-.9.9-.3.2-.6.4-.9.5-.3.1-.6.2-.9.2ZM69.9,244.2v-1.8h3.1v1.8h-3.1ZM73,249.6c-.4,0-.8,0-1.1-.2-.3-.2-.6-.4-.7-.7-.2-.3-.3-.7-.3-1.1v-5.1h2.3v4.9c0,.2,0,.3.1.3,0,0,.2,0,.3,0s.1,0,.2,0c0,0,.1,0,.1,0l.5,1.6c-.1,0-.3.1-.6.2-.3,0-.5.1-.8.1Z"/>
            <path class="cls-10" d="M75,244.2v-1.8h3.5v1.8h-3.5ZM75,249.5v-1.8h5.1v1.8h-5.1ZM76.4,248.9v-6.5h2.3v6.5h-2.3ZM77.8,246.8v-1.7c.3-.5.7-1,1.2-1.4.4-.4.9-.8,1.3-1,.5-.2.9-.4,1.3-.4h.9v3.3h-2v-1c-.2,0-.4,0-.7.3-.3.2-.6.4-1,.8s-.7.7-1,1.2Z"/>
            <path class="cls-10" d="M87.4,249.7c-.3,0-.7,0-1,0s-.6-.2-.9-.3c-.3-.1-.5-.3-.7-.6-.2-.2-.4-.5-.6-.8h.7s0,1.6,0,1.6h-1.6v-2.4h1c.2.2.4.4.7.6.3.2.6.3.9.4.3,0,.6.1.9.1s.4,0,.5,0,.2,0,.3-.2c0,0,.1-.2.1-.2s0-.1,0-.2c0,0-.1-.1-.2-.2-.1,0-.3-.2-.5-.2-.2,0-.5-.2-.9-.3-.6-.2-1.1-.4-1.5-.6-.4-.2-.7-.5-.9-.8-.2-.3-.3-.7-.3-1.1s.1-.7.3-1.1c.2-.3.5-.6.9-.8.4-.2.8-.3,1.4-.3s.8,0,1.2.2.7.3,1,.6c.3.3.6.6.8,1h-.7c0,0,0-1.6,0-1.6h1.6v2.3h-1c-.2-.2-.4-.4-.6-.6-.2-.2-.5-.3-.7-.4s-.5-.1-.8-.1-.3,0-.5,0c-.1,0-.2,0-.3.2,0,0-.1.2-.1.2s0,.1,0,.2c0,0,.1.1.3.2s.3.1.5.2c.2,0,.5.2.8.3.6.2,1.1.4,1.5.6s.7.5.9.8c.2.3.3.7.3,1.1s-.1.8-.3,1.1c-.2.3-.5.6-1,.8s-.9.3-1.4.3Z"/>
            <path class="cls-10" d="M95.1,244.2v-1.8h5.7v1.8h-5.7ZM99.3,249.7c-.6,0-1.1-.1-1.6-.4-.4-.3-.8-.6-1-1.1-.2-.5-.3-1-.3-1.7v-6h2.3v6c0,.2,0,.4.1.6,0,.2.2.3.3.4.1.1.3.2.6.2s.4,0,.6,0,.4,0,.5-.2l.6,1.7c-.2.1-.5.3-.9.4-.4.1-.8.2-1.3.2Z"/>
            <path class="cls-10" d="M103.5,253c-.3,0-.6,0-.8,0-.2,0-.5-.1-.7-.3-.2-.1-.5-.2-.7-.4l.9-1.7c.2,0,.4.2.6.3.2.1.5.2.8.2s.5,0,.8-.2.4-.3.6-.5c.2-.2.4-.6.6-1l3-6.8h2.1l-3.3,7.2c-.3.7-.7,1.3-1.1,1.8-.4.5-.8.8-1.2,1s-.9.3-1.4.3ZM101.7,244.2v-1.8h4.2v1.6h-2.7v.2h-1.5ZM105.8,250.3l-3.7-6.8h2.5l2.7,5.7-1.6,1.1ZM107,244v-1.6h3.7v1.8h-1.5v-.2h-2.2Z"/>
            <path class="cls-10" d="M110.9,244.2v-1.8h3.5v1.8h-3.5ZM110.9,252.7v-1.8h5v1.8h-5ZM112.3,252.2v-9.8h2.2v9.8h-2.2ZM116.7,249.7c-.6,0-1.1-.1-1.5-.4-.4-.2-.8-.5-1.1-.9-.3-.3-.5-.6-.8-.9v-1.5c.2.3.5.6.8.8.3.3.6.5,1,.7.3.2.7.3,1,.3s.6,0,.8-.1.5-.2.6-.4c.2-.2.3-.4.4-.6,0-.2.1-.5.1-.8s0-.6-.2-.9c-.1-.3-.3-.5-.6-.6-.3-.2-.6-.2-.9-.2s-.7.1-1.1.4c-.4.3-.8.7-1.1,1.2-.4.5-.6,1.2-.9,1.9v-1.6c.2-.8.6-1.5,1-2,.4-.6.9-1,1.4-1.3.5-.3,1-.5,1.5-.5s1.1.2,1.6.5c.5.3.9.8,1.2,1.3.3.6.5,1.2.5,1.9s0,1-.3,1.5c-.2.5-.4.9-.8,1.2s-.7.6-1.2.8c-.5.2-1,.3-1.5.3Z"/>
            <path class="cls-10" d="M125.5,249.7c-.5,0-1,0-1.5-.2s-.9-.4-1.3-.7c-.4-.3-.7-.7-.9-1.1s-.3-1-.3-1.6.1-1.1.3-1.6c.2-.5.5-.9.9-1.2s.8-.6,1.3-.8c.5-.2,1-.3,1.6-.3s1.2,0,1.7.3c.5.2.9.5,1.2.8.3.3.4.8.4,1.2s-.1.9-.4,1.2c-.3.3-.6.6-1.1.7-.4.2-.9.2-1.4.2s-1.1,0-1.6-.2-.9-.3-1.3-.6v-1.3c.5.3,1,.4,1.4.5.4,0,.7,0,1,0,.3,0,.5,0,.7,0,.2,0,.3-.1.4-.2,0,0,.1-.2.1-.3s0-.3-.2-.4c-.2,0-.4-.2-.6-.2s-.6,0-.8.2c-.3,0-.5.2-.7.4s-.4.4-.5.6-.2.5-.2.8,0,.7.3,1c.2.3.4.5.8.6.3.1.7.2,1,.2.5,0,1,0,1.5-.3.4-.2.8-.4,1.2-.6l.9,1.5c-.3.3-.6.5-1,.7-.4.2-.8.4-1.2.5-.4.1-.9.2-1.4.2Z"/>
            <path class="cls-10" d="M133.9,249.7c-.3,0-.7,0-1,0s-.6-.2-.9-.3c-.3-.1-.5-.3-.7-.6-.2-.2-.4-.5-.6-.8h.7s0,1.6,0,1.6h-1.6v-2.4h1c.2.2.4.4.7.6.3.2.6.3.9.4.3,0,.6.1.9.1s.4,0,.5,0,.2,0,.3-.2c0,0,.1-.2.1-.2s0-.1,0-.2c0,0-.1-.1-.2-.2-.1,0-.3-.2-.5-.2-.2,0-.5-.2-.9-.3-.6-.2-1.1-.4-1.5-.6-.4-.2-.7-.5-.9-.8-.2-.3-.3-.7-.3-1.1s.1-.7.3-1.1c.2-.3.5-.6.9-.8.4-.2.8-.3,1.4-.3s.8,0,1.2.2.7.3,1,.6c.3.3.6.6.8,1h-.7c0,0,0-1.6,0-1.6h1.6v2.3h-1c-.2-.2-.4-.4-.6-.6-.2-.2-.5-.3-.7-.4s-.5-.1-.8-.1-.3,0-.5,0c-.1,0-.2,0-.3.2,0,0-.1.2-.1.2s0,.1,0,.2c0,0,.1.1.3.2s.3.1.5.2c.2,0,.5.2.8.3.6.2,1.1.4,1.5.6s.7.5.9.8c.2.3.3.7.3,1.1s-.1.8-.3,1.1c-.2.3-.5.6-1,.8s-.9.3-1.4.3Z"/>
          </g>
          <g class="cls-7">
            <path class="cls-10" d="M37.3,264.7c-.3,0-.7,0-1,0s-.6-.2-.9-.3c-.3-.1-.5-.3-.7-.6-.2-.2-.4-.5-.6-.8h.7s0,1.6,0,1.6h-1.6v-2.4h1c.2.2.4.4.7.6.3.2.6.3.9.4.3,0,.6.1.9.1s.4,0,.5,0,.2,0,.3-.2c0,0,.1-.2.1-.2s0-.1,0-.2c0,0-.1-.1-.2-.2-.1,0-.3-.2-.5-.2-.2,0-.5-.2-.9-.3-.6-.2-1.1-.4-1.5-.6-.4-.2-.7-.5-.9-.8-.2-.3-.3-.7-.3-1.1s.1-.7.3-1.1c.2-.3.5-.6.9-.8.4-.2.8-.3,1.4-.3s.8,0,1.2.2.7.3,1,.6c.3.3.6.6.8,1h-.7c0,0,0-1.6,0-1.6h1.6v2.3h-1c-.2-.2-.4-.4-.6-.6-.2-.2-.5-.3-.7-.4s-.5-.1-.8-.1-.3,0-.5,0c-.1,0-.2,0-.3.2,0,0-.1.2-.1.2s0,.1,0,.2c0,0,.1.1.3.2s.3.1.5.2c.2,0,.5.2.8.3.6.2,1.1.4,1.5.6s.7.5.9.8c.2.3.3.7.3,1.1s-.1.8-.3,1.1c-.2.3-.5.6-1,.8s-.9.3-1.4.3Z"/>
            <path class="cls-10" d="M40.7,259.2v-1.8h3.1v1.8h-3.1ZM40.7,264.5v-1.8h5.1v1.8h-5.1ZM43.1,256.3c-.4,0-.7-.1-1-.3-.3-.2-.4-.5-.4-.8s.1-.6.4-.9c.3-.2.6-.3,1-.3s.8.1,1.1.3c.3.2.4.5.4.9s-.1.6-.4.8c-.3.2-.6.3-1.1.3ZM42.1,263.9v-6.5h2.3v6.5h-2.3Z"/>
            <path class="cls-10" d="M46.2,259.2v-1.8h2.9v1.8h-2.9ZM46.2,264.5v-1.8h4.8v1.8h-4.8ZM47.6,263.9v-6.5h2.3v6.5h-2.3ZM53,263.9v-3.2c0-.2,0-.4-.1-.6,0-.2-.2-.3-.4-.5-.2-.1-.4-.2-.6-.2s-.6,0-.9.3c-.3.2-.6.5-.9.8-.3.4-.6.8-.9,1.3v-1.8c.3-.6.6-1.1,1-1.5.4-.4.8-.7,1.2-.9.4-.2.9-.3,1.4-.3s.8,0,1.1.2.6.4.8.7.4.6.5,1.1c.1.4.2.9.2,1.5v3.2h-2.3ZM51.9,264.5v-1.8h4.5v1.8h-4.5ZM58.4,263.9v-3.2c0-.2,0-.3,0-.5,0-.1-.1-.3-.2-.4,0-.1-.2-.2-.4-.3-.1,0-.3-.1-.5-.1-.3,0-.6,0-.9.3-.3.2-.6.5-.9.8-.3.4-.6.8-.9,1.3v-1.8c.3-.6.6-1.1,1-1.5.4-.4.8-.7,1.2-.9.4-.2.9-.3,1.4-.3s.7,0,1.1.2.6.4.8.7.4.6.5,1.1c.1.4.2.9.2,1.5v3.2h-2.3ZM57.3,264.5v-1.8h4.6v1.8h-4.6Z"/>
            <path class="cls-10" d="M61.9,259.2v-1.8h3.1v1.8h-3.1ZM65.8,264.7c-.4,0-.8,0-1.1-.2-.3-.2-.6-.4-.8-.7s-.4-.7-.5-1.1c-.1-.4-.2-1-.2-1.5v-3.7h2.3v3.7c0,.2,0,.4,0,.6,0,.2.1.3.2.5s.2.2.4.3c.2,0,.4.1.6.1s.4,0,.7-.2c.2-.1.5-.3.7-.5.2-.2.5-.5.7-.8.3-.3.5-.7.8-1v1.8c-.4.5-.7.9-1,1.2-.3.3-.6.6-.9.9-.3.2-.6.4-.9.5-.3.1-.6.2-.9.2ZM67.3,259.2v-1.8h3.1v1.8h-3.1ZM70.5,264.6c-.4,0-.8,0-1.1-.2-.3-.2-.6-.4-.7-.7-.2-.3-.3-.7-.3-1.1v-5.1h2.3v4.9c0,.2,0,.3.1.3,0,0,.2,0,.3,0s.1,0,.2,0c0,0,.1,0,.1,0l.5,1.6c-.1,0-.3.1-.6.2-.3,0-.5.1-.8.1Z"/>
            <path class="cls-10" d="M72.3,256v-1.8h3.5v1.8h-3.5ZM72.3,264.5v-1.8h5.1v1.8h-5.1ZM73.7,263.9v-9.7h2.3v9.7h-2.3Z"/>
            <path class="cls-10" d="M77.5,259.2v-1.8h5.7v1.8h-5.7ZM81.8,264.7c-.6,0-1.1-.1-1.6-.4-.4-.3-.8-.6-1-1.1-.2-.5-.3-1-.3-1.7v-6h2.3v6c0,.2,0,.4.1.6,0,.2.2.3.3.4.1.1.3.2.6.2s.4,0,.6,0,.4,0,.5-.2l.6,1.7c-.2.1-.5.3-.9.4-.4.1-.8.2-1.3.2Z"/>
            <path class="cls-10" d="M87,264.7c-.4,0-.8,0-1.2-.2-.4-.2-.7-.4-.9-.8-.2-.3-.3-.8-.3-1.3,0-.5.2-1,.5-1.3.3-.3.7-.6,1.1-.8s.9-.3,1.4-.3,1.1,0,1.6.2c.4.2.8.3,1.3.6v1.4c-.5-.3-1-.4-1.4-.5-.4,0-.7,0-1,0s-.4,0-.6,0c-.2,0-.3.1-.4.2-.1,0-.2.2-.2.4s0,.2.1.3.2.1.3.2.3,0,.4,0,.4,0,.7-.1.6-.2,1-.5.7-.5,1.1-.9v1.5c-.4.4-.7.7-1.1,1-.4.3-.7.5-1.1.6-.4.1-.8.2-1.2.2ZM91.6,264.6c-.3,0-.6,0-.9-.2s-.5-.4-.7-.7c-.2-.3-.3-.7-.3-1.1v-2.4c0-.2,0-.4-.2-.5-.1-.1-.3-.2-.6-.3-.2,0-.5,0-.8,0s-.7,0-1.2.1c-.5.1-.9.2-1.4.4l-.5-1.7c.6-.2,1.2-.4,1.8-.6.6-.1,1.1-.2,1.6-.2.8,0,1.4.1,1.9.4.5.2.9.6,1.1,1,.2.4.4.9.4,1.5v2.1c0,.2,0,.3.1.3,0,0,.2,0,.3,0s.2,0,.2,0c0,0,.1,0,.2,0l.4,1.6c-.1,0-.3.1-.6.2-.3,0-.6.1-.9.1Z"/>
            <path class="cls-10" d="M93.6,259.2v-1.8h3.1v1.8h-3.1ZM93.6,264.5v-1.8h4.8v1.8h-4.8ZM95,264.5v-7.1h2.3v7.1h-2.3ZM100.8,264.5v-3.8c0-.2,0-.4,0-.5s-.1-.3-.3-.4c-.1-.1-.3-.2-.4-.3s-.4-.1-.6-.1-.5,0-.7.2c-.2,0-.5.3-.7.5-.2.2-.5.5-.7.8s-.5.7-.8,1v-1.8c.3-.5.7-.9,1-1.2.3-.3.6-.6.9-.9.3-.2.6-.4.9-.5.3-.1.7-.2,1-.2s.8,0,1.2.2c.3.1.6.4.9.7s.4.7.5,1.1.2.9.2,1.5v3.8h-2.3ZM99.7,264.5v-1.8h4.6v1.8h-4.6Z"/>
            <path class="cls-10" d="M108.8,264.7c-.5,0-1,0-1.5-.2s-.9-.4-1.3-.7c-.4-.3-.7-.7-.9-1.1s-.3-1-.3-1.6.1-1.1.3-1.6c.2-.5.5-.9.9-1.2s.8-.6,1.3-.8c.5-.2,1-.3,1.6-.3s1.2,0,1.7.3c.5.2.9.5,1.2.8.3.3.4.8.4,1.2s-.1.9-.4,1.2c-.3.3-.6.6-1.1.7-.4.2-.9.2-1.4.2s-1.1,0-1.6-.2-.9-.3-1.3-.6v-1.3c.5.3,1,.4,1.4.5.4,0,.7,0,1,0,.3,0,.5,0,.7,0,.2,0,.3-.1.4-.2,0,0,.1-.2.1-.3s0-.3-.2-.4c-.2,0-.4-.2-.6-.2s-.6,0-.8.2c-.3,0-.5.2-.7.4s-.4.4-.5.6-.2.5-.2.8,0,.7.3,1c.2.3.4.5.8.6.3.1.7.2,1,.2.5,0,1,0,1.5-.3.4-.2.8-.4,1.2-.6l.9,1.5c-.3.3-.6.5-1,.7-.4.2-.8.4-1.2.5-.4.1-.9.2-1.4.2ZM108.4,256.5l-.6-.9,2.8-2.6,1.2,1.7-3.4,1.8Z"/>
            <path class="cls-10" d="M117.2,264.7c-.3,0-.7,0-1,0s-.6-.2-.9-.3c-.3-.1-.5-.3-.7-.6-.2-.2-.4-.5-.6-.8h.7s0,1.6,0,1.6h-1.6v-2.4h1c.2.2.4.4.7.6.3.2.6.3.9.4.3,0,.6.1.9.1s.4,0,.5,0,.2,0,.3-.2c0,0,.1-.2.1-.2s0-.1,0-.2c0,0-.1-.1-.2-.2-.1,0-.3-.2-.5-.2-.2,0-.5-.2-.9-.3-.6-.2-1.1-.4-1.5-.6-.4-.2-.7-.5-.9-.8-.2-.3-.3-.7-.3-1.1s.1-.7.3-1.1c.2-.3.5-.6.9-.8.4-.2.8-.3,1.4-.3s.8,0,1.2.2.7.3,1,.6c.3.3.6.6.8,1h-.7c0,0,0-1.6,0-1.6h1.6v2.3h-1c-.2-.2-.4-.4-.6-.6-.2-.2-.5-.3-.7-.4s-.5-.1-.8-.1-.3,0-.5,0c-.1,0-.2,0-.3.2,0,0-.1.2-.1.2s0,.1,0,.2c0,0,.1.1.3.2s.3.1.5.2c.2,0,.5.2.8.3.6.2,1.1.4,1.5.6s.7.5.9.8c.2.3.3.7.3,1.1s-.1.8-.3,1.1c-.2.3-.5.6-1,.8s-.9.3-1.4.3Z"/>
          </g>
          <g class="cls-7">
            <path class="cls-10" d="M69.7,274.9l-.2-1c.3,0,.5-.2.8-.3s.5-.3.7-.5c.2-.2.3-.4.4-.7l.3.9c0,.3-.2.5-.4.7s-.4.4-.7.5c-.3.1-.6.2-.9.3ZM69.8,279.5v-1h3.9v1h-3.9ZM71.4,279.2v-6.7h1.2v6.7h-1.2Z"/>
            <path class="cls-10" d="M80.6,277.4c0,.3,0,.7-.2,1-.2.3-.4.6-.6.8s-.6.4-1,.5c-.4.1-.7.2-1.2.1-.5,0-.9,0-1.2-.2-.4-.1-.7-.2-1-.4-.3-.1-.5-.3-.8-.4l.4-1c.3.2.6.3.8.5s.6.3.9.3c.3,0,.6.1.9.1s.4,0,.6,0c.2,0,.4-.1.6-.2.2-.1.3-.2.4-.4.1-.2.2-.4.2-.6,0-.4-.2-.7-.5-.9-.3-.2-.8-.3-1.3-.3-.3,0-.6,0-.8,0s-.5.1-.8.2c-.3,0-.5.2-.8.3v-1c.4-.2.9-.3,1.4-.4.5-.1,1-.1,1.4-.1.4,0,.7,0,1,.2.3,0,.6.2.9.4.3.2.5.4.6.7s.2.6.2,1ZM75.1,272.5h1.1v3.4l-1.1.4v-3.8ZM75.4,272.5h5v1h-5v-1Z"/>
            <path class="cls-10" d="M83.6,275.9c-.3,0-.7,0-1-.2-.3-.2-.5-.4-.7-.7-.2-.3-.3-.6-.3-1s0-.7.3-1c.2-.3.4-.5.7-.6.3-.1.6-.2,1-.2s.7,0,1,.2c.3.2.5.4.7.6s.3.6.3,1,0,.7-.3,1-.4.5-.7.7-.6.2-1,.2ZM82.8,279.9l-.6-.6,7.2-7.3.6.6-7.2,7.3ZM83.6,275c.2,0,.3,0,.5-.1.1,0,.3-.2.4-.3,0-.1.1-.3.1-.5s0-.4-.1-.5c0-.1-.2-.3-.4-.3-.1,0-.3-.1-.5-.1s-.3,0-.5.1c-.1,0-.3.2-.4.3,0,.1-.1.3-.1.5s0,.4.1.5c0,.1.2.3.4.3.1,0,.3.1.5.1ZM88.7,279.7c-.3,0-.7,0-1-.2-.3-.2-.5-.4-.7-.7s-.3-.6-.3-1,0-.7.3-1,.4-.5.7-.7.6-.2,1-.2.7,0,1,.2c.3.2.5.4.7.7.2.3.3.6.3,1s0,.7-.3,1c-.2.3-.4.5-.7.6-.3.2-.6.2-1,.2ZM88.7,278.8c.2,0,.3,0,.5-.1.1,0,.3-.2.4-.3,0-.1.1-.3.1-.5s0-.4-.1-.5c0-.1-.2-.3-.4-.3-.1,0-.3-.1-.5-.1s-.3,0-.5.1c-.1,0-.3.2-.4.3s-.1.3-.1.5,0,.4.1.5.2.3.4.3c.1,0,.3.1.5.1Z"/>
          </g>
        </g>
      </g>
      <g>
        <rect class="cls-2" x="147.5" y="211.5" width="66.2" height="96.9"/>
        <g class="cls-7">
          <g class="cls-7">
            <path class="cls-10" d="M153,258c-.5,0-1,0-1.5-.3-.5-.2-.9-.4-1.2-.8-.3-.3-.6-.7-.8-1.1s-.3-.9-.3-1.4,0-1,.3-1.4c.2-.4.4-.8.8-1.1.3-.3.7-.6,1.2-.8.5-.2,1-.3,1.5-.3s1,0,1.5.3c.5.2.8.4,1.2.8.3.3.6.7.8,1.1.2.4.3.9.3,1.4s0,1-.3,1.4c-.2.4-.4.8-.8,1.1-.3.3-.7.6-1.2.8-.5.2-.9.3-1.5.3ZM153,256.7c.3,0,.6,0,.9-.2s.5-.3.6-.5c.2-.2.3-.4.4-.7,0-.3.1-.6.1-.9s0-.6-.1-.9-.2-.5-.4-.7c-.2-.2-.4-.4-.6-.5s-.5-.2-.9-.2-.6,0-.9.2c-.3.1-.5.3-.6.5-.2.2-.3.5-.4.7,0,.3-.1.6-.1.9s0,.6.1.9c0,.3.2.5.4.7.2.2.4.4.6.5.3.1.5.2.9.2Z"/>
            <path class="cls-10" d="M157,252.2v-1.2h2.2v1.2h-2.2ZM157.8,257.8v-6.9h1.5v5.9l-.6.9h-.9ZM161.2,253c.4,0,.7.1,1.1.3.3.2.6.5.8.9.2.4.3.8.3,1.3s0,.7-.2,1c-.1.3-.3.6-.5.8-.2.2-.5.4-.8.5-.3.1-.6.2-1,.2s-.7,0-1-.2c-.3-.2-.5-.4-.7-.6-.2-.2-.4-.4-.5-.6v-1c.1.2.3.4.5.6.2.2.4.3.6.5.2.1.5.2.7.2s.4,0,.6,0c.2,0,.3-.1.4-.3.1-.1.2-.2.3-.4,0-.2,0-.3,0-.5s0-.4-.1-.6c0-.2-.2-.3-.4-.4-.2-.1-.4-.2-.6-.2s-.5,0-.7.3c-.3.2-.5.5-.8.8-.2.4-.4.8-.6,1.2v-1.1c.2-.5.4-1,.6-1.3.3-.4.6-.7.9-.9.3-.2.7-.3,1-.3Z"/>
            <path class="cls-10" d="M166.5,258c-.2,0-.4,0-.6,0-.2,0-.4-.1-.6-.2s-.3-.2-.5-.4-.3-.3-.4-.5h.5s0,1.1,0,1.1h-1.1v-1.6h.7c.1.1.3.2.5.4.2.1.4.2.6.3.2,0,.4,0,.6,0s.2,0,.3,0c0,0,.2,0,.2-.1s0-.1,0-.2,0,0,0-.1c0,0,0,0-.2-.1,0,0-.2,0-.4-.2-.2,0-.4-.1-.6-.2-.4-.1-.7-.2-1-.4-.3-.1-.5-.3-.6-.5-.1-.2-.2-.5-.2-.7s0-.5.2-.7c.1-.2.3-.4.6-.5.3-.1.6-.2.9-.2s.5,0,.8.1.4.2.6.4c.2.2.4.4.5.7h-.5s0-1.1,0-1.1h1.1v1.6h-.7c-.1-.1-.3-.3-.4-.4-.1-.1-.3-.2-.5-.3-.2,0-.4,0-.5,0s-.2,0-.3,0-.2,0-.2.1c0,0,0,.1,0,.2s0,0,0,.1c0,0,0,0,.2.1,0,0,.2,0,.3.1.1,0,.3.1.5.2.4.1.7.2,1,.4.3.2.5.3.6.6.1.2.2.5.2.8s0,.5-.2.7c-.2.2-.4.4-.6.5-.3.1-.6.2-.9.2Z"/>
            <path class="cls-10" d="M168.5,254.3v-1.2h3.8v1.2h-3.8ZM171.4,258c-.4,0-.8,0-1-.3s-.5-.4-.7-.8-.2-.7-.2-1.1v-4h1.5v4c0,.2,0,.3,0,.4,0,.1.1.2.2.3s.2.1.4.1.3,0,.4,0c.1,0,.2,0,.3-.1l.4,1.1c-.1.1-.3.2-.6.3s-.5.1-.8.1Z"/>
            <path class="cls-10" d="M173.2,254.3v-1.2h2.4v1.2h-2.4ZM173.2,257.8v-1.2h3.4v1.2h-3.4ZM174.1,257.4v-4.3h1.5v4.3h-1.5ZM175.1,256v-1.2c.2-.4.5-.7.8-1s.6-.5.9-.7c.3-.2.6-.2.9-.2h.6v2.2h-1.3v-.7c-.1,0-.3,0-.5.2s-.4.3-.6.5-.5.5-.7.8Z"/>
            <path class="cls-10" d="M178.5,254.3v-1.2h2.1v1.2h-2.1ZM181.1,258c-.3,0-.5,0-.8-.1-.2-.1-.4-.2-.6-.4-.2-.2-.3-.4-.3-.7,0-.3-.1-.6-.1-1v-2.5h1.5v2.5c0,.1,0,.3,0,.4,0,.1,0,.2.1.3s.1.2.3.2.2,0,.4,0,.3,0,.4-.1c.2,0,.3-.2.5-.3.2-.1.3-.3.5-.5.2-.2.3-.4.5-.7v1.2c-.2.3-.5.6-.7.8-.2.2-.4.4-.6.6-.2.2-.4.3-.6.3-.2,0-.4.1-.6.1ZM182.2,254.3v-1.2h2.1v1.2h-2.1ZM184.3,257.9c-.3,0-.5,0-.7-.2-.2-.1-.4-.3-.5-.5s-.2-.5-.2-.8v-3.4h1.5v3.2c0,.1,0,.2,0,.2,0,0,.1,0,.2,0s.1,0,.1,0c0,0,0,0,0,0l.3,1.1c0,0-.2,0-.4.1s-.4,0-.5,0Z"/>
            <path class="cls-10" d="M188.2,258c-.4,0-.7,0-1-.2-.3-.1-.6-.3-.9-.5-.2-.2-.4-.5-.6-.8-.1-.3-.2-.6-.2-1s0-.7.2-1c.1-.3.3-.6.5-.8s.5-.4.8-.5c.3-.1.6-.2.9-.2s.6,0,.8.1c.2,0,.4.2.5.4.2.2.3.4.4.6h-.4v-1h1v1.7h-.6c0,0-.2-.2-.3-.3s-.3-.2-.4-.2c-.1,0-.3,0-.5,0s-.3,0-.5,0-.3.1-.4.2c-.1.1-.2.2-.3.4s0,.3,0,.5,0,.5.2.7.3.3.4.5c.2.1.4.2.6.2s.5,0,.8-.2c.2-.1.4-.3.7-.4l.6,1c-.3.3-.6.5-1,.6-.4.2-.8.2-1.2.2Z"/>
            <path class="cls-10" d="M190.6,254.3v-1.2h3.8v1.2h-3.8ZM193.5,258c-.4,0-.8,0-1-.3s-.5-.4-.7-.8-.2-.7-.2-1.1v-4h1.5v4c0,.2,0,.3,0,.4,0,.1.1.2.2.3s.2.1.4.1.3,0,.4,0c.1,0,.2,0,.3-.1l.4,1.1c-.1.1-.3.2-.6.3s-.5.1-.8.1Z"/>
            <path class="cls-10" d="M195.3,254.3v-1.2h2v1.2h-2ZM195.3,257.8v-1.2h3.4v1.2h-3.4ZM196.9,252.4c-.3,0-.5,0-.7-.2s-.3-.3-.3-.5,0-.4.3-.6c.2-.1.4-.2.7-.2s.5,0,.7.2c.2.2.3.3.3.6s0,.4-.3.5c-.2.1-.4.2-.7.2ZM196.2,257.4v-4.3h1.5v4.3h-1.5Z"/>
            <path class="cls-10" d="M201.7,258c-.3,0-.7,0-1-.2-.3-.1-.6-.3-.9-.5-.3-.2-.5-.5-.6-.8-.2-.3-.2-.6-.2-1s0-.7.2-1c.1-.3.4-.6.6-.8.3-.2.5-.4.9-.5.3-.1.7-.2,1-.2s.7,0,1,.2c.3.1.6.3.9.5.3.2.5.5.6.8.2.3.2.7.2,1s0,.7-.2,1c-.1.3-.3.6-.6.8-.3.2-.5.4-.9.5-.3.1-.7.2-1,.2ZM201.7,256.8c.2,0,.4,0,.6-.2.2-.1.3-.3.4-.4s.2-.4.2-.7,0-.5-.2-.7-.2-.3-.4-.4c-.2-.1-.4-.2-.6-.2s-.4,0-.6.2c-.2.1-.3.3-.4.4s-.2.4-.2.7,0,.5.2.7.2.3.4.4c.2.1.4.2.6.2Z"/>
            <path class="cls-10" d="M204.9,254.3v-1.2h2.1v1.2h-2.1ZM204.9,257.8v-1.2h3.2v1.2h-3.2ZM205.9,257.8v-4.7h1.5v4.7h-1.5ZM209.7,257.8v-2.5c0-.1,0-.2,0-.4,0-.1,0-.2-.2-.3,0,0-.2-.1-.3-.2-.1,0-.2,0-.4,0s-.3,0-.5.1c-.2,0-.3.2-.5.3s-.3.3-.5.5c-.2.2-.3.4-.5.7v-1.2c.2-.3.5-.6.7-.8.2-.2.4-.4.6-.6s.4-.3.6-.3.4-.1.7-.1.6,0,.8.1c.2,0,.4.2.6.4.2.2.3.4.3.7s.1.6.1,1v2.5h-1.5ZM209,257.8v-1.2h3.1v1.2h-3.1Z"/>
          </g>
          <g>
            <path class="cls-10" d="M178.4,262.9v1h-5.1v1.6h-1v-2.6h6.1ZM177.2,263.8h1.2c0,0-3.8,6.2-3.8,6.2l-1-.5,3.6-5.6Z"/>
            <path class="cls-10" d="M181.4,266.2c-.3,0-.7,0-1-.2-.3-.2-.5-.4-.7-.7-.2-.3-.3-.6-.3-1s0-.7.3-1c.2-.3.4-.5.7-.6.3-.1.6-.2,1-.2s.7,0,1,.2c.3.2.5.4.7.6.2.3.3.6.3,1s0,.7-.3,1c-.2.3-.4.5-.7.7-.3.2-.6.2-1,.2ZM180.6,270.3l-.6-.6,7.2-7.3.6.6-7.2,7.3ZM181.4,265.3c.2,0,.3,0,.5-.1.1,0,.3-.2.4-.3s.1-.3.1-.5,0-.4-.1-.5-.2-.3-.4-.3c-.1,0-.3-.1-.5-.1s-.3,0-.5.1c-.1,0-.3.2-.4.3,0,.1-.1.3-.1.5s0,.4.1.5c0,.1.2.3.4.3.1,0,.3.1.5.1ZM186.5,270c-.3,0-.7,0-1-.2-.3-.2-.5-.4-.7-.7-.2-.3-.3-.6-.3-1s0-.7.3-1c.2-.3.4-.5.7-.7.3-.2.6-.2,1-.2s.7,0,1,.2.5.4.7.7c.2.3.3.6.3,1s0,.7-.3,1c-.2.3-.4.5-.7.6-.3.2-.6.2-1,.2ZM186.5,269.1c.2,0,.3,0,.5-.1s.3-.2.4-.3c0-.1.1-.3.1-.5s0-.4-.1-.5c0-.1-.2-.3-.4-.3-.1,0-.3-.1-.5-.1s-.3,0-.5.1c-.1,0-.3.2-.4.3s-.1.3-.1.5,0,.4.1.5.2.3.4.3c.1,0,.3.1.5.1Z"/>
          </g>
        </g>
      </g>
      <g>
        <rect class="cls-3" x="213.8" y="211.5" width="94.6" height="67.8"/>
        <g class="cls-7">
          <g class="cls-7">
            <path class="cls-10" d="M250.8,235.8c-.4,0-.8,0-1.1-.2-.4-.1-.7-.3-1-.5s-.6-.4-1-.7c-.3-.3-.6-.5-.9-.8h1v2h-1.7v-3.1h1.2c.2.2.5.5.8.7s.6.4.9.5c.3.2.6.3.9.4.3,0,.6.1.8.1s.4,0,.5,0c.1,0,.3-.1.3-.2s.1-.2.1-.4,0-.3-.1-.4-.3-.2-.5-.3c-.2-.1-.5-.2-.8-.3-.3-.1-.8-.2-1.3-.4-.7-.2-1.2-.4-1.6-.7-.4-.3-.7-.6-.9-.9-.2-.3-.3-.7-.3-1.2s.1-.9.4-1.3c.3-.4.6-.6,1.1-.8.4-.2.9-.3,1.4-.3s1,0,1.4.2c.4.2.8.4,1.2.7.4.3.7.7.9,1.3l-.9-.2v-1.9h1.7v3h-1.2c-.2-.3-.4-.6-.7-.9-.3-.2-.6-.4-.9-.6-.3-.1-.7-.2-1-.2s-.5,0-.7,0c-.2,0-.4.2-.5.3s-.2.3-.2.4,0,.2.1.3c0,0,.2.2.4.3.2,0,.4.2.6.3.3,0,.6.2,1,.3.6.2,1.2.4,1.7.6.5.2.9.5,1.2.9.3.4.5.8.5,1.3s-.1.9-.4,1.3c-.3.4-.6.6-1,.8-.4.2-.9.3-1.5.3Z"/>
            <path class="cls-10" d="M256.6,235.8c-.4,0-.7,0-1-.2-.3-.1-.5-.3-.7-.6-.2-.3-.3-.6-.3-1.1,0-.4.1-.8.4-1.1.3-.3.6-.5.9-.6.4-.1.8-.2,1.1-.2s.9,0,1.3.2c.3.1.7.3,1,.5v1.1c-.4-.2-.8-.3-1.1-.4-.3,0-.6,0-.8,0s-.3,0-.5,0c-.1,0-.3.1-.4.2s-.1.2-.1.3,0,.2,0,.2c0,0,.1.1.2.1.1,0,.2,0,.3,0s.3,0,.6-.1c.2,0,.5-.2.8-.4.3-.2.6-.4.9-.7v1.2c-.3.3-.6.6-.9.8-.3.2-.6.4-.9.5-.3.1-.6.2-1,.2ZM260.4,235.7c-.3,0-.5,0-.8-.2s-.4-.3-.6-.6c-.1-.3-.2-.6-.2-.9v-2c0-.2,0-.3-.2-.4s-.3-.2-.5-.2c-.2,0-.4,0-.7,0s-.6,0-1,.1c-.4,0-.8.2-1.2.4l-.4-1.4c.5-.2,1-.4,1.5-.5.5-.1.9-.2,1.3-.2.6,0,1.2.1,1.6.3.4.2.7.5.9.8.2.4.3.8.3,1.3v1.8c0,.1,0,.2,0,.3s.1,0,.2,0,.1,0,.2,0c0,0,0,0,.1,0l.4,1.3c-.1,0-.3.1-.5.2s-.5,0-.7,0Z"/>
            <path class="cls-10" d="M262,231.3v-1.5h2.6v1.5h-2.6ZM262,235.6v-1.5h4v1.5h-4ZM263.2,235.6v-5.8h1.9v5.8h-1.9ZM267.9,235.6v-3.1c0-.2,0-.3,0-.4,0-.1-.1-.3-.2-.4,0-.1-.2-.2-.3-.2s-.3,0-.5,0-.4,0-.6.1-.4.2-.6.4c-.2.2-.4.4-.6.6-.2.2-.4.5-.6.9v-1.5c.3-.4.6-.7.8-1,.3-.3.5-.5.7-.7.2-.2.5-.3.8-.4.3,0,.5-.1.8-.1s.7,0,1,.2.5.3.7.5c.2.2.3.5.4.9,0,.4.1.8.1,1.3v3.1h-1.9ZM267,235.6v-1.5h3.8v1.5h-3.8Z"/>
            <path class="cls-10" d="M274.5,235.8c-.3,0-.5,0-.8,0-.3,0-.5-.1-.7-.3s-.4-.3-.6-.5c-.2-.2-.4-.4-.5-.7h.6s0,1.3,0,1.3h-1.3v-1.9h.8c.1.1.3.3.6.5.2.1.5.3.8.3.3,0,.5.1.7.1s.3,0,.4,0c.1,0,.2,0,.2-.1,0,0,0-.1,0-.2s0-.1,0-.2c0,0-.1-.1-.2-.2s-.2-.1-.4-.2c-.2,0-.5-.2-.8-.2-.5-.1-.9-.3-1.2-.5-.3-.2-.6-.4-.7-.7s-.2-.6-.2-.9,0-.6.3-.9c.2-.3.4-.5.7-.6.3-.2.7-.2,1.1-.2s.7,0,1,.1.6.3.8.5c.2.2.5.5.7.9h-.6s0-1.3,0-1.3h1.3v1.9h-.8c-.1-.1-.3-.3-.5-.5s-.4-.3-.6-.3c-.2,0-.4-.1-.7-.1s-.3,0-.4,0c-.1,0-.2,0-.2.1s0,.1,0,.2,0,.1,0,.2c0,0,.1.1.2.2s.2.1.4.2c.2,0,.4.1.7.2.5.1.9.3,1.2.5.3.2.6.4.8.7.2.3.3.6.3.9s0,.6-.3.9c-.2.3-.5.5-.8.6s-.7.2-1.2.2Z"/>
          </g>
          <g class="cls-7">
            <path class="cls-10" d="M221,243.6v-1.5h2.5v1.5h-2.5ZM221,248v-1.5h4.2v1.5h-4.2ZM222.9,241.2c-.3,0-.6,0-.8-.3-.2-.2-.4-.4-.4-.7s.1-.5.4-.7c.2-.2.5-.3.8-.3s.7,0,.9.3c.2.2.3.4.3.7s-.1.5-.3.7c-.2.2-.5.3-.9.3ZM222.1,247.5v-5.3h1.9v5.3h-1.9Z"/>
            <path class="cls-10" d="M225.5,243.6v-1.5h2.6v1.5h-2.6ZM225.5,248v-1.5h4v1.5h-4ZM226.7,248v-5.8h1.9v5.8h-1.9ZM231.5,248v-3.1c0-.2,0-.3,0-.4,0-.1-.1-.3-.2-.4,0-.1-.2-.2-.3-.2s-.3,0-.5,0-.4,0-.6.1-.4.2-.6.4c-.2.2-.4.4-.6.6-.2.2-.4.5-.6.9v-1.5c.3-.4.6-.7.8-1,.3-.3.5-.5.7-.7.2-.2.5-.3.8-.4.3,0,.5-.1.8-.1s.7,0,1,.2.5.3.7.5c.2.2.3.5.4.9,0,.4.1.8.1,1.3v3.1h-1.9ZM230.5,248v-1.5h3.8v1.5h-3.8Z"/>
            <path class="cls-10" d="M234.7,243.6v-1.5h4.7v1.5h-4.7ZM234.7,248v-1.5h4.6v1.5h-4.6ZM235.9,247.1v-5.7c0-.5.1-.9.3-1.3.2-.4.5-.7.9-.9.4-.2.9-.3,1.4-.3s.8,0,1.2.2c.3.1.7.3,1.1.5l-.7,1.4c-.3-.2-.5-.3-.7-.4-.2,0-.4-.1-.7-.1s-.5,0-.6.1c-.2,0-.3.2-.4.4s-.1.3-.1.4v5.7h-1.8Z"/>
            <path class="cls-10" d="M243.5,248.1c-.4,0-.8,0-1.2-.2-.4-.1-.8-.3-1.1-.6-.3-.3-.6-.6-.8-1-.2-.4-.3-.8-.3-1.3s0-.9.3-1.3c.2-.4.4-.7.8-1,.3-.3.7-.5,1.1-.6.4-.1.8-.2,1.2-.2s.8,0,1.2.2c.4.1.8.3,1.1.6.3.3.6.6.8,1,.2.4.3.8.3,1.3s0,.9-.3,1.3c-.2.4-.4.7-.7,1s-.7.5-1.1.6-.8.2-1.3.2ZM243.5,246.7c.3,0,.5,0,.7-.2.2-.1.4-.3.5-.5.1-.2.2-.5.2-.9s0-.6-.2-.9c-.1-.2-.3-.4-.5-.5-.2-.1-.4-.2-.7-.2s-.5,0-.7.2c-.2.1-.4.3-.5.5-.1.2-.2.5-.2.9s0,.6.2.9.3.4.5.5c.2.1.4.2.7.2Z"/>
            <path class="cls-10" d="M247.5,243.6v-1.5h2.9v1.5h-2.9ZM247.5,248v-1.5h4.2v1.5h-4.2ZM248.7,247.5v-5.3h1.9v5.3h-1.9ZM249.9,245.7v-1.4c.3-.4.6-.8,1-1.2.4-.3.7-.6,1.1-.8.4-.2.7-.3,1.1-.3h.7v2.7h-1.6v-.8c-.1,0-.3,0-.6.2-.2.1-.5.4-.8.6-.3.3-.6.6-.9,1Z"/>
            <path class="cls-10" d="M254.5,243.6v-1.5h2.4v1.5h-2.4ZM254.5,248v-1.5h4v1.5h-4ZM255.7,247.5v-5.3h1.9v5.3h-1.9ZM260.1,247.5v-2.7c0-.2,0-.4-.1-.5,0-.2-.2-.3-.3-.4-.1,0-.3-.1-.5-.1s-.5,0-.8.2c-.3.1-.5.4-.8.7-.3.3-.5.7-.8,1.1v-1.5c.2-.5.5-.9.8-1.2s.7-.6,1-.8c.4-.2.7-.3,1.1-.3s.6,0,.9.2c.3.1.5.3.7.5.2.2.3.5.4.9,0,.3.1.7.1,1.2v2.7h-1.9ZM259.2,248v-1.5h3.7v1.5h-3.7ZM264.5,247.5v-2.7c0-.1,0-.3,0-.4,0-.1,0-.2-.2-.3s-.2-.2-.3-.2-.2,0-.4,0c-.3,0-.5,0-.8.2-.3.1-.5.4-.8.7-.3.3-.5.7-.7,1.1v-1.5c.2-.5.5-.9.8-1.2s.7-.6,1-.8c.4-.2.7-.3,1.1-.3s.6,0,.9.2c.3.1.5.3.7.5.2.2.3.5.4.9,0,.3.1.7.1,1.2v2.7h-1.9ZM263.6,248v-1.5h3.8v1.5h-3.8Z"/>
            <path class="cls-10" d="M270,248.1c-.4,0-.7,0-1-.2-.3-.1-.5-.3-.7-.6-.2-.3-.3-.6-.3-1.1,0-.4.1-.8.4-1.1.3-.3.6-.5.9-.6.4-.1.8-.2,1.1-.2s.9,0,1.3.2c.3.1.7.3,1,.5v1.1c-.4-.2-.8-.3-1.1-.4-.3,0-.6,0-.8,0s-.3,0-.5,0c-.1,0-.3.1-.4.2s-.1.2-.1.3,0,.2,0,.2c0,0,.1.1.2.1.1,0,.2,0,.3,0s.3,0,.6-.1c.2,0,.5-.2.8-.4.3-.2.6-.4.9-.7v1.2c-.3.3-.6.6-.9.8-.3.2-.6.4-.9.5-.3.1-.6.2-1,.2ZM273.8,248.1c-.3,0-.5,0-.8-.2s-.4-.3-.6-.6c-.1-.3-.2-.6-.2-.9v-2c0-.2,0-.3-.2-.4s-.3-.2-.5-.2c-.2,0-.4,0-.7,0s-.6,0-1,.1c-.4,0-.8.2-1.2.4l-.4-1.4c.5-.2,1-.4,1.5-.5.5-.1.9-.2,1.3-.2.6,0,1.2.1,1.6.3.4.2.7.5.9.8.2.4.3.8.3,1.3v1.8c0,.1,0,.2,0,.3s.1,0,.2,0,.1,0,.2,0c0,0,0,0,.1,0l.4,1.3c-.1,0-.3.1-.5.2s-.5,0-.7,0Z"/>
            <path class="cls-10" d="M275,243.6v-1.5h4.7v1.5h-4.7ZM278.6,248.1c-.5,0-.9-.1-1.3-.3-.4-.2-.6-.5-.8-.9-.2-.4-.3-.9-.3-1.4v-5h1.9v5c0,.2,0,.4,0,.5,0,.1.1.3.3.4.1,0,.3.1.5.1s.3,0,.5,0c.1,0,.3,0,.4-.1l.5,1.4c-.2.1-.4.2-.7.3-.3,0-.6.1-1,.1Z"/>
            <path class="cls-10" d="M280.8,243.6v-1.5h2.5v1.5h-2.5ZM280.8,248v-1.5h4.2v1.5h-4.2ZM282.8,241.2c-.3,0-.6,0-.8-.3-.2-.2-.4-.4-.4-.7s.1-.5.4-.7c.2-.2.5-.3.8-.3s.7,0,.9.3c.2.2.3.4.3.7s-.1.5-.3.7c-.2.2-.5.3-.9.3ZM282,247.5v-5.3h1.9v5.3h-1.9Z"/>
            <path class="cls-10" d="M288.7,248.1c-.4,0-.8,0-1.2-.2-.4-.1-.8-.3-1.1-.6-.3-.3-.6-.6-.8-1-.2-.4-.3-.8-.3-1.3s0-.9.3-1.3c.2-.4.4-.7.8-1,.3-.3.7-.5,1.1-.6.4-.1.8-.2,1.2-.2s.8,0,1.2.2c.4.1.8.3,1.1.6.3.3.6.6.8,1,.2.4.3.8.3,1.3s0,.9-.3,1.3c-.2.4-.4.7-.7,1s-.7.5-1.1.6-.8.2-1.3.2ZM288.7,246.7c.3,0,.5,0,.7-.2.2-.1.4-.3.5-.5.1-.2.2-.5.2-.9s0-.6-.2-.9c-.1-.2-.3-.4-.5-.5-.2-.1-.4-.2-.7-.2s-.5,0-.7.2c-.2.1-.4.3-.5.5-.1.2-.2.5-.2.9s0,.6.2.9.3.4.5.5c.2.1.4.2.7.2Z"/>
            <path class="cls-10" d="M292.7,243.6v-1.5h2.6v1.5h-2.6ZM292.7,248v-1.5h4v1.5h-4ZM293.8,248v-5.8h1.9v5.8h-1.9ZM298.6,248v-3.1c0-.2,0-.3,0-.4,0-.1-.1-.3-.2-.4,0-.1-.2-.2-.3-.2s-.3,0-.5,0-.4,0-.6.1-.4.2-.6.4c-.2.2-.4.4-.6.6-.2.2-.4.5-.6.9v-1.5c.3-.4.6-.7.8-1,.3-.3.5-.5.7-.7.2-.2.5-.3.8-.4.3,0,.5-.1.8-.1s.7,0,1,.2.5.3.7.5c.2.2.3.5.4.9,0,.4.1.8.1,1.3v3.1h-1.9ZM297.7,248v-1.5h3.8v1.5h-3.8Z"/>
          </g>
          <g class="cls-7">
            <path class="cls-10" d="M259.5,258v1h-5.1v1.6h-1v-2.6h6.1ZM258.3,258.9h1.2c0,0-3.8,6.2-3.8,6.2l-1-.5,3.6-5.6Z"/>
            <path class="cls-10" d="M262.5,261.4c-.3,0-.7,0-1-.2-.3-.2-.5-.4-.7-.7s-.3-.6-.3-1,0-.7.3-1,.4-.5.7-.6c.3-.1.6-.2,1-.2s.7,0,1,.2c.3.2.5.4.7.6s.3.6.3,1,0,.7-.3,1-.4.5-.7.7-.6.2-1,.2ZM261.8,265.4l-.6-.6,7.2-7.3.6.6-7.2,7.3ZM262.5,260.5c.2,0,.3,0,.5-.1.1,0,.3-.2.4-.3,0-.1.1-.3.1-.5s0-.4-.1-.5c0-.1-.2-.3-.4-.3-.1,0-.3-.1-.5-.1s-.3,0-.5.1c-.1,0-.3.2-.4.3,0,.1-.1.3-.1.5s0,.4.1.5c0,.1.2.3.4.3.1,0,.3.1.5.1ZM267.6,265.2c-.3,0-.7,0-1-.2-.3-.2-.5-.4-.7-.7-.2-.3-.3-.6-.3-1s0-.7.3-1c.2-.3.4-.5.7-.7s.6-.2,1-.2.7,0,1,.2.5.4.7.7c.2.3.3.6.3,1s0,.7-.3,1-.4.5-.7.6c-.3.2-.6.2-1,.2ZM267.6,264.3c.2,0,.3,0,.5-.1s.3-.2.4-.3c0-.1.1-.3.1-.5s0-.4-.1-.5c0-.1-.2-.3-.4-.3-.1,0-.3-.1-.5-.1s-.3,0-.5.1c-.1,0-.3.2-.4.3s-.1.3-.1.5,0,.4.1.5.2.3.4.3c.1,0,.3.1.5.1Z"/>
          </g>
        </g>
      </g>
      <g>
        <rect class="cls-4" x="213.8" y="279.3" width="63.1" height="29.1"/>
        <g class="cls-7">
          <g class="cls-7">
            <path class="cls-10" d="M221.2,289v-1.5h2c.2,0,.4,0,.6,0,.2,0,.4-.2.5-.3.1-.2.2-.4.2-.8s0-.5-.2-.7c-.1-.2-.3-.3-.6-.3-.2,0-.4,0-.7,0h-4.5v-1.4h4.6c.6,0,1.2.1,1.7.3.5.2.8.5,1.1.9.3.4.4.8.4,1.3s-.1,1-.4,1.4c-.3.4-.6.7-1.1.9-.5.2-1,.3-1.7.3h-2.1ZM218.7,291.6v-1.4h4.5v1.4h-4.5ZM220,290.8v-6.2h1.8v6.2h-1.8Z"/>
            <path class="cls-10" d="M227,287.6v-1.4h2.7v1.4h-2.7ZM227,291.6v-1.4h3.9v1.4h-3.9ZM228.1,291.1v-4.9h1.7v4.9h-1.7ZM229.2,289.6v-1.3c.3-.4.6-.8.9-1.1.3-.3.7-.6,1-.8.3-.2.7-.3,1-.3h.6v2.5h-1.5v-.8c-.1,0-.3,0-.5.2-.2.1-.5.3-.7.6-.3.3-.5.6-.8.9Z"/>
            <path class="cls-10" d="M236.4,291.8c-.4,0-.8,0-1.2-.2-.4-.1-.7-.3-1-.5-.3-.2-.5-.5-.7-.9-.2-.3-.3-.7-.3-1.2s0-.9.3-1.2c.2-.4.4-.7.7-.9s.6-.5,1-.6c.4-.1.8-.2,1.2-.2s.9,0,1.3.2.7.3.9.6c.2.3.3.6.3.9s-.1.7-.3.9-.5.4-.8.5c-.3.1-.7.2-1.1.2s-.9,0-1.2-.2-.7-.3-1-.4v-1c.4.2.8.3,1,.4.3,0,.5,0,.7,0,.2,0,.4,0,.5,0s.2-.1.3-.2.1-.2.1-.3,0-.2-.2-.3c-.1,0-.3-.1-.5-.1s-.4,0-.6.1c-.2,0-.4.2-.5.3-.2.1-.3.3-.4.5,0,.2-.1.4-.1.6s0,.5.2.8.3.4.6.5.5.2.8.2c.4,0,.8,0,1.1-.2.3-.1.6-.3.9-.5l.7,1.1c-.2.2-.5.4-.8.5-.3.2-.6.3-.9.4-.3,0-.7.1-1.1.1ZM236.1,285.5l-.5-.6,2.1-2,.9,1.3-2.6,1.4Z"/>
            <path class="cls-10" d="M242.8,291.8c-.3,0-.5,0-.7,0-.2,0-.4-.1-.6-.2s-.4-.2-.6-.4c-.2-.2-.3-.4-.5-.6h.5s0,1.2,0,1.2h-1.2v-1.8h.8c.1.1.3.3.5.4.2.1.5.2.7.3s.5.1.7.1.3,0,.4,0c0,0,.2,0,.2-.1s0-.1,0-.2,0,0,0-.1c0,0,0-.1-.2-.2,0,0-.2-.1-.4-.2s-.4-.1-.7-.2c-.4-.1-.8-.3-1.1-.4-.3-.2-.5-.4-.7-.6-.1-.2-.2-.5-.2-.8s0-.6.2-.8c.2-.2.4-.4.7-.6.3-.1.6-.2,1-.2s.6,0,.9.1c.3,0,.5.2.7.4.2.2.4.5.6.8h-.5s0-1.2,0-1.2h1.2v1.8h-.8c-.1-.1-.3-.3-.5-.4-.2-.1-.3-.2-.5-.3-.2,0-.4,0-.6,0s-.3,0-.4,0c0,0-.2,0-.2.1s0,.1,0,.2,0,.1,0,.2c0,0,.1.1.2.2,0,0,.2.1.4.2s.4.1.6.2c.4.1.8.3,1.1.5s.6.4.7.6c.2.2.3.5.3.9s0,.6-.3.8-.4.4-.7.6c-.3.1-.7.2-1.1.2Z"/>
            <path class="cls-10" d="M248.5,291.8c-.4,0-.8,0-1.2-.2-.4-.1-.7-.3-1-.5-.3-.2-.5-.5-.7-.9-.2-.3-.3-.7-.3-1.2s0-.9.3-1.2c.2-.4.4-.7.7-.9s.6-.5,1-.6c.4-.1.8-.2,1.2-.2s.9,0,1.3.2.7.3.9.6c.2.3.3.6.3.9s-.1.7-.3.9-.5.4-.8.5c-.3.1-.7.2-1.1.2s-.9,0-1.2-.2-.7-.3-1-.4v-1c.4.2.8.3,1,.4.3,0,.5,0,.7,0,.2,0,.4,0,.5,0s.2-.1.3-.2.1-.2.1-.3,0-.2-.2-.3c-.1,0-.3-.1-.5-.1s-.4,0-.6.1c-.2,0-.4.2-.5.3-.2.1-.3.3-.4.5,0,.2-.1.4-.1.6s0,.5.2.8.3.4.6.5.5.2.8.2c.4,0,.8,0,1.1-.2.3-.1.6-.3.9-.5l.7,1.1c-.2.2-.5.4-.8.5-.3.2-.6.3-.9.4-.3,0-.7.1-1.1.1Z"/>
            <path class="cls-10" d="M251.9,287.6v-1.4h2.4v1.4h-2.4ZM251.9,291.6v-1.4h3.7v1.4h-3.7ZM252.9,291.6v-5.4h1.7v5.4h-1.7ZM257.3,291.6v-2.8c0-.1,0-.3,0-.4,0-.1-.1-.2-.2-.3,0,0-.2-.2-.3-.2-.1,0-.3,0-.4,0s-.4,0-.5.1c-.2,0-.4.2-.6.3-.2.2-.4.3-.6.6-.2.2-.4.5-.6.8v-1.4c.3-.4.5-.7.8-.9.2-.3.5-.5.7-.7.2-.2.5-.3.7-.4.2,0,.5-.1.8-.1s.6,0,.9.2c.3.1.5.3.7.5.2.2.3.5.4.8,0,.3.1.7.1,1.2v2.8h-1.7ZM256.5,291.6v-1.4h3.5v1.4h-3.5Z"/>
            <path class="cls-10" d="M263.4,291.8c-.4,0-.8,0-1.2-.2-.4-.1-.7-.3-1-.6-.3-.3-.5-.6-.7-.9-.2-.4-.2-.7-.2-1.2s0-.8.2-1.1c.1-.3.3-.6.6-.9.3-.3.5-.5.9-.6.3-.1.7-.2,1-.2s.6,0,.9.1c.2,0,.4.2.6.4s.3.4.5.7h-.5v-1.1h1.2v2h-.7c-.1-.1-.2-.2-.4-.3-.1-.1-.3-.2-.5-.3s-.4,0-.6,0-.4,0-.6,0-.3.2-.5.3c-.1.1-.2.3-.3.4s-.1.4-.1.6,0,.5.2.8c.1.2.3.4.5.5.2.1.5.2.7.2s.6,0,.9-.2c.3-.1.5-.3.8-.5l.7,1.1c-.3.3-.7.5-1.1.7-.4.2-.9.3-1.3.3Z"/>
            <path class="cls-10" d="M269.5,291.8c-.4,0-.8,0-1.2-.2-.4-.1-.7-.3-1-.5-.3-.2-.5-.5-.7-.9-.2-.3-.3-.7-.3-1.2s0-.9.3-1.2c.2-.4.4-.7.7-.9.3-.3.6-.5,1-.6s.8-.2,1.2-.2.9,0,1.3.2.7.3.9.6c.2.3.3.6.3.9s-.1.7-.3.9c-.2.2-.5.4-.8.5-.3.1-.7.2-1.1.2s-.9,0-1.2-.2c-.3-.1-.7-.3-1-.4v-1c.4.2.8.3,1,.4.3,0,.5,0,.7,0,.2,0,.4,0,.5,0,.1,0,.2-.1.3-.2s.1-.2.1-.3,0-.2-.2-.3c-.1,0-.3-.1-.5-.1s-.4,0-.6.1c-.2,0-.4.2-.5.3-.2.1-.3.3-.4.5s-.1.4-.1.6,0,.5.2.8.3.4.6.5c.2.1.5.2.8.2.4,0,.8,0,1.1-.2.3-.1.6-.3.9-.5l.7,1.1c-.2.2-.5.4-.8.5-.3.2-.6.3-.9.4-.3,0-.7.1-1.1.1Z"/>
          </g>
          <g class="cls-7">
            <path class="cls-10" d="M243.9,299.9c0,.3,0,.6-.2.8-.2.2-.4.4-.7.6s-.6.3-1,.5c-.3,0-.5.2-.7.3-.2,0-.4.2-.5.3-.1.1-.2.2-.3.4s-.1.3-.1.5h-.9c0-.3,0-.5.1-.7s.2-.4.4-.6c.2-.2.4-.3.7-.5.3-.1.5-.3.8-.4.3-.1.5-.2.7-.3.2,0,.3-.2.4-.2s.2-.2.2-.2c0,0,0-.2,0-.3,0-.2,0-.3-.1-.4,0-.1-.2-.2-.4-.3s-.4-.1-.6-.1-.5,0-.7.1c-.2,0-.4.2-.6.3s-.4.3-.6.5l-.5-.6c.3-.3.7-.6,1.1-.8s.9-.3,1.4-.3.5,0,.7,0,.5.2.6.3c.2.1.3.3.5.5.1.2.2.4.2.7ZM239.5,303.7v-.8h3.8v-1h.8v1.7h-4.6Z"/>
            <path class="cls-10" d="M246.3,301c-.3,0-.5,0-.7-.2-.2-.1-.4-.3-.6-.5s-.2-.5-.2-.7,0-.5.2-.8.3-.4.6-.5c.2-.1.5-.2.7-.2s.5,0,.7.2c.2.1.4.3.5.5s.2.5.2.8,0,.5-.2.7-.3.4-.5.5c-.2.1-.5.2-.7.2ZM245.8,304.1l-.5-.5,5.5-5.6.5.5-5.5,5.6ZM246.3,300.3c.1,0,.3,0,.4,0,.1,0,.2-.1.3-.3,0-.1.1-.2.1-.4s0-.3-.1-.4-.2-.2-.3-.3c-.1,0-.2,0-.4,0s-.3,0-.4,0-.2.1-.3.3-.1.2-.1.4,0,.3.1.4c0,.1.2.2.3.3s.2,0,.4,0ZM250.2,303.9c-.3,0-.5,0-.7-.2-.2-.1-.4-.3-.5-.5-.1-.2-.2-.5-.2-.7s0-.5.2-.7c.1-.2.3-.4.5-.5.2-.1.5-.2.7-.2s.5,0,.7.2c.2.1.4.3.5.5s.2.5.2.7,0,.5-.2.7-.3.4-.5.5c-.2.1-.5.2-.7.2ZM250.2,303.2c.1,0,.3,0,.4,0,.1,0,.2-.1.3-.3s.1-.2.1-.4,0-.3-.1-.4-.2-.2-.3-.3-.2,0-.4,0-.3,0-.4,0-.2.2-.3.3-.1.2-.1.4,0,.3.1.4.2.2.3.3.2,0,.4,0Z"/>
          </g>
        </g>
      </g>
      <g>
        <rect class="cls-6" x="276.9" y="279.3" width="31.5" height="29.1"/>
        <g class="cls-7">
          <g>
            <path class="cls-9" d="M278.4,314.7v-.7h1.2c0,0,.2,0,.3,0,0,0,.2,0,.3-.2,0,0,.1-.2.1-.3s0-.2-.1-.3-.2-.1-.3-.1c-.1,0-.2,0-.3,0h-2.5v-.8h2.5c.3,0,.6,0,.9.1.2,0,.4.2.6.4.1.2.2.4.2.7s0,.5-.2.7c-.1.2-.3.3-.6.4-.2,0-.5.1-.8.1h-1.2ZM277.1,316.3v-.8h2.3v.8h-2.3ZM277.7,315.9v-3.3h1v3.3h-1ZM281,316.4c-.2,0-.3,0-.5-.1-.2,0-.3-.2-.5-.4-.1-.2-.3-.4-.4-.8l-.2-.6h.8c0-.1.2.3.2.3,0,.2.2.3.3.4,0,0,.2.2.3.2,0,0,.1,0,.2,0s.1,0,.2,0,0,0,.1,0l.2.8c0,0-.2,0-.3,0-.1,0-.2,0-.3,0Z"/>
            <path class="cls-9" d="M281.7,314.2v-.7h1.3v.7h-1.3ZM283.3,316.4c-.2,0-.3,0-.5,0-.1,0-.2-.1-.3-.3,0-.1-.2-.3-.2-.4,0-.2,0-.4,0-.6v-1.5h.9v1.5c0,0,0,.2,0,.2,0,0,0,.1,0,.2,0,0,0,0,.2.1,0,0,.1,0,.2,0s.2,0,.3,0,.2-.1.3-.2.2-.2.3-.3.2-.3.3-.4v.7c-.1.2-.3.4-.4.5s-.2.3-.4.3c-.1,0-.2.2-.4.2s-.2,0-.4,0ZM283.9,314.2v-.7h1.2v.7h-1.2ZM285.2,316.4c-.2,0-.3,0-.4,0-.1,0-.2-.2-.3-.3s-.1-.3-.1-.5v-2h.9v2c0,0,0,.1,0,.1,0,0,0,0,.1,0s0,0,0,0c0,0,0,0,0,0l.2.6c0,0-.1,0-.2,0s-.2,0-.3,0Z"/>
            <path class="cls-9" d="M285.7,314.2v-.7h1.4v.7h-1.4ZM285.7,317.6v-.7h2v.7h-2ZM286.3,317.4v-3.9h.9v3.9h-.9ZM288.1,316.4c-.2,0-.4,0-.6-.1-.2,0-.3-.2-.4-.3-.1-.1-.2-.3-.3-.4v-.6c0,.1.2.2.3.3.1.1.2.2.4.3.1,0,.3.1.4.1s.2,0,.3,0c0,0,.2,0,.2-.2,0,0,.1-.1.2-.2s0-.2,0-.3,0-.3,0-.4c0-.1-.1-.2-.2-.3-.1,0-.2,0-.4,0s-.3,0-.5.2-.3.3-.5.5c-.1.2-.3.5-.3.7v-.7c0-.3.2-.6.4-.8.2-.2.4-.4.6-.5s.4-.2.6-.2.4,0,.6.2.4.3.5.5c.1.2.2.5.2.8s0,.4-.1.6c0,.2-.2.3-.3.5s-.3.2-.5.3c-.2,0-.4.1-.6.1Z"/>
            <path class="cls-9" d="M289.7,314.2v-.7h2.3v.7h-2.3ZM291.5,316.4c-.2,0-.5,0-.6-.2-.2-.1-.3-.3-.4-.5,0-.2-.1-.4-.1-.7v-2.4h.9v2.4c0,0,0,.2,0,.2,0,0,0,.1.1.2,0,0,.1,0,.2,0s.2,0,.2,0c0,0,.1,0,.2,0l.3.7c0,0-.2.1-.3.2-.1,0-.3,0-.5,0Z"/>
            <path class="cls-9" d="M292.4,314.2v-.7h1.3v.7h-1.3ZM294,316.4c-.2,0-.3,0-.5,0-.1,0-.2-.1-.3-.3,0-.1-.2-.3-.2-.4s0-.4,0-.6v-1.5h.9v1.5c0,0,0,.2,0,.2,0,0,0,.1,0,.2,0,0,0,0,.2.1,0,0,.1,0,.2,0s.2,0,.3,0,.2-.1.3-.2c0,0,.2-.2.3-.3.1-.1.2-.3.3-.4v.7c-.1.2-.3.4-.4.5-.1.1-.2.3-.4.3-.1,0-.2.2-.4.2s-.2,0-.4,0ZM294.6,314.2v-.7h1.2v.7h-1.2ZM295.9,316.4c-.2,0-.3,0-.4,0-.1,0-.2-.2-.3-.3,0-.1-.1-.3-.1-.5v-2h.9v2c0,0,0,.1,0,.1,0,0,0,0,.1,0s0,0,0,0c0,0,0,0,0,0l.2.6c0,0-.1,0-.2,0-.1,0-.2,0-.3,0Z"/>
            <path class="cls-9" d="M296.6,314.2v-.7h1.4v.7h-1.4ZM296.6,316.3v-.7h2v.7h-2ZM297.2,316.1v-2.6h.9v2.6h-.9ZM297.8,315.2v-.7c.1-.2.3-.4.5-.6.2-.2.4-.3.5-.4.2,0,.4-.1.5-.1h.3v1.3h-.8v-.4c0,0-.2,0-.3.1-.1,0-.2.2-.4.3-.1.1-.3.3-.4.5Z"/>
            <path class="cls-9" d="M301.6,316.4c-.2,0-.4,0-.6,0-.2,0-.4-.2-.5-.3-.2-.1-.3-.3-.4-.5,0-.2-.1-.4-.1-.6s0-.4.1-.6c0-.2.2-.3.4-.5.2-.1.3-.2.5-.3s.4-.1.6-.1.5,0,.7.1.4.2.5.3c.1.1.2.3.2.5s0,.4-.2.5c-.1.1-.3.2-.4.3-.2,0-.4,0-.6,0s-.5,0-.6,0c-.2,0-.4-.1-.5-.2v-.5c.2.1.4.2.5.2.1,0,.3,0,.4,0,.1,0,.2,0,.3,0,0,0,.1,0,.2,0s0,0,0-.1,0-.1,0-.2c0,0-.1,0-.3,0s-.2,0-.3,0c-.1,0-.2,0-.3.2,0,0-.2.2-.2.3,0,0,0,.2,0,.3s0,.3.1.4c0,.1.2.2.3.2.1,0,.3,0,.4,0,.2,0,.4,0,.6-.1.2,0,.3-.2.5-.3l.4.6c-.1.1-.3.2-.4.3-.1,0-.3.1-.5.2-.2,0-.4,0-.6,0Z"/>
            <path class="cls-9" d="M306.6,316.4c-.2,0-.5,0-.7-.2s-.4-.3-.5-.5c-.1-.2-.2-.5-.2-.8s0-.4.1-.6c0-.2.2-.3.3-.5.1-.1.3-.2.5-.3.2,0,.4-.1.6-.1s.4,0,.6.1c.2,0,.3.2.4.3s.2.3.3.4v.6c0-.1-.2-.2-.3-.3-.1-.1-.2-.2-.4-.3-.1,0-.3-.1-.4-.1s-.2,0-.3,0c0,0-.2,0-.3.2,0,0-.1.1-.2.2,0,0,0,.2,0,.3s0,.3,0,.4c0,.1.1.2.2.3.1,0,.2,0,.4,0,.1,0,.3,0,.4-.1s.3-.2.4-.3c.1-.1.3-.2.4-.3v.7c0,0-.2.2-.3.3,0,0-.2.2-.3.3-.1,0-.2.2-.4.2-.1,0-.3,0-.5,0ZM307,312.9v-.7h1.4v.7h-1.4ZM308.3,316.4c-.2,0-.4,0-.6-.2-.2-.1-.2-.4-.2-.6v-3.3h.9v3.2c0,0,0,.1,0,.1,0,0,0,0,.1,0s0,0,0,0c0,0,0,0,0,0l.2.6c0,0-.1,0-.2,0-.1,0-.2,0-.3,0Z"/>
            <path class="cls-9" d="M310.8,316.4c-.2,0-.4,0-.6,0-.2,0-.4-.2-.5-.3s-.3-.3-.4-.5c0-.2-.1-.4-.1-.6s0-.4.1-.6c0-.2.2-.3.4-.5.2-.1.3-.2.5-.3.2,0,.4-.1.6-.1s.5,0,.7.1c.2,0,.4.2.5.3.1.1.2.3.2.5s0,.4-.2.5-.3.2-.4.3c-.2,0-.4,0-.6,0s-.5,0-.6,0c-.2,0-.4-.1-.5-.2v-.5c.2.1.4.2.5.2.1,0,.3,0,.4,0,.1,0,.2,0,.3,0,0,0,.1,0,.2,0s0,0,0-.1,0-.1,0-.2c0,0-.2,0-.3,0s-.2,0-.3,0c-.1,0-.2,0-.3.2,0,0-.2.2-.2.3s0,.2,0,.3,0,.3.1.4.2.2.3.2c.1,0,.3,0,.4,0,.2,0,.4,0,.6-.1.2,0,.3-.2.5-.3l.4.6c-.1.1-.3.2-.4.3-.1,0-.3.1-.5.2s-.4,0-.6,0Z"/>
          </g>
          <g>
            <path class="cls-9" d="M278.6,321.4c-.2,0-.4,0-.6-.1-.2,0-.4-.2-.5-.3-.1-.1-.3-.3-.3-.5,0-.2-.1-.4-.1-.6s0-.4.1-.6.2-.3.3-.5c.1-.1.3-.2.5-.3.2,0,.3-.1.5-.1s.3,0,.5,0c.1,0,.2.1.3.2,0,0,.2.2.3.4h-.3v-.6h.6v1h-.4c0,0-.1-.1-.2-.2,0,0-.2-.1-.2-.1,0,0-.2,0-.3,0s-.2,0-.3,0c0,0-.2,0-.2.1,0,0-.1.1-.2.2,0,0,0,.2,0,.3s0,.3,0,.4c0,.1.2.2.3.3.1,0,.2,0,.4,0s.3,0,.5,0c.1,0,.3-.2.4-.3l.4.6c-.2.2-.4.3-.6.4-.2,0-.5.1-.7.1Z"/>
            <path class="cls-9" d="M281.8,321.4c-.2,0-.4,0-.6-.1-.2,0-.4-.2-.5-.3-.2-.1-.3-.3-.4-.5s-.1-.4-.1-.6,0-.4.1-.6c0-.2.2-.3.4-.5.2-.1.3-.2.5-.3s.4-.1.6-.1.4,0,.6.1.4.2.5.3c.2.1.3.3.4.5,0,.2.1.4.1.6s0,.4-.1.6-.2.3-.4.5-.3.2-.5.3c-.2,0-.4.1-.6.1ZM281.8,320.7c.1,0,.2,0,.3,0,.1,0,.2-.2.2-.3,0-.1,0-.3,0-.4s0-.3,0-.4c0-.1-.1-.2-.2-.3-.1,0-.2,0-.3,0s-.2,0-.3,0c-.1,0-.2.2-.2.3,0,.1,0,.3,0,.4s0,.3,0,.4c0,.1.1.2.2.3.1,0,.2,0,.3,0Z"/>
            <path class="cls-9" d="M283.8,319.2v-.7h1.3v.7h-1.3ZM283.8,321.3v-.7h1.9v.7h-1.9ZM284.3,321.3v-2.8h.9v2.8h-.9ZM286.6,321.3v-1.5c0,0,0-.1,0-.2,0,0,0-.1-.1-.2s-.1,0-.2-.1c0,0-.1,0-.2,0s-.2,0-.3,0c0,0-.2.1-.3.2,0,0-.2.2-.3.3,0,.1-.2.3-.3.4v-.7c.1-.2.3-.4.4-.5.1-.1.2-.3.4-.3s.2-.2.4-.2.3,0,.4,0,.3,0,.5,0c.1,0,.3.1.3.3s.2.3.2.4c0,.2,0,.4,0,.6v1.5h-.9ZM286.2,321.3v-.7h1.8v.7h-1.8Z"/>
            <path class="cls-9" d="M288.1,319.2v-.7h2.3v.7h-2.3ZM289.8,321.4c-.2,0-.5,0-.6-.2-.2-.1-.3-.3-.4-.5,0-.2-.1-.4-.1-.7v-2.4h.9v2.4c0,0,0,.2,0,.2,0,0,0,.1.1.2,0,0,.1,0,.2,0s.2,0,.2,0c0,0,.1,0,.2,0l.3.7c0,0-.2.1-.3.2-.1,0-.3,0-.5,0Z"/>
            <path class="cls-9" d="M290.9,319.2v-.7h1.2v.7h-1.2ZM290.9,321.3v-.7h2v.7h-2ZM291.8,318.1c-.2,0-.3,0-.4-.1-.1,0-.2-.2-.2-.3s0-.3.2-.3c.1,0,.3-.1.4-.1s.3,0,.4.1c.1,0,.2.2.2.3s0,.2-.2.3c-.1,0-.3.1-.4.1ZM291.4,321.1v-2.6h.9v2.6h-.9Z"/>
            <path class="cls-9" d="M293.1,319.2v-.7h1.3v.7h-1.3ZM293.1,321.3v-.7h1.9v.7h-1.9ZM293.6,321.3v-2.8h.9v2.8h-.9ZM296,321.3v-1.5c0,0,0-.1,0-.2,0,0,0-.1-.1-.2s-.1,0-.2-.1c0,0-.1,0-.2,0s-.2,0-.3,0-.2.1-.3.2c0,0-.2.2-.3.3-.1.1-.2.3-.3.4v-.7c.1-.2.3-.4.4-.5.1-.1.2-.3.4-.3.1,0,.2-.2.4-.2s.3,0,.4,0,.3,0,.5,0c.1,0,.3.1.3.3,0,.1.2.3.2.4,0,.2,0,.4,0,.6v1.5h-.9ZM295.5,321.3v-.7h1.8v.7h-1.8Z"/>
            <path class="cls-9" d="M297.3,319.2v-.7h1.3v.7h-1.3ZM298.9,321.4c-.2,0-.3,0-.5,0-.1,0-.2-.1-.3-.3,0-.1-.2-.3-.2-.4s0-.4,0-.6v-1.5h.9v1.5c0,0,0,.2,0,.2,0,0,0,.1,0,.2,0,0,0,0,.2.1,0,0,.1,0,.2,0s.2,0,.3,0,.2-.1.3-.2c0,0,.2-.2.3-.3.1-.1.2-.3.3-.4v.7c-.1.2-.3.4-.4.5-.1.1-.2.3-.4.3-.1,0-.2.2-.4.2s-.2,0-.4,0ZM299.5,319.2v-.7h1.2v.7h-1.2ZM300.8,321.4c-.2,0-.3,0-.4,0-.1,0-.2-.2-.3-.3,0-.1-.1-.3-.1-.5v-2h.9v2c0,0,0,.1,0,.1,0,0,0,0,.1,0s0,0,0,0c0,0,0,0,0,0l.2.6c0,0-.1,0-.2,0-.1,0-.2,0-.3,0Z"/>
            <path class="cls-9" d="M301.6,319.2v-.7h1.2v.7h-1.2ZM301.6,321.3v-.7h2v.7h-2ZM302.5,318.1c-.2,0-.3,0-.4-.1-.1,0-.2-.2-.2-.3s0-.3.2-.3c.1,0,.3-.1.4-.1s.3,0,.4.1c.1,0,.2.2.2.3s0,.2-.2.3c-.1,0-.3.1-.4.1ZM302.1,321.1v-2.6h.9v2.6h-.9Z"/>
            <path class="cls-9" d="M303.6,319.2v-.7h2.3v.7h-2.3ZM305.3,321.4c-.2,0-.5,0-.6-.2-.2-.1-.3-.3-.4-.5,0-.2-.1-.4-.1-.7v-2.4h.9v2.4c0,0,0,.2,0,.2,0,0,0,.1.1.2,0,0,.1,0,.2,0s.2,0,.2,0c0,0,.1,0,.2,0l.3.7c0,0-.2.1-.3.2-.1,0-.3,0-.5,0Z"/>
            <path class="cls-9" d="M308,321.4c-.2,0-.4,0-.6,0-.2,0-.4-.2-.5-.3s-.3-.3-.4-.5c0-.2-.1-.4-.1-.6s0-.4.1-.6c0-.2.2-.3.4-.5.2-.1.3-.2.5-.3.2,0,.4-.1.6-.1s.5,0,.7.1c.2,0,.4.2.5.3.1.1.2.3.2.5s0,.4-.2.5-.3.2-.4.3c-.2,0-.4,0-.6,0s-.5,0-.6,0c-.2,0-.4-.1-.5-.2v-.5c.2.1.4.2.5.2.1,0,.3,0,.4,0,.1,0,.2,0,.3,0,0,0,.1,0,.2,0s0,0,0-.1,0-.1,0-.2c0,0-.2,0-.3,0s-.2,0-.3,0c-.1,0-.2,0-.3.2,0,0-.2.2-.2.3s0,.2,0,.3,0,.3.1.4.2.2.3.2c.1,0,.3,0,.4,0,.2,0,.4,0,.6-.1.2,0,.3-.2.5-.3l.4.6c-.1.1-.3.2-.4.3-.1,0-.3.1-.5.2s-.4,0-.6,0ZM307.9,318.1l-.2-.3,1.1-1,.5.7-1.3.7Z"/>
          </g>
          <g>
            <path class="cls-9" d="M278.7,326.4c-.2,0-.4,0-.6,0-.2,0-.4-.2-.5-.3s-.3-.3-.4-.5c0-.2-.1-.4-.1-.6s0-.4.1-.6c0-.2.2-.3.4-.5.2-.1.3-.2.5-.3.2,0,.4-.1.6-.1s.5,0,.7.1c.2,0,.4.2.5.3.1.1.2.3.2.5s0,.4-.2.5-.3.2-.4.3c-.2,0-.4,0-.6,0s-.5,0-.6,0c-.2,0-.4-.1-.5-.2v-.5c.2.1.4.2.5.2.1,0,.3,0,.4,0,.1,0,.2,0,.3,0,0,0,.1,0,.2,0s0,0,0-.1,0-.1,0-.2c0,0-.2,0-.3,0s-.2,0-.3,0c-.1,0-.2,0-.3.2,0,0-.2.2-.2.3s0,.2,0,.3,0,.3.1.4.2.2.3.2c.1,0,.3,0,.4,0,.2,0,.4,0,.6-.1.2,0,.3-.2.5-.3l.4.6c-.1.1-.3.2-.4.3-.1,0-.3.1-.5.2s-.4,0-.6,0ZM278.5,323.1l-.2-.3,1.1-1,.5.7-1.3.7Z"/>
            <path class="cls-9" d="M282.1,326.4c-.2,0-.4,0-.6-.1-.2,0-.4-.2-.5-.3-.1-.1-.3-.3-.3-.5,0-.2-.1-.4-.1-.6s0-.4.1-.6.2-.3.3-.5c.1-.1.3-.2.5-.3.2,0,.3-.1.5-.1s.3,0,.5,0c.1,0,.2.1.3.2,0,0,.2.2.3.4h-.3v-.6h.6v1h-.4c0,0-.1-.1-.2-.2,0,0-.2-.1-.2-.1,0,0-.2,0-.3,0s-.2,0-.3,0c0,0-.2,0-.2.1,0,0-.1.1-.2.2,0,0,0,.2,0,.3s0,.3,0,.4c0,.1.2.2.3.3.1,0,.2,0,.4,0s.3,0,.5,0c.1,0,.3-.2.4-.3l.4.6c-.2.2-.4.3-.6.4-.2,0-.5.1-.7.1Z"/>
            <path class="cls-9" d="M285.2,326.4c-.2,0-.4,0-.6-.1-.2,0-.4-.2-.5-.3s-.3-.3-.4-.5-.1-.4-.1-.6,0-.4.1-.6c0-.2.2-.3.4-.5s.3-.2.5-.3c.2,0,.4-.1.6-.1s.4,0,.6.1c.2,0,.4.2.5.3s.3.3.4.5c0,.2.1.4.1.6s0,.4-.1.6-.2.3-.4.5c-.2.1-.3.2-.5.3-.2,0-.4.1-.6.1ZM285.2,325.7c.1,0,.2,0,.3,0,.1,0,.2-.2.2-.3,0-.1,0-.3,0-.4s0-.3,0-.4c0-.1-.1-.2-.2-.3-.1,0-.2,0-.3,0s-.2,0-.3,0c-.1,0-.2.2-.2.3,0,.1,0,.3,0,.4s0,.3,0,.4c0,.1.1.2.2.3.1,0,.2,0,.3,0Z"/>
            <path class="cls-9" d="M287.1,322.9v-.7h1.4v.7h-1.4ZM287.1,326.3v-.7h2v.7h-2ZM287.7,326.1v-3.9h.9v3.9h-.9Z"/>
            <path class="cls-9" d="M290.9,326.4c-.2,0-.4,0-.6-.1-.2,0-.4-.2-.5-.3-.2-.1-.3-.3-.4-.5s-.1-.4-.1-.6,0-.4.1-.6c0-.2.2-.3.4-.5.2-.1.3-.2.5-.3s.4-.1.6-.1.4,0,.6.1.4.2.5.3c.2.1.3.3.4.5,0,.2.1.4.1.6s0,.4-.1.6-.2.3-.4.5-.3.2-.5.3c-.2,0-.4.1-.6.1ZM290.9,325.7c.1,0,.2,0,.3,0,.1,0,.2-.2.2-.3,0-.1,0-.3,0-.4s0-.3,0-.4c0-.1-.1-.2-.2-.3-.1,0-.2,0-.3,0s-.2,0-.3,0c-.1,0-.2.2-.2.3,0,.1,0,.3,0,.4s0,.3,0,.4c0,.1.1.2.2.3.1,0,.2,0,.3,0Z"/>
            <path class="cls-9" d="M294.2,327.6c-.3,0-.5,0-.7,0-.2,0-.4-.2-.5-.3s-.2-.3-.2-.5,0-.2,0-.3c0,0,.1-.2.2-.3,0,0,.2-.1.3-.2l.4.2s0,0-.1.1c0,0,0,.2,0,.2s0,.1,0,.2.1,0,.2,0c.1,0,.2,0,.4,0s.3,0,.5,0c.2,0,.3,0,.4-.1,0,0,.1,0,.1-.2s0-.1,0-.1c0,0-.1,0-.3,0s-.1,0-.2,0c0,0-.2,0-.3,0,0,0-.2,0-.3,0-.1,0-.2,0-.4,0s-.3,0-.4,0c-.1,0-.3-.1-.3-.2,0-.1-.1-.2-.1-.4s0-.3.1-.4c0-.1.2-.2.3-.3.1,0,.2-.1.4-.2l.3.2c0,0-.1,0-.1,0s0,0-.1.1c0,0,0,0,0,.1s0,.1,0,.1c0,0,0,0,.1,0s0,0,.1,0c.1,0,.2,0,.3,0s.2,0,.3,0,.2,0,.3,0c0,0,.2,0,.3,0,.2,0,.4,0,.5,0,.1,0,.3.2.3.3s.1.3.1.5,0,.3-.2.5c0,.1-.2.2-.4.3-.2,0-.4.2-.6.2-.2,0-.5,0-.8,0ZM294.5,325.5c-.2,0-.3,0-.5,0-.2,0-.3-.1-.4-.2s-.2-.2-.3-.3c0-.1-.1-.3-.1-.4s0-.3.1-.5.2-.2.3-.3c.1,0,.3-.2.4-.2s.3,0,.5,0,.3,0,.5,0,.3.1.4.2c.1,0,.2.2.3.3s.1.3.1.4,0,.3-.1.5c0,.1-.2.2-.3.3s-.3.2-.4.2c-.2,0-.3,0-.5,0ZM294.5,324.8c.1,0,.2,0,.3,0,0,0,.1,0,.2-.2,0,0,0-.1,0-.2s0-.1,0-.2c0,0,0-.1-.2-.1,0,0-.2,0-.3,0s-.2,0-.3,0-.1,0-.2.1c0,0,0,.1,0,.2s0,.1,0,.2c0,0,0,.1.2.1s.2,0,.3,0ZM295.4,323.9l-.3-.2c0-.1,0-.3.1-.4,0,0,.1-.2.2-.2,0,0,.2-.1.3-.1.1,0,.2,0,.3,0v.7c-.2,0-.3,0-.4,0-.1,0-.2,0-.3.2Z"/>
            <path class="cls-9" d="M296.4,324.2v-.7h1.2v.7h-1.2ZM296.4,326.3v-.7h2v.7h-2ZM297.3,323.1c-.2,0-.3,0-.4-.1-.1,0-.2-.2-.2-.3s0-.3.2-.3c.1,0,.3-.1.4-.1s.3,0,.4.1c.1,0,.2.2.2.3s0,.2-.2.3c-.1,0-.3.1-.4.1ZM296.9,326.1v-2.6h.9v2.6h-.9Z"/>
            <path class="cls-9" d="M299.9,326.4c-.2,0-.5,0-.7-.2s-.4-.3-.5-.5c-.1-.2-.2-.5-.2-.8s0-.4.1-.6c0-.2.2-.3.3-.5.1-.1.3-.2.5-.3.2,0,.4-.1.6-.1s.4,0,.6,0c.2,0,.4.1.6.2.2.1.4.2.5.3.2.1.3.2.4.3v.9c-.1-.1-.2-.2-.4-.4-.2-.1-.3-.3-.5-.4-.2-.1-.4-.2-.5-.3-.2,0-.3-.1-.5-.1s-.2,0-.3,0c0,0-.2,0-.3.1,0,0-.1.1-.2.2s0,.2,0,.3,0,.3,0,.4c0,.1.1.2.2.3.1,0,.2,0,.4,0,.1,0,.2,0,.4,0,.1,0,.3-.2.4-.3.1-.1.3-.3.4-.6v.7c-.1.2-.2.4-.4.6-.1.2-.3.3-.5.4-.2,0-.4.1-.6.1ZM300.1,327.6v-.7h2.1v.7h-2.1ZM300.8,327.6v-3.6l.6-.6h.3v4.2h-.9Z"/>
            <path class="cls-9" d="M302.4,324.2v-.7h1.3v.7h-1.3ZM303.9,326.4c-.2,0-.3,0-.5,0-.1,0-.2-.1-.3-.3,0-.1-.2-.3-.2-.4,0-.2,0-.4,0-.6v-1.5h.9v1.5c0,0,0,.2,0,.2,0,0,0,.1,0,.2,0,0,0,0,.2.1,0,0,.1,0,.2,0s.2,0,.3,0,.2-.1.3-.2.2-.2.3-.3.2-.3.3-.4v.7c-.1.2-.3.4-.4.5s-.2.3-.4.3c-.1,0-.2.2-.4.2s-.2,0-.4,0ZM304.5,324.2v-.7h1.2v.7h-1.2ZM305.8,326.4c-.2,0-.3,0-.4,0-.1,0-.2-.2-.3-.3s-.1-.3-.1-.5v-2h.9v2c0,0,0,.1,0,.1,0,0,0,0,.1,0s0,0,0,0c0,0,0,0,0,0l.2.6c0,0-.1,0-.2,0s-.2,0-.3,0Z"/>
            <path class="cls-9" d="M308.2,326.4c-.2,0-.4,0-.6,0-.2,0-.4-.2-.5-.3s-.3-.3-.4-.5c0-.2-.1-.4-.1-.6s0-.4.1-.6c0-.2.2-.3.4-.5.2-.1.3-.2.5-.3.2,0,.4-.1.6-.1s.5,0,.7.1c.2,0,.4.2.5.3.1.1.2.3.2.5s0,.4-.2.5-.3.2-.4.3c-.2,0-.4,0-.6,0s-.5,0-.6,0c-.2,0-.4-.1-.5-.2v-.5c.2.1.4.2.5.2.1,0,.3,0,.4,0,.1,0,.2,0,.3,0,0,0,.1,0,.2,0s0,0,0-.1,0-.1,0-.2c0,0-.2,0-.3,0s-.2,0-.3,0c-.1,0-.2,0-.3.2,0,0-.2.2-.2.3s0,.2,0,.3,0,.3.1.4.2.2.3.2c.1,0,.3,0,.4,0,.2,0,.4,0,.6-.1.2,0,.3-.2.5-.3l.4.6c-.1.1-.3.2-.4.3-.1,0-.3.1-.5.2s-.4,0-.6,0Z"/>
          </g>
          <g>
            <path class="cls-10" d="M287.9,293.1l-.2-.7c.2,0,.4-.1.6-.2.2-.1.4-.2.5-.4.1-.2.3-.3.3-.5l.3.6c0,.2-.2.4-.3.6-.1.2-.3.3-.5.4s-.4.2-.7.2ZM287.9,296.6v-.8h3v.8h-3ZM289.1,296.4v-5.1h.9v5.1h-.9Z"/>
            <path class="cls-10" d="M293,293.9c-.3,0-.5,0-.7-.2-.2-.1-.4-.3-.6-.5s-.2-.5-.2-.7,0-.5.2-.8.3-.4.6-.5c.2-.1.5-.2.7-.2s.5,0,.7.2c.2.1.4.3.5.5s.2.5.2.8,0,.5-.2.7-.3.4-.5.5c-.2.1-.5.2-.7.2ZM292.4,296.9l-.5-.5,5.5-5.6.5.5-5.5,5.6ZM293,293.2c.1,0,.3,0,.4,0,.1,0,.2-.1.3-.3,0-.1.1-.2.1-.4s0-.3-.1-.4-.2-.2-.3-.3c-.1,0-.2,0-.4,0s-.3,0-.4,0-.2.1-.3.3-.1.2-.1.4,0,.3.1.4c0,.1.2.2.3.3s.2,0,.4,0ZM296.8,296.8c-.3,0-.5,0-.7-.2-.2-.1-.4-.3-.5-.5-.1-.2-.2-.5-.2-.7s0-.5.2-.7c.1-.2.3-.4.5-.5.2-.1.5-.2.7-.2s.5,0,.7.2c.2.1.4.3.5.5s.2.5.2.7,0,.5-.2.7-.3.4-.5.5c-.2.1-.5.2-.7.2ZM296.8,296.1c.1,0,.3,0,.4,0,.1,0,.2-.1.3-.3s.1-.2.1-.4,0-.3-.1-.4-.2-.2-.3-.3-.2,0-.4,0-.3,0-.4,0-.2.2-.3.3-.1.2-.1.4,0,.3.1.4.2.2.3.3.2,0,.4,0Z"/>
          </g>
        </g>
      </g>
    </g>
    <line class="cls-8" x1="292.6" y1="307.6" x2="292.6" y2="312.2"/>
  </g>
  <g id="footer">
    <g>
      <path class="cls-10" d="M10.2,321.6c-.3,0-.6,0-.9-.1s-.6-.2-.8-.4-.5-.3-.7-.6c-.2-.2-.4-.5-.6-.7h.6v1.6h-1v-2.3h.6c.2.2.4.4.6.6.2.2.5.4.7.5.2.1.5.2.7.3s.5.1.7.1.4,0,.6-.1.3-.2.4-.3c.1-.1.2-.3.2-.4s0-.3-.1-.4-.2-.2-.4-.3c-.2-.1-.4-.2-.7-.3-.3-.1-.6-.2-1-.3-.6-.1-1-.3-1.4-.5-.4-.2-.6-.5-.8-.7-.2-.3-.2-.6-.2-.9s.1-.7.3-1,.5-.5.8-.6c.3-.1.7-.2,1.1-.2s.8,0,1.1.2.7.3.9.6c.3.3.5.6.7,1h-.5v-1.7h1v2.3h-.6c-.2-.3-.4-.6-.6-.8-.2-.2-.5-.4-.8-.5-.3-.1-.6-.2-.9-.2s-.5,0-.7.1-.3.2-.5.3c-.1.1-.2.3-.2.5s0,.3.1.4c0,.1.2.2.3.3s.4.2.6.3c.2,0,.5.2.9.3.5.1,1,.3,1.4.5.4.2.7.4.9.7.2.3.3.6.3,1s-.1.7-.3,1c-.2.3-.5.5-.8.6s-.7.2-1.2.2Z"/>
      <path class="cls-10" d="M15.9,321.6c-.3,0-.7,0-1-.2-.3-.1-.6-.3-.8-.5-.2-.2-.4-.5-.6-.8-.1-.3-.2-.6-.2-1s0-.7.2-1,.3-.6.6-.8c.2-.2.5-.4.8-.5.3-.1.6-.2,1-.2s.7,0,1,.2c.3.1.6.3.8.5.2.2.4.5.6.8.1.3.2.7.2,1s0,.7-.2,1c-.1.3-.3.6-.6.8s-.5.4-.8.5c-.3.1-.6.2-1,.2ZM15.9,320.8c.3,0,.5,0,.8-.2.2-.1.4-.3.5-.6.1-.2.2-.5.2-.9s0-.6-.2-.9-.3-.4-.5-.6c-.2-.1-.5-.2-.8-.2s-.5,0-.8.2c-.2.1-.4.3-.5.6s-.2.5-.2.9,0,.6.2.9c.1.2.3.4.5.6.2.1.5.2.8.2Z"/>
      <path class="cls-10" d="M19,317.6v-.8h1.8v.8h-1.8ZM21.5,321.6c-.3,0-.5,0-.7-.1s-.4-.2-.5-.4c-.1-.2-.2-.4-.3-.7,0-.3-.1-.6-.1-.9v-2.7h1.1v2.7c0,.2,0,.3,0,.5,0,.1,0,.3.2.4,0,.1.2.2.3.2.1,0,.3,0,.5,0s.3,0,.5-.1.3-.2.5-.3c.2-.1.4-.3.5-.5.2-.2.4-.4.5-.7v.8c-.2.3-.4.5-.6.7-.2.2-.4.4-.6.5-.2.1-.4.3-.6.3-.2,0-.4.1-.6.1ZM22.6,317.6v-.8h1.8v.8h-1.8ZM24.6,321.6c-.2,0-.4,0-.6-.1-.2,0-.3-.2-.4-.4s-.1-.4-.1-.7v-3.5h1.1v3.5c0,.2,0,.3,0,.4,0,0,.1.1.2.1s.1,0,.2,0c0,0,0,0,.1,0l.2.8c0,0-.2,0-.3.1s-.3,0-.4,0Z"/>
      <path class="cls-10" d="M25.9,317.6v-.8h2v.8h-2ZM25.9,321.5v-.8h3.2v.8h-3.2ZM26.9,321.2v-4.5h1.1v4.5h-1.1ZM27.7,319.2v-.8c.2-.3.5-.6.8-.9.3-.3.6-.5.9-.6.3-.1.6-.2.9-.2h.4v2h-.9v-1c-.2,0-.4,0-.6.2-.2.1-.5.3-.7.5s-.5.5-.7.8Z"/>
      <path class="cls-10" d="M34,321.6c-.3,0-.7,0-1-.2-.3-.1-.6-.3-.8-.5-.2-.2-.4-.5-.6-.8s-.2-.6-.2-1,0-.7.2-1c.1-.3.3-.6.5-.8.2-.2.5-.4.8-.5.3-.1.6-.2.9-.2s.6,0,.8.1c.2,0,.4.2.6.4.2.2.3.4.4.6h-.3v-1.1h.8v1.7h-.5c-.1-.2-.2-.3-.4-.5-.1-.1-.3-.2-.5-.3-.2,0-.4-.1-.6-.1s-.4,0-.6.1-.4.2-.5.3-.2.3-.3.5-.1.4-.1.6,0,.6.2.8c.1.2.3.4.6.6.2.1.5.2.8.2.3,0,.6,0,.9-.2.2-.1.5-.3.7-.5l.5.7c-.3.3-.6.5-.9.6-.4.2-.8.3-1.2.3Z"/>
      <path class="cls-10" d="M39.4,321.6c-.3,0-.6,0-1-.2-.3-.1-.6-.3-.9-.5s-.5-.4-.6-.7-.2-.6-.2-1,0-.8.2-1.1c.1-.3.4-.6.6-.8.3-.2.5-.4.9-.5.3-.1.6-.2,1-.2s.8,0,1.1.2c.3.1.6.3.7.5.2.2.3.5.3.8s0,.6-.3.8c-.2.2-.4.4-.7.5-.3.1-.6.2-.9.2s-.8,0-1.1-.2c-.3,0-.6-.2-.9-.4v-.6c.4.2.7.3,1,.3s.6,0,.8,0c.2,0,.4,0,.6,0,.2,0,.3-.1.4-.2,0,0,.1-.2.1-.4,0-.2,0-.4-.3-.5-.2-.1-.4-.2-.7-.2s-.4,0-.6.1c-.2,0-.4.2-.6.3-.2.1-.3.3-.4.5s-.1.4-.1.7,0,.6.2.8c.2.2.4.4.6.5.2.1.5.2.8.2s.7,0,1-.2c.3-.1.5-.3.8-.5l.5.7c-.2.2-.4.3-.6.4-.2.1-.5.2-.7.3s-.6.1-.9.1Z"/>
      <path class="cls-10" d="M46.6,318.1c-.2,0-.4,0-.6-.2s-.2-.3-.2-.5,0-.4.2-.5c.2-.1.4-.2.6-.2s.5,0,.6.2c.2.1.2.3.2.5s0,.4-.2.5-.4.2-.6.2ZM46.6,321.6c-.2,0-.4,0-.6-.2-.2-.1-.2-.3-.2-.5s0-.4.2-.5c.2-.1.4-.2.6-.2s.5,0,.6.2c.2.1.2.3.2.5s0,.4-.2.5c-.2.1-.4.2-.6.2Z"/>
      <path class="cls-10" d="M55.2,321.6c-.5,0-1,0-1.4-.3-.4-.2-.8-.4-1.1-.7-.3-.3-.6-.7-.8-1.1-.2-.4-.3-.9-.3-1.4s0-1,.3-1.4c.2-.4.4-.8.8-1.1.3-.3.7-.6,1.1-.7.4-.2.9-.3,1.4-.3s1,0,1.4.3c.4.2.8.4,1.1.7s.6.7.8,1.1c.2.4.3.9.3,1.4s0,1-.3,1.4c-.2.4-.4.8-.8,1.1s-.7.6-1.1.7c-.4.2-.9.3-1.4.3ZM55.2,320.7c.4,0,.7,0,1-.2.3-.1.6-.3.8-.5s.4-.5.5-.8.2-.7.2-1,0-.7-.2-1.1c-.1-.3-.3-.6-.5-.8-.2-.2-.5-.4-.8-.5-.3-.1-.6-.2-1-.2s-.7,0-1,.2c-.3.1-.6.3-.8.6-.2.2-.4.5-.5.8-.1.3-.2.7-.2,1.1s0,.7.2,1.1.3.6.5.8c.2.2.5.4.8.5.3.1.6.2,1,.2Z"/>
      <path class="cls-10" d="M65.3,316.9v-1.4h-5.7v-.9h6.7v2.3h-1ZM59.7,321.5v-.9h3.7v.9h-3.7ZM60.9,321v-5.8h1.1v5.8h-1.1ZM61.4,318.6v-.8h2.6v.8h-2.6ZM63.5,319.5v-2.6h.8v2.6h-.8Z"/>
      <path class="cls-10" d="M67,321.5v-.9h4c.5,0,.9,0,1.2-.2.3-.2.4-.4.4-.8s0-.5-.2-.6-.3-.3-.6-.3c-.2,0-.5-.1-.9-.1h-2v-.8h1.6c.4,0,.8,0,1-.3s.4-.4.4-.8,0-.5-.2-.6-.3-.3-.5-.3c-.2,0-.4,0-.6,0h-3.8v-.9h3.9c.5,0,.9,0,1.3.2s.6.4.8.6c.2.3.3.6.3.9s0,.6-.2.8c-.1.2-.3.4-.5.6-.2.1-.5.3-.7.3-.3,0-.5.1-.8.1v-.4c.3,0,.7,0,1,0,.3,0,.6.1.9.3s.5.3.6.6c.2.2.2.5.2.9,0,.6-.2,1.1-.7,1.4-.5.3-1.1.5-2,.5h-4.1ZM68.3,321v-5.8h1.1v5.8h-1.1Z"/>
    </g>
  </g>
</svg>