<?xml version="1.0" encoding="UTF-8"?>
<svg xmlns="http://www.w3.org/2000/svg" version="1.1" xmlns:xlink="http://www.w3.org/1999/xlink" viewBox="0 0 698.9 605.1">
  <defs>
    <style>
      .cls-1 {
        fill: #f4a811;
      }

      .cls-1, .cls-2, .cls-3, .cls-4, .cls-5, .cls-6 {
        stroke-width: 0px;
      }

      .cls-1, .cls-4 {
        fill-opacity: 0;
      }

      .cls-1, .cls-7 {
        display: none;
      }

      .cls-2 {
        clip-path: url(#clippath-2);
      }

      .cls-2, .cls-3, .cls-5, .cls-7, .cls-8, .cls-9, .cls-10 {
        fill: none;
      }

      .cls-11 {
        isolation: isolate;
      }

      .cls-3 {
        clip-path: url(#clippath);
      }

      .cls-4 {
        fill: #eee;
      }

      .cls-12 {
        clip-path: url(#clippath-1);
      }

      .cls-7 {
        stroke: red;
      }

      .cls-8 {
        stroke: #f4a811;
        stroke-width: 2.8px;
      }

      .cls-9, .cls-10 {
        stroke: #eee;
        stroke-width: 1.3px;
      }

      .cls-10 {
        stroke-linecap: square;
      }

      .cls-6 {
        fill: #fff;
      }
    </style>
    <clipPath id="clippath">
      <polygon class="cls-5" points="73 11.5 73.9 11.5 73 12.5 73 11.5"/>
    </clipPath>
    <clipPath id="clippath-1">
      <polygon class="cls-3" points="71.3 9.5 70.4 9.5 71.3 8.5 71.3 9.5"/>
    </clipPath>
    <clipPath id="clippath-2">
      <polygon class="cls-5" points="73 11.5 73.9 11.5 73 12.5 73 11.5"/>
    </clipPath>
    <clipPath id="clippath-3">
      <polygon class="cls-2" points="71.3 9.5 70.4 9.5 71.3 8.5 71.3 9.5"/>
    </clipPath>
  </defs>
  <g id="fl-layout-svg-screenshot-container">
    <g>
      <polygon class="cls-4" points="72.1 10.5 72.1 10.5 72.1 10.5 72.1 10.5"/>
      <g>
        <rect class="cls-7" x="-16.2" y="10.5" width="704.7" height="525.8"/>
        <g>
          <line class="cls-9" x1="72.1" y1="536.3" x2="672.8" y2="536.3"/>
          <line class="cls-9" x1="72.1" y1="442.2" x2="672.8" y2="442.2"/>
          <line class="cls-9" x1="72.1" y1="348.1" x2="672.8" y2="348.1"/>
          <line class="cls-9" x1="72.1" y1="253.9" x2="672.8" y2="253.9"/>
          <line class="cls-9" x1="72.1" y1="159.8" x2="672.8" y2="159.8"/>
          <line class="cls-9" x1="72.1" y1="65.7" x2="672.8" y2="65.7"/>
        </g>
        <g>
          <g>
            <line class="cls-10" x1="72.1" y1="536.3" x2="672.8" y2="536.3"/>
            <g>
              <g>
                <line class="cls-9" x1="654" y1="536.3" x2="654" y2="543.3"/>
                <g class="cls-11">
                  <path class="cls-6" d="M642.9,549.9c0,.5-.1.9-.4,1.3s-.7.7-1.1.9c-.5.3-1.1.5-1.8.7-.4.1-.7.3-1,.4-.3.1-.5.2-.7.4s-.3.3-.4.4c0,.2-.1.3-.1.5h-2.2c0-.4,0-.7.2-1.1.1-.3.4-.6.6-.9.3-.3.6-.5,1.1-.8s.9-.4,1.5-.6c.4-.1.8-.3,1-.4.3-.1.5-.2.6-.3.1,0,.2-.2.3-.3s0-.2,0-.3c0-.2,0-.3-.2-.5-.1-.1-.3-.3-.5-.3-.2,0-.5-.1-.8-.1s-.6,0-1,.2c-.3.1-.7.3-1,.5-.3.2-.6.4-.9.7l-1.1-1.3c.5-.5,1.1-.9,1.8-1.3.7-.4,1.5-.5,2.3-.5.4,0,.9,0,1.3.2.4.1.8.3,1.1.5.3.2.6.5.8.9s.3.7.3,1.2ZM635.2,556.1v-1.8h6v-1.2h1.8v3h-7.8Z"/>
                  <path class="cls-6" d="M648.6,556.3c-.4,0-.9,0-1.3-.2-.4-.1-.8-.3-1.2-.5-.4-.2-.7-.5-1-.9-.3-.4-.5-.8-.7-1.3-.2-.5-.3-1-.3-1.7s0-1.2.3-1.7c.2-.5.4-.9.7-1.3s.7-.7,1-.9c.4-.2.8-.4,1.2-.5.4-.1.9-.2,1.3-.2s.9,0,1.3.2c.4.1.8.3,1.2.5.4.2.7.5,1,.9.3.4.6.8.7,1.3.2.5.3,1,.3,1.7s0,1.2-.3,1.7c-.2.5-.4.9-.7,1.3s-.7.7-1,.9c-.4.2-.8.4-1.2.5-.4.1-.9.2-1.3.2ZM648.6,554.6c.3,0,.6,0,.9-.2s.5-.3.7-.6.4-.6.5-.9c.1-.3.2-.7.2-1.2s0-.8-.2-1.2c-.1-.4-.3-.7-.5-.9-.2-.3-.4-.4-.7-.6s-.6-.2-.9-.2-.6,0-.9.2-.5.3-.7.6c-.2.3-.4.6-.5.9-.1.4-.2.8-.2,1.2s0,.8.2,1.2c.1.4.3.7.5.9.2.3.4.4.7.6s.6.2.9.2Z"/>
                  <path class="cls-6" d="M661.6,549.9c0,.5-.1.9-.4,1.3s-.7.7-1.1.9c-.5.3-1.1.5-1.8.7-.4.1-.7.3-1,.4-.3.1-.5.2-.7.4s-.3.3-.4.4c0,.2-.1.3-.1.5h-2.2c0-.4,0-.7.2-1.1.1-.3.4-.6.6-.9.3-.3.6-.5,1.1-.8s.9-.4,1.5-.6c.4-.1.8-.3,1-.4.3-.1.5-.2.6-.3.1,0,.2-.2.3-.3s0-.2,0-.3c0-.2,0-.3-.2-.5-.1-.1-.3-.3-.5-.3-.2,0-.5-.1-.8-.1s-.6,0-1,.2c-.3.1-.7.3-1,.5-.3.2-.6.4-.9.7l-1.1-1.3c.5-.5,1.1-.9,1.8-1.3.7-.4,1.5-.5,2.3-.5.4,0,.9,0,1.3.2.4.1.8.3,1.1.5.3.2.6.5.8.9s.3.7.3,1.2ZM654,556.1v-1.8h6v-1.2h1.8v3h-7.8Z"/>
                  <path class="cls-6" d="M667.4,556.3c-.4,0-.9,0-1.3-.2-.4-.1-.8-.3-1.2-.5-.4-.2-.7-.5-1-.9-.3-.4-.5-.8-.7-1.3-.2-.5-.3-1-.3-1.7s0-1.2.3-1.7c.2-.5.4-.9.7-1.3s.7-.7,1-.9c.4-.2.8-.4,1.2-.5.4-.1.9-.2,1.3-.2s.9,0,1.3.2c.4.1.8.3,1.2.5.4.2.7.5,1,.9.3.4.6.8.7,1.3.2.5.3,1,.3,1.7s0,1.2-.3,1.7c-.2.5-.4.9-.7,1.3s-.7.7-1,.9c-.4.2-.8.4-1.2.5-.4.1-.9.2-1.3.2ZM667.4,554.6c.3,0,.6,0,.9-.2s.5-.3.7-.6.4-.6.5-.9c.1-.3.2-.7.2-1.2s0-.8-.2-1.2c-.1-.4-.3-.7-.5-.9-.2-.3-.4-.4-.7-.6s-.6-.2-.9-.2-.6,0-.9.2-.5.3-.7.6c-.2.3-.4.6-.5.9-.1.4-.2.8-.2,1.2s0,.8.2,1.2c.1.4.3.7.5.9.2.3.4.4.7.6s.6.2.9.2Z"/>
                </g>
              </g>
              <g>
                <line class="cls-9" x1="560.1" y1="536.3" x2="560.1" y2="543.3"/>
                <g class="cls-11">
                  <path class="cls-6" d="M549,549.9c0,.5-.1.9-.4,1.3s-.7.7-1.1.9c-.5.3-1.1.5-1.8.7-.4.1-.7.3-1,.4-.3.1-.5.2-.7.4s-.3.3-.4.4c0,.2-.1.3-.1.5h-2.2c0-.4,0-.7.2-1.1.1-.3.4-.6.6-.9.3-.3.6-.5,1.1-.8s.9-.4,1.5-.6c.4-.1.8-.3,1-.4.3-.1.5-.2.6-.3.1,0,.2-.2.3-.3s0-.2,0-.3c0-.2,0-.3-.2-.5-.1-.1-.3-.3-.5-.3-.2,0-.5-.1-.8-.1s-.6,0-1,.2c-.3.1-.7.3-1,.5-.3.2-.6.4-.9.7l-1.1-1.3c.5-.5,1.1-.9,1.8-1.3.7-.4,1.5-.5,2.3-.5.4,0,.9,0,1.3.2.4.1.8.3,1.1.5.3.2.6.5.8.9s.3.7.3,1.2ZM541.4,556.1v-1.8h6v-1.2h1.8v3h-7.8Z"/>
                  <path class="cls-6" d="M554.8,556.3c-.4,0-.9,0-1.3-.2-.4-.1-.8-.3-1.2-.5-.4-.2-.7-.5-1-.9-.3-.4-.5-.8-.7-1.3-.2-.5-.3-1-.3-1.7s0-1.2.3-1.7c.2-.5.4-.9.7-1.3s.7-.7,1-.9c.4-.2.8-.4,1.2-.5.4-.1.9-.2,1.3-.2s.9,0,1.3.2c.4.1.8.3,1.2.5.4.2.7.5,1,.9.3.4.6.8.7,1.3.2.5.3,1,.3,1.7s0,1.2-.3,1.7c-.2.5-.4.9-.7,1.3s-.7.7-1,.9c-.4.2-.8.4-1.2.5-.4.1-.9.2-1.3.2ZM554.8,554.6c.3,0,.6,0,.9-.2s.5-.3.7-.6.4-.6.5-.9c.1-.3.2-.7.2-1.2s0-.8-.2-1.2c-.1-.4-.3-.7-.5-.9-.2-.3-.4-.4-.7-.6s-.6-.2-.9-.2-.6,0-.9.2-.5.3-.7.6c-.2.3-.4.6-.5.9-.1.4-.2.8-.2,1.2s0,.8.2,1.2c.1.4.3.7.5.9.2.3.4.4.7.6s.6.2.9.2Z"/>
                  <path class="cls-6" d="M560.7,550.9l-.4-1.7c.3-.1.6-.3.9-.4s.5-.4.8-.6.4-.5.6-.8l.5,1.7c-.1.3-.3.6-.5.8-.2.2-.5.4-.8.6s-.7.3-1,.4ZM560.7,556.1v-1.8h5.3v1.8h-5.3ZM562.6,555.5v-8.1h2.1v8.1h-2.1Z"/>
                  <path class="cls-6" d="M571.5,556.3c-.4,0-.9,0-1.3-.2-.4-.1-.8-.3-1.2-.5-.4-.2-.7-.5-1-.9-.3-.4-.5-.8-.7-1.3-.2-.5-.3-1-.3-1.7s0-1.2.3-1.7c.2-.5.4-.9.7-1.3s.7-.7,1-.9c.4-.2.8-.4,1.2-.5.4-.1.9-.2,1.3-.2s.9,0,1.3.2c.4.1.8.3,1.2.5.4.2.7.5,1,.9.3.4.6.8.7,1.3.2.5.3,1,.3,1.7s0,1.2-.3,1.7c-.2.5-.4.9-.7,1.3s-.7.7-1,.9c-.4.2-.8.4-1.2.5-.4.1-.9.2-1.3.2ZM571.5,554.6c.3,0,.6,0,.9-.2s.5-.3.7-.6.4-.6.5-.9c.1-.3.2-.7.2-1.2s0-.8-.2-1.2c-.1-.4-.3-.7-.5-.9-.2-.3-.4-.4-.7-.6s-.6-.2-.9-.2-.6,0-.9.2-.5.3-.7.6c-.2.3-.4.6-.5.9-.1.4-.2.8-.2,1.2s0,.8.2,1.2c.1.4.3.7.5.9.2.3.4.4.7.6s.6.2.9.2Z"/>
                </g>
              </g>
              <g>
                <line class="cls-9" x1="466.3" y1="536.3" x2="466.3" y2="543.3"/>
                <g class="cls-11">
                  <path class="cls-6" d="M455.2,549.9c0,.5-.1.9-.4,1.3s-.7.7-1.1.9c-.5.3-1.1.5-1.8.7-.4.1-.7.3-1,.4-.3.1-.5.2-.7.4s-.3.3-.4.4c0,.2-.1.3-.1.5h-2.2c0-.4,0-.7.2-1.1.1-.3.4-.6.6-.9.3-.3.6-.5,1.1-.8s.9-.4,1.5-.6c.4-.1.8-.3,1-.4.3-.1.5-.2.6-.3.1,0,.2-.2.3-.3s0-.2,0-.3c0-.2,0-.3-.2-.5-.1-.1-.3-.3-.5-.3-.2,0-.5-.1-.8-.1s-.6,0-1,.2c-.3.1-.7.3-1,.5-.3.2-.6.4-.9.7l-1.1-1.3c.5-.5,1.1-.9,1.8-1.3.7-.4,1.5-.5,2.3-.5.4,0,.9,0,1.3.2.4.1.8.3,1.1.5.3.2.6.5.8.9s.3.7.3,1.2ZM447.6,556.1v-1.8h6v-1.2h1.8v3h-7.8Z"/>
                  <path class="cls-6" d="M460.9,556.3c-.4,0-.9,0-1.3-.2-.4-.1-.8-.3-1.2-.5-.4-.2-.7-.5-1-.9-.3-.4-.5-.8-.7-1.3-.2-.5-.3-1-.3-1.7s0-1.2.3-1.7c.2-.5.4-.9.7-1.3s.7-.7,1-.9c.4-.2.8-.4,1.2-.5.4-.1.9-.2,1.3-.2s.9,0,1.3.2c.4.1.8.3,1.2.5.4.2.7.5,1,.9.3.4.6.8.7,1.3.2.5.3,1,.3,1.7s0,1.2-.3,1.7c-.2.5-.4.9-.7,1.3s-.7.7-1,.9c-.4.2-.8.4-1.2.5-.4.1-.9.2-1.3.2ZM460.9,554.6c.3,0,.6,0,.9-.2s.5-.3.7-.6.4-.6.5-.9c.1-.3.2-.7.2-1.2s0-.8-.2-1.2c-.1-.4-.3-.7-.5-.9-.2-.3-.4-.4-.7-.6s-.6-.2-.9-.2-.6,0-.9.2-.5.3-.7.6c-.2.3-.4.6-.5.9-.1.4-.2.8-.2,1.2s0,.8.2,1.2c.1.4.3.7.5.9.2.3.4.4.7.6s.6.2.9.2Z"/>
                  <path class="cls-6" d="M471,556.3c-.4,0-.9,0-1.3-.2-.4-.1-.8-.3-1.2-.5-.4-.2-.7-.5-1-.9-.3-.4-.5-.8-.7-1.3-.2-.5-.3-1-.3-1.7s0-1.2.3-1.7c.2-.5.4-.9.7-1.3s.7-.7,1-.9c.4-.2.8-.4,1.2-.5.4-.1.9-.2,1.3-.2s.9,0,1.3.2c.4.1.8.3,1.2.5.4.2.7.5,1,.9.3.4.6.8.7,1.3.2.5.3,1,.3,1.7s0,1.2-.3,1.7c-.2.5-.4.9-.7,1.3s-.7.7-1,.9c-.4.2-.8.4-1.2.5-.4.1-.9.2-1.3.2ZM471,554.6c.3,0,.6,0,.9-.2s.5-.3.7-.6.4-.6.5-.9c.1-.3.2-.7.2-1.2s0-.8-.2-1.2c-.1-.4-.3-.7-.5-.9-.2-.3-.4-.4-.7-.6s-.6-.2-.9-.2-.6,0-.9.2-.5.3-.7.6c-.2.3-.4.6-.5.9-.1.4-.2.8-.2,1.2s0,.8.2,1.2c.1.4.3.7.5.9.2.3.4.4.7.6s.6.2.9.2Z"/>
                  <path class="cls-6" d="M481.1,556.3c-.4,0-.9,0-1.3-.2-.4-.1-.8-.3-1.2-.5-.4-.2-.7-.5-1-.9-.3-.4-.5-.8-.7-1.3-.2-.5-.3-1-.3-1.7s0-1.2.3-1.7c.2-.5.4-.9.7-1.3s.7-.7,1-.9c.4-.2.8-.4,1.2-.5.4-.1.9-.2,1.3-.2s.9,0,1.3.2c.4.1.8.3,1.2.5.4.2.7.5,1,.9.3.4.6.8.7,1.3.2.5.3,1,.3,1.7s0,1.2-.3,1.7c-.2.5-.4.9-.7,1.3s-.7.7-1,.9c-.4.2-.8.4-1.2.5-.4.1-.9.2-1.3.2ZM481.1,554.6c.3,0,.6,0,.9-.2s.5-.3.7-.6.4-.6.5-.9c.1-.3.2-.7.2-1.2s0-.8-.2-1.2c-.1-.4-.3-.7-.5-.9-.2-.3-.4-.4-.7-.6s-.6-.2-.9-.2-.6,0-.9.2-.5.3-.7.6c-.2.3-.4.6-.5.9-.1.4-.2.8-.2,1.2s0,.8.2,1.2c.1.4.3.7.5.9.2.3.4.4.7.6s.6.2.9.2Z"/>
                </g>
              </g>
              <g>
                <line class="cls-9" x1="372.4" y1="536.3" x2="372.4" y2="543.3"/>
                <g class="cls-11">
                  <path class="cls-6" d="M354.4,550.9l-.4-1.7c.3-.1.6-.3.9-.4s.5-.4.8-.6.4-.5.6-.8l.5,1.7c-.1.3-.3.6-.5.8-.2.2-.5.4-.8.6s-.7.3-1,.4ZM354.4,556.1v-1.8h5.3v1.8h-5.3ZM356.2,555.5v-8.1h2.1v8.1h-2.1Z"/>
                  <path class="cls-6" d="M363.6,556.3c-.4,0-.8,0-1.2-.1-.4,0-.7-.2-1-.3-.3-.1-.5-.2-.7-.3l.7-1.6c.3.2.6.3,1,.4.3.1.7.2,1.1.2s1-.1,1.5-.4c.4-.3.8-.6,1-1.1.2-.5.4-1,.4-1.6s-.1-1-.3-1.3c-.2-.4-.5-.7-.8-.9-.3-.2-.7-.3-1.1-.3s-.5,0-.8.1c-.2,0-.4.2-.5.4-.1.2-.2.4-.2.7s0,.5.2.7c.1.2.3.3.6.4.2.1.5.2.8.2s.7,0,1,0c.3,0,.7-.1,1-.3.3-.1.7-.3,1-.4v1.2c-.3.2-.7.4-1,.6-.3.2-.7.3-1.1.4s-.8.2-1.3.2-.8,0-1.3-.2c-.4-.1-.8-.3-1.1-.5-.3-.2-.6-.5-.8-.9s-.3-.8-.3-1.3,0-.9.3-1.2.4-.7.8-1,.7-.5,1.2-.7c.5-.2.9-.2,1.5-.2s1.2.1,1.7.3c.5.2,1,.5,1.4.9.4.4.7.8.9,1.3.2.5.3,1.1.3,1.7s-.1,1.3-.3,1.9c-.2.6-.5,1.1-1,1.6-.4.5-.9.8-1.5,1.1-.6.3-1.3.4-2.1.4Z"/>
                  <path class="cls-6" d="M372.5,556.3c-.4,0-.8,0-1.2-.1-.4,0-.7-.2-1-.3-.3-.1-.5-.2-.7-.3l.7-1.6c.3.2.6.3,1,.4.3.1.7.2,1.1.2s1-.1,1.5-.4c.4-.3.8-.6,1-1.1.2-.5.4-1,.4-1.6s-.1-1-.3-1.3c-.2-.4-.5-.7-.8-.9-.3-.2-.7-.3-1.1-.3s-.5,0-.8.1c-.2,0-.4.2-.5.4-.1.2-.2.4-.2.7s0,.5.2.7c.1.2.3.3.6.4.2.1.5.2.8.2s.7,0,1,0c.3,0,.7-.1,1-.3.3-.1.7-.3,1-.4v1.2c-.3.2-.7.4-1,.6-.3.2-.7.3-1.1.4s-.8.2-1.3.2-.8,0-1.3-.2c-.4-.1-.8-.3-1.1-.5-.3-.2-.6-.5-.8-.9s-.3-.8-.3-1.3,0-.9.3-1.2.4-.7.8-1,.7-.5,1.2-.7c.5-.2.9-.2,1.5-.2s1.2.1,1.7.3c.5.2,1,.5,1.4.9.4.4.7.8.9,1.3.2.5.3,1.1.3,1.7s-.1,1.3-.3,1.9c-.2.6-.5,1.1-1,1.6-.4.5-.9.8-1.5,1.1-.6.3-1.3.4-2.1.4Z"/>
                  <path class="cls-6" d="M382.9,556.3c-.4,0-.9,0-1.3-.2-.4-.1-.8-.3-1.2-.5-.4-.2-.7-.5-1-.9-.3-.4-.5-.8-.7-1.3-.2-.5-.3-1-.3-1.7s0-1.2.3-1.7c.2-.5.4-.9.7-1.3s.7-.7,1-.9c.4-.2.8-.4,1.2-.5.4-.1.9-.2,1.3-.2s.9,0,1.3.2c.4.1.8.3,1.2.5.4.2.7.5,1,.9.3.4.6.8.7,1.3.2.5.3,1,.3,1.7s0,1.2-.3,1.7c-.2.5-.4.9-.7,1.3s-.7.7-1,.9c-.4.2-.8.4-1.2.5-.4.1-.9.2-1.3.2ZM382.9,554.6c.3,0,.6,0,.9-.2s.5-.3.7-.6.4-.6.5-.9c.1-.3.2-.7.2-1.2s0-.8-.2-1.2c-.1-.4-.3-.7-.5-.9-.2-.3-.4-.4-.7-.6s-.6-.2-.9-.2-.6,0-.9.2-.5.3-.7.6c-.2.3-.4.6-.5.9-.1.4-.2.8-.2,1.2s0,.8.2,1.2c.1.4.3.7.5.9.2.3.4.4.7.6s.6.2.9.2Z"/>
                </g>
              </g>
              <g>
                <line class="cls-9" x1="90.9" y1="536.3" x2="90.9" y2="543.3"/>
                <g class="cls-11">
                  <path class="cls-6" d="M72.8,550.9l-.4-1.7c.3-.1.6-.3.9-.4s.5-.4.8-.6c.2-.2.4-.5.6-.8l.5,1.7c-.1.3-.3.6-.5.8-.2.2-.5.4-.8.6-.3.2-.7.3-1,.4ZM72.8,556.1v-1.8h5.3v1.8h-5.3ZM74.7,555.5v-8.1h2.1v8.1h-2.1Z"/>
                  <path class="cls-6" d="M82.1,556.3c-.4,0-.8,0-1.2-.1-.4,0-.7-.2-1-.3-.3-.1-.5-.2-.7-.3l.7-1.6c.3.2.6.3,1,.4.3.1.7.2,1.1.2s1-.1,1.5-.4c.4-.3.8-.6,1-1.1.2-.5.4-1,.4-1.6s-.1-1-.3-1.3c-.2-.4-.5-.7-.8-.9-.3-.2-.7-.3-1.1-.3s-.5,0-.8.1c-.2,0-.4.2-.5.4s-.2.4-.2.7,0,.5.2.7.3.3.6.4.5.2.8.2.7,0,1,0c.3,0,.7-.1,1-.3.3-.1.7-.3,1-.4v1.2c-.3.2-.7.4-1,.6s-.7.3-1.1.4-.8.2-1.3.2-.8,0-1.3-.2c-.4-.1-.8-.3-1.1-.5-.3-.2-.6-.5-.8-.9-.2-.4-.3-.8-.3-1.3s0-.9.3-1.2c.2-.4.4-.7.8-1s.7-.5,1.2-.7c.5-.2.9-.2,1.5-.2s1.2.1,1.7.3c.5.2,1,.5,1.4.9.4.4.7.8.9,1.3s.3,1.1.3,1.7-.1,1.3-.3,1.9c-.2.6-.5,1.1-1,1.6-.4.5-.9.8-1.5,1.1s-1.3.4-2.1.4Z"/>
                  <path class="cls-6" d="M92.1,556.3c-.6,0-1.2-.1-1.7-.3-.5-.2-1-.5-1.4-.9-.4-.4-.7-.8-.9-1.3-.2-.5-.3-1.1-.3-1.7s.1-1.3.3-1.9c.2-.6.5-1.1,1-1.6.4-.5.9-.8,1.5-1.1.6-.3,1.3-.4,2.1-.4s.9,0,1.2.1c.3,0,.7.2.9.3.3.1.5.2.7.4l-.7,1.7c-.3-.2-.6-.3-1-.4-.4-.1-.7-.2-1.2-.2s-.8,0-1.1.2-.7.3-.9.6c-.3.3-.5.6-.6.9-.1.4-.2.8-.2,1.2s.1.9.3,1.3c.2.4.5.7.8.9.3.2.7.3,1.1.3s.5,0,.8-.1c.2,0,.4-.2.5-.4.1-.2.2-.4.2-.7s0-.5-.2-.7-.3-.3-.6-.4c-.2-.1-.5-.2-.8-.2s-.7,0-1,0-.7.1-1,.3c-.3.1-.7.3-1,.4v-1.2c.3-.2.7-.4,1-.6.3-.2.7-.3,1.1-.4.4-.1.8-.2,1.3-.2s.8,0,1.2.2.8.3,1.1.5c.3.2.6.5.8.9.2.4.3.8.3,1.3s0,.9-.3,1.2c-.2.4-.5.7-.8,1-.3.3-.7.5-1.2.7-.4.2-.9.2-1.5.2Z"/>
                  <path class="cls-6" d="M101.3,556.3c-.4,0-.9,0-1.3-.2-.4-.1-.8-.3-1.2-.5-.4-.2-.7-.5-1-.9-.3-.4-.5-.8-.7-1.3-.2-.5-.3-1-.3-1.7s0-1.2.3-1.7.4-.9.7-1.3.7-.7,1-.9c.4-.2.8-.4,1.2-.5.4-.1.9-.2,1.3-.2s.9,0,1.3.2c.4.1.8.3,1.2.5.4.2.7.5,1.1.9.3.4.6.8.7,1.3.2.5.3,1,.3,1.7s0,1.2-.3,1.7c-.2.5-.4.9-.7,1.3s-.7.7-1,.9c-.4.2-.8.4-1.2.5-.4.1-.9.2-1.3.2ZM101.3,554.6c.3,0,.6,0,.9-.2.3-.1.5-.3.7-.6s.4-.6.5-.9c.1-.3.2-.7.2-1.2s0-.8-.2-1.2c-.1-.4-.3-.7-.5-.9s-.4-.4-.7-.6c-.3-.1-.6-.2-.9-.2s-.6,0-.9.2c-.3.1-.5.3-.7.6-.2.3-.4.6-.5.9-.1.4-.2.8-.2,1.2s0,.8.2,1.2c.1.4.3.7.5.9.2.3.4.4.7.6.3.1.6.2.9.2Z"/>
                </g>
              </g>
              <g>
                <line class="cls-9" x1="278.6" y1="536.3" x2="278.6" y2="543.3"/>
                <g class="cls-11">
                  <path class="cls-6" d="M260.5,550.9l-.4-1.7c.3-.1.6-.3.9-.4s.5-.4.8-.6c.2-.2.4-.5.6-.8l.5,1.7c-.1.3-.3.6-.5.8-.2.2-.5.4-.8.6-.3.2-.7.3-1,.4ZM260.5,556.1v-1.8h5.3v1.8h-5.3ZM262.4,555.5v-8.1h2.1v8.1h-2.1Z"/>
                  <path class="cls-6" d="M269.8,556.3c-.4,0-.8,0-1.2-.1-.4,0-.7-.2-1-.3-.3-.1-.5-.2-.7-.3l.7-1.6c.3.2.6.3,1,.4.3.1.7.2,1.1.2s1-.1,1.5-.4c.4-.3.8-.6,1-1.1.2-.5.4-1,.4-1.6s-.1-1-.3-1.3c-.2-.4-.5-.7-.8-.9-.3-.2-.7-.3-1.1-.3s-.5,0-.8.1c-.2,0-.4.2-.5.4s-.2.4-.2.7,0,.5.2.7.3.3.6.4.5.2.8.2.7,0,1,0c.3,0,.7-.1,1-.3.3-.1.7-.3,1-.4v1.2c-.3.2-.7.4-1,.6s-.7.3-1.1.4-.8.2-1.3.2-.8,0-1.3-.2c-.4-.1-.8-.3-1.1-.5-.3-.2-.6-.5-.8-.9-.2-.4-.3-.8-.3-1.3s0-.9.3-1.2c.2-.4.4-.7.8-1s.7-.5,1.2-.7c.5-.2.9-.2,1.5-.2s1.2.1,1.7.3c.5.2,1,.5,1.4.9.4.4.7.8.9,1.3s.3,1.1.3,1.7-.1,1.3-.3,1.9c-.2.6-.5,1.1-1,1.6-.4.5-.9.8-1.5,1.1s-1.3.4-2.1.4Z"/>
                  <path class="cls-6" d="M280,556.3c-1,0-1.8-.1-2.4-.4s-1.1-.6-1.4-1c-.3-.4-.5-.9-.5-1.3s.1-.8.3-1.1c.2-.3.5-.5.7-.7.3-.2.5-.3.8-.4h1.9c-.2.3-.5.5-.7.7-.3.2-.5.4-.7.6-.2.2-.3.5-.3.7s.1.5.3.6.5.3.9.4c.3,0,.7.1,1.1.1s.6,0,.8,0c.3,0,.5-.2.7-.3.2-.1.3-.3.3-.5s0-.3-.2-.4-.2-.2-.4-.3c-.2,0-.4-.1-.6-.2s-.5,0-.7-.1c-.7-.1-1.3-.3-1.8-.5-.5-.2-.9-.4-1.2-.6-.3-.2-.5-.5-.7-.8-.1-.3-.2-.6-.2-.9,0-.4.2-.9.5-1.3.3-.4.7-.7,1.3-1,.6-.3,1.2-.4,2-.4s1.5.1,2.1.4,1,.6,1.4,1c.3.4.5.9.5,1.3s0,.6-.2.8c-.1.2-.3.5-.5.6-.2.2-.4.3-.6.5s-.4.2-.6.3h-1.9c.3-.3.5-.5.8-.7.3-.2.5-.4.7-.6.2-.2.3-.5.3-.7s0-.5-.2-.6c-.2-.2-.4-.3-.7-.4-.3,0-.6-.1-1-.1s-.5,0-.7,0c-.3,0-.5.2-.6.3-.2.1-.3.3-.3.5s0,.4.3.5c.2.1.4.2.7.3.3,0,.6.1.8.2.7.1,1.3.3,1.8.5.5.2.9.4,1.2.6.3.2.6.5.7.7s.2.6.2.9,0,.7-.3,1c-.2.3-.4.6-.8.9s-.7.5-1.2.6-1,.2-1.7.2Z"/>
                  <path class="cls-6" d="M289.4,556.3c-.4,0-.9,0-1.3-.2-.4-.1-.8-.3-1.2-.5-.4-.2-.7-.5-1-.9-.3-.4-.5-.8-.7-1.3-.2-.5-.3-1-.3-1.7s0-1.2.3-1.7.4-.9.7-1.3.7-.7,1-.9c.4-.2.8-.4,1.2-.5.4-.1.9-.2,1.3-.2s.9,0,1.3.2c.4.1.8.3,1.2.5.4.2.7.5,1.1.9.3.4.6.8.7,1.3.2.5.3,1,.3,1.7s0,1.2-.3,1.7c-.2.5-.4.9-.7,1.3s-.7.7-1,.9c-.4.2-.8.4-1.2.5-.4.1-.9.2-1.3.2ZM289.4,554.6c.3,0,.6,0,.9-.2.3-.1.5-.3.7-.6s.4-.6.5-.9c.1-.3.2-.7.2-1.2s0-.8-.2-1.2c-.1-.4-.3-.7-.5-.9s-.4-.4-.7-.6c-.3-.1-.6-.2-.9-.2s-.6,0-.9.2c-.3.1-.5.3-.7.6-.2.3-.4.6-.5.9-.1.4-.2.8-.2,1.2s0,.8.2,1.2c.1.4.3.7.5.9.2.3.4.4.7.6.3.1.6.2.9.2Z"/>
                </g>
              </g>
              <g>
                <line class="cls-9" x1="184.7" y1="536.3" x2="184.7" y2="543.3"/>
                <g class="cls-11">
                  <path class="cls-6" d="M166.7,550.9l-.4-1.7c.3-.1.6-.3.9-.4s.5-.4.8-.6c.2-.2.4-.5.6-.8l.5,1.7c-.1.3-.3.6-.5.8-.2.2-.5.4-.8.6-.3.2-.7.3-1,.4ZM166.7,556.1v-1.8h5.3v1.8h-5.3ZM168.5,555.5v-8.1h2.1v8.1h-2.1Z"/>
                  <path class="cls-6" d="M175.9,556.3c-.4,0-.8,0-1.2-.1-.4,0-.7-.2-1-.3-.3-.1-.5-.2-.7-.3l.7-1.6c.3.2.6.3,1,.4.3.1.7.2,1.1.2s1-.1,1.5-.4c.4-.3.8-.6,1-1.1.2-.5.4-1,.4-1.6s-.1-1-.3-1.3c-.2-.4-.5-.7-.8-.9-.3-.2-.7-.3-1.1-.3s-.5,0-.8.1c-.2,0-.4.2-.5.4s-.2.4-.2.7,0,.5.2.7.3.3.6.4.5.2.8.2.7,0,1,0c.3,0,.7-.1,1-.3.3-.1.7-.3,1-.4v1.2c-.3.2-.7.4-1,.6s-.7.3-1.1.4-.8.2-1.3.2-.8,0-1.3-.2c-.4-.1-.8-.3-1.1-.5-.3-.2-.6-.5-.8-.9-.2-.4-.3-.8-.3-1.3s0-.9.3-1.2c.2-.4.4-.7.8-1s.7-.5,1.2-.7c.5-.2.9-.2,1.5-.2s1.2.1,1.7.3c.5.2,1,.5,1.4.9.4.4.7.8.9,1.3s.3,1.1.3,1.7-.1,1.3-.3,1.9c-.2.6-.5,1.1-1,1.6-.4.5-.9.8-1.5,1.1s-1.3.4-2.1.4Z"/>
                  <path class="cls-6" d="M189.7,547.4v1.8h-6.2v1.9h-1.8v-3.7h8ZM187.5,549.1h2.2c0,.1-4.5,7.1-4.5,7.1l-1.8-.9,4.1-6.2Z"/>
                  <path class="cls-6" d="M195,556.3c-.4,0-.9,0-1.3-.2-.4-.1-.8-.3-1.2-.5-.4-.2-.7-.5-1-.9-.3-.4-.5-.8-.7-1.3-.2-.5-.3-1-.3-1.7s0-1.2.3-1.7.4-.9.7-1.3.7-.7,1-.9c.4-.2.8-.4,1.2-.5.4-.1.9-.2,1.3-.2s.9,0,1.3.2c.4.1.8.3,1.2.5.4.2.7.5,1.1.9.3.4.6.8.7,1.3.2.5.3,1,.3,1.7s0,1.2-.3,1.7c-.2.5-.4.9-.7,1.3s-.7.7-1,.9c-.4.2-.8.4-1.2.5-.4.1-.9.2-1.3.2ZM195,554.6c.3,0,.6,0,.9-.2.3-.1.5-.3.7-.6s.4-.6.5-.9c.1-.3.2-.7.2-1.2s0-.8-.2-1.2c-.1-.4-.3-.7-.5-.9s-.4-.4-.7-.6c-.3-.1-.6-.2-.9-.2s-.6,0-.9.2c-.3.1-.5.3-.7.6-.2.3-.4.6-.5.9-.1.4-.2.8-.2,1.2s0,.8.2,1.2c.1.4.3.7.5.9.2.3.4.4.7.6.3.1.6.2.9.2Z"/>
                </g>
              </g>
            </g>
          </g>
          <g>
            <line class="cls-10" x1="72.1" y1="536.3" x2="72.1" y2="18.6"/>
            <g>
              <g>
                <line class="cls-9" x1="72.1" y1="536.3" x2="66" y2="536.3"/>
                <g class="cls-11">
                  <path class="cls-6" d="M38,541.2c-.6,0-1.1,0-1.7-.2-.6-.1-1.1-.4-1.6-.7-.5-.3-1-.7-1.3-1.2-.4-.5-.7-1-.9-1.6-.2-.6-.3-1.3-.3-2.1s.1-1.5.3-2.1c.2-.6.5-1.2.9-1.6s.8-.8,1.4-1.2c.5-.3,1-.5,1.6-.7.6-.2,1.1-.2,1.6-.2s1.1,0,1.7.2c.6.1,1.1.4,1.6.7.5.3,1,.7,1.3,1.2.4.5.7,1,.9,1.6s.3,1.3.3,2.1-.1,1.5-.4,2.1-.5,1.2-.9,1.6-.8.8-1.4,1.2c-.5.3-1,.5-1.6.7-.6.2-1.1.2-1.6.2ZM38,539c.4,0,.8,0,1.2-.3.4-.2.7-.4.9-.7.3-.3.5-.7.6-1.2.1-.5.2-1,.2-1.5s0-1.1-.2-1.5c-.1-.5-.4-.8-.6-1.2-.3-.3-.6-.6-.9-.7-.4-.2-.8-.3-1.2-.3s-.8,0-1.1.3-.7.4-.9.7c-.3.3-.5.7-.6,1.2-.1.5-.2,1-.2,1.5s0,1.1.2,1.5c.1.4.4.8.6,1.2.3.3.6.6.9.7s.7.3,1.1.3Z"/>
                </g>
              </g>
              <g>
                <line class="cls-9" x1="72.1" y1="65.7" x2="66" y2="65.7"/>
                <g class="cls-11">
                  <path class="cls-6" d="M21.3,66.9c0,.6-.1,1.1-.4,1.6-.3.5-.6.9-1.1,1.3-.5.4-1,.7-1.6.8-.6.2-1.3.3-2,.2-.8,0-1.5-.2-2.1-.3-.6-.2-1.2-.4-1.6-.6-.5-.2-.9-.4-1.3-.6l.9-2.3c.5.3,1,.6,1.5.8.5.2,1,.4,1.4.5.5.1.9.2,1.3.2s.6,0,.8,0c.3,0,.5-.2.7-.3.2-.1.4-.3.5-.5.1-.2.2-.5.2-.8s-.2-.8-.6-1c-.4-.3-1-.4-1.8-.4-.5,0-1,0-1.5,0s-.9.2-1.3.3-.8.2-1.3.4v-2.2c.7-.3,1.4-.5,2.2-.6.8-.2,1.6-.3,2.4-.2.6,0,1.1,0,1.7.3.6.2,1.1.4,1.5.7.5.3.8.7,1.1,1.1.3.5.4,1,.4,1.6ZM12,59.1h2.6v5.4l-2.6.7v-6.1ZM12.7,59.1h8.2v2.3h-8.2v-2.3Z"/>
                  <path class="cls-6" d="M28.3,70.5c-.6,0-1.1,0-1.7-.2-.6-.1-1.1-.4-1.6-.7-.5-.3-1-.7-1.3-1.2-.4-.5-.7-1-.9-1.6-.2-.6-.3-1.3-.3-2.1s.1-1.5.3-2.1c.2-.6.5-1.2.9-1.6s.8-.8,1.4-1.2c.5-.3,1-.5,1.6-.7.6-.2,1.1-.2,1.6-.2s1.1,0,1.7.2c.6.1,1.1.4,1.6.7.5.3,1,.7,1.3,1.2.4.5.7,1,.9,1.6s.3,1.3.3,2.1-.1,1.5-.4,2.1-.5,1.2-.9,1.6-.8.8-1.4,1.2c-.5.3-1,.5-1.6.7-.6.2-1.1.2-1.6.2ZM28.3,68.4c.4,0,.8,0,1.2-.3.4-.2.7-.4.9-.7.3-.3.5-.7.6-1.2.1-.5.2-1,.2-1.5s0-1.1-.2-1.5c-.1-.5-.4-.8-.6-1.2-.3-.3-.6-.6-.9-.7-.4-.2-.8-.3-1.2-.3s-.8,0-1.1.3-.7.4-.9.7c-.3.3-.5.7-.6,1.2-.1.5-.2,1-.2,1.5s0,1.1.2,1.5c.1.4.4.8.6,1.2.3.3.6.6.9.7s.7.3,1.1.3Z"/>
                  <path class="cls-6" d="M41.2,70.5c-.6,0-1.1,0-1.7-.2-.6-.1-1.1-.4-1.6-.7-.5-.3-1-.7-1.3-1.2-.4-.5-.7-1-.9-1.6-.2-.6-.3-1.3-.3-2.1s.1-1.5.3-2.1c.2-.6.5-1.2.9-1.6s.8-.8,1.4-1.2c.5-.3,1-.5,1.6-.7.6-.2,1.1-.2,1.6-.2s1.1,0,1.7.2c.6.1,1.1.4,1.6.7.5.3,1,.7,1.3,1.2.4.5.7,1,.9,1.6s.3,1.3.3,2.1-.1,1.5-.4,2.1-.5,1.2-.9,1.6-.8.8-1.4,1.2c-.5.3-1,.5-1.6.7-.6.2-1.1.2-1.6.2ZM41.2,68.4c.4,0,.8,0,1.2-.3.4-.2.7-.4.9-.7.3-.3.5-.7.6-1.2.1-.5.2-1,.2-1.5s0-1.1-.2-1.5c-.1-.5-.4-.8-.6-1.2-.3-.3-.6-.6-.9-.7-.4-.2-.8-.3-1.2-.3s-.8,0-1.1.3-.7.4-.9.7c-.3.3-.5.7-.6,1.2-.1.5-.2,1-.2,1.5s0,1.1.2,1.5c.1.4.4.8.6,1.2.3.3.6.6.9.7s.7.3,1.1.3Z"/>
                  <path class="cls-6" d="M54.1,70.5c-.6,0-1.1,0-1.7-.2-.6-.1-1.1-.4-1.6-.7-.5-.3-1-.7-1.3-1.2-.4-.5-.7-1-.9-1.6-.2-.6-.3-1.3-.3-2.1s.1-1.5.3-2.1c.2-.6.5-1.2.9-1.6s.8-.8,1.4-1.2c.5-.3,1-.5,1.6-.7.6-.2,1.1-.2,1.6-.2s1.1,0,1.7.2c.6.1,1.1.4,1.6.7.5.3,1,.7,1.3,1.2.4.5.7,1,.9,1.6s.3,1.3.3,2.1-.1,1.5-.4,2.1-.5,1.2-.9,1.6-.8.8-1.4,1.2c-.5.3-1,.5-1.6.7-.6.2-1.1.2-1.6.2ZM54.1,68.4c.4,0,.8,0,1.2-.3.4-.2.7-.4.9-.7.3-.3.5-.7.6-1.2.1-.5.2-1,.2-1.5s0-1.1-.2-1.5c-.1-.5-.4-.8-.6-1.2-.3-.3-.6-.6-.9-.7-.4-.2-.8-.3-1.2-.3s-.8,0-1.1.3-.7.4-.9.7c-.3.3-.5.7-.6,1.2-.1.5-.2,1-.2,1.5s0,1.1.2,1.5c.1.4.4.8.6,1.2.3.3.6.6.9.7s.7.3,1.1.3Z"/>
                </g>
              </g>
              <g>
                <line class="cls-9" x1="72.1" y1="159.8" x2="66" y2="159.8"/>
                <g class="cls-11">
                  <path class="cls-6" d="M12.9,160.9l-1.9-1,6.5-7h2.7l-7.2,7.9ZM11,162.3v-2.3h11.3v2.3h-11.3ZM17.5,153h2.6v11.6h-2.6v-11.6Z"/>
                  <path class="cls-6" d="M29,164.7c-.6,0-1.1,0-1.7-.2-.6-.1-1.1-.4-1.6-.7-.5-.3-1-.7-1.3-1.2-.4-.5-.7-1-.9-1.6-.2-.6-.3-1.3-.3-2.1s.1-1.5.3-2.1c.2-.6.5-1.2.9-1.6s.8-.8,1.4-1.2c.5-.3,1-.5,1.6-.7.6-.2,1.1-.2,1.6-.2s1.1,0,1.7.2c.6.1,1.1.4,1.6.7.5.3,1,.7,1.3,1.2.4.5.7,1,.9,1.6s.3,1.3.3,2.1-.1,1.5-.4,2.1-.5,1.2-.9,1.6-.8.8-1.4,1.2c-.5.3-1,.5-1.6.7-.6.2-1.1.2-1.6.2ZM29,162.5c.4,0,.8,0,1.2-.3.4-.2.7-.4.9-.7.3-.3.5-.7.6-1.2.1-.5.2-1,.2-1.5s0-1.1-.2-1.5c-.1-.5-.4-.8-.6-1.2-.3-.3-.6-.6-.9-.7-.4-.2-.8-.3-1.2-.3s-.8,0-1.1.3-.7.4-.9.7c-.3.3-.5.7-.6,1.2-.1.5-.2,1-.2,1.5s0,1.1.2,1.5c.1.4.4.8.6,1.2.3.3.6.6.9.7s.7.3,1.1.3Z"/>
                  <path class="cls-6" d="M41.9,164.7c-.6,0-1.1,0-1.7-.2-.6-.1-1.1-.4-1.6-.7-.5-.3-1-.7-1.3-1.2-.4-.5-.7-1-.9-1.6-.2-.6-.3-1.3-.3-2.1s.1-1.5.3-2.1c.2-.6.5-1.2.9-1.6s.8-.8,1.4-1.2c.5-.3,1-.5,1.6-.7.6-.2,1.1-.2,1.6-.2s1.1,0,1.7.2c.6.1,1.1.4,1.6.7.5.3,1,.7,1.3,1.2.4.5.7,1,.9,1.6s.3,1.3.3,2.1-.1,1.5-.4,2.1-.5,1.2-.9,1.6-.8.8-1.4,1.2c-.5.3-1,.5-1.6.7-.6.2-1.1.2-1.6.2ZM41.9,162.5c.4,0,.8,0,1.2-.3.4-.2.7-.4.9-.7.3-.3.5-.7.6-1.2.1-.5.2-1,.2-1.5s0-1.1-.2-1.5c-.1-.5-.4-.8-.6-1.2-.3-.3-.6-.6-.9-.7-.4-.2-.8-.3-1.2-.3s-.8,0-1.1.3-.7.4-.9.7c-.3.3-.5.7-.6,1.2-.1.5-.2,1-.2,1.5s0,1.1.2,1.5c.1.4.4.8.6,1.2.3.3.6.6.9.7s.7.3,1.1.3Z"/>
                  <path class="cls-6" d="M54.8,164.7c-.6,0-1.1,0-1.7-.2-.6-.1-1.1-.4-1.6-.7-.5-.3-1-.7-1.3-1.2-.4-.5-.7-1-.9-1.6-.2-.6-.3-1.3-.3-2.1s.1-1.5.3-2.1c.2-.6.5-1.2.9-1.6s.8-.8,1.4-1.2c.5-.3,1-.5,1.6-.7.6-.2,1.1-.2,1.6-.2s1.1,0,1.7.2c.6.1,1.1.4,1.6.7.5.3,1,.7,1.3,1.2.4.5.7,1,.9,1.6s.3,1.3.3,2.1-.1,1.5-.4,2.1-.5,1.2-.9,1.6-.8.8-1.4,1.2c-.5.3-1,.5-1.6.7-.6.2-1.1.2-1.6.2ZM54.8,162.5c.4,0,.8,0,1.2-.3.4-.2.7-.4.9-.7.3-.3.5-.7.6-1.2.1-.5.2-1,.2-1.5s0-1.1-.2-1.5c-.1-.5-.4-.8-.6-1.2-.3-.3-.6-.6-.9-.7-.4-.2-.8-.3-1.2-.3s-.8,0-1.1.3-.7.4-.9.7c-.3.3-.5.7-.6,1.2-.1.5-.2,1-.2,1.5s0,1.1.2,1.5c.1.4.4.8.6,1.2.3.3.6.6.9.7s.7.3,1.1.3Z"/>
                </g>
              </g>
              <g>
                <line class="cls-9" x1="72.1" y1="253.9" x2="66" y2="253.9"/>
                <g class="cls-11">
                  <path class="cls-6" d="M16.2,258.7c-.9,0-1.6,0-2.3-.3-.7-.2-1.2-.4-1.7-.6-.5-.2-.9-.5-1.2-.7l1-2c.3.2.7.5,1.2.6.4.2.9.3,1.4.5.5.1,1,.2,1.6.2s.8,0,1.1-.1.6-.2.7-.4c.2-.2.3-.4.3-.6,0-.4-.3-.7-.8-1-.6-.2-1.5-.3-2.9-.3h-1.5v-2.1h1.5c.8,0,1.4,0,1.9-.2.5-.1.9-.3,1.1-.5.2-.2.4-.5.4-.7s0-.4-.2-.6c-.1-.2-.3-.3-.6-.4-.3-.1-.6-.2-1-.2-.7,0-1.3.2-2,.5-.6.3-1.2.7-1.7,1.2l-1.4-1.8c.4-.4.8-.7,1.4-1,.5-.3,1.1-.6,1.8-.8.6-.2,1.3-.3,2-.3s1.3,0,1.8.2c.6.1,1,.4,1.4.6.4.3.7.6.9,1,.2.4.3.8.3,1.3s-.2,1-.5,1.4c-.3.4-.7.7-1.3,1-.5.3-1.1.5-1.8.6s-1.4.2-2.1.2v-.8c1,0,1.9,0,2.6.2.8.1,1.4.3,1.9.5.5.2.9.5,1.2.9.3.4.4.8.4,1.4s-.1.9-.4,1.2c-.3.4-.6.7-1.1,1-.5.3-1,.5-1.6.6-.6.1-1.3.2-2,.2Z"/>
                  <path class="cls-6" d="M28.2,258.8c-.6,0-1.1,0-1.7-.2-.6-.1-1.1-.4-1.6-.7-.5-.3-1-.7-1.3-1.2-.4-.5-.7-1-.9-1.6-.2-.6-.3-1.3-.3-2.1s.1-1.5.3-2.1c.2-.6.5-1.2.9-1.6s.8-.8,1.4-1.2c.5-.3,1-.5,1.6-.7.6-.2,1.1-.2,1.6-.2s1.1,0,1.7.2c.6.1,1.1.4,1.6.7.5.3,1,.7,1.3,1.2.4.5.7,1,.9,1.6s.3,1.3.3,2.1-.1,1.5-.4,2.1-.5,1.2-.9,1.6-.8.8-1.4,1.2c-.5.3-1,.5-1.6.7-.6.2-1.1.2-1.6.2ZM28.2,256.6c.4,0,.8,0,1.2-.3.4-.2.7-.4.9-.7.3-.3.5-.7.6-1.2.1-.5.2-1,.2-1.5s0-1.1-.2-1.5c-.1-.5-.4-.8-.6-1.2-.3-.3-.6-.6-.9-.7-.4-.2-.8-.3-1.2-.3s-.8,0-1.1.3-.7.4-.9.7c-.3.3-.5.7-.6,1.2-.1.5-.2,1-.2,1.5s0,1.1.2,1.5c.1.4.4.8.6,1.2.3.3.6.6.9.7s.7.3,1.1.3Z"/>
                  <path class="cls-6" d="M41.1,258.8c-.6,0-1.1,0-1.7-.2-.6-.1-1.1-.4-1.6-.7-.5-.3-1-.7-1.3-1.2-.4-.5-.7-1-.9-1.6-.2-.6-.3-1.3-.3-2.1s.1-1.5.3-2.1c.2-.6.5-1.2.9-1.6s.8-.8,1.4-1.2c.5-.3,1-.5,1.6-.7.6-.2,1.1-.2,1.6-.2s1.1,0,1.7.2c.6.1,1.1.4,1.6.7.5.3,1,.7,1.3,1.2.4.5.7,1,.9,1.6s.3,1.3.3,2.1-.1,1.5-.4,2.1-.5,1.2-.9,1.6-.8.8-1.4,1.2c-.5.3-1,.5-1.6.7-.6.2-1.1.2-1.6.2ZM41.1,256.6c.4,0,.8,0,1.2-.3.4-.2.7-.4.9-.7.3-.3.5-.7.6-1.2.1-.5.2-1,.2-1.5s0-1.1-.2-1.5c-.1-.5-.4-.8-.6-1.2-.3-.3-.6-.6-.9-.7-.4-.2-.8-.3-1.2-.3s-.8,0-1.1.3-.7.4-.9.7c-.3.3-.5.7-.6,1.2-.1.5-.2,1-.2,1.5s0,1.1.2,1.5c.1.4.4.8.6,1.2.3.3.6.6.9.7s.7.3,1.1.3Z"/>
                  <path class="cls-6" d="M54.1,258.8c-.6,0-1.1,0-1.7-.2-.6-.1-1.1-.4-1.6-.7-.5-.3-1-.7-1.3-1.2-.4-.5-.7-1-.9-1.6-.2-.6-.3-1.3-.3-2.1s.1-1.5.3-2.1c.2-.6.5-1.2.9-1.6s.8-.8,1.4-1.2c.5-.3,1-.5,1.6-.7.6-.2,1.1-.2,1.6-.2s1.1,0,1.7.2c.6.1,1.1.4,1.6.7.5.3,1,.7,1.3,1.2.4.5.7,1,.9,1.6s.3,1.3.3,2.1-.1,1.5-.4,2.1-.5,1.2-.9,1.6-.8.8-1.4,1.2c-.5.3-1,.5-1.6.7-.6.2-1.1.2-1.6.2ZM54.1,256.6c.4,0,.8,0,1.2-.3.4-.2.7-.4.9-.7.3-.3.5-.7.6-1.2.1-.5.2-1,.2-1.5s0-1.1-.2-1.5c-.1-.5-.4-.8-.6-1.2-.3-.3-.6-.6-.9-.7-.4-.2-.8-.3-1.2-.3s-.8,0-1.1.3-.7.4-.9.7c-.3.3-.5.7-.6,1.2-.1.5-.2,1-.2,1.5s0,1.1.2,1.5c.1.4.4.8.6,1.2.3.3.6.6.9.7s.7.3,1.1.3Z"/>
                </g>
              </g>
              <g>
                <line class="cls-9" x1="72.1" y1="348.1" x2="66" y2="348.1"/>
                <g class="cls-11">
                  <path class="cls-6" d="M21,344.8c0,.6-.2,1.2-.5,1.7-.3.5-.8.8-1.5,1.2-.6.3-1.4.6-2.2.9s-.9.3-1.3.5c-.4.1-.6.3-.9.5-.2.2-.4.3-.5.5s-.2.4-.2.7h-2.8c0-.5,0-.9.3-1.4s.5-.8.8-1.2c.4-.4.8-.7,1.4-1,.5-.3,1.2-.6,1.9-.8.6-.2,1-.3,1.3-.5.3-.1.6-.3.8-.4.2-.1.3-.2.4-.3,0-.1.1-.2.1-.4,0-.2,0-.4-.2-.6-.1-.2-.3-.3-.6-.4-.3-.1-.6-.2-1.1-.2s-.8,0-1.3.2c-.4.2-.9.4-1.3.6-.4.3-.8.5-1.2.9l-1.4-1.7c.6-.6,1.4-1.2,2.4-1.6.9-.5,1.9-.7,3-.7.6,0,1.1,0,1.7.2.5.1,1,.4,1.5.7.4.3.8.7,1,1.1.3.4.4.9.4,1.5ZM11.2,352.7v-2.3h7.8v-1.6h2.3v3.9h-10Z"/>
                  <path class="cls-6" d="M28.4,352.9c-.6,0-1.1,0-1.7-.2-.6-.1-1.1-.4-1.6-.7-.5-.3-1-.7-1.3-1.2-.4-.5-.7-1-.9-1.6-.2-.6-.3-1.3-.3-2.1s.1-1.5.3-2.1c.2-.6.5-1.2.9-1.6s.8-.8,1.4-1.2c.5-.3,1-.5,1.6-.7.6-.2,1.1-.2,1.6-.2s1.1,0,1.7.2c.6.1,1.1.4,1.6.7.5.3,1,.7,1.3,1.2.4.5.7,1,.9,1.6s.3,1.3.3,2.1-.1,1.5-.4,2.1-.5,1.2-.9,1.6-.8.8-1.4,1.2c-.5.3-1,.5-1.6.7-.6.2-1.1.2-1.6.2ZM28.4,350.8c.4,0,.8,0,1.2-.3.4-.2.7-.4.9-.7.3-.3.5-.7.6-1.2.1-.5.2-1,.2-1.5s0-1.1-.2-1.5c-.1-.5-.4-.8-.6-1.2-.3-.3-.6-.6-.9-.7-.4-.2-.8-.3-1.2-.3s-.8,0-1.1.3-.7.4-.9.7c-.3.3-.5.7-.6,1.2-.1.5-.2,1-.2,1.5s0,1.1.2,1.5c.1.4.4.8.6,1.2.3.3.6.6.9.7s.7.3,1.1.3Z"/>
                  <path class="cls-6" d="M41.3,352.9c-.6,0-1.1,0-1.7-.2-.6-.1-1.1-.4-1.6-.7-.5-.3-1-.7-1.3-1.2-.4-.5-.7-1-.9-1.6-.2-.6-.3-1.3-.3-2.1s.1-1.5.3-2.1c.2-.6.5-1.2.9-1.6s.8-.8,1.4-1.2c.5-.3,1-.5,1.6-.7.6-.2,1.1-.2,1.6-.2s1.1,0,1.7.2c.6.1,1.1.4,1.6.7.5.3,1,.7,1.3,1.2.4.5.7,1,.9,1.6s.3,1.3.3,2.1-.1,1.5-.4,2.1-.5,1.2-.9,1.6-.8.8-1.4,1.2c-.5.3-1,.5-1.6.7-.6.2-1.1.2-1.6.2ZM41.3,350.8c.4,0,.8,0,1.2-.3.4-.2.7-.4.9-.7.3-.3.5-.7.6-1.2.1-.5.2-1,.2-1.5s0-1.1-.2-1.5c-.1-.5-.4-.8-.6-1.2-.3-.3-.6-.6-.9-.7-.4-.2-.8-.3-1.2-.3s-.8,0-1.1.3-.7.4-.9.7c-.3.3-.5.7-.6,1.2-.1.5-.2,1-.2,1.5s0,1.1.2,1.5c.1.4.4.8.6,1.2.3.3.6.6.9.7s.7.3,1.1.3Z"/>
                  <path class="cls-6" d="M54.2,352.9c-.6,0-1.1,0-1.7-.2-.6-.1-1.1-.4-1.6-.7-.5-.3-1-.7-1.3-1.2-.4-.5-.7-1-.9-1.6-.2-.6-.3-1.3-.3-2.1s.1-1.5.3-2.1c.2-.6.5-1.2.9-1.6s.8-.8,1.4-1.2c.5-.3,1-.5,1.6-.7.6-.2,1.1-.2,1.6-.2s1.1,0,1.7.2c.6.1,1.1.4,1.6.7.5.3,1,.7,1.3,1.2.4.5.7,1,.9,1.6s.3,1.3.3,2.1-.1,1.5-.4,2.1-.5,1.2-.9,1.6-.8.8-1.4,1.2c-.5.3-1,.5-1.6.7-.6.2-1.1.2-1.6.2ZM54.2,350.8c.4,0,.8,0,1.2-.3.4-.2.7-.4.9-.7.3-.3.5-.7.6-1.2.1-.5.2-1,.2-1.5s0-1.1-.2-1.5c-.1-.5-.4-.8-.6-1.2-.3-.3-.6-.6-.9-.7-.4-.2-.8-.3-1.2-.3s-.8,0-1.1.3-.7.4-.9.7c-.3.3-.5.7-.6,1.2-.1.5-.2,1-.2,1.5s0,1.1.2,1.5c.1.4.4.8.6,1.2.3.3.6.6.9.7s.7.3,1.1.3Z"/>
                </g>
              </g>
              <g>
                <line class="cls-9" x1="72.1" y1="442.2" x2="66" y2="442.2"/>
                <g class="cls-11">
                  <path class="cls-6" d="M12,440.2l-.6-2.1c.4-.2.8-.3,1.2-.6.4-.2.7-.5,1-.8s.6-.6.8-1l.7,2.1c-.1.4-.4.7-.7,1s-.6.5-1,.8c-.4.2-.8.4-1.3.6ZM12,446.8v-2.3h6.8v2.3h-6.8ZM14.4,446.1v-10.4h2.8v10.4h-2.8Z"/>
                  <path class="cls-6" d="M25.8,447.1c-.6,0-1.1,0-1.7-.2-.6-.1-1.1-.4-1.6-.7-.5-.3-1-.7-1.3-1.2-.4-.5-.7-1-.9-1.6-.2-.6-.3-1.3-.3-2.1s.1-1.5.3-2.1c.2-.6.5-1.2.9-1.6s.8-.8,1.4-1.2c.5-.3,1-.5,1.6-.7.6-.2,1.1-.2,1.6-.2s1.1,0,1.7.2c.6.1,1.1.4,1.6.7.5.3,1,.7,1.3,1.2.4.5.7,1,.9,1.6s.3,1.3.3,2.1-.1,1.5-.4,2.1-.5,1.2-.9,1.6-.8.8-1.4,1.2c-.5.3-1,.5-1.6.7-.6.2-1.1.2-1.6.2ZM25.8,444.9c.4,0,.8,0,1.2-.3.4-.2.7-.4.9-.7.3-.3.5-.7.6-1.2.1-.5.2-1,.2-1.5s0-1.1-.2-1.5c-.1-.5-.4-.8-.6-1.2-.3-.3-.6-.6-.9-.7-.4-.2-.8-.3-1.2-.3s-.8,0-1.1.3-.7.4-.9.7c-.3.3-.5.7-.6,1.2-.1.5-.2,1-.2,1.5s0,1.1.2,1.5c.1.4.4.8.6,1.2.3.3.6.6.9.7s.7.3,1.1.3Z"/>
                  <path class="cls-6" d="M38.7,447.1c-.6,0-1.1,0-1.7-.2-.6-.1-1.1-.4-1.6-.7-.5-.3-1-.7-1.3-1.2-.4-.5-.7-1-.9-1.6-.2-.6-.3-1.3-.3-2.1s.1-1.5.3-2.1c.2-.6.5-1.2.9-1.6s.8-.8,1.4-1.2c.5-.3,1-.5,1.6-.7.6-.2,1.1-.2,1.6-.2s1.1,0,1.7.2c.6.1,1.1.4,1.6.7.5.3,1,.7,1.3,1.2.4.5.7,1,.9,1.6s.3,1.3.3,2.1-.1,1.5-.4,2.1-.5,1.2-.9,1.6-.8.8-1.4,1.2c-.5.3-1,.5-1.6.7-.6.2-1.1.2-1.6.2ZM38.7,444.9c.4,0,.8,0,1.2-.3.4-.2.7-.4.9-.7.3-.3.5-.7.6-1.2.1-.5.2-1,.2-1.5s0-1.1-.2-1.5c-.1-.5-.4-.8-.6-1.2-.3-.3-.6-.6-.9-.7-.4-.2-.8-.3-1.2-.3s-.8,0-1.1.3-.7.4-.9.7c-.3.3-.5.7-.6,1.2-.1.5-.2,1-.2,1.5s0,1.1.2,1.5c.1.4.4.8.6,1.2.3.3.6.6.9.7s.7.3,1.1.3Z"/>
                  <path class="cls-6" d="M51.6,447.1c-.6,0-1.1,0-1.7-.2-.6-.1-1.1-.4-1.6-.7-.5-.3-1-.7-1.3-1.2-.4-.5-.7-1-.9-1.6-.2-.6-.3-1.3-.3-2.1s.1-1.5.3-2.1c.2-.6.5-1.2.9-1.6s.8-.8,1.4-1.2c.5-.3,1-.5,1.6-.7.6-.2,1.1-.2,1.6-.2s1.1,0,1.7.2c.6.1,1.1.4,1.6.7.5.3,1,.7,1.3,1.2.4.5.7,1,.9,1.6s.3,1.3.3,2.1-.1,1.5-.4,2.1-.5,1.2-.9,1.6-.8.8-1.4,1.2c-.5.3-1,.5-1.6.7-.6.2-1.1.2-1.6.2ZM51.6,444.9c.4,0,.8,0,1.2-.3.4-.2.7-.4.9-.7.3-.3.5-.7.6-1.2.1-.5.2-1,.2-1.5s0-1.1-.2-1.5c-.1-.5-.4-.8-.6-1.2-.3-.3-.6-.6-.9-.7-.4-.2-.8-.3-1.2-.3s-.8,0-1.1.3-.7.4-.9.7c-.3.3-.5.7-.6,1.2-.1.5-.2,1-.2,1.5s0,1.1.2,1.5c.1.4.4.8.6,1.2.3.3.6.6.9.7s.7.3,1.1.3Z"/>
                </g>
              </g>
            </g>
          </g>
        </g>
      </g>
    </g>
    <g id="lines">
      <g>
        <path class="cls-5" d="M72.1,536.2c6.3,0,12.5-.2,18.8-.2,9.4,0,18.8.2,28.2.2h28.2c3.1,0,6.3-.3,9.4-.3,9.4,0,18.8.2,28.2.2s6.3-.2,9.4-.3c3.1,0,6.3-.2,9.4-.2s6.3,0,9.4,0,6.3-.5,9.4-.5h9.4c3.1,0,6.3-.2,9.4-.5,3.1-.3,6.3-1.1,9.4-1.8,3.1-.7,6.3-2.4,9.4-2.4s6.3,5.1,9.4,5.1,6.3-8.2,9.4-8.2,6.3.3,9.4,1c3.1.7,6.3,6.5,9.4,6.5s6.3-4.2,9.4-4.2,6.3,5.3,9.4,5.3,6.3-4.3,9.4-4.3,6.3,3.3,9.4,3.3,6.3-2.9,9.4-2.9,6.3,2.4,9.4,2.4,6.3-4,9.4-4,6.3,5.6,9.4,5.6,6.3-1.2,9.4-2.1c3.1-.9,6.3-2.5,9.4-3.3,3.1-.8,6.3-.4,9.4-1.3,3.1-.9,6.3-15.4,9.4-15.4s6.3,12.6,9.4,12.6,6.3-3.4,9.4-3.4,6.3,7.2,9.4,7.2,6.3-.9,9.4-1.4c3.1-.5,6.3-1.6,9.4-1.6s6.3.2,9.4.2,6.3-78.4,9.4-85.8c3.1-7.4,6.3-11.1,9.4-11.1s6.3,89,9.4,89,6.3-14.7,9.4-14.7,6.3,12.2,9.4,12.2,6.3,0,9.4-.3c3.1-.2,6.3-122.3,9.4-122.3s6.3,131,9.4,131,6.3-34.9,9.4-47.8c3.1-12.9,6.3-11.5,9.4-29.7,3.1-18.2,6.3-71.3,9.4-79.5,3.1-8.3,6.3-4.1,9.4-12.4,3.1-8.3,6.3-78.2,9.4-78.2s6.3,65.9,9.4,66.2,6.3.4,9.4.4,6.3-.8,9.4-2.3c3.1-1.5,6.3-133.7,9.4-133.7s6.3,72.8,9.4,72.8,6.3-221.6,9.4-221.6,6.3,453.5,9.4,453.5,6.3-195.7,9.4-195.7,6.3,51.1,9.4,102.1" pointer-events="none"/>
        <path class="cls-8" d="M72.1,536.2c6.3,0,12.5-.2,18.8-.2,9.4,0,18.8.2,28.2.2h28.2c3.1,0,6.3-.3,9.4-.3,9.4,0,18.8.2,28.2.2s6.3-.2,9.4-.3c3.1,0,6.3-.2,9.4-.2s6.3,0,9.4,0,6.3-.5,9.4-.5h9.4c3.1,0,6.3-.2,9.4-.5,3.1-.3,6.3-1.1,9.4-1.8,3.1-.7,6.3-2.4,9.4-2.4s6.3,5.1,9.4,5.1,6.3-8.2,9.4-8.2,6.3.3,9.4,1c3.1.7,6.3,6.5,9.4,6.5s6.3-4.2,9.4-4.2,6.3,5.3,9.4,5.3,6.3-4.3,9.4-4.3,6.3,3.3,9.4,3.3,6.3-2.9,9.4-2.9,6.3,2.4,9.4,2.4,6.3-4,9.4-4,6.3,5.6,9.4,5.6,6.3-1.2,9.4-2.1c3.1-.9,6.3-2.5,9.4-3.3,3.1-.8,6.3-.4,9.4-1.3,3.1-.9,6.3-15.4,9.4-15.4s6.3,12.6,9.4,12.6,6.3-3.4,9.4-3.4,6.3,7.2,9.4,7.2,6.3-.9,9.4-1.4c3.1-.5,6.3-1.6,9.4-1.6s6.3.2,9.4.2,6.3-78.4,9.4-85.8c3.1-7.4,6.3-11.1,9.4-11.1s6.3,89,9.4,89,6.3-14.7,9.4-14.7,6.3,12.2,9.4,12.2,6.3,0,9.4-.3c3.1-.2,6.3-122.3,9.4-122.3s6.3,131,9.4,131,6.3-34.9,9.4-47.8c3.1-12.9,6.3-11.5,9.4-29.7,3.1-18.2,6.3-71.3,9.4-79.5,3.1-8.3,6.3-4.1,9.4-12.4,3.1-8.3,6.3-78.2,9.4-78.2s6.3,65.9,9.4,66.2,6.3.4,9.4.4,6.3-.8,9.4-2.3c3.1-1.5,6.3-133.7,9.4-133.7s6.3,72.8,9.4,72.8,6.3-221.6,9.4-221.6,6.3,453.5,9.4,453.5,6.3-195.7,9.4-195.7,6.3,51.1,9.4,102.1" pointer-events="none"/>
      </g>
    </g>
    <g id="data-points">
      <g class="cls-12">
        <g>
          <path id="point-0-0" class="cls-1" d="M-19.7,536.2c0-1.9,1.6-3.5,3.5-3.5s3.5,1.6,3.5,3.5-1.6,3.5-3.5,3.5-3.5-1.6-3.5-3.5Z"/>
          <path id="point-0-1" class="cls-1" d="M1.8,536.1c0-1.9,1.6-3.5,3.5-3.5s3.5,1.6,3.5,3.5-1.6,3.5-3.5,3.5-3.5-1.6-3.5-3.5Z"/>
          <path id="point-0-2" class="cls-1" d="M34.1,536.2c0-1.9,1.6-3.5,3.5-3.5s3.5,1.6,3.5,3.5-1.6,3.5-3.5,3.5-3.5-1.6-3.5-3.5Z"/>
          <path id="point-0-3" class="cls-1" d="M66.4,536.2c0-1.9,1.6-3.5,3.5-3.5s3.5,1.6,3.5,3.5-1.6,3.5-3.5,3.5-3.5-1.6-3.5-3.5Z"/>
          <path id="point-0-4" class="cls-1" d="M77.1,536c0-1.9,1.6-3.5,3.5-3.5s3.5,1.6,3.5,3.5-1.6,3.5-3.5,3.5-3.5-1.6-3.5-3.5Z"/>
          <path id="point-0-5" class="cls-1" d="M109.4,536.1c0-1.9,1.6-3.5,3.5-3.5s3.5,1.6,3.5,3.5-1.6,3.5-3.5,3.5-3.5-1.6-3.5-3.5Z"/>
          <path id="point-0-6" class="cls-1" d="M120.2,535.9c0-1.9,1.6-3.5,3.5-3.5s3.5,1.6,3.5,3.5-1.6,3.5-3.5,3.5-3.5-1.6-3.5-3.5Z"/>
          <path id="point-0-7" class="cls-1" d="M131,535.7c0-1.9,1.6-3.5,3.5-3.5s3.5,1.6,3.5,3.5-1.6,3.5-3.5,3.5-3.5-1.6-3.5-3.5Z"/>
          <path id="point-0-8" class="cls-1" d="M141.8,535.8c0-1.9,1.6-3.5,3.5-3.5s3.5,1.6,3.5,3.5-1.6,3.5-3.5,3.5-3.5-1.6-3.5-3.5Z"/>
          <path id="point-0-9" class="cls-1" d="M152.5,535.3c0-1.9,1.6-3.5,3.5-3.5s3.5,1.6,3.5,3.5-1.6,3.5-3.5,3.5-3.5-1.6-3.5-3.5Z"/>
          <path id="point-0-10" class="cls-1" d="M163.3,535.3c0-1.9,1.6-3.5,3.5-3.5s3.5,1.6,3.5,3.5-1.6,3.5-3.5,3.5-3.5-1.6-3.5-3.5Z"/>
          <path id="point-0-11" class="cls-1" d="M174,534.8c0-1.9,1.6-3.5,3.5-3.5s3.5,1.6,3.5,3.5-1.6,3.5-3.5,3.5-3.5-1.6-3.5-3.5Z"/>
          <path id="point-0-12" class="cls-1" d="M184.8,533c0-1.9,1.6-3.5,3.5-3.5s3.5,1.6,3.5,3.5-1.6,3.5-3.5,3.5-3.5-1.6-3.5-3.5Z"/>
          <path id="point-0-13" class="cls-1" d="M195.6,530.6c0-1.9,1.6-3.5,3.5-3.5s3.5,1.6,3.5,3.5-1.6,3.5-3.5,3.5-3.5-1.6-3.5-3.5Z"/>
          <path id="point-0-14" class="cls-1" d="M206.3,535.7c0-1.9,1.6-3.5,3.5-3.5s3.5,1.6,3.5,3.5-1.6,3.5-3.5,3.5-3.5-1.6-3.5-3.5Z"/>
          <path id="point-0-15" class="cls-1" d="M217.1,527.5c0-1.9,1.6-3.5,3.5-3.5s3.5,1.6,3.5,3.5-1.6,3.5-3.5,3.5-3.5-1.6-3.5-3.5Z"/>
          <path id="point-0-16" class="cls-1" d="M227.9,528.5c0-1.9,1.6-3.5,3.5-3.5s3.5,1.6,3.5,3.5-1.6,3.5-3.5,3.5-3.5-1.6-3.5-3.5Z"/>
          <path id="point-0-17" class="cls-1" d="M238.6,535c0-1.9,1.6-3.5,3.5-3.5s3.5,1.6,3.5,3.5-1.6,3.5-3.5,3.5-3.5-1.6-3.5-3.5Z"/>
          <path id="point-0-18" class="cls-1" d="M249.4,530.8c0-1.9,1.6-3.5,3.5-3.5s3.5,1.6,3.5,3.5-1.6,3.5-3.5,3.5-3.5-1.6-3.5-3.5Z"/>
          <path id="point-0-19" class="cls-1" d="M260.1,536.1c0-1.9,1.6-3.5,3.5-3.5s3.5,1.6,3.5,3.5-1.6,3.5-3.5,3.5-3.5-1.6-3.5-3.5Z"/>
          <path id="point-0-20" class="cls-1" d="M270.9,531.7c0-1.9,1.6-3.5,3.5-3.5s3.5,1.6,3.5,3.5-1.6,3.5-3.5,3.5-3.5-1.6-3.5-3.5Z"/>
          <path id="point-0-21" class="cls-1" d="M281.7,535c0-1.9,1.6-3.5,3.5-3.5s3.5,1.6,3.5,3.5-1.6,3.5-3.5,3.5-3.5-1.6-3.5-3.5Z"/>
          <path id="point-0-22" class="cls-1" d="M292.5,532.1c0-1.9,1.6-3.5,3.5-3.5s3.5,1.6,3.5,3.5-1.6,3.5-3.5,3.5-3.5-1.6-3.5-3.5Z"/>
          <path id="point-0-23" class="cls-1" d="M303.2,534.5c0-1.9,1.6-3.5,3.5-3.5s3.5,1.6,3.5,3.5-1.6,3.5-3.5,3.5-3.5-1.6-3.5-3.5Z"/>
          <path id="point-0-24" class="cls-1" d="M314,530.6c0-1.9,1.6-3.5,3.5-3.5s3.5,1.6,3.5,3.5-1.6,3.5-3.5,3.5-3.5-1.6-3.5-3.5Z"/>
          <path id="point-0-25" class="cls-1" d="M324.8,536.1c0-1.9,1.6-3.5,3.5-3.5s3.5,1.6,3.5,3.5-1.6,3.5-3.5,3.5-3.5-1.6-3.5-3.5Z"/>
          <path id="point-0-26" class="cls-1" d="M335.5,534.1c0-1.9,1.6-3.5,3.5-3.5s3.5,1.6,3.5,3.5-1.6,3.5-3.5,3.5-3.5-1.6-3.5-3.5Z"/>
          <path id="point-0-27" class="cls-1" d="M346.3,530.8c0-1.9,1.6-3.5,3.5-3.5s3.5,1.6,3.5,3.5-1.6,3.5-3.5,3.5-3.5-1.6-3.5-3.5Z"/>
          <path id="point-0-28" class="cls-1" d="M357.1,529.5c0-1.9,1.6-3.5,3.5-3.5s3.5,1.6,3.5,3.5-1.6,3.5-3.5,3.5-3.5-1.6-3.5-3.5Z"/>
          <path id="point-0-29" class="cls-1" d="M367.8,514c0-1.9,1.6-3.5,3.5-3.5s3.5,1.6,3.5,3.5-1.6,3.5-3.5,3.5-3.5-1.6-3.5-3.5Z"/>
          <path id="point-0-30" class="cls-1" d="M378.6,526.6c0-1.9,1.6-3.5,3.5-3.5s3.5,1.6,3.5,3.5-1.6,3.5-3.5,3.5-3.5-1.6-3.5-3.5Z"/>
          <path id="point-0-31" class="cls-1" d="M389.3,523.2c0-1.9,1.6-3.5,3.5-3.5s3.5,1.6,3.5,3.5-1.6,3.5-3.5,3.5-3.5-1.6-3.5-3.5Z"/>
          <path id="point-0-32" class="cls-1" d="M400.1,530.4c0-1.9,1.6-3.5,3.5-3.5s3.5,1.6,3.5,3.5-1.6,3.5-3.5,3.5-3.5-1.6-3.5-3.5Z"/>
          <path id="point-0-33" class="cls-1" d="M410.9,529c0-1.9,1.6-3.5,3.5-3.5s3.5,1.6,3.5,3.5-1.6,3.5-3.5,3.5-3.5-1.6-3.5-3.5Z"/>
          <path id="point-0-34" class="cls-1" d="M421.6,527.4c0-1.9,1.6-3.5,3.5-3.5s3.5,1.6,3.5,3.5-1.6,3.5-3.5,3.5-3.5-1.6-3.5-3.5Z"/>
          <path id="point-0-35" class="cls-1" d="M432.4,527.6c0-1.9,1.6-3.5,3.5-3.5s3.5,1.6,3.5,3.5-1.6,3.5-3.5,3.5-3.5-1.6-3.5-3.5Z"/>
          <path id="point-0-36" class="cls-1" d="M443.2,441.7c0-1.9,1.6-3.5,3.5-3.5s3.5,1.6,3.5,3.5h0c0,1.9-1.6,3.5-3.5,3.5s-3.5-1.6-3.5-3.5Z"/>
          <path id="point-0-37" class="cls-1" d="M453.9,430.6c0-1.9,1.6-3.5,3.5-3.5s3.5,1.6,3.5,3.5-1.6,3.5-3.5,3.5-3.5-1.6-3.5-3.5Z"/>
          <path id="point-0-38" class="cls-1" d="M464.7,519.7c0-1.9,1.6-3.5,3.5-3.5s3.5,1.6,3.5,3.5-1.6,3.5-3.5,3.5-3.5-1.6-3.5-3.5Z"/>
          <path id="point-0-39" class="cls-1" d="M475.5,505c0-1.9,1.6-3.5,3.5-3.5s3.5,1.6,3.5,3.5h0c0,1.9-1.6,3.5-3.5,3.5s-3.5-1.6-3.5-3.5h0Z"/>
          <path id="point-0-40" class="cls-1" d="M486.2,517.2c0-1.9,1.6-3.5,3.5-3.5s3.5,1.6,3.5,3.5h0c0,1.9-1.6,3.5-3.5,3.5s-3.5-1.6-3.5-3.5Z"/>
          <path id="point-0-41" class="cls-1" d="M497,516.9c0-1.9,1.6-3.5,3.5-3.5s3.5,1.6,3.5,3.5-1.6,3.5-3.5,3.5-3.5-1.6-3.5-3.5Z"/>
          <path id="point-0-42" class="cls-1" d="M507.8,394.7c0-1.9,1.6-3.5,3.5-3.5s3.5,1.6,3.5,3.5h0c0,1.9-1.6,3.5-3.5,3.5s-3.5-1.6-3.5-3.5Z"/>
          <path id="point-0-43" class="cls-1" d="M518.5,525.7c0-1.9,1.6-3.5,3.5-3.5s3.5,1.6,3.5,3.5-1.6,3.5-3.5,3.5-3.5-1.6-3.5-3.5Z"/>
          <path id="point-0-44" class="cls-1" d="M529.3,477.9c0-1.9,1.6-3.5,3.5-3.5s3.5,1.6,3.5,3.5h0c0,1.9-1.6,3.5-3.5,3.5s-3.5-1.6-3.5-3.5h0Z"/>
          <path id="point-0-45" class="cls-1" d="M540.1,448.1c0-1.9,1.6-3.5,3.5-3.5s3.5,1.6,3.5,3.5-1.6,3.5-3.5,3.5-3.5-1.6-3.5-3.5Z"/>
          <path id="point-0-46" class="cls-1" d="M550.8,368.6c0-1.9,1.6-3.5,3.5-3.5s3.5,1.6,3.5,3.5-1.6,3.5-3.5,3.5-3.5-1.6-3.5-3.5Z"/>
          <path id="point-0-47" class="cls-1" d="M561.6,356.2c0-1.9,1.6-3.5,3.5-3.5s3.5,1.6,3.5,3.5-1.6,3.5-3.5,3.5-3.5-1.6-3.5-3.5h0Z"/>
          <path id="point-0-48" class="cls-1" d="M572.4,277.9c0-1.9,1.6-3.5,3.5-3.5s3.5,1.6,3.5,3.5-1.6,3.5-3.5,3.5-3.5-1.6-3.5-3.5Z"/>
          <path id="point-0-49" class="cls-1" d="M583.1,344.1c0-1.9,1.6-3.5,3.5-3.5s3.5,1.6,3.5,3.5-1.6,3.5-3.5,3.5-3.5-1.6-3.5-3.5Z"/>
          <path id="point-0-50" class="cls-1" d="M593.9,344.5c0-1.9,1.6-3.5,3.5-3.5s3.5,1.6,3.5,3.5-1.6,3.5-3.5,3.5-3.5-1.6-3.5-3.5Z"/>
          <path id="point-0-51" class="cls-1" d="M604.6,342.2c0-1.9,1.6-3.5,3.5-3.5s3.5,1.6,3.5,3.5-1.6,3.5-3.5,3.5-3.5-1.6-3.5-3.5Z"/>
          <path id="point-0-52" class="cls-1" d="M615.4,208.6c0-1.9,1.6-3.5,3.5-3.5s3.5,1.6,3.5,3.5-1.6,3.5-3.5,3.5-3.5-1.6-3.5-3.5Z"/>
          <path id="point-0-53" class="cls-1" d="M626.2,281.3c0-1.9,1.6-3.5,3.5-3.5s3.5,1.6,3.5,3.5-1.6,3.5-3.5,3.5-3.5-1.6-3.5-3.5Z"/>
          <path id="point-0-54" class="cls-1" d="M636.9,59.7c0-1.9,1.6-3.5,3.5-3.5s3.5,1.6,3.5,3.5-1.6,3.5-3.5,3.5-3.5-1.6-3.5-3.5Z"/>
          <path id="point-0-55" class="cls-1" d="M647.7,513.3c0-1.9,1.6-3.5,3.5-3.5s3.5,1.6,3.5,3.5h0c0,1.9-1.6,3.5-3.5,3.5s-3.5-1.6-3.5-3.5Z"/>
          <path id="point-0-56" class="cls-1" d="M658.5,317.6c0-1.9,1.6-3.5,3.5-3.5s3.5,1.6,3.5,3.5-1.6,3.5-3.5,3.5-3.5-1.6-3.5-3.5Z"/>
          <path id="point-0-57" class="cls-1" d="M669.3,419.7c0-1.9,1.6-3.5,3.5-3.5s3.5,1.6,3.5,3.5-1.6,3.5-3.5,3.5-3.5-1.6-3.5-3.5Z"/>
        </g>
      </g>
    </g>
  </g>
  <g id="footer">
    <g>
      <path class="cls-6" d="M11.2,589c-.4,0-.8,0-1.2-.2-.4-.1-.7-.3-1.1-.5-.3-.2-.7-.5-1-.7s-.6-.6-.8-.9h.8v2.1h-1.3v-3h.8c.2.3.5.6.8.8.3.3.6.5.9.7.3.2.6.3,1,.4s.6.1,1,.1.6,0,.8-.1c.2,0,.4-.2.6-.4.1-.2.2-.4.2-.6s0-.4-.2-.5-.3-.3-.5-.4-.5-.3-.9-.4c-.4-.1-.8-.3-1.3-.4-.7-.2-1.3-.4-1.8-.7-.5-.3-.8-.6-1-.9-.2-.4-.3-.8-.3-1.2s.1-.9.4-1.3c.3-.4.6-.6,1-.8s.9-.3,1.4-.3,1,0,1.4.3.8.4,1.2.8c.4.3.7.8.9,1.3h-.7v-2.2h1.3v3h-.8c-.2-.4-.5-.8-.8-1.1-.3-.3-.7-.5-1-.7s-.8-.2-1.2-.2-.6,0-.9.1c-.3,0-.4.2-.6.4-.1.2-.2.4-.2.6s0,.3.1.5c0,.2.2.3.4.4.2.1.5.3.8.4.3.1.7.2,1.1.4.7.2,1.3.4,1.8.7.5.3.9.6,1.2.9.3.4.4.8.4,1.3s-.1.9-.4,1.3c-.3.4-.6.6-1.1.8-.5.2-1,.3-1.5.3Z"/>
      <path class="cls-6" d="M18.6,589c-.4,0-.9,0-1.3-.2-.4-.2-.8-.4-1.1-.6-.3-.3-.6-.6-.8-1-.2-.4-.3-.8-.3-1.3s0-.9.3-1.3c.2-.4.4-.7.8-1,.3-.3.7-.5,1.1-.6s.8-.2,1.3-.2.9,0,1.3.2c.4.2.8.4,1.1.6.3.3.6.6.8,1,.2.4.3.8.3,1.3s0,.9-.3,1.3c-.2.4-.4.7-.7,1-.3.3-.7.5-1.1.6-.4.2-.8.2-1.3.2ZM18.6,588c.4,0,.7,0,1-.3.3-.2.5-.4.7-.7.2-.3.3-.7.3-1.1s0-.8-.3-1.1c-.2-.3-.4-.6-.7-.7-.3-.2-.6-.3-1-.3s-.7,0-1,.3c-.3.2-.5.4-.7.7s-.3.7-.3,1.1,0,.8.3,1.1.4.6.7.7c.3.2.6.3,1,.3Z"/>
      <path class="cls-6" d="M22.6,583.9v-1.1h2.3v1.1h-2.3ZM25.9,589c-.3,0-.6,0-.9-.2-.3-.1-.5-.3-.7-.5s-.3-.5-.4-.9c0-.3-.1-.7-.1-1.2v-3.5h1.4v3.5c0,.2,0,.4,0,.6,0,.2.1.3.2.5,0,.1.2.2.4.3s.4.1.6.1.4,0,.6-.1c.2,0,.4-.2.7-.4.2-.2.5-.4.7-.6.2-.3.5-.5.7-.8v1.1c-.3.4-.5.7-.8.9-.3.3-.5.5-.8.7-.3.2-.5.3-.8.4-.3,0-.5.1-.8.1ZM27.4,583.9v-1.1h2.3v1.1h-2.3ZM29.9,589c-.3,0-.6,0-.8-.2s-.4-.3-.5-.5c-.1-.2-.2-.5-.2-.9v-4.6h1.4v4.5c0,.2,0,.4.1.5s.2.1.3.1.2,0,.2,0,.1,0,.2,0l.3,1c-.1,0-.3.1-.4.2-.2,0-.4,0-.6,0Z"/>
      <path class="cls-6" d="M31.6,583.9v-1.1h2.6v1.1h-2.6ZM31.6,588.9v-1.1h4.1v1.1h-4.1ZM32.9,588.5v-5.8h1.4v5.8h-1.4ZM33.9,585.9v-1.1c.3-.4.7-.8,1-1.2.4-.3.7-.6,1.1-.8.4-.2.8-.3,1.2-.3h.6v2.6h-1.2v-1.3c-.3,0-.5,0-.8.2-.3.2-.6.4-.9.7-.3.3-.6.6-.9,1Z"/>
      <path class="cls-6" d="M42,589.1c-.4,0-.9,0-1.3-.2-.4-.2-.8-.4-1.1-.7-.3-.3-.6-.6-.7-1-.2-.4-.3-.8-.3-1.3s0-.9.2-1.3c.2-.4.4-.7.7-1,.3-.3.6-.5,1-.7.4-.2.8-.2,1.2-.2s.8,0,1,.2.5.3.8.5.4.5.6.8h-.4v-1.4h1v2.1h-.6c-.1-.2-.3-.4-.5-.6s-.4-.3-.6-.4-.5-.1-.8-.1-.6,0-.8.1-.5.2-.6.4c-.2.2-.3.4-.4.7-.1.3-.2.5-.2.8s0,.8.3,1.1c.2.3.4.6.7.7s.6.3,1,.3c.4,0,.8,0,1.2-.2.3-.2.6-.4.9-.7l.6.9c-.4.3-.8.6-1.2.8s-1,.3-1.5.3Z"/>
      <path class="cls-6" d="M49.1,589c-.4,0-.8,0-1.2-.2-.4-.1-.8-.3-1.1-.6s-.6-.6-.8-1-.3-.8-.3-1.3,0-1,.3-1.4c.2-.4.5-.8.8-1,.3-.3.7-.5,1.1-.7.4-.2.8-.2,1.3-.2s1,0,1.4.2c.4.2.7.4,1,.7.2.3.3.6.3,1s-.1.7-.4,1c-.2.3-.6.5-.9.6-.4.1-.8.2-1.2.2s-1,0-1.4-.2c-.4-.1-.8-.3-1.2-.5v-.8c.5.2.9.3,1.2.4.4,0,.7.1,1.1.1.3,0,.5,0,.7-.1.2,0,.4-.2.5-.3s.2-.3.2-.5c0-.3-.1-.5-.3-.6-.2-.2-.5-.2-.9-.2s-.5,0-.8.2-.5.3-.7.4-.4.4-.5.7c-.1.3-.2.6-.2.9s0,.8.3,1.1c.2.3.5.5.8.7.3.2.7.2,1.1.2s.9,0,1.3-.2c.4-.2.7-.4,1-.6l.6.9c-.2.2-.5.4-.8.6-.3.2-.6.3-1,.4-.3,0-.7.1-1.1.1Z"/>
      <path class="cls-6" d="M58.4,584.4c-.3,0-.6,0-.8-.3-.2-.2-.3-.4-.3-.6s.1-.5.3-.6c.2-.2.5-.3.8-.3s.6,0,.8.3c.2.2.3.4.3.6s-.1.5-.3.6-.5.3-.8.3ZM58.4,589c-.3,0-.6,0-.8-.3-.2-.2-.3-.4-.3-.6s.1-.5.3-.7c.2-.2.5-.3.8-.3s.6,0,.8.3.3.4.3.7-.1.5-.3.6c-.2.2-.5.3-.8.3Z"/>
      <path class="cls-6" d="M64.8,581.1v-1.2h4.7v1.2h-4.7ZM64.8,588.9v-1.2h4.7v1.2h-4.7ZM66.4,588.2v-7.5h1.5v7.5h-1.5Z"/>
      <path class="cls-6" d="M70.3,583.9v-1.1h2.4v1.1h-2.4ZM70.3,588.9v-1.1h3.8v1.1h-3.8ZM71.7,588.9v-6.1h1.4v6.1h-1.4ZM76.7,588.9v-3.5c0-.2,0-.4,0-.6,0-.2-.1-.3-.3-.5-.1-.1-.3-.2-.4-.3s-.4-.1-.6-.1-.5,0-.7.1c-.2,0-.5.2-.7.4s-.5.4-.7.6c-.2.2-.5.5-.7.8v-1.1c.3-.4.5-.7.8-.9.3-.3.5-.5.8-.7.3-.2.5-.3.8-.4s.6-.1.9-.1.7,0,.9.2c.3.1.5.3.7.5s.3.5.4.8c.1.3.2.7.2,1.2v3.5h-1.4ZM75.6,588.9v-1.1h3.7v1.1h-3.7Z"/>
      <path class="cls-6" d="M79.2,583.9v-1.1h3.3v1h-2c0,.1-1.3.1-1.3.1ZM82.9,589l-3-5.7h1.5l2,4,1.9-4h1.2l-3,5.7h-.7ZM84.1,583.8v-1h3.2v1.1h-1.4c0-.1-1.8-.1-1.8-.1Z"/>
      <path class="cls-6" d="M91,589c-.4,0-.8,0-1.2-.2-.4-.1-.8-.3-1.1-.6-.3-.3-.6-.6-.8-1-.2-.4-.3-.8-.3-1.3s0-1,.3-1.4c.2-.4.5-.8.8-1,.3-.3.7-.5,1.1-.7.4-.2.8-.2,1.3-.2s1,0,1.4.2c.4.2.7.4,1,.7s.3.6.3,1-.1.7-.4,1c-.2.3-.6.5-.9.6-.4.1-.8.2-1.2.2s-1,0-1.4-.2c-.4-.1-.8-.3-1.2-.5v-.8c.5.2.9.3,1.2.4s.7.1,1.1.1c.3,0,.5,0,.7-.1.2,0,.4-.2.5-.3.1-.1.2-.3.2-.5,0-.3-.1-.5-.3-.6-.2-.2-.5-.2-.9-.2s-.5,0-.8.2c-.3.1-.5.3-.7.4-.2.2-.4.4-.5.7-.1.3-.2.6-.2.9s0,.8.3,1.1c.2.3.5.5.8.7.3.2.7.2,1.1.2s.9,0,1.3-.2c.4-.2.7-.4,1-.6l.6.9c-.2.2-.5.4-.8.6-.3.2-.6.3-1,.4-.3,0-.7.1-1.1.1Z"/>
      <path class="cls-6" d="M94.8,583.9v-1.1h2.4v1.1h-2.4ZM94.8,588.9v-1.1h3.8v1.1h-3.8ZM96.1,588.9v-6.1h1.4v6.1h-1.4ZM101.1,588.9v-3.5c0-.2,0-.4,0-.6,0-.2-.1-.3-.3-.5-.1-.1-.3-.2-.4-.3s-.4-.1-.6-.1-.5,0-.7.1c-.2,0-.5.2-.7.4s-.5.4-.7.6c-.2.2-.5.5-.7.8v-1.1c.3-.4.5-.7.8-.9.3-.3.5-.5.8-.7.3-.2.5-.3.8-.4s.6-.1.9-.1.7,0,.9.2c.3.1.5.3.7.5s.3.5.4.8c.1.3.2.7.2,1.2v3.5h-1.4ZM100,588.9v-1.1h3.7v1.1h-3.7Z"/>
      <path class="cls-6" d="M103.8,583.9v-1.1h4.7v1.1h-4.7ZM107.4,589c-.4,0-.8,0-1.2-.3s-.6-.5-.8-.8c-.2-.4-.3-.8-.3-1.3v-5.5h1.4v5.5c0,.3,0,.5.1.7,0,.2.2.3.4.4s.3.1.5.1.4,0,.6,0c.2,0,.4-.1.6-.2l.4,1c-.2.1-.5.2-.8.3-.3,0-.7.1-1,.1Z"/>
      <path class="cls-6" d="M112.1,589c-.4,0-.7,0-1.1-.2-.3-.1-.6-.4-.8-.7-.2-.3-.3-.6-.3-1.1,0-.4.1-.8.4-1.1.2-.3.6-.5,1-.7.4-.2.8-.2,1.2-.2s1,0,1.3.2.8.3,1.2.4v.9c-.5-.2-.9-.3-1.2-.4-.4,0-.7,0-1,0-.2,0-.5,0-.7,0-.2,0-.4.2-.5.3-.1.1-.2.3-.2.5s0,.3.2.5c.1.1.2.2.4.3s.4,0,.6,0,.5,0,.7-.1c.3,0,.6-.2.9-.4s.6-.4,1-.7v.9c-.3.3-.6.6-1,.8-.3.2-.6.4-1,.5s-.7.2-1,.2ZM115.9,589c-.3,0-.5,0-.7-.2-.2-.1-.4-.3-.5-.6-.1-.2-.2-.5-.2-.9v-2.3c0-.3,0-.5-.2-.7s-.3-.3-.6-.4c-.2,0-.5-.1-.8-.1s-.8,0-1.2.1-.8.2-1.2.4l-.3-1.1c.5-.2,1-.4,1.4-.5.5-.1,1-.2,1.4-.2s1.1,0,1.5.3c.4.2.7.5.9.8.2.4.3.8.3,1.3v2.2c0,.2,0,.4.1.5,0,0,.2.1.3.1s.1,0,.2,0c0,0,.1,0,.2,0l.3,1c0,0-.2.1-.4.2-.2,0-.4,0-.6,0Z"/>
      <path class="cls-6" d="M117.5,583.9v-1.1h2.4v1.1h-2.4ZM117.5,588.9v-1.1h4.1v1.1h-4.1ZM119.4,581.5c-.3,0-.5,0-.7-.2-.2-.2-.3-.3-.3-.6s0-.4.3-.6c.2-.2.4-.2.7-.2s.6,0,.8.2c.2.2.3.4.3.6s0,.4-.3.6c-.2.2-.5.2-.8.2ZM118.8,588.5v-5.8h1.4v5.8h-1.4Z"/>
      <path class="cls-6" d="M122.1,583.9v-1.1h2.6v1.1h-2.6ZM122.1,588.9v-1.1h4.1v1.1h-4.1ZM123.5,588.5v-5.8h1.4v5.8h-1.4ZM124.4,585.9v-1.1c.3-.4.7-.8,1-1.2.4-.3.7-.6,1.1-.8.4-.2.8-.3,1.2-.3h.6v2.6h-1.2v-1.3c-.2,0-.5,0-.8.2-.3.2-.6.4-.9.7s-.6.6-.9,1Z"/>
      <path class="cls-6" d="M132.6,589c-.4,0-.8,0-1.2-.2-.4-.1-.8-.3-1.1-.6-.3-.3-.6-.6-.8-1-.2-.4-.3-.8-.3-1.3s0-1,.3-1.4c.2-.4.5-.8.8-1,.3-.3.7-.5,1.1-.7.4-.2.8-.2,1.3-.2s1,0,1.4.2c.4.2.7.4,1,.7s.3.6.3,1-.1.7-.4,1c-.2.3-.6.5-.9.6-.4.1-.8.2-1.2.2s-1,0-1.4-.2c-.4-.1-.8-.3-1.2-.5v-.8c.5.2.9.3,1.2.4s.7.1,1.1.1c.3,0,.5,0,.7-.1.2,0,.4-.2.5-.3.1-.1.2-.3.2-.5,0-.3-.1-.5-.3-.6-.2-.2-.5-.2-.9-.2s-.5,0-.8.2c-.3.1-.5.3-.7.4-.2.2-.4.4-.5.7-.1.3-.2.6-.2.9s0,.8.3,1.1c.2.3.5.5.8.7.3.2.7.2,1.1.2s.9,0,1.3-.2c.4-.2.7-.4,1-.6l.6.9c-.2.2-.5.4-.8.6-.3.2-.6.3-1,.4-.3,0-.7.1-1.1.1Z"/>
      <path class="cls-6" d="M140.2,583.9v-1.1h2.4v1.1h-2.4ZM140.2,588.9v-1.1h3.8v1.1h-3.8ZM141.5,588.9v-6.1h1.4v6.1h-1.4ZM146.5,588.9v-3.5c0-.2,0-.4,0-.6,0-.2-.1-.3-.3-.5-.1-.1-.3-.2-.4-.3s-.4-.1-.6-.1-.5,0-.7.1c-.2,0-.5.2-.7.4s-.5.4-.7.6c-.2.2-.5.5-.7.8v-1.1c.3-.4.5-.7.8-.9.3-.3.5-.5.8-.7.3-.2.5-.3.8-.4s.6-.1.9-.1.7,0,.9.2c.3.1.5.3.7.5s.3.5.4.8c.1.3.2.7.2,1.2v3.5h-1.4ZM145.4,588.9v-1.1h3.7v1.1h-3.7Z"/>
      <path class="cls-6" d="M152,589c-.4,0-.7,0-1.1-.2-.3-.1-.6-.4-.8-.7-.2-.3-.3-.6-.3-1.1,0-.4.1-.8.4-1.1.2-.3.6-.5,1-.7.4-.2.8-.2,1.2-.2s1,0,1.3.2.8.3,1.2.4v.9c-.5-.2-.9-.3-1.2-.4-.4,0-.7,0-1,0-.2,0-.5,0-.7,0-.2,0-.4.2-.5.3-.1.1-.2.3-.2.5s0,.3.2.5c.1.1.2.2.4.3s.4,0,.6,0,.5,0,.7-.1c.3,0,.6-.2.9-.4s.6-.4,1-.7v.9c-.3.3-.6.6-1,.8-.3.2-.6.4-1,.5s-.7.2-1,.2ZM155.8,589c-.3,0-.5,0-.7-.2-.2-.1-.4-.3-.5-.6-.1-.2-.2-.5-.2-.9v-2.3c0-.3,0-.5-.2-.7s-.3-.3-.6-.4c-.2,0-.5-.1-.8-.1s-.8,0-1.2.1-.8.2-1.2.4l-.3-1.1c.5-.2,1-.4,1.4-.5.5-.1,1-.2,1.4-.2s1.1,0,1.5.3c.4.2.7.5.9.8.2.4.3.8.3,1.3v2.2c0,.2,0,.4.1.5,0,0,.2.1.3.1s.1,0,.2,0c0,0,.1,0,.2,0l.3,1c0,0-.2.1-.4.2-.2,0-.4,0-.6,0Z"/>
      <path class="cls-6" d="M157.1,583.9v-1.1h4.7v1.1h-4.7ZM160.6,589c-.4,0-.8,0-1.2-.3s-.6-.5-.8-.8c-.2-.4-.3-.8-.3-1.3v-5.5h1.4v5.5c0,.3,0,.5.1.7,0,.2.2.3.4.4s.3.1.5.1.4,0,.6,0c.2,0,.4-.1.6-.2l.4,1c-.2.1-.5.2-.8.3-.3,0-.7.1-1,.1Z"/>
      <path class="cls-6" d="M163.1,583.9v-1.1h2.4v1.1h-2.4ZM163.1,588.9v-1.1h4.1v1.1h-4.1ZM164.9,581.5c-.3,0-.5,0-.7-.2-.2-.2-.3-.3-.3-.6s0-.4.3-.6c.2-.2.4-.2.7-.2s.6,0,.8.2c.2.2.3.4.3.6s0,.4-.3.6c-.2.2-.5.2-.8.2ZM164.4,588.5v-5.8h1.4v5.8h-1.4Z"/>
      <path class="cls-6" d="M171.1,589c-.4,0-.9,0-1.3-.2-.4-.2-.8-.4-1.1-.6-.3-.3-.6-.6-.8-1-.2-.4-.3-.8-.3-1.3s0-.9.3-1.3c.2-.4.4-.7.8-1s.7-.5,1.1-.6c.4-.2.8-.2,1.3-.2s.9,0,1.3.2c.4.2.8.4,1.1.6s.6.6.8,1c.2.4.3.8.3,1.3s0,.9-.3,1.3c-.2.4-.4.7-.7,1-.3.3-.7.5-1.1.6-.4.2-.8.2-1.3.2ZM171.1,588c.4,0,.7,0,1-.3.3-.2.5-.4.7-.7.2-.3.3-.7.3-1.1s0-.8-.3-1.1c-.2-.3-.4-.6-.7-.7-.3-.2-.6-.3-1-.3s-.7,0-1,.3c-.3.2-.5.4-.7.7s-.3.7-.3,1.1,0,.8.3,1.1.4.6.7.7c.3.2.6.3,1,.3Z"/>
      <path class="cls-6" d="M175.4,583.9v-1.1h2.4v1.1h-2.4ZM175.4,588.9v-1.1h3.8v1.1h-3.8ZM176.7,588.9v-6.1h1.4v6.1h-1.4ZM181.7,588.9v-3.5c0-.2,0-.4,0-.6,0-.2-.1-.3-.3-.5-.1-.1-.3-.2-.4-.3s-.4-.1-.6-.1-.5,0-.7.1c-.2,0-.5.2-.7.4s-.5.4-.7.6c-.2.2-.5.5-.7.8v-1.1c.3-.4.5-.7.8-.9.3-.3.5-.5.8-.7.3-.2.5-.3.8-.4s.6-.1.9-.1.7,0,.9.2c.3.1.5.3.7.5s.3.5.4.8c.1.3.2.7.2,1.2v3.5h-1.4ZM180.6,588.9v-1.1h3.7v1.1h-3.7Z"/>
      <path class="cls-6" d="M187.2,589c-.4,0-.7,0-1.1-.2-.3-.1-.6-.4-.8-.7-.2-.3-.3-.6-.3-1.1,0-.4.1-.8.4-1.1.2-.3.6-.5,1-.7.4-.2.8-.2,1.2-.2s1,0,1.3.2.8.3,1.2.4v.9c-.5-.2-.9-.3-1.2-.4-.4,0-.7,0-1,0-.2,0-.5,0-.7,0-.2,0-.4.2-.5.3-.1.1-.2.3-.2.5s0,.3.2.5c.1.1.2.2.4.3s.4,0,.6,0,.5,0,.7-.1c.3,0,.6-.2.9-.4s.6-.4,1-.7v.9c-.3.3-.6.6-1,.8-.3.2-.6.4-1,.5s-.7.2-1,.2ZM191.1,589c-.3,0-.5,0-.7-.2-.2-.1-.4-.3-.5-.6-.1-.2-.2-.5-.2-.9v-2.3c0-.3,0-.5-.2-.7s-.3-.3-.6-.4c-.2,0-.5-.1-.8-.1s-.8,0-1.2.1-.8.2-1.2.4l-.3-1.1c.5-.2,1-.4,1.4-.5.5-.1,1-.2,1.4-.2s1.1,0,1.5.3c.4.2.7.5.9.8.2.4.3.8.3,1.3v2.2c0,.2,0,.4.1.5,0,0,.2.1.3.1s.1,0,.2,0c0,0,.1,0,.2,0l.3,1c0,0-.2.1-.4.2-.2,0-.4,0-.6,0Z"/>
      <path class="cls-6" d="M192.5,588.9v-1.1h4.1v1.1h-4.1ZM192.5,581.1v-1.1h2.6v1.1h-2.6ZM193.8,588.5v-8.6h1.4v8.6h-1.4Z"/>
      <path class="cls-6" d="M204.1,589c-.5,0-1-.1-1.5-.4-.5-.3-.8-.6-1.1-1.1-.3-.5-.4-1-.4-1.6s0-.9.2-1.3c.2-.4.4-.7.7-1s.6-.5,1-.7c.4-.2.8-.2,1.2-.2s.9,0,1.2.3.7.4.9.6c.3.2.5.5.7.7v1c-.2-.2-.4-.5-.7-.7-.3-.2-.5-.4-.8-.5-.3-.1-.6-.2-1-.2s-.6,0-.8.2c-.3.1-.5.2-.7.4s-.3.4-.4.7-.2.5-.2.9,0,.7.2,1c.2.3.4.5.7.7s.6.2,1,.2c.3,0,.7,0,1-.2s.6-.4.9-.6.5-.5.8-.7v1c-.2.2-.3.3-.5.5-.2.2-.4.4-.7.5-.2.2-.5.3-.8.4-.3.1-.6.2-1,.2ZM205,581.1v-1.1h2.6v1.1h-2.6ZM207.8,589c-.4,0-.8-.1-1-.4-.3-.3-.4-.7-.4-1.2v-7.4h1.4v7.3c0,.2,0,.4.1.5,0,0,.2.1.3.1s.2,0,.2,0c0,0,.1,0,.2,0l.3,1c-.1,0-.2.1-.4.2-.2,0-.4,0-.6,0Z"/>
      <path class="cls-6" d="M209.1,583.9v-1.1h2.3v1.1h-2.3ZM212.5,589c-.3,0-.6,0-.9-.2-.3-.1-.5-.3-.7-.5-.2-.2-.3-.5-.4-.9,0-.3-.1-.7-.1-1.2v-3.5h1.4v3.5c0,.2,0,.4,0,.6s.1.3.2.5c0,.1.2.2.4.3.2,0,.4.1.6.1s.4,0,.6-.1c.2,0,.4-.2.7-.4.2-.2.5-.4.7-.6.2-.3.5-.5.7-.8v1.1c-.3.4-.5.7-.8.9-.3.3-.5.5-.8.7-.3.2-.5.3-.8.4-.3,0-.5.1-.8.1ZM213.9,583.9v-1.1h2.3v1.1h-2.3ZM216.5,589c-.3,0-.6,0-.8-.2s-.4-.3-.5-.5c-.1-.2-.2-.5-.2-.9v-4.6h1.4v4.5c0,.2,0,.4.1.5s.2.1.3.1.2,0,.2,0c0,0,.1,0,.2,0l.3,1c-.1,0-.3.1-.4.2s-.4,0-.6,0Z"/>
      <path class="cls-6" d="M221.8,583.9v-1.1h2.6v1.1h-2.6ZM221.8,591.7v-1.1h4.1v1.1h-4.1ZM223.2,591.4v-8.6h1.4v8.6h-1.4ZM226.6,589c-.5,0-.9,0-1.2-.3-.3-.2-.6-.4-.9-.6s-.5-.5-.7-.7v-1c.2.2.4.5.7.7s.5.4.8.5c.3.1.6.2,1,.2s.6,0,.8-.2.5-.2.7-.4c.2-.2.3-.4.4-.7,0-.3.1-.5.1-.9s0-.7-.2-1-.4-.5-.6-.7c-.3-.2-.6-.2-.9-.2s-.7.1-1,.3-.7.5-.9.8c-.3.4-.5.8-.8,1.2v-1c.2-.5.5-.9.8-1.3.3-.4.7-.7,1.1-.9.4-.2.8-.3,1.2-.3s1,.1,1.4.4c.4.3.8.6,1,1.1.3.5.4,1,.4,1.7s0,.9-.2,1.3-.4.7-.7,1-.6.5-1,.7c-.4.2-.8.2-1.2.2Z"/>
      <path class="cls-6" d="M232.9,589c-.4,0-.7,0-1.1-.2-.3-.1-.6-.4-.8-.7-.2-.3-.3-.6-.3-1.1,0-.4.1-.8.4-1.1.2-.3.6-.5,1-.7.4-.2.8-.2,1.2-.2s1,0,1.3.2.8.3,1.2.4v.9c-.5-.2-.9-.3-1.2-.4-.4,0-.7,0-1,0-.2,0-.5,0-.7,0-.2,0-.4.2-.5.3-.1.1-.2.3-.2.5s0,.3.2.5c.1.1.2.2.4.3s.4,0,.6,0,.5,0,.7-.1c.3,0,.6-.2.9-.4s.6-.4,1-.7v.9c-.3.3-.6.6-1,.8-.3.2-.6.4-1,.5s-.7.2-1,.2ZM236.8,589c-.3,0-.5,0-.7-.2-.2-.1-.4-.3-.5-.6-.1-.2-.2-.5-.2-.9v-2.3c0-.3,0-.5-.2-.7s-.3-.3-.6-.4c-.2,0-.5-.1-.8-.1s-.8,0-1.2.1-.8.2-1.2.4l-.3-1.1c.5-.2,1-.4,1.4-.5.5-.1,1-.2,1.4-.2s1.1,0,1.5.3c.4.2.7.5.9.8.2.4.3.8.3,1.3v2.2c0,.2,0,.4.1.5,0,0,.2.1.3.1s.1,0,.2,0c0,0,.1,0,.2,0l.3,1c0,0-.2.1-.4.2-.2,0-.4,0-.6,0Z"/>
      <path class="cls-6" d="M238,583.9v-1.1h4.7v1.1h-4.7ZM241.6,589c-.4,0-.8,0-1.2-.3s-.6-.5-.8-.8c-.2-.4-.3-.8-.3-1.3v-5.5h1.4v5.5c0,.3,0,.5.1.7,0,.2.2.3.4.4s.3.1.5.1.4,0,.6,0c.2,0,.4-.1.6-.2l.4,1c-.2.1-.5.2-.8.3-.3,0-.7.1-1,.1Z"/>
      <path class="cls-6" d="M244,583.9v-1.1h2.6v1.1h-2.6ZM244,588.9v-1.1h4.1v1.1h-4.1ZM245.4,588.5v-5.8h1.4v5.8h-1.4ZM246.3,585.9v-1.1c.3-.4.7-.8,1-1.2.4-.3.7-.6,1.1-.8.4-.2.8-.3,1.2-.3h.6v2.6h-1.2v-1.3c-.2,0-.5,0-.8.2-.3.2-.6.4-.9.7s-.6.6-.9,1Z"/>
      <path class="cls-6" d="M251.2,583.9v-1.1h2.4v1.1h-2.4ZM251.2,588.9v-1.1h4.1v1.1h-4.1ZM253,581.5c-.3,0-.5,0-.7-.2-.2-.2-.3-.3-.3-.6s0-.4.3-.6c.2-.2.4-.2.7-.2s.6,0,.8.2c.2.2.3.4.3.6s0,.4-.3.6c-.2.2-.5.2-.8.2ZM252.5,588.5v-5.8h1.4v5.8h-1.4Z"/>
      <path class="cls-6" d="M255.8,583.9v-1.1h2.3v1.1h-2.3ZM255.8,588.9v-1.1h3.8v1.1h-3.8ZM257.1,588.5v-5.8h1.4v5.8h-1.4ZM261.8,588.5v-3.2c0-.3,0-.5-.1-.7,0-.2-.2-.4-.4-.5-.2-.1-.4-.2-.7-.2s-.6,0-.9.2c-.3.2-.6.4-.9.7-.3.3-.6.7-.8,1.1v-1.1c.3-.4.6-.8.9-1.2.3-.3.7-.6,1.1-.8s.8-.3,1.2-.3.6,0,.9.2c.3.1.5.3.6.5.2.2.3.5.4.8,0,.3.1.7.1,1.2v3.3h-1.4ZM260.7,588.9v-1.1h3.6v1.1h-3.6ZM266.4,588.5v-3.2c0-.2,0-.4,0-.6,0-.2-.1-.3-.2-.4,0-.1-.2-.2-.4-.3-.1,0-.3-.1-.5-.1-.3,0-.6,0-.9.2-.3.2-.6.4-.9.7-.3.3-.6.7-.8,1.1v-1.1c.3-.4.6-.8.9-1.2.3-.3.7-.6,1-.8s.8-.3,1.2-.3.6,0,.8.2c.3.1.5.3.6.5.2.2.3.5.4.8s.1.7.1,1.2v3.3h-1.4ZM265.3,588.9v-1.1h3.6v1.1h-3.6Z"/>
      <path class="cls-6" d="M273,589c-.4,0-.9,0-1.3-.2-.4-.2-.8-.4-1.1-.6-.3-.3-.6-.6-.8-1-.2-.4-.3-.8-.3-1.3s0-.9.3-1.3c.2-.4.4-.7.8-1s.7-.5,1.1-.6c.4-.2.8-.2,1.3-.2s.9,0,1.3.2c.4.2.8.4,1.1.6s.6.6.8,1c.2.4.3.8.3,1.3s0,.9-.3,1.3c-.2.4-.4.7-.7,1-.3.3-.7.5-1.1.6-.4.2-.8.2-1.3.2ZM273,588c.4,0,.7,0,1-.3.3-.2.5-.4.7-.7.2-.3.3-.7.3-1.1s0-.8-.3-1.1c-.2-.3-.4-.6-.7-.7-.3-.2-.6-.3-1-.3s-.7,0-1,.3c-.3.2-.5.4-.7.7s-.3.7-.3,1.1,0,.8.3,1.1.4.6.7.7c.3.2.6.3,1,.3Z"/>
      <path class="cls-6" d="M277.2,583.9v-1.1h2.4v1.1h-2.4ZM277.2,588.9v-1.1h4.1v1.1h-4.1ZM279.1,581.5c-.3,0-.5,0-.7-.2-.2-.2-.3-.3-.3-.6s0-.4.3-.6c.2-.2.4-.2.7-.2s.6,0,.8.2c.2.2.3.4.3.6s0,.4-.3.6c-.2.2-.5.2-.8.2ZM278.6,588.5v-5.8h1.4v5.8h-1.4Z"/>
      <path class="cls-6" d="M281.9,583.9v-1.1h2.4v1.1h-2.4ZM281.9,588.9v-1.1h3.8v1.1h-3.8ZM283.2,588.9v-6.1h1.4v6.1h-1.4ZM288.2,588.9v-3.5c0-.2,0-.4,0-.6,0-.2-.1-.3-.3-.5-.1-.1-.3-.2-.4-.3s-.4-.1-.6-.1-.5,0-.7.1c-.2,0-.5.2-.7.4s-.5.4-.7.6c-.2.2-.5.5-.7.8v-1.1c.3-.4.5-.7.8-.9.3-.3.5-.5.8-.7.3-.2.5-.3.8-.4s.6-.1.9-.1.7,0,.9.2c.3.1.5.3.7.5s.3.5.4.8c.1.3.2.7.2,1.2v3.5h-1.4ZM287.1,588.9v-1.1h3.7v1.1h-3.7Z"/>
      <path class="cls-6" d="M294.8,589c-.4,0-.8,0-1.2-.2-.4-.1-.8-.3-1.1-.6-.3-.3-.6-.6-.8-1-.2-.4-.3-.8-.3-1.3s0-1,.3-1.4c.2-.4.5-.8.8-1,.3-.3.7-.5,1.1-.7.4-.2.8-.2,1.3-.2s1,0,1.4.2c.4.2.7.4,1,.7s.3.6.3,1-.1.7-.4,1c-.2.3-.6.5-.9.6-.4.1-.8.2-1.2.2s-1,0-1.4-.2c-.4-.1-.8-.3-1.2-.5v-.8c.5.2.9.3,1.2.4s.7.1,1.1.1c.3,0,.5,0,.7-.1.2,0,.4-.2.5-.3.1-.1.2-.3.2-.5,0-.3-.1-.5-.3-.6-.2-.2-.5-.2-.9-.2s-.5,0-.8.2c-.3.1-.5.3-.7.4-.2.2-.4.4-.5.7-.1.3-.2.6-.2.9s0,.8.3,1.1c.2.3.5.5.8.7.3.2.7.2,1.1.2s.9,0,1.3-.2c.4-.2.7-.4,1-.6l.6.9c-.2.2-.5.4-.8.6-.3.2-.6.3-1,.4-.3,0-.7.1-1.1.1Z"/>
      <path class="cls-6" d="M302.4,583.9v-1.1h2.4v1.1h-2.4ZM302.4,588.9v-1.1h3.8v1.1h-3.8ZM303.7,588.9v-6.1h1.4v6.1h-1.4ZM308.7,588.9v-3.5c0-.2,0-.4,0-.6,0-.2-.1-.3-.3-.5-.1-.1-.3-.2-.4-.3s-.4-.1-.6-.1-.5,0-.7.1c-.2,0-.5.2-.7.4s-.5.4-.7.6c-.2.2-.5.5-.7.8v-1.1c.3-.4.5-.7.8-.9.3-.3.5-.5.8-.7.3-.2.5-.3.8-.4s.6-.1.9-.1.7,0,.9.2c.3.1.5.3.7.5s.3.5.4.8c.1.3.2.7.2,1.2v3.5h-1.4ZM307.6,588.9v-1.1h3.7v1.1h-3.7Z"/>
      <path class="cls-6" d="M314.2,589c-.4,0-.7,0-1.1-.2-.3-.1-.6-.4-.8-.7-.2-.3-.3-.6-.3-1.1,0-.4.1-.8.4-1.1.2-.3.6-.5,1-.7.4-.2.8-.2,1.2-.2s1,0,1.3.2.8.3,1.2.4v.9c-.5-.2-.9-.3-1.2-.4-.4,0-.7,0-1,0-.2,0-.5,0-.7,0-.2,0-.4.2-.5.3-.1.1-.2.3-.2.5s0,.3.2.5c.1.1.2.2.4.3s.4,0,.6,0,.5,0,.7-.1c.3,0,.6-.2.9-.4s.6-.4,1-.7v.9c-.3.3-.6.6-1,.8-.3.2-.6.4-1,.5s-.7.2-1,.2ZM318,589c-.3,0-.5,0-.7-.2-.2-.1-.4-.3-.5-.6-.1-.2-.2-.5-.2-.9v-2.3c0-.3,0-.5-.2-.7s-.3-.3-.6-.4c-.2,0-.5-.1-.8-.1s-.8,0-1.2.1-.8.2-1.2.4l-.3-1.1c.5-.2,1-.4,1.4-.5.5-.1,1-.2,1.4-.2s1.1,0,1.5.3c.4.2.7.5.9.8.2.4.3.8.3,1.3v2.2c0,.2,0,.4.1.5,0,0,.2.1.3.1s.1,0,.2,0c0,0,.1,0,.2,0l.3,1c0,0-.2.1-.4.2-.2,0-.4,0-.6,0Z"/>
      <path class="cls-6" d="M319.3,583.9v-1.1h4.7v1.1h-4.7ZM322.8,589c-.4,0-.8,0-1.2-.3s-.6-.5-.8-.8c-.2-.4-.3-.8-.3-1.3v-5.5h1.4v5.5c0,.3,0,.5.1.7,0,.2.2.3.4.4s.3.1.5.1.4,0,.6,0c.2,0,.4-.1.6-.2l.4,1c-.2.1-.5.2-.8.3-.3,0-.7.1-1,.1Z"/>
      <path class="cls-6" d="M324.9,583.9v-1.1h2.3v1.1h-2.3ZM328.3,589c-.3,0-.6,0-.9-.2-.3-.1-.5-.3-.7-.5-.2-.2-.3-.5-.4-.9,0-.3-.1-.7-.1-1.2v-3.5h1.4v3.5c0,.2,0,.4,0,.6s.1.3.2.5c0,.1.2.2.4.3.2,0,.4.1.6.1s.4,0,.6-.1c.2,0,.4-.2.7-.4.2-.2.5-.4.7-.6.2-.3.5-.5.7-.8v1.1c-.3.4-.5.7-.8.9-.3.3-.5.5-.8.7-.3.2-.5.3-.8.4-.3,0-.5.1-.8.1ZM329.7,583.9v-1.1h2.3v1.1h-2.3ZM332.3,589c-.3,0-.6,0-.8-.2s-.4-.3-.5-.5c-.1-.2-.2-.5-.2-.9v-4.6h1.4v4.5c0,.2,0,.4.1.5s.2.1.3.1.2,0,.2,0c0,0,.1,0,.2,0l.3,1c-.1,0-.3.1-.4.2s-.4,0-.6,0Z"/>
      <path class="cls-6" d="M333.9,583.9v-1.1h2.6v1.1h-2.6ZM333.9,588.9v-1.1h4.1v1.1h-4.1ZM335.3,588.5v-5.8h1.4v5.8h-1.4ZM336.2,585.9v-1.1c.3-.4.7-.8,1-1.2.4-.3.7-.6,1.1-.8.4-.2.8-.3,1.2-.3h.6v2.6h-1.2v-1.3c-.2,0-.5,0-.8.2-.3.2-.6.4-.9.7s-.6.6-.9,1Z"/>
      <path class="cls-6" d="M344.4,589c-.4,0-.8,0-1.2-.2-.4-.1-.8-.3-1.1-.6-.3-.3-.6-.6-.8-1-.2-.4-.3-.8-.3-1.3s0-1,.3-1.4c.2-.4.5-.8.8-1,.3-.3.7-.5,1.1-.7.4-.2.8-.2,1.3-.2s1,0,1.4.2c.4.2.7.4,1,.7s.3.6.3,1-.1.7-.4,1c-.2.3-.6.5-.9.6-.4.1-.8.2-1.2.2s-1,0-1.4-.2c-.4-.1-.8-.3-1.2-.5v-.8c.5.2.9.3,1.2.4s.7.1,1.1.1c.3,0,.5,0,.7-.1.2,0,.4-.2.5-.3.1-.1.2-.3.2-.5,0-.3-.1-.5-.3-.6-.2-.2-.5-.2-.9-.2s-.5,0-.8.2c-.3.1-.5.3-.7.4-.2.2-.4.4-.5.7-.1.3-.2.6-.2.9s0,.8.3,1.1c.2.3.5.5.8.7.3.2.7.2,1.1.2s.9,0,1.3-.2c.4-.2.7-.4,1-.6l.6.9c-.2.2-.5.4-.8.6-.3.2-.6.3-1,.4-.3,0-.7.1-1.1.1Z"/>
      <path class="cls-6" d="M347.9,588.9v-1.1h4.1v1.1h-4.1ZM347.9,581.1v-1.1h2.6v1.1h-2.6ZM349.3,588.5v-8.6h1.4v8.6h-1.4Z"/>
    </g>
  </g>
</svg>